<svg width="32" height="120" viewBox="0 0 32 120" fill="none" xmlns="http://www.w3.org/2000/svg">
<path d="M29.1579 64.8707C29.9758 62.504 30.3079 59.9968 30.1345 57.4988C29.961 55.0008 29.2855 52.5635 28.1484 50.3326C26.944 50.8331 25.6733 51.1561 24.3762 51.2914C22.8975 51.4954 21.4133 51.7107 19.9271 51.8761C20.0587 52.8998 20.8211 58.3405 21.5853 59.0305C21.4866 58.944 22.0205 59.508 25.9563 58.1487C26.3163 58.0237 26.4695 58.5943 26.1123 58.7127C25.1822 59.0413 24.2306 59.3055 23.2641 59.5033C22.5385 59.648 21.4368 59.931 20.9574 59.1827C20.5438 58.3928 20.2673 57.5385 20.1396 56.656C19.8035 55.0937 19.5384 53.517 19.3453 51.9306C16.7664 52.2092 14.1644 52.1966 11.5884 51.893C11.6239 51.9278 11.6498 51.9712 11.6635 52.019C11.6771 52.0668 11.6782 52.1173 11.6664 52.1656C11.3741 53.5277 10.9351 55.4556 10.5384 56.7716C10.469 57.156 10.3156 57.5203 10.0891 57.8385C9.70369 58.2268 8.85111 57.9175 8.42435 57.7445C8.07467 57.6064 8.22789 57.0358 8.58133 57.1758C8.84745 57.2878 9.12715 57.3643 9.41323 57.4033C9.49501 57.4118 9.60123 57.3826 9.67925 57.4033C10.0504 56.3938 10.35 55.3595 10.576 54.3079C11.1616 51.8695 11.0648 51.9194 11.2227 51.8282C10.6284 51.7307 10.0454 51.5732 9.48279 51.3582C2.15737 82.2898 9.62473 104.801 10.4472 107.129C12.6912 107.414 14.9654 107.358 17.1927 106.963C16.6334 99.1431 16.1822 82.6301 15.9951 75.0133C15.2968 69.5122 14.9868 63.9688 15.0673 58.4242C15.089 57.9692 15.7977 57.9692 15.7751 58.4242C15.6936 61.7359 15.7877 65.0497 16.0571 68.3515C17.1435 81.879 19.8629 95.2253 24.1562 108.099C26.2057 108.088 28.2426 107.778 30.2023 107.177C29.6965 105.11 26.275 72.9425 29.1579 64.8707Z" fill="#F55555"/>
<path d="M30.1967 107.187C28.237 107.787 26.2001 108.098 24.1506 108.109C17.7502 88.6837 15.3503 69.3902 15.7715 58.4335C15.794 57.9786 15.0862 57.9786 15.0636 58.4335C14.8004 63.7643 15.5966 72.2741 16.3195 77.5823C18.2108 91.4764 23.0583 108.076 23.6195 108.637C23.6928 110.141 23.7135 114.45 21.6634 116.182C21.0311 116.697 20.4579 117.28 19.9545 117.92C19.8602 118.046 19.8035 118.196 19.7909 118.352C19.7783 118.509 19.8105 118.665 19.8835 118.804C19.9566 118.943 20.0676 119.059 20.2036 119.137C20.3396 119.215 20.4951 119.253 20.6519 119.247C29.5255 118.917 29.3507 113.299 29.3507 113.299L30.7447 117.143H31.4648C32.04 112.915 30.1967 107.187 30.1967 107.187ZM17.188 106.972C14.943 107.383 12.6471 107.437 10.3853 107.132C10.3853 107.132 10.2696 113.235 7.49101 115.084C6.79009 115.53 6.14096 116.053 5.55555 116.643C5.44536 116.759 5.37038 116.904 5.33932 117.061C5.30826 117.218 5.32239 117.381 5.38008 117.53C5.43776 117.68 5.53663 117.809 5.66519 117.905C5.79376 118 5.94675 118.057 6.10639 118.069C15.136 118.776 15.6173 113.064 15.6173 113.064L16.3026 117.716L17.0856 117.678C18.1666 113.463 17.188 106.972 17.188 106.972ZM20.9574 59.1874C21.4368 59.9394 22.5385 59.6574 23.2642 59.5079C24.2306 59.31 25.1822 59.0459 26.1124 58.7174C26.4696 58.5943 26.3154 58.0246 25.9564 58.1534C25.101 58.4495 22.4859 59.2701 21.6126 59.0398C20.9095 58.8518 20.0391 52.77 19.9272 51.8808C19.7336 51.9024 19.5399 51.9203 19.3453 51.94C19.538 53.5264 19.8031 55.1032 20.1396 56.6654C20.2679 57.5462 20.5444 58.3989 20.9574 59.1874ZM8.42067 57.7567C8.84837 57.925 9.70001 58.2352 10.0854 57.8507C10.3119 57.5325 10.4653 57.1682 10.5347 56.7838C10.9361 55.4631 11.3723 53.5427 11.6627 52.1778C11.6742 52.1295 11.673 52.079 11.6594 52.0313C11.6457 51.9836 11.62 51.9401 11.5847 51.9052C11.4612 51.8868 11.3381 51.8665 11.2153 51.8441C11.0592 51.9381 11.1542 51.8808 10.5686 54.3238C10.3431 55.3755 10.0434 56.4099 9.67181 57.4193C9.59755 57.4023 9.48381 57.4315 9.40579 57.4193C9.11971 57.3803 8.84001 57.3038 8.57389 57.1918C8.22421 57.0479 8.07005 57.6185 8.42067 57.7567Z" fill="black"/>
<path d="M20.4884 39.2641C19.675 38.2717 18.5518 37.5811 17.299 37.3033C15.7379 36.9399 14.116 36.9244 12.5483 37.2582C12.211 37.4011 11.93 37.6507 11.7483 37.9688C11.2909 38.8623 11.0738 39.8594 11.1185 40.8621C11.1049 41.4016 11.1275 41.9415 11.1862 42.478C12.3052 42.1455 13.5086 42.2504 14.5533 42.7713C15.074 43.0316 19.0878 44.5516 18.5784 43.2883C18.2644 42.5099 17.1082 41.7608 16.4746 41.2334C16.9569 41.6348 20.4687 43.3682 20.1341 41.9422C19.9884 41.3208 19.1489 40.6751 18.709 40.2615C18.3917 39.8991 18.0283 39.5799 17.628 39.3121C18.2625 39.6288 20.0607 40.9467 20.7958 40.4852C21.2179 40.2201 20.7197 39.5659 20.4884 39.2641Z" fill="#FFCEB6"/>
<path d="M24.3404 27.3487C22.2019 30.1762 19.2164 34.3047 17.2988 37.3033C17.4934 37.3531 17.6861 37.4095 17.876 37.4753C19.552 34.8433 23.0253 30.0587 24.8498 27.6467C25.0783 27.344 24.5669 27.0498 24.3404 27.3487Z" fill="#6DD3A8"/>
<path d="M30.724 26.8966C29.972 24.7346 27.3457 22.692 25.0464 21.6326C23.5721 20.8866 21.9573 20.4594 20.307 20.3787C18.4124 20.6704 16.5926 21.3277 14.949 22.3141C14.8921 22.3227 14.8407 22.3526 14.8051 22.3978C12.7018 23.5718 11.0041 25.3561 9.93593 27.5151C9.80016 27.8498 9.68156 28.1911 9.58061 28.5379C6.07911 30.8089 2.19785 34.755 0.613014 38.5705C0.083794 39.8479 -0.366466 41.5446 0.440054 42.8099C0.875742 43.4214 1.5143 43.8584 2.24203 44.0432C3.68492 44.5032 5.216 44.6162 6.71079 44.3731C6.7383 44.4127 6.77509 44.445 6.81795 44.4671C7.47595 44.8102 8.14899 45.1251 8.82955 45.4315C8.50725 46.094 8.22475 46.7752 7.98355 47.4713C7.65361 48.4301 7.36503 49.497 8.04841 50.3703C9.18299 51.8207 12.2305 52.0416 14.0804 52.1046C17.532 52.1725 20.9818 51.9002 24.38 51.2915C25.2827 51.1817 26.1756 51.0019 27.0505 50.7538C27.4148 50.6965 27.7641 50.5672 28.078 50.3735C28.3919 50.1799 28.6641 49.9257 28.8788 49.6258C29.1311 49.0063 29.2279 48.3343 29.1608 47.6687C29.1477 44.86 27.5703 43.6728 27.8702 38.1494C29.3939 35.3209 31.7825 29.9262 30.724 26.8966ZM15.308 22.7822C16.182 22.2825 17.0983 21.8607 18.0463 21.5217C19.1032 21.054 20.2678 20.884 21.4143 21.0301C22.3538 21.232 23.2729 21.5196 24.16 21.8892C23.1776 23.6165 21.5508 24.884 19.6358 25.4142C17.4917 25.8927 15.1905 25.1153 15.308 22.7822ZM3.53171 43.764C2.64483 43.6863 1.80489 43.3315 1.13095 42.7497C0.237014 41.7721 0.618654 40.2117 1.02661 39.1072C2.35859 35.5155 6.12987 31.6051 9.35877 29.3904C8.88439 31.6208 8.68894 33.9015 8.77691 36.1801C7.01885 36.289 5.28325 36.6326 3.61631 37.2018C3.25723 37.3203 3.41045 37.8899 3.77329 37.7658C6.34853 36.7989 9.13214 36.5234 11.847 36.9668C10.4962 38.0713 10.4003 40.6958 10.5902 42.4188C8.45924 43.6581 5.96907 44.1326 3.53171 43.764ZM28.5677 48.088C28.6135 48.3855 28.5881 48.6897 28.4935 48.9755C28.3988 49.2613 28.2377 49.5206 28.0234 49.732C27.0909 50.39 24.0604 50.7482 23.0903 50.8676C19.4591 51.4879 15.7651 51.6578 12.0923 51.3733C10.8412 51.2238 8.77691 50.8271 8.29939 49.6559C7.92903 48.745 8.94047 46.5539 9.36629 45.6656C11.1933 46.4741 13.087 47.1226 15.026 47.6039C17.0865 48.0739 19.2335 48.3371 20.9133 47.1593C23.3103 45.4785 25.7759 41.8163 27.2413 39.2802C27.1962 44.0009 28.5978 45.0753 28.5677 48.088ZM19.7373 47.148C16.8318 48.276 10.4031 45.5829 7.61131 44.2058C8.82915 43.9517 9.99317 43.4866 11.0508 42.8315C11.3459 42.6435 11.0846 42.6125 11.1194 40.8575C11.0747 39.8548 11.2918 38.8576 11.7492 37.9642C12.1835 37.2554 12.5764 37.3795 12.7174 37.0693C12.9439 36.5683 12.3076 36.4583 11.9701 36.3869C11.1135 36.2151 10.2406 36.1382 9.36723 36.1575C9.31906 34.816 9.3665 33.4728 9.50917 32.1381C9.95379 27.8629 10.9267 26.0901 13.4572 24.039C13.8596 23.7154 14.2798 23.4144 14.7158 23.1376C14.8841 26.687 21.0862 27.9316 24.7118 22.1167C26.7079 22.9623 28.4249 24.3538 29.6656 26.1315C30.1184 26.7983 30.3694 27.5816 30.3885 28.3875C30.5943 34.1562 23.3328 45.7455 19.7373 47.148Z" fill="#6DD3A8"/>
<path d="M27.4217 14.5496C28.0026 12.0163 29.1748 9.50369 28.0026 6.82375C26.8304 4.14381 25.1563 2.30235 21.6379 3.47453C21.6379 3.47453 19.3189 -1.02901 14.3651 0.218373C13.3181 0.507253 12.3481 1.02453 11.5249 1.73301C10.7017 2.44149 10.0457 3.32357 9.60401 4.31583C8.61701 6.37631 8.35569 8.17829 9.77321 10.0799C10.4707 11.0199 11.4445 12.2617 11.0892 13.509C10.9538 13.9875 10.4227 14.4049 10.0975 14.7574C9.51847 15.3853 7.38279 17.4834 9.07479 18.0474C9.7797 18.2377 10.5225 18.2377 11.2274 18.0474C11.2274 18.0474 10.717 19.0297 12.9946 19.8785C14.2153 20.2318 15.5105 20.2367 16.7339 19.8926C16.7677 19.4282 16.8147 19.0052 16.8561 18.6809C14.4873 18.4929 12.3526 17.4298 12.1674 14.5515C12.1533 12.6588 12.4846 10.7793 13.145 9.00549C13.6206 7.55695 14.4112 5.96459 15.9781 5.48049C16.8609 5.23732 17.7914 5.2251 18.6803 5.44501C19.5691 5.66493 20.3866 6.10959 21.0541 6.73633C22.0976 7.84841 22.7185 9.29085 22.8091 10.8131C22.8195 10.9504 22.9163 11.5726 22.8091 11.6826C23.4793 11.0143 24.9843 11.0152 24.9843 12.5211C24.9843 14.027 22.8994 14.5524 22.8994 14.5524C22.8854 14.8148 22.8493 15.0755 22.7913 15.3317C22.764 16.6646 22.6907 18.742 22.4914 20.2197C24.7333 20.5788 27.2976 20.6784 28.3344 19.5551C30.3479 17.3752 26.8408 17.0839 27.4217 14.5496Z" fill="#FF8684"/>
<path d="M22.8131 11.6799C22.9221 11.5699 22.8253 10.9476 22.8131 10.8104C22.7229 9.28801 22.1019 7.84544 21.0581 6.73359C20.3905 6.10684 19.5731 5.66218 18.6842 5.44227C17.7953 5.22235 16.8649 5.23457 15.9821 5.47775C14.4142 5.96185 13.6246 7.55421 13.1489 9.00275C12.4886 10.7766 12.1573 12.656 12.1713 14.5487C12.3593 17.427 14.4912 18.4967 16.86 18.6782C16.7143 19.8306 16.3722 23.1667 17.4522 23.5718C18.3282 23.7431 19.2349 23.6608 20.0657 23.3344C20.8965 23.008 21.6168 22.4512 22.1419 21.7294C22.6692 20.6747 22.7717 16.5143 22.7999 15.328C22.8573 15.0717 22.8935 14.811 22.908 14.5487C22.908 14.5487 24.9929 14.0252 24.9929 12.5174C24.9929 11.0096 23.4861 11.0115 22.8131 11.6799Z" fill="#FFCEB6"/>
<path d="M19.5493 11.1572C19.5493 11.2846 19.5999 11.4068 19.69 11.4969C19.7801 11.587 19.9023 11.6376 20.0297 11.6376C20.1571 11.6376 20.2792 11.587 20.3693 11.4969C20.4594 11.4068 20.51 11.2846 20.51 11.1572C20.51 11.0298 20.4594 10.9077 20.3693 10.8176C20.2792 10.7275 20.1571 10.6769 20.0297 10.6769C19.9023 10.6769 19.7801 10.7275 19.69 10.8176C19.5999 10.9077 19.5493 11.0298 19.5493 11.1572Z" fill="black"/>
<path d="M15.3211 10.3892C15.3211 10.2942 15.293 10.2014 15.2402 10.1224C15.1874 10.0434 15.1124 9.98183 15.0246 9.94547C14.9368 9.90912 14.8403 9.8996 14.7471 9.91814C14.6539 9.93667 14.5683 9.98242 14.5011 10.0496C14.434 10.1168 14.3882 10.2024 14.3697 10.2955C14.3511 10.3887 14.3607 10.4853 14.397 10.5731C14.4334 10.6608 14.4949 10.7359 14.5739 10.7886C14.6529 10.8414 14.7458 10.8696 14.8408 10.8696C14.9682 10.8696 15.0904 10.819 15.1804 10.7289C15.2705 10.6388 15.3211 10.5166 15.3211 10.3892ZM18.6224 13.3145C18.4377 13.7141 18.1046 14.026 17.6937 14.184C17.3048 14.3072 16.889 14.3174 16.4946 14.2134C16.1002 14.1094 15.7434 13.8955 15.4659 13.5965C15.3924 13.4895 15.3436 13.3675 15.323 13.2393C15.2713 12.8953 14.7186 12.9028 14.7383 13.2713C14.8135 14.6531 17.3957 15.5574 18.7127 14.2009C19.6959 13.1876 18.7625 12.9893 18.6224 13.3145ZM21.5336 9.56769C21.3525 9.30809 21.1143 9.09351 20.8373 8.94048C20.5602 8.78745 20.2517 8.70006 19.9356 8.68503C19.8573 8.68503 19.7822 8.71612 19.7269 8.77148C19.6715 8.82683 19.6404 8.9019 19.6404 8.98019C19.6404 9.05847 19.6715 9.13354 19.7269 9.18889C19.7822 9.24425 19.8573 9.27535 19.9356 9.27535C19.9856 9.27461 20.0355 9.27776 20.0851 9.28475H20.0634C20.8521 9.42011 20.9771 9.94274 21.2018 10.0029C21.2583 10.0175 21.3179 10.015 21.3731 9.99588C21.4283 9.97675 21.4766 9.94178 21.512 9.89533C21.5474 9.84889 21.5683 9.79304 21.5722 9.73476C21.576 9.67649 21.5626 9.61837 21.5336 9.56769ZM15.4866 8.46695C15.5247 8.48257 15.5657 8.49006 15.6068 8.48895C15.648 8.48783 15.6885 8.47813 15.7257 8.46048C15.763 8.44282 15.7961 8.41759 15.823 8.3864C15.8499 8.35521 15.87 8.31874 15.8821 8.27934C15.8941 8.23993 15.8977 8.19845 15.8928 8.15755C15.8879 8.11664 15.8745 8.07722 15.8534 8.04179C15.8324 8.00637 15.8042 7.97572 15.7707 7.95181C15.7371 7.9279 15.6989 7.91126 15.6586 7.90295C15.3473 7.84255 15.0263 7.85436 14.7202 7.93747C14.4142 8.02058 14.1313 8.17277 13.8933 8.38235C13.8393 8.43788 13.8093 8.51239 13.8098 8.58982C13.8103 8.66724 13.8412 8.74139 13.8958 8.79626C13.9504 8.85113 14.0244 8.88234 14.1018 8.88316C14.1793 8.88398 14.2539 8.85435 14.3097 8.80065C14.3307 8.77917 14.3533 8.75937 14.3774 8.74143C14.5348 8.62443 14.714 8.53991 14.9044 8.49279C15.0948 8.44567 15.2927 8.43688 15.4866 8.46695Z" fill="black"/>
</svg>
