<svg width="38" height="141" viewBox="0 0 38 141" fill="none" xmlns="http://www.w3.org/2000/svg">
<path d="M6.79756 75.2626C6.35401 83.1724 4.20083 123.547 6.1768 129.187C6.1768 129.187 10.7219 130.697 14.6257 129.187L17.9179 78.0208C17.5457 78.2295 17.152 78.3899 16.7451 78.4988C14.1196 78.501 9.19659 76.5391 6.79756 75.2626ZM30.8422 78.0463C27.5444 78.5507 24.2084 78.6993 20.8834 78.49C20.3863 78.2424 19.9307 77.907 19.5354 77.4974L22.8604 129.179C26.7653 130.688 31.3103 129.179 31.3103 129.179C33.1122 124.038 31.4794 89.9897 30.8422 78.0463Z" fill="#59679C"/>
<path d="M19.4575 39.6845L22.7877 27.5349C20.8215 28.3541 18.6425 28.3415 16.6846 27.4994C17.6618 31.0262 18.7323 36.0834 19.4575 39.6845Z" fill="#E59E70"/>
<path d="M21.9664 50.3268C22.8958 49.6197 23.7394 48.7888 24.4771 47.8536C24.3509 46.2959 24.0226 44.7651 23.5019 43.3065C23.2479 42.6322 22.4581 42.2796 21.823 42.0345C19.9862 41.4034 18.0327 41.2806 16.1409 41.6774C13.0683 42.2372 10.1632 43.582 7.66643 45.6C7.61781 45.6327 7.56175 45.6499 7.50457 45.6499C7.44738 45.6499 7.39134 45.6327 7.34273 45.6C6.02848 44.5842 3.5434 42.2729 4.2246 40.6781C4.32085 40.4311 4.48107 40.2196 4.68592 40.069C4.89078 39.9185 5.1315 39.8354 5.37903 39.8297C4.80642 38.5975 5.6802 37.2212 7.22902 37.7524C7.19937 37.5861 7.21022 37.4143 7.26051 37.2538C7.3108 37.0934 7.39879 36.9499 7.51584 36.8375C8.19806 36.1377 9.31154 36.69 9.98044 37.1391C11.8151 38.3691 12.4993 40.3188 13.4007 41.6785C15.2132 41.031 17.1155 40.7281 19.0234 40.7835C18.3852 37.5451 16.5209 28.6394 15.4781 25.7004C13.7713 26.1234 12.1182 26.7692 10.5551 27.6235C11.4063 30.9629 15.1145 36.8741 17.0218 39.6445C17.2697 40.0027 16.7145 40.3476 16.4687 39.9938C14.5603 37.2212 10.8522 31.2756 9.97839 27.9629C8.0897 29.0614 6.41902 30.5514 5.06149 32.3481C0.833985 38.0852 1.45167 49.3675 6.85718 53.0074C7.30585 52.9641 15.0325 55.6635 21.9664 50.3268Z" fill="#E59E70"/>
<path d="M35.1425 32.2394C35.0902 32.1825 35.0588 32.107 35.0539 32.0269C35.049 31.9468 35.071 31.8675 35.1159 31.8036C33.5849 29.6164 31.5343 27.9203 29.1828 26.896C28.6706 30.2664 24.3827 37.0405 22.4938 39.782C22.25 40.1358 21.6938 39.7898 21.9406 39.4316C23.6626 36.9318 28.2281 29.7662 28.559 26.6232C27.0554 26.0079 25.4927 25.5779 23.9002 25.3412C23.9041 25.7269 23.8519 26.1109 23.7456 26.479L19.8069 40.8456C21.1386 41.002 23.301 41.5632 24.0006 42.8075C25.4301 42.4065 26.9401 42.5059 28.3142 43.0914C28.8269 38.1349 29.5819 33.2112 30.5759 28.3411C30.662 27.9042 31.2797 28.0905 31.1906 28.5252C30.1746 33.5152 29.4134 38.562 28.9103 43.6426C28.8499 44.9469 28.8427 44.9069 28.6799 47.9579C28.678 48.0493 28.6436 48.1363 28.5839 48.2008C28.5241 48.2653 28.4436 48.3023 28.3592 48.304H24.9553C23.0633 50.6367 20.6245 52.3729 17.8965 53.329C22.1035 55.8818 26.9358 56.9663 31.7335 56.4344C39.705 55.3386 37.5948 35.1407 35.1425 32.2394Z" fill="#E59E70"/>
<path d="M19.7404 55.1135C19.7404 60.0543 19.681 71.1059 19.3552 76.2963C19.3276 76.7399 18.6873 76.7399 18.715 76.2963C19.0346 71.2013 19.1022 57.4425 19.1002 54.8029C18.3978 54.4589 17.7193 54.0604 17.0699 53.6107C14.0424 54.475 10.8725 54.5781 7.80256 53.9124C7.40102 56.5297 4.81555 73.5913 5.46909 74.3876C6.18614 75.2637 13.3853 78.5055 16.7452 78.4911C17.1521 78.3822 17.5458 78.2217 17.9181 78.0131C18.3611 77.78 18.7448 77.4331 19.0356 77.0027C19.5705 77.6052 20.1935 78.1081 20.8795 78.4911C21.5617 78.7129 31.0974 78.6807 32.6749 77.4031C34.1448 76.2086 31.9681 59.6717 31.6229 57.1286C27.5685 57.5526 23.4809 56.8594 19.7404 55.1135Z" fill="#E59E70"/>
<path d="M23.6328 0.845673C23.6062 3.00055 22.1987 4.70072 20.5454 5.88518C21.818 6.2696 22.9558 7.05614 23.8134 8.14427C24.671 9.23239 25.2094 10.5727 25.3599 11.9938C25.4019 12.3387 25.4162 12.6847 25.4367 13.0308C25.4746 13.318 25.4618 13.6104 25.3988 13.8925C26.0209 13.6946 26.5817 13.3179 27.0217 12.8023C27.4616 12.2867 27.7642 11.6516 27.8972 10.9646C28.1953 9.0138 27.8183 3.04269 23.6328 0.845673Z" fill="#E59E70"/>
<path d="M22.9928 0.821243C22.9919 0.777192 22.9993 0.733409 23.0146 0.692591C23.03 0.651773 23.0529 0.614785 23.0819 0.583907C21.4926 -0.0146021 19.7871 -0.156002 18.1322 0.173558C9.28999 1.59979 9.86568 11.538 12.7246 14.6167C12.6601 14.0499 12.78 12.5904 12.8076 11.7331C12.7922 10.7302 12.9742 9.73513 13.3413 8.81414C14.3657 6.5661 17.1017 5.37609 19.5837 5.68441C19.7261 5.60567 19.8644 5.51694 20.0006 5.42711C21.4952 4.43673 22.9753 2.84193 22.9928 0.821243Z" fill="#E59E70"/>
<path d="M22.9874 22.8347C20.8254 23.5987 18.4964 23.6084 16.3291 22.8624C16.212 23.7408 16.2027 24.6321 16.3014 25.5131C16.5001 26.8361 17.0185 27.058 18.1166 27.2875C19.4421 27.5648 21.6916 27.526 22.7784 26.7552C22.931 26.6296 23.0532 26.4658 23.1343 26.2779C23.2155 26.0899 23.2533 25.8834 23.2445 25.6761C23.2572 24.7215 23.1709 23.7684 22.9874 22.8347ZM24.4747 13.9102C24.5341 13.8636 24.6683 13.7505 24.7452 13.6884C24.7673 13.6687 24.7867 13.6455 24.8025 13.6196C24.8126 13.5642 24.8163 13.5076 24.8138 13.4511C24.8343 12.0858 24.5314 10.7376 23.9339 9.53503C23.2791 8.29334 22.2609 7.32322 21.0401 6.77794C19.98 6.33089 18.8267 6.20824 17.7065 6.42342C16.5863 6.63859 15.5424 7.18329 14.6891 7.99789C13.5531 9.19455 13.4896 10.45 13.4424 12.1247C13.3615 12.9784 13.3491 13.8382 13.4056 14.6943C13.4363 14.8174 13.4291 14.8052 13.7129 14.9161C17.1895 16.3523 21.3546 16.3801 24.4747 13.9102ZM11.4788 39.7111C11.1579 39.2006 10.7824 38.7331 10.3602 38.3181C9.7886 37.7004 9.0425 37.3076 8.24078 37.2024C7.81055 37.2523 7.68251 37.7314 8.23156 38.2882C8.38112 38.3991 8.6075 38.5776 8.69457 38.6519C8.99265 38.9092 8.61056 39.3728 8.30633 39.1976C8.16268 39.1127 8.02774 39.0116 7.90377 38.8959C7.21642 38.4212 6.1972 37.9721 5.88067 38.785C5.69424 39.2652 6.05071 39.7732 6.36723 40.127C6.76442 40.3722 7.12187 40.6861 7.42539 41.0563C7.65997 41.3425 7.35778 41.816 7.03613 41.602C6.67168 41.3556 6.33333 41.0666 6.02714 40.7403C5.96158 40.6704 5.979 40.6648 5.78949 40.5839C5.67409 40.5187 5.5447 40.488 5.41469 40.495C5.28468 40.502 5.15876 40.5465 5.04992 40.6238C3.89957 41.592 6.35084 43.9509 7.51348 44.8748C9.13058 43.6259 10.8997 42.6256 12.7705 41.9025C12.625 41.6497 11.7666 40.1868 11.4788 39.7111ZM24.2371 43.4596C24.6804 44.8001 24.9687 46.1948 25.0955 47.6119H28.06L28.2648 43.8411C27.0015 43.2213 25.5806 43.0867 24.2371 43.4596Z" fill="#FCAFB7"/>
<path d="M15.3429 12.7945C15.2445 12.7947 15.1484 12.8265 15.0666 12.8859C14.9849 12.9453 14.9212 13.0295 14.8837 13.128C14.8462 13.2265 14.8365 13.3349 14.8558 13.4394C14.8751 13.5438 14.9226 13.6398 14.9923 13.715C15.062 13.7903 15.1507 13.8415 15.2472 13.8622C15.3438 13.883 15.4438 13.8722 15.5347 13.8314C15.6256 13.7906 15.7033 13.7215 15.758 13.6329C15.8126 13.5442 15.8418 13.4401 15.8418 13.3335C15.8415 13.1905 15.7888 13.0534 15.6953 12.9523C15.6018 12.8513 15.4751 12.7945 15.3429 12.7945ZM22.2174 12.6858C22.1187 12.6856 22.0221 12.7171 21.9399 12.7763C21.8578 12.8355 21.7937 12.9198 21.7558 13.0185C21.7178 13.1172 21.7078 13.2258 21.727 13.3306C21.7461 13.4355 21.7935 13.5318 21.8632 13.6075C21.933 13.6831 22.0218 13.7347 22.1186 13.7556C22.2154 13.7765 22.3158 13.7659 22.407 13.725C22.4982 13.6842 22.5762 13.615 22.6311 13.5261C22.6859 13.4373 22.7152 13.3328 22.7152 13.2259C22.7153 13.1551 22.7026 13.0849 22.6776 13.0193C22.6526 12.9538 22.616 12.8943 22.5698 12.8441C22.5235 12.7939 22.4686 12.7541 22.4081 12.727C22.3477 12.6998 22.2828 12.6858 22.2174 12.6858ZM21.7779 10.8271C22.2901 10.6308 22.6087 10.8127 22.7521 11.1742C22.7964 11.2504 22.8664 11.305 22.9473 11.3264C23.0281 11.3478 23.1135 11.3343 23.1853 11.2888C23.2571 11.2433 23.3098 11.1693 23.3322 11.0825C23.3545 10.9958 23.3449 10.903 23.3052 10.8238C22.874 9.71471 21.192 9.94761 21.3846 10.5853C21.408 10.6732 21.4623 10.7477 21.5358 10.7929C21.6093 10.8381 21.6962 10.8504 21.7779 10.8271ZM16.062 10.4079C15.8921 10.3676 15.7165 10.3644 15.5455 10.3986C15.3745 10.4328 15.2114 10.5036 15.066 10.6069C14.9206 10.7102 14.7957 10.8439 14.6987 11.0002C14.6016 11.1564 14.5344 11.3321 14.5009 11.5169C14.4879 11.6015 14.5043 11.6883 14.5469 11.7606C14.5895 11.8329 14.6554 11.8855 14.7317 11.9084C14.808 11.9313 14.8895 11.9227 14.9604 11.8844C15.0312 11.8461 15.0865 11.7808 15.1155 11.701C15.1417 11.5099 15.2359 11.3374 15.3779 11.2203C15.5198 11.1033 15.6985 11.0509 15.8756 11.0744C15.9163 11.0885 15.9591 11.0937 16.0017 11.0897C16.0442 11.0856 16.0856 11.0724 16.1233 11.0508C16.1611 11.0292 16.1945 10.9997 16.2215 10.9639C16.2486 10.9282 16.2688 10.8869 16.2809 10.8426C16.2931 10.7983 16.2969 10.7518 16.2923 10.7058C16.2876 10.6599 16.2745 10.6154 16.2537 10.575C16.2329 10.5346 16.2049 10.4991 16.1713 10.4706C16.1377 10.4421 16.1032 10.42 16.062 10.4079Z" fill="black"/>
<path d="M35.5953 31.7492C35.3156 31.4165 34.8639 31.9111 35.1425 32.2394C37.7034 35.286 39.6005 55.3486 31.7365 56.4388C26.9389 56.9709 22.1065 55.8864 17.8996 53.3335C20.628 52.3783 23.0671 50.642 24.9584 48.3084H28.3623C28.4467 48.3067 28.5272 48.2697 28.5869 48.2052C28.6467 48.1407 28.6811 48.0537 28.6829 47.9624C28.9482 42.9861 28.9513 39.9528 31.1936 28.5297C31.2797 28.0949 30.662 27.9086 30.579 28.3456C29.5857 33.2158 28.8307 38.1394 28.3172 43.0959C26.9433 42.5098 25.4331 42.4104 24.0037 42.8119C23.3061 41.5687 21.1447 41.0064 19.81 40.85C24.0723 25.3045 23.8982 26.3215 23.9074 25.3456C23.8931 24.7018 23.837 24.0599 23.7394 23.4247C24.6179 23.432 25.4863 23.6271 26.2949 23.9988C27.1036 24.3705 27.8364 24.9115 28.4514 25.5907C29.6632 27.709 23.3358 37.4209 21.9478 39.436C21.7009 39.7942 22.2551 40.1414 22.5009 39.7865C24.3939 37.0383 28.6696 30.2764 29.19 26.9005C29.2683 26.5733 29.2764 26.231 29.2135 25.9C29.1507 25.5689 29.0186 25.2578 28.8274 24.9907C27.4323 23.5303 25.5662 22.7166 23.6257 22.7227C23.6155 22.665 23.6073 22.6051 23.596 22.5475C24.4544 22.0963 25.2364 21.4915 25.909 20.7586C26.7705 19.7992 26.7582 19.2835 26.6445 18.7146C26.3167 17.0887 25.8506 15.4851 25.405 13.8925C25.4681 13.6104 25.4809 13.318 25.4429 13.0307C25.4224 12.6847 25.4091 12.3387 25.3661 11.9938C25.2156 10.5727 24.6772 9.23237 23.8196 8.14424C22.962 7.05612 21.8242 6.26958 20.5516 5.88515C22.2633 4.65855 23.598 3.03712 23.639 0.825685C23.6344 0.737157 23.5986 0.653904 23.5391 0.593002C23.4796 0.5321 23.4008 0.498169 23.3189 0.498169C23.237 0.498169 23.1582 0.5321 23.0987 0.593002C23.0392 0.653904 23.0034 0.737157 22.9988 0.825685C22.9834 2.84637 21.5022 4.44118 20.0066 5.43488C19.871 5.52688 19.7319 5.61273 19.5897 5.69218C17.8284 5.46054 16.0526 5.97735 14.636 7.13394C13.1896 8.36498 12.8761 9.81118 12.8136 11.7398C12.7098 12.7831 12.6968 13.8347 12.7747 14.8806C12.2425 16.3261 12.0869 17.902 12.325 19.4366C12.6743 21.2321 14.1054 22.1049 15.7115 22.6695C15.7003 22.7604 15.6869 22.8513 15.6777 22.9423C13.9596 22.8863 12.272 23.4418 10.8735 24.5238C9.84916 25.3511 9.43941 25.991 9.98437 27.9696C10.9544 31.4498 14.5387 37.1902 16.4747 40.0005C16.7185 40.3543 17.2747 40.0094 17.0278 39.6512C15.3387 37.198 10.4279 29.5588 10.389 26.5145C10.3686 26.2418 10.4308 25.9692 10.5662 25.7382C11.9349 24.355 13.7453 23.5998 15.6173 23.631C15.6019 23.8805 15.5968 24.1301 15.5958 24.3774C15.5439 24.313 15.4719 24.2716 15.3936 24.2611C15.3152 24.2506 15.2361 24.2717 15.1712 24.3205C15.1064 24.3692 15.0605 24.4422 15.0422 24.5253C15.024 24.6085 15.0347 24.696 15.0723 24.7711C16.2227 26.8428 18.5695 38.4722 19.0294 40.7868C17.1215 40.7317 15.2192 41.0345 13.4067 41.6818C12.2953 39.9284 11.7227 38.307 9.98642 37.1425C9.31752 36.6933 8.20405 36.1444 7.52183 36.8408C7.40462 36.9531 7.31651 37.0966 7.26621 37.2571C7.21591 37.4176 7.20516 37.5895 7.23502 37.7558C5.69849 37.2301 4.80217 38.5843 5.38503 39.833C5.13749 39.8387 4.89677 39.9219 4.69192 40.0724C4.48706 40.223 4.32683 40.4345 4.23058 40.6815C3.54836 42.2729 6.057 44.6042 7.34871 45.6034C7.39732 45.636 7.45338 45.6533 7.51057 45.6533C7.56775 45.6533 7.62379 45.636 7.67241 45.6034C10.169 43.585 13.0742 42.2402 16.1469 41.6807C18.0387 41.284 19.9922 41.4068 21.829 42.0378C22.4942 42.2134 23.0815 42.6361 23.4884 43.2323C24.0084 44.7199 24.3429 46.2759 24.4831 47.8592C22.5217 50.2583 19.9676 52.0003 17.1221 52.8799C13.8083 53.9022 10.3029 53.9516 6.9656 53.0229C6.56713 52.9276 6.39094 53.593 6.79556 53.6884C10.1754 54.5847 13.708 54.558 17.076 53.6107C17.7254 54.0604 18.4039 54.4589 19.1062 54.8029C19.1062 58.4794 19.0417 71.1714 18.7211 76.2963C18.6934 76.7399 19.3357 76.7399 19.3613 76.2963C19.6881 71.1115 19.7465 60.0365 19.7465 55.1135C23.0704 56.6592 26.6699 57.3865 30.285 57.2428C31.719 57.3118 33.1365 56.8887 34.3353 56.034C39.9672 51.4525 38.0424 34.6361 35.5953 31.7492ZM7.51363 44.8748C6.34689 43.9443 3.89972 41.5942 5.05007 40.6238C5.15903 40.5468 5.28492 40.5026 5.41487 40.4955C5.54482 40.4885 5.67415 40.519 5.78964 40.5839C5.97915 40.6648 5.96276 40.6704 6.02729 40.7402C6.33348 41.0666 6.67183 41.3556 7.03628 41.602C7.35793 41.816 7.66012 41.3425 7.42554 41.0563C7.12202 40.6861 6.76457 40.3722 6.36738 40.1269C6.05086 39.7732 5.69439 39.2652 5.88082 38.785C6.19837 37.9743 7.21248 38.4212 7.90392 38.8959C8.02771 39.0118 8.16267 39.113 8.30648 39.1976C8.61379 39.3728 8.9928 38.9092 8.69472 38.6519C8.54419 38.5251 8.38977 38.4038 8.23171 38.2881C7.67856 37.7248 7.81582 37.2523 8.24093 37.2024C9.0426 37.3078 9.78865 37.7005 10.3603 38.3181C10.6943 38.654 11.0046 39.0165 11.2884 39.4027C11.2884 39.4027 12.62 41.6497 12.7706 41.9014C10.8998 42.6248 9.13067 43.6255 7.51363 44.8748ZM14.6841 15.2732C14.2934 15.1496 13.9081 15.0064 13.5297 14.844C13.4405 14.8052 13.4272 14.8152 13.3986 14.6943C13.3418 13.8382 13.3541 12.9784 13.4354 12.1246C13.4111 11.2233 13.525 10.3239 13.7724 9.46294C15.018 5.8907 21.3465 4.67407 23.932 9.5328C24.5109 10.6856 24.8111 11.9781 24.8047 13.2903C24.8047 13.5021 24.8447 13.6074 24.7433 13.6862C21.7624 16.1427 18.172 16.3801 14.6841 15.2732ZM21.7163 17.4148C21.5687 18.0688 21.305 18.6854 20.9398 19.2303C20.8161 19.4206 20.6429 19.5667 20.4423 19.65C20.2416 19.7334 20.0226 19.7502 19.8131 19.6983C19.3549 19.6335 18.9137 19.4686 18.5161 19.2137C18.1185 18.9589 17.7729 18.6193 17.5 18.2155C18.9483 18.4118 20.4165 18.1335 21.7163 17.4148ZM16.2964 25.5108C16.1976 24.6298 16.207 23.7386 16.3241 22.8602C18.4915 23.6061 20.8204 23.5964 22.9824 22.8325C23.2111 23.89 23.2803 24.9806 23.1873 26.062C23.1642 26.2015 23.1155 26.3345 23.0441 26.4532C22.9726 26.5719 22.8799 26.6738 22.7714 26.753C21.6753 27.5293 19.4177 27.5581 18.1096 27.2853C17.0053 27.0557 16.4962 26.8306 16.2964 25.5108ZM16.6826 27.4971C18.6406 28.3388 20.8195 28.3514 22.7857 27.5326C22.7857 27.5326 19.5078 39.5003 19.4555 39.6822C18.7293 36.0723 17.6691 31.0549 16.6826 27.4971ZM24.2352 43.4574C25.5778 43.0844 26.9977 43.2178 28.2609 43.8356L28.056 47.6063H25.0977C24.9694 46.1911 24.6783 44.7961 24.2352 43.4574ZM6.47596 132.106C1.5939 133.496 0 140.4 0 140.4C0 140.4 10.9606 139.537 12.9519 137.38C14.9433 135.223 11.358 130.715 6.47596 132.106ZM30.3496 132.106C25.4675 130.715 21.8812 135.222 23.8736 137.38C25.866 139.538 36.8265 140.4 36.8265 140.4C36.8265 140.4 35.2326 133.496 30.3496 132.106Z" fill="black"/>
</svg>
