<svg width="41" height="119" viewBox="0 0 41 119" fill="none" xmlns="http://www.w3.org/2000/svg">
<path d="M21 28L27 24L31 10L23.5 3.5L16.5 5L11 17.5L21 28Z" fill="#FFCEB6"/>
<path d="M19 39V34C19.6667 33 21.7 31.2 24.5 32C27.3 32.8 28.3333 37.3334 28.5 39.5L21 44.5L19 39Z" fill="#FFCEB6"/>
<path d="M39.7584 43.559C39.0012 39.7609 37.9705 36.0225 36.6743 32.373C36.5474 32.0205 35.9787 32.1719 36.1047 32.5272C37.619 36.7948 40.0188 44.8656 39.6494 49.3654C39.5403 50.4888 39.17 51.5712 38.5681 52.526C37.9662 53.4808 37.1493 54.2816 36.1827 54.8644C34.9941 55.5947 33.6913 56.1203 32.3287 56.4192C32.2135 56.4539 32.096 56.4806 31.9771 56.4991C31.6011 56.5564 31.7619 57.1251 32.1341 57.0678C33.8601 56.7634 35.4973 56.0806 36.9281 55.0684C37.6848 57.8959 36.8341 60.4997 36.0351 61.2479C35.0537 62.1616 31.2947 62.7294 29.9636 62.9146C24.2029 63.6818 18.3746 63.8041 12.5868 63.2793C11.0005 63.1741 9.44448 62.794 7.98832 62.156C7.57331 61.8707 7.22431 61.4997 6.96486 61.068C6.70541 60.6363 6.54155 60.1541 6.48433 59.6537C5.91281 56.7397 7.1301 52.2728 8.17632 49.5017C12.6761 49.5073 18.1713 46.8274 21.6127 44.1803C21.9611 44.0564 22.2939 43.8924 22.6044 43.6915C23.459 43.2168 24.2713 42.6696 25.0324 42.056L28.5847 41.6621C28.6623 41.6607 28.7364 41.6292 28.7915 41.5744C28.8465 41.5195 28.8781 41.4455 28.8798 41.3679C28.815 39.9579 28.3384 29.4365 28.3158 28.9185C28.3146 28.8407 28.2831 28.7664 28.228 28.7115C28.1729 28.6565 28.0985 28.6253 28.0207 28.6243L20.7178 28.8123C20.6398 28.8133 20.5653 28.8447 20.5102 28.8998C20.455 28.955 20.4236 29.0295 20.4226 29.1075C20.4602 30.6115 20.4972 32.1176 20.5336 33.626C20.3962 33.3633 20.165 33.162 19.8859 33.062C18.5417 32.6625 18.4759 35.2419 18.4872 36.6481C16.0366 37.0354 13.6175 37.6009 11.2492 38.3401C11.2462 34.805 10.7768 31.2856 9.85328 27.8732C9.83039 27.8002 9.78004 27.7389 9.71285 27.7023C9.64565 27.6657 9.56687 27.6567 9.49311 27.677C9.41935 27.6974 9.35638 27.7456 9.31748 27.8115C9.27858 27.8774 9.26679 27.9558 9.28459 28.0302C10.2124 31.4538 10.6755 34.9867 10.6617 38.5338C9.63065 38.855 8.63505 39.2805 7.69034 39.8037C7.6243 39.844 7.5767 39.9086 7.55778 39.9836C7.53886 40.0586 7.55015 40.138 7.5892 40.2047C7.62825 40.2715 7.69195 40.3203 7.76659 40.3406C7.84124 40.3608 7.92085 40.351 7.98832 40.3132C10.5263 38.8355 15.6249 37.7489 18.5079 37.2413V37.2544C18.8519 39.2284 19.6424 42.4479 21.0233 43.8795C20.9293 43.9585 20.3653 44.3439 20.1021 44.5216C16.5639 46.8885 11.9241 49.0815 7.66779 48.886C6.5495 48.9036 5.45671 48.5513 4.55921 47.8839C2.20921 45.9278 2.15845 41.6236 2.51659 38.578C2.70178 36.4677 3.24571 34.4046 4.12493 32.4774C4.30635 32.1446 3.7978 31.8466 3.61544 32.1794C2.31072 34.5735 1.07745 40.8791 2.20545 45.0113C2.81081 47.2203 4.1033 48.9189 6.3546 49.3353C6.74981 49.4075 7.14915 49.4549 7.55029 49.4773C6.14593 53.1498 4.26028 60.6708 7.65838 62.6466C12.224 65.3162 34.1043 64.2165 36.507 61.5948C37.2212 60.6337 37.6476 59.4895 37.7365 58.2954C37.8531 57.0777 37.7461 55.849 37.4207 54.6698C40.8968 51.7821 40.596 48.1133 39.7584 43.559ZM27.7368 29.2203L28.2754 41.1056L25.8229 41.3773C26.2317 41.0303 26.5829 40.6207 26.8635 40.1637C27.2395 39.5001 26.9209 38.813 26.0175 38.8477C26.5815 38.2292 27.4134 37.1839 26.7808 36.6763C26.3597 36.3379 25.6161 36.4883 25.0512 36.6133C25.493 36.0437 26.0852 35.2034 25.6688 34.613C25.3388 34.143 24.6263 34.2549 24.1441 34.3508C23.1193 34.5991 22.122 34.9496 21.1671 35.397L21.0195 29.3942L27.7368 29.2203ZM19.0888 37.1529C19.0297 36.2962 19.0688 35.4355 19.2053 34.5876C19.555 32.67 20.2704 33.924 20.5834 35.663C20.5834 35.663 20.6191 35.8726 20.6247 35.9149C20.6529 36.1123 20.8992 36.1659 21.0581 36.0907C21.8953 35.6907 22.7616 35.3548 23.6497 35.0859C24.1072 34.8883 24.6111 34.8232 25.1038 34.8979C25.1978 34.9336 25.2307 35.0398 25.1978 35.1968C24.9145 35.8725 24.4891 36.4794 23.9505 36.9762C23.7512 37.1736 23.9505 37.5712 24.2372 37.4688C24.8668 37.2227 25.5353 37.0909 26.2112 37.0796C26.2842 37.0871 26.3551 37.1088 26.4198 37.1435V37.1604C26.4198 37.1943 26.4198 37.1924 26.4076 37.2366C26.2105 37.7281 25.8996 38.1659 25.5005 38.514C25.2542 38.7791 24.9976 39.0376 24.7297 39.282C24.4618 39.5264 24.7993 39.8977 25.0879 39.7454C25.4041 39.5566 25.7639 39.4529 26.1322 39.4446C26.2213 39.4427 26.3087 39.4687 26.3822 39.5189C26.4574 39.5762 26.4443 39.596 26.4433 39.6355C26.4433 39.5979 26.417 39.7295 26.4039 39.7652C25.92 40.4976 25.3072 41.1362 24.5953 41.6499C23.6536 42.4074 22.6252 43.0505 21.5318 43.5656C21.3591 43.4009 21.2062 43.2166 21.0759 43.0166C20.0368 41.2105 19.363 39.2185 19.0888 37.1529Z" fill="black"/>
<path d="M29.3367 12.5098C27.9145 8.45186 24.3547 4.07428 20.9331 4.07898C16.0367 4.07898 11.7926 13.8907 12.1629 15.3693C12.335 16.0555 13.9583 17.772 14.4612 18.3087C14.1557 16.6571 12.2626 15.5968 13.8493 14.8025C17.1609 13.1547 15.7039 10.3638 16.0169 10.0875C16.4929 10.1852 16.9792 10.2235 17.4645 10.2012C18.9074 9.99534 18.71 8.59192 19.2881 7.05126C19.5476 6.35754 19.6585 6.48726 20.0401 6.96666C20.3052 7.29566 20.6352 7.70456 21.0967 7.70456C21.4178 7.70136 21.7382 7.67212 22.0546 7.61714C22.0559 7.96954 22.1562 8.31447 22.3441 8.6126C22.4983 8.92781 22.7578 9.17919 23.0778 9.32322C23.3978 9.46724 23.758 9.49485 24.0962 9.40126C24.555 9.33076 24.8868 9.28 25.2195 9.94552C25.9715 11.4495 25.4075 12.1244 26.67 12.1244C27.8337 12.1244 27.9361 11.2249 28.6693 14.1492C28.8479 14.8636 29.2033 15.7218 29.9412 15.7669C29.9429 14.6532 29.738 13.5488 29.3367 12.5098Z" fill="#FFD35C"/>
<path d="M12.5449 67.4266L12.5449 67.4266C12.0996 68.2373 11.4985 68.9521 10.7762 69.5298C10.1422 70.0367 9.42587 70.4294 8.65929 70.691C7.79385 78.755 7.01228 87.3744 6.59462 95.4091L6.59413 95.4184L6.5933 95.4276C6.32212 98.4593 6.28192 101.507 6.47305 104.545L6.47346 104.551C6.53174 105.726 6.94675 106.854 7.66298 107.786C8.38675 108.67 9.38192 109.29 10.4943 109.551C11.6054 109.812 12.7713 109.699 13.8117 109.23C14.3056 108.979 14.5857 108.683 14.7733 108.328C14.9725 107.952 15.0829 107.483 15.1839 106.849L15.1839 106.848C15.3216 105.986 15.8179 102.97 16.477 98.9646C18.0899 89.1641 20.678 73.4382 21.3731 68.8269C21.407 68.601 21.5317 68.4095 21.723 68.2956C21.9 68.1902 22.0943 68.174 22.2539 68.1997C22.5502 68.2474 22.9391 68.4957 22.9475 68.9706L22.9475 68.9722C23.1778 84.9775 23.5505 92.1165 23.8604 98.052C23.9994 100.715 24.1258 103.135 24.2209 106.005M12.5449 67.4266L23.7212 106.022M12.5449 67.4266L12.5477 67.4214C12.7867 66.9737 12.9797 66.5034 13.124 66.0176L31.5163 65.525C31.7796 66.5043 32.1501 67.5575 32.6902 68.4717C33.2387 69.4001 33.9848 70.2219 35.0047 70.6494M12.5449 67.4266L35.0047 70.6494M24.2209 106.005C24.2209 106.005 24.221 106.005 24.221 106.005L23.7212 106.022M24.2209 106.005C24.2209 106.005 24.2209 106.005 24.2209 106.005L23.7212 106.022M24.2209 106.005C24.2379 106.495 24.2835 106.99 24.4217 107.419C24.5537 107.829 24.7599 108.149 25.0812 108.357M23.7212 106.022C23.756 107.026 23.9092 108.225 24.8492 108.802M25.0812 108.357C25.0692 108.352 25.0573 108.347 25.0454 108.342L24.8492 108.802M25.0812 108.357C25.9058 108.702 26.7964 108.862 27.69 108.826L27.7003 108.825H27.7106C29.122 108.825 30.5824 108.506 31.3434 107.595L31.3436 107.594C31.618 107.266 31.8213 106.73 31.9802 106.07C32.0948 105.594 32.1758 105.104 32.253 104.637C32.2818 104.463 32.3101 104.292 32.3393 104.127L32.3394 104.126C33.0306 100.221 33.374 96.0582 33.7033 92.0628L33.7067 92.021L33.7068 92.0205C33.9727 88.8353 34.7967 75.0655 35.0047 70.6494M25.0812 108.357C25.0909 108.363 25.1006 108.369 25.1105 108.375L24.8492 108.802M24.8492 108.802L35.0047 70.6494" fill="#FF8684" stroke="#FF8684"/>
<path d="M8.52802 64.784C8.47538 65.2399 8.10691 68.5186 7.97907 69.702C8.93355 69.384 9.79128 68.8281 10.4713 68.0867C11.1514 67.3453 11.6314 66.4429 11.866 65.4645C12.054 65.4993 12.2504 65.5284 12.4497 65.5585C12.3099 66.1357 12.0977 66.6928 11.818 67.2167C11.4045 67.9697 10.8462 68.6335 10.1753 69.1701C9.50439 69.7066 8.73404 70.1053 7.90856 70.3431C7.02872 78.5051 6.23066 87.2584 5.80672 95.4139C5.53328 98.4708 5.49274 101.544 5.68546 104.607C5.74895 105.885 6.20157 107.114 6.98266 108.127C7.77654 109.1 8.86953 109.782 10.0915 110.069C11.3135 110.355 12.596 110.23 13.7394 109.712C14.9097 109.12 15.1851 108.238 15.3891 106.958C15.8619 103.994 20.5995 75.4295 21.579 68.9322C21.6297 68.5919 22.1533 68.6915 22.159 69.0102C22.4927 92.1962 23.1262 96.8135 23.4327 106.053C23.4674 107.057 23.6207 108.256 24.5607 108.832C25.4636 109.218 26.4412 109.396 27.422 109.356C28.8612 109.356 30.5259 109.039 31.4386 107.946C32.1436 107.103 32.3363 105.415 32.5431 104.244C33.2416 100.298 33.5865 96.0963 33.9165 92.0928C34.191 88.8047 35.0567 74.2986 35.2325 70.3356C33.1335 69.6955 32.1371 67.1725 31.6125 65.0453L32.1888 64.9297C32.6136 66.7363 33.5189 69.0769 35.2588 69.7237C35.3403 67.8706 35.4148 66.0179 35.4825 64.1654C35.6799 64.1137 35.8792 64.0592 36.0785 64C35.6611 74.7404 34.801 94.4466 32.9925 105.102C32.9193 106.361 32.4598 107.566 31.6765 108.554C30.3012 109.93 27.7943 110.114 25.871 109.832C25.3637 109.811 24.869 109.667 24.4291 109.413C23.9893 109.16 23.6174 108.803 23.3452 108.375C22.8788 107.189 22.69 105.913 22.7935 104.644C22.5124 97.1049 21.829 90.7333 21.5 71.5C20.5365 77.8196 17.552 98.1117 16.9655 101.425C16.691 102.978 16.3507 104.523 16.1101 106.08C16.0656 107.205 15.7509 108.304 15.1926 109.282C14.0862 110.778 10.878 111.435 8.35224 110.034C7.26147 109.423 6.37478 108.505 5.80296 107.393C5.25324 106.118 4.97997 104.74 5.00114 103.351" stroke="#FF8684"/>
<path d="M25.8231 41.3772L28.2755 41.1056L27.7369 29.2202L21.0168 29.3969C21.0168 29.5746 21.155 35.0191 21.1644 35.3998C22.1192 34.9522 23.1166 34.6017 24.1414 34.3536C24.6236 34.2596 25.3361 34.1411 25.6661 34.6158C26.0787 35.2071 25.4912 36.0456 25.0485 36.6161C25.6012 36.4911 26.3542 36.3341 26.7781 36.6791C27.4126 37.1877 26.5798 38.2367 26.0148 38.8505C26.921 38.8129 27.2368 39.5001 26.8608 40.1665C26.5811 40.6224 26.2308 41.0311 25.8231 41.3772ZM26.4811 30.8398C26.4051 30.8397 26.3308 30.8169 26.2677 30.7746C26.2046 30.7322 26.1555 30.6721 26.1265 30.6019C26.0976 30.5316 26.0901 30.4543 26.1051 30.3798C26.12 30.3053 26.1567 30.2369 26.2105 30.1832C26.2643 30.1295 26.3328 30.093 26.4073 30.0782C26.4819 30.0635 26.5592 30.0711 26.6293 30.1003C26.6995 30.1294 26.7595 30.1787 26.8017 30.2419C26.8439 30.3051 26.8665 30.3794 26.8665 30.4554C26.8665 30.506 26.8565 30.5562 26.837 30.6029C26.8176 30.6497 26.7891 30.6922 26.7532 30.7279C26.7173 30.7636 26.6747 30.7919 26.6278 30.8111C26.581 30.8303 26.5317 30.8401 26.4811 30.8398Z" fill="#FF8684"/>
<path d="M3.9209 32.8957C4.62308 33.016 7.01726 33.407 10.3825 33.7417C10.1834 31.812 9.81604 29.9034 9.28454 28.0377C9.26674 27.9633 9.27853 27.8849 9.31743 27.819C9.35633 27.7531 9.4193 27.7049 9.49306 27.6845C9.56682 27.6642 9.6456 27.6733 9.7128 27.7099C9.77999 27.7465 9.83034 27.8077 9.85323 27.8808C10.3814 29.8227 10.7585 31.8026 10.9812 33.8028C13.2175 34.0124 15.8392 34.1891 18.6545 34.2474C18.8199 33.5057 19.1592 32.8599 19.8765 33.0733C20.1555 33.1733 20.3868 33.3746 20.5241 33.6373L20.4132 29.1187C20.4144 29.0408 20.4459 28.9665 20.501 28.9114C20.5561 28.8563 20.6305 28.8248 20.7084 28.8236L28.0112 28.6356C28.089 28.6365 28.1634 28.6678 28.2185 28.7228C28.2736 28.7777 28.3052 28.852 28.3064 28.9298L28.531 33.8817C29.3378 33.7956 30.1429 33.6947 30.9459 33.579C30.7992 31.6379 30.6921 29.4186 30.7241 27.4766C30.7283 27.4013 30.7612 27.3305 30.816 27.2787C30.8708 27.2269 30.9433 27.198 31.0187 27.198C31.0941 27.198 31.1667 27.2269 31.2215 27.2787C31.2763 27.3305 31.3092 27.4013 31.3134 27.4766C31.2937 28.7775 31.3492 31.2083 31.5278 33.4925C33.0664 33.2539 34.5918 32.9367 36.098 32.5422C36.0833 32.5014 36.0789 32.4576 36.0851 32.4146C36.0914 32.3717 36.1081 32.3309 36.1339 32.296C36.1596 32.261 36.1936 32.233 36.2327 32.2143C36.2719 32.1956 36.3151 32.1868 36.3584 32.1888C36.2165 30.853 35.2887 24.9912 29.9016 22.3244C32.5806 19.8804 35.0546 16.5904 34.4493 13.463C33.2959 7.50531 25.9893 0.397031 21.5713 0.0106913C17.1533 -0.375649 7.16578 9.79609 7.74294 16.33C7.97512 18.962 9.97826 21.0874 12.3405 22.6835C12.3405 22.6835 6.75312 23.7579 3.96038 32.0591C4.00138 32.0726 4.03889 32.095 4.07026 32.1247C4.10162 32.1544 4.12606 32.1906 4.14185 32.2308C4.15764 32.271 4.16439 32.3142 4.16162 32.3573C4.15885 32.4004 4.14662 32.4423 4.12581 32.4802C4.05225 32.616 3.9839 32.7546 3.9209 32.8957ZM12.1628 15.3694C11.8 13.918 15.9971 4.08183 20.933 4.07901C21.5626 4.09129 22.1825 4.23674 22.7519 4.50577C25.8408 5.80579 28.2302 9.35523 29.3319 12.5099C29.7341 13.5487 29.94 14.6531 29.9392 15.767C29.7004 15.7298 29.4771 15.6256 29.2952 15.4665C29.1134 15.3074 28.9804 15.1 28.9117 14.8683L28.8469 15.1231C28.8291 15.8732 28.7177 16.6181 28.5151 17.3405C27.9511 19.1961 27.0599 20.2047 24.365 20.889C24.3144 21.6299 24.4451 22.372 24.7457 23.051C23.9062 23.9694 23.3046 24.5908 23.3046 24.5908C23.1485 24.7156 23.0329 24.884 22.9727 25.0746C22.9124 25.2653 22.9102 25.4695 22.9662 25.6614L21.2094 25.5176C21.1618 25.1699 21.0067 24.8458 20.7657 24.5908C20.6059 24.3934 19.9808 23.7842 19.1357 22.9655C19.3368 22.3433 19.4216 21.6895 19.3858 21.0366C16.2133 20.3006 15.0712 17.7175 14.3916 14.4914C14.2159 14.6032 14.0345 14.7058 13.8482 14.7988C12.2606 15.594 14.1528 16.6478 14.4602 18.305C13.9704 17.7842 12.3358 16.0546 12.1628 15.3694ZM30.7833 48.4245C24.8798 48.4694 18.9837 48.8542 13.1244 49.5769C12.9364 57.2642 12.1638 58.0369 12.1638 58.0369C19.0812 61.6879 32.5956 58.0369 32.5956 58.0369L32.4264 57.0189C32.3277 57.0367 32.2299 57.0574 32.1322 57.0715C31.7562 57.1289 31.6011 56.5602 31.9752 56.5028C32.0941 56.4843 32.2115 56.4576 32.3268 56.4229L31.0737 48.8926C31.0193 48.898 30.9644 48.8886 30.9147 48.8655C30.8651 48.8424 30.8226 48.8064 30.7917 48.7612C30.7608 48.7161 30.7425 48.6634 30.7389 48.6088C30.7353 48.5542 30.7464 48.4996 30.7711 48.4508L30.7833 48.4245ZM36.4289 61.6756C35.5162 62.5216 32.8212 63.048 31.5832 63.2605C26.3944 64.1507 17.1777 64.615 11.2557 63.6919C10.0981 63.5651 8.96754 63.2571 7.90555 62.7792L7.76737 64.4712C9.20924 64.8882 10.6761 65.2135 12.1591 65.445C20.3402 66.682 28.6914 66.1541 36.6517 63.8969L36.4289 61.6756Z" fill="#7D4AB4"/>
<path d="M16.5481 19.4601C18.3989 21.5281 21.9512 21.5648 24.6368 20.8231C27.2575 20.0918 28.7577 18.9027 28.8668 14.7545C28.6788 14.2845 28.6336 13.9038 28.3968 13.1283C28.3624 13.1541 28.3347 13.1879 28.3161 13.2266C28.2974 13.2654 28.2883 13.3081 28.2896 13.3511C28.339 14.4901 28.264 15.6311 28.0659 16.7539C27.9666 17.5715 27.6113 18.3367 27.0507 18.9401C26.4902 19.5436 25.7532 19.9542 24.9451 20.1134C22.5763 20.8955 19.0569 21.0638 17.2296 19.3163C15.8769 18.021 15.2847 15.9699 14.9153 14.1144C14.751 14.2535 14.577 14.3807 14.3945 14.4951C14.6672 16.3095 15.4096 18.0212 16.5481 19.4601Z" fill="black"/>
<path d="M18.0248 12.8708C17.9295 12.8706 17.8364 12.8987 17.7571 12.9515C17.6778 13.0042 17.616 13.0793 17.5794 13.1673C17.5429 13.2552 17.5332 13.352 17.5517 13.4454C17.5701 13.5388 17.6159 13.6247 17.6832 13.6921C17.7504 13.7595 17.8362 13.8054 17.9296 13.8241C18.023 13.8427 18.1198 13.8332 18.2078 13.7968C18.2958 13.7604 18.371 13.6987 18.4239 13.6196C18.4768 13.5404 18.5051 13.4473 18.5051 13.3521C18.5052 13.2889 18.4929 13.2264 18.4688 13.168C18.4447 13.1096 18.4093 13.0565 18.3647 13.0118C18.3201 12.9671 18.2671 12.9317 18.2088 12.9075C18.1504 12.8833 18.0879 12.8708 18.0248 12.8708ZM25.7121 13.2553C25.8071 13.2553 25.8999 13.2271 25.9789 13.1743C26.0579 13.1215 26.1195 13.0465 26.1559 12.9588C26.1922 12.871 26.2017 12.7744 26.1832 12.6812C26.1647 12.588 26.1189 12.5025 26.0517 12.4353C25.9845 12.3681 25.899 12.3224 25.8058 12.3038C25.7126 12.2853 25.616 12.2948 25.5283 12.3312C25.4405 12.3675 25.3655 12.4291 25.3127 12.5081C25.2599 12.5871 25.2317 12.6799 25.2317 12.7749C25.2317 12.9023 25.2823 13.0245 25.3724 13.1146C25.4625 13.2047 25.5847 13.2553 25.7121 13.2553ZM16.6025 12.413C16.733 12.1165 16.9399 11.8599 17.202 11.6695C17.464 11.4791 17.772 11.3617 18.0943 11.3292C18.1726 11.3292 18.2477 11.2981 18.303 11.2428C18.3584 11.1874 18.3895 11.1123 18.3895 11.0341C18.3895 10.9558 18.3584 10.8807 18.303 10.8253C18.2477 10.77 18.1726 10.7389 18.0943 10.7389C17.6695 10.773 17.261 10.9181 16.9098 11.1596C16.5586 11.4011 16.277 11.7306 16.0931 12.1151C16.0552 12.1825 16.0454 12.2621 16.0657 12.3368C16.086 12.4114 16.1347 12.4751 16.2015 12.5142C16.2683 12.5532 16.3477 12.5645 16.4227 12.5456C16.4977 12.5267 16.5623 12.4791 16.6025 12.413ZM12.7786 112.196C9.78283 112.887 0.481528 115.176 0.0171682 117.066C-0.537432 119.322 12.5135 118.595 14.7197 116.419C16.1354 115.021 15.311 113.591 14.5411 112.747C14.3224 112.507 14.0439 112.33 13.7343 112.233C13.4246 112.136 13.0949 112.124 12.7786 112.196ZM26.7338 111.92C26.4227 111.828 26.0927 111.82 25.7777 111.898C25.4627 111.975 25.174 112.135 24.9413 112.361C24.1216 113.157 23.2107 114.534 24.5408 116.016C26.6088 118.324 39.5921 119.841 39.1757 117.556C38.8279 115.641 29.6826 112.79 26.7338 111.92ZM22.3478 18.7552C22.7223 18.7774 23.0972 18.7192 23.4474 18.5847C23.7976 18.4501 24.1149 18.2422 24.3782 17.975C24.6659 17.6154 24.8734 17.1985 24.9869 16.7522C25.1004 16.3059 25.1172 15.8405 25.0362 15.3872C25.0154 15.3118 24.9654 15.2478 24.8974 15.2092C24.8294 15.1706 24.7488 15.1606 24.6734 15.1813C23.1762 15.7904 21.5596 16.0496 19.9471 15.939C19.9011 15.9379 19.8555 15.9477 19.8141 15.9678C19.7728 15.9879 19.7368 16.0175 19.7092 16.0543C19.6816 16.0911 19.6632 16.134 19.6555 16.1793C19.6478 16.2246 19.6511 16.2712 19.6651 16.315C19.7965 16.9533 20.127 17.5334 20.6091 17.9719C21.0912 18.4104 21.7 18.6847 22.3478 18.7552ZM24.4863 15.8816C24.5305 18.7016 21.2743 18.9075 20.3503 16.5472C21.757 16.5655 23.1564 16.3404 24.4863 15.8816ZM26.4801 30.8399C26.5561 30.8399 26.6304 30.8173 26.6936 30.7751C26.7569 30.7328 26.8062 30.6728 26.8353 30.6025C26.8644 30.5323 26.872 30.455 26.8571 30.3804C26.8423 30.3058 26.8057 30.2373 26.7519 30.1835C26.6981 30.1298 26.6296 30.0932 26.5551 30.0783C26.4805 30.0635 26.4032 30.0711 26.3329 30.1002C26.2627 30.1293 26.2026 30.1786 26.1604 30.2418C26.1181 30.305 26.0956 30.3794 26.0956 30.4554C26.0958 30.5573 26.1364 30.6549 26.2085 30.727C26.2805 30.799 26.3782 30.8396 26.4801 30.8399Z" fill="black"/>
<path d="M18.0248 12.8708C17.9295 12.8706 17.8364 12.8987 17.7571 12.9515C17.6778 13.0042 17.616 13.0793 17.5794 13.1673C17.5429 13.2552 17.5332 13.352 17.5517 13.4454C17.5701 13.5388 17.6159 13.6247 17.6832 13.6921C17.7504 13.7595 17.8362 13.8054 17.9296 13.8241C18.023 13.8427 18.1198 13.8332 18.2078 13.7968C18.2958 13.7604 18.371 13.6987 18.4239 13.6196C18.4768 13.5404 18.5051 13.4473 18.5051 13.3521C18.5052 13.2889 18.4929 13.2264 18.4688 13.168C18.4447 13.1096 18.4093 13.0565 18.3647 13.0118C18.3201 12.9671 18.2671 12.9317 18.2088 12.9075C18.1504 12.8833 18.0879 12.8708 18.0248 12.8708ZM25.7121 13.2553C25.8071 13.2553 25.8999 13.2271 25.9789 13.1743C26.0579 13.1215 26.1195 13.0465 26.1559 12.9588C26.1922 12.871 26.2017 12.7744 26.1832 12.6812C26.1647 12.588 26.1189 12.5025 26.0517 12.4353C25.9845 12.3681 25.899 12.3224 25.8058 12.3038C25.7126 12.2853 25.616 12.2948 25.5283 12.3312C25.4405 12.3675 25.3655 12.4291 25.3127 12.5081C25.2599 12.5871 25.2317 12.6799 25.2317 12.7749C25.2317 12.9023 25.2823 13.0245 25.3724 13.1146C25.4625 13.2047 25.5847 13.2553 25.7121 13.2553ZM16.6025 12.413C16.733 12.1165 16.9399 11.8599 17.202 11.6695C17.464 11.4791 17.772 11.3617 18.0943 11.3292C18.1726 11.3292 18.2477 11.2981 18.303 11.2428C18.3584 11.1874 18.3895 11.1123 18.3895 11.0341C18.3895 10.9558 18.3584 10.8807 18.303 10.8253C18.2477 10.77 18.1726 10.7389 18.0943 10.7389C17.6695 10.773 17.261 10.9181 16.9098 11.1596C16.5586 11.4011 16.277 11.7306 16.0931 12.1151C16.0552 12.1825 16.0454 12.2621 16.0657 12.3368C16.086 12.4114 16.1347 12.4751 16.2015 12.5142C16.2683 12.5532 16.3477 12.5645 16.4227 12.5456C16.4977 12.5267 16.5623 12.4791 16.6025 12.413ZM12.7786 112.196C9.78283 112.887 0.481528 115.176 0.0171682 117.066C-0.537432 119.322 12.5135 118.595 14.7197 116.419C16.1354 115.021 15.311 113.591 14.5411 112.747C14.3224 112.507 14.0439 112.33 13.7343 112.233C13.4246 112.136 13.0949 112.124 12.7786 112.196ZM26.7338 111.92C26.4227 111.828 26.0927 111.82 25.7777 111.898C25.4627 111.975 25.174 112.135 24.9413 112.361C24.1216 113.157 23.2107 114.534 24.5408 116.016C26.6088 118.324 39.5921 119.841 39.1757 117.556C38.8279 115.641 29.6826 112.79 26.7338 111.92ZM22.3478 18.7552C22.7223 18.7774 23.0972 18.7192 23.4474 18.5847C23.7976 18.4501 24.1149 18.2422 24.3782 17.975C24.6659 17.6154 24.8734 17.1985 24.9869 16.7522C25.1004 16.3059 25.1172 15.8405 25.0362 15.3872C25.0154 15.3118 24.9654 15.2478 24.8974 15.2092C24.8294 15.1706 24.7488 15.1606 24.6734 15.1813C23.1762 15.7904 21.5596 16.0496 19.9471 15.939C19.9011 15.9379 19.8555 15.9477 19.8141 15.9678C19.7728 15.9879 19.7368 16.0175 19.7092 16.0543C19.6816 16.0911 19.6632 16.134 19.6555 16.1793C19.6478 16.2246 19.6511 16.2712 19.6651 16.315C19.7965 16.9533 20.127 17.5334 20.6091 17.9719C21.0912 18.4104 21.7 18.6847 22.3478 18.7552ZM24.4863 15.8816C24.5305 18.7016 21.2743 18.9075 20.3503 16.5472C21.757 16.5655 23.1564 16.3404 24.4863 15.8816ZM26.4801 30.8399C26.5561 30.8399 26.6304 30.8173 26.6936 30.7751C26.7569 30.7328 26.8062 30.6728 26.8353 30.6025C26.8644 30.5323 26.872 30.455 26.8571 30.3804C26.8423 30.3058 26.8057 30.2373 26.7519 30.1835C26.6981 30.1298 26.6296 30.0932 26.5551 30.0783C26.4805 30.0635 26.4032 30.0711 26.3329 30.1002C26.2627 30.1293 26.2026 30.1786 26.1604 30.2418C26.1181 30.305 26.0956 30.3794 26.0956 30.4554C26.0958 30.5573 26.1364 30.6549 26.2085 30.727C26.2805 30.799 26.3782 30.8396 26.4801 30.8399Z" fill="black"/>
<path d="M33.5489 44.5958C32.4751 45.755 31.5464 47.0407 30.7834 48.4244C30.5823 48.8004 31.1068 49.0702 31.2798 48.745C32.3015 46.8236 34.1214 44.3721 36.0465 43.3935C36.3849 43.2215 36.0869 42.713 35.7485 42.8841C35.1008 43.2245 34.5056 43.6567 33.9813 44.1672C31.7375 40.3602 31.2553 31.746 31.3202 27.4643C31.3159 27.389 31.283 27.3182 31.2282 27.2664C31.1734 27.2146 31.1009 27.1858 31.0255 27.1858C30.9501 27.1858 30.8775 27.2146 30.8227 27.2664C30.768 27.3182 30.7351 27.389 30.7308 27.4643C30.6565 31.9866 31.1764 40.7371 33.5489 44.5958Z" fill="black"/>
<path d="M35 64.5C34.7773 66.2314 34.7591 67.2157 35 69C33.7181 67.6119 33.1414 66.6606 32.5 64.5" stroke="black" stroke-width="0.5" stroke-linecap="round"/>
<path d="M9 65L8.5 69C9.95523 67.9985 10.5866 67.1993 11.5 65.5" stroke="black" stroke-width="0.5" stroke-linecap="round"/>
</svg>
