<svg width="39" height="117" viewBox="0 0 39 117" fill="none" xmlns="http://www.w3.org/2000/svg">
<path d="M22.5 13.5C22.5 16 22.0774 16.5275 19.5 17.5V20L18 20.5H13L12.5 19.5L12 17V15C12 14.6667 11.8 14 11 14C10.2 14 10 13 10 12.5L10.5 10.5L19 3.5L20.5 5.5C22.1181 8.43552 22.5859 10.1789 22.5 13.5Z" fill="#FFB591"/>
<path d="M37.5 41.5C37.9 39.9 37.3333 38.1667 37 37.5L32.5 41.5L29.5 51.5C29.1667 51.5 28.3 51.6 27.5 52C26.7 52.4 26.5 53.1667 26.5 53.5L26 55.5L27.5 55V55.5C27.3333 55.6667 27 56.2 27 57C27 57.8 27.3333 58 27.5 58L28.5 57.5L29 58V60L31.5 58L32 55L35.5 48C36 46.5 37.1 43.1 37.5 41.5Z" fill="#FFB591"/>
<path d="M7.5 57V54H3C3.41352 61.0243 3.00073 64.9583 4 72L4.5 73.5L5.5 72.5L6.5 73.5L7 73L7.5 70L8.5 69.5L7.5 57Z" fill="#FFB591"/>
<path d="M34.5421 34.7472C34.6548 34.6881 34.744 34.5924 34.7953 34.4759C34.8465 34.3595 34.8567 34.229 34.8241 34.106C34.8814 34.0744 34.9411 34.044 34.9984 34.0148C32.9439 32.2691 29.0852 23.9797 22.3437 20.2825C21.5032 19.9429 20.6437 19.6522 19.7697 19.412C19.8013 19.8051 19.8258 19.9783 19.5181 20.2006C19.4222 25.3217 19.0244 53.2472 21.6803 53.6474C23.1877 53.8129 24.7126 53.7019 26.1801 53.3198C26.5559 52.4797 27.2027 51.79 28.017 51.3612C27.9422 51.346 27.8753 51.3047 27.8281 51.2447C27.781 51.1846 27.7567 51.1098 27.7596 51.0336C27.7713 43.7222 27.4086 38.9826 26.8774 31.2465C26.847 30.7938 27.549 30.7973 27.5794 31.2465C27.68 32.7079 28.0088 37.5821 28.0673 38.5579L29.0641 39.6226C29.4292 38.7614 33.0702 37.2135 34.5421 34.7472Z" fill="#6DD3A8"/>
<path d="M37.6577 35.3252C37.4659 35.338 37.3067 35.4925 37.1008 35.5007C36.5965 35.5206 36.5065 35.1087 36.4129 34.7238C36.269 34.1388 35.512 34.5261 35.1797 34.7086C35.1633 34.7179 35.1469 34.7226 35.1317 34.7296C35.173 34.7815 35.1969 34.845 35.1998 34.9113C35.2028 34.9775 35.1847 35.0429 35.1481 35.0982C34.3591 36.3013 33.3298 37.3283 32.1248 38.1145C29.8328 39.7595 29.5321 39.8472 29.8351 39.9455C30.0029 39.9712 30.174 39.9677 30.3406 39.935C30.6845 39.9209 31.142 40.004 31.1373 40.3492C31.1245 41.043 30.7114 41.5402 30.977 41.8093C31.4029 42.2375 32.147 41.4969 32.264 41.4408C34.0672 40.1541 35.7379 38.6915 37.2517 37.0743C37.5454 36.735 38.038 36.2659 38.0275 35.778C38.0263 35.5802 37.8847 35.31 37.6577 35.3252ZM36.1835 36.9971L32.5788 39.9116C32.5118 39.9755 32.4227 40.0111 32.3301 40.0111C32.2376 40.0111 32.1485 39.9755 32.0815 39.9116C32.0488 39.879 32.0228 39.8402 32.0051 39.7976C31.9874 39.7549 31.9783 39.7092 31.9783 39.663C31.9783 39.6168 31.9874 39.571 32.0051 39.5283C32.0228 39.4857 32.0488 39.4469 32.0815 39.4143L35.6863 36.501C35.7533 36.4372 35.8423 36.4015 35.9349 36.4015C36.0275 36.4015 36.1165 36.4372 36.1835 36.501C36.2493 36.5668 36.2862 36.6561 36.2862 36.7491C36.2862 36.8421 36.2493 36.9313 36.1835 36.9971ZM12.3752 20.2135C12.2412 20.0242 12.1545 19.8055 12.1225 19.5758C10.7793 20.0941 3.49959 23.0039 2.39511 25.5814C1.17831 28.421 1.1783 49.1136 1.1783 49.1136C1.1783 49.1136 -0.0384884 49.316 0.163922 50.128C0.366332 50.94 1.17831 50.9388 0.569905 51.7508C-0.038495 52.5628 -0.240901 52.7652 0.367499 53.3736C1.2254 53.8616 2.18905 54.1338 3.1755 54.1669C4.49255 54.2845 5.81906 54.2405 7.12542 54.0358C7.10316 53.9672 7.10796 53.8926 7.13884 53.8273C7.16972 53.7621 7.22435 53.7111 7.29156 53.6848C7.64705 53.5487 7.94768 53.299 8.14683 52.9746C8.38083 52.4587 7.63671 52.4259 7.37697 52.0386C5.50774 52.3022 3.60669 52.2345 1.76096 51.8386C1.67113 51.8139 1.59478 51.7545 1.5487 51.6736C1.50262 51.5926 1.4906 51.4967 1.51527 51.4068C1.53993 51.317 1.59928 51.2406 1.68025 51.1946C1.76121 51.1485 1.85716 51.1365 1.947 51.1611C3.748 51.5432 5.60291 51.5995 7.42376 51.3273C7.67677 51.0437 7.88401 50.7223 8.03802 50.3749C8.12811 50.1584 8.265 49.77 8.16438 49.5793C8.13747 49.529 8.06961 49.4927 7.95378 49.4787C6.52799 49.8261 5.04969 49.9031 3.59552 49.7057C2.91984 49.6291 2.24939 49.5119 1.58781 49.3546C1.49798 49.3298 1.42168 49.2703 1.37572 49.1893C1.32975 49.1082 1.31786 49.0122 1.34269 48.9223C1.36751 48.8325 1.42701 48.7562 1.50809 48.7102C1.58916 48.6643 1.68517 48.6524 1.77501 48.6772C3.35034 49.0815 4.98593 49.1969 6.60243 49.0177C7.05378 48.882 7.52033 48.8034 7.99121 48.7837C8.02397 45.5206 8.06376 35.9956 7.71978 32.6892C7.67298 32.2399 8.37614 32.2434 8.42177 32.6892C8.62886 34.6969 8.46506 34.7226 8.64875 34.3927C9.19982 33.4064 9.15186 33.0495 9.56955 33.1443C9.61405 33.1565 9.65571 33.1773 9.69215 33.2056C9.72859 33.2339 9.75908 33.2691 9.7819 33.3092C9.80472 33.3493 9.81941 33.3935 9.82513 33.4393C9.83085 33.4851 9.8275 33.5316 9.81525 33.576C9.50773 34.3525 9.09983 35.0853 8.60196 35.7557C8.67216 37.8828 8.78097 48.6959 8.68035 49.1043C9.04656 49.5489 8.83479 50.3363 8.59611 50.8394C8.44501 51.1461 8.2606 51.4353 8.0462 51.7017C8.27518 51.8229 8.48462 51.9779 8.66748 52.1615C9.26769 52.8635 8.61951 53.6825 7.96548 54.1119C9.19281 54.3845 12.3647 54.9601 13.8798 53.9949C15.7284 52.8015 12.4711 20.3305 12.3752 20.2135Z" fill="#6DD3A8"/>
<path d="M20.9479 4.01597L20.8016 4.09319C20.1799 2.60832 19.042 1.39846 17.598 0.686891C16.154 -0.0246751 14.5014 -0.189919 12.9451 0.221658C7.32908 1.57769 7.47064 7.58564 9.07237 10.231L3.502 13.1455C3.01996 13.397 3.44701 14.1259 3.92671 13.8744L21.3738 4.74839C21.8546 4.49333 21.4276 3.76325 20.9479 4.01597ZM18.0755 4.19966C18.1054 4.09362 18.175 4.00314 18.2697 3.94694L19.4971 3.36194C19.5448 3.33392 19.5977 3.3156 19.6525 3.30802C19.7074 3.30045 19.7632 3.30376 19.8168 3.31778C19.8704 3.3318 19.9206 3.35625 19.9648 3.38972C20.0089 3.4232 20.046 3.46505 20.0739 3.51287C20.1289 3.60971 20.1439 3.72422 20.1157 3.83197C20.0875 3.93973 20.0184 4.0322 19.923 4.08968C18.5962 4.72265 18.5833 4.76711 18.3704 4.71797C18.263 4.68763 18.1719 4.61624 18.1167 4.51926C18.0615 4.42227 18.0467 4.30746 18.0755 4.19966Z" fill="#FF8684"/>
<path d="M28.3526 58.8421C28.3561 58.5045 28.4029 58.1687 28.4918 57.8429C27.4926 58.5789 26.7368 58.1799 26.7555 57.2942C21.0834 58.5145 13.3485 58.2057 7.97119 57.341C8.8054 70.101 6.61751 34.6723 9.66068 87.0707C9.66488 87.1156 9.65925 87.1608 9.64419 87.2032C9.62914 87.2457 9.60501 87.2844 9.5735 87.3165C9.54198 87.3487 9.50384 87.3737 9.46171 87.3896C9.41959 87.4055 9.37449 87.4121 9.32957 87.4089C9.79054 94.9308 10.2656 101.8 10.6166 105.161C10.6166 105.161 15.8523 106.481 19.828 105.161L19.1541 66.7385C19.0619 66.7404 18.9728 66.706 18.9058 66.6427C18.8388 66.5795 18.7994 66.4924 18.796 66.4003L18.5106 60.5503C18.4883 60.0975 19.1903 60.1011 19.2125 60.5503L19.498 66.4003C19.5019 66.4427 19.497 66.4854 19.4836 66.5258C19.4702 66.5662 19.4486 66.6034 19.4201 66.635C19.3917 66.6666 19.357 66.692 19.3182 66.7096C19.2795 66.7272 19.2375 66.7367 19.195 66.7373L21.5701 105.161C21.5701 105.161 26.8445 106.261 30.0912 104.501L29.1552 60.2321C28.5105 60.2321 28.3514 59.4026 28.3526 58.8421Z" fill="#F55555"/>
<path d="M23.1708 19.1698C22.3284 18.7381 21.0332 18.1168 20.0598 17.6617C23.6236 16.8076 23.4388 13.1466 22.4618 9.6144C22.0254 8.05314 21.4376 6.53822 20.7068 5.09119L20.082 5.41761C21.3566 7.84175 22.1257 10.4995 22.3425 13.2297C22.1728 13.0928 22.1085 13.2005 21.5235 13.1712C21.0956 13.1674 20.6757 13.0551 20.303 12.8447C19.9304 12.6343 19.6172 12.3328 19.3929 11.9684C19.3697 11.9285 19.3388 11.8936 19.3021 11.8656C19.2653 11.8376 19.2234 11.8172 19.1787 11.8054C19.134 11.7937 19.0875 11.7909 19.0417 11.7972C18.996 11.8035 18.9519 11.8187 18.912 11.8421C18.5037 12.0761 18.912 12.5885 19.2443 12.9208C19.6264 13.2801 20.0832 13.5503 20.582 13.7122C21.0809 13.874 21.6093 13.9234 22.1295 13.8568C22.2022 13.8492 22.2717 13.8226 22.3308 13.7796C22.3543 14.6751 22.0244 15.5439 21.4123 16.198C19.9767 17.5201 17.2588 17.2264 15.4652 16.5139C15.0452 16.3466 14.8627 17.0264 15.2792 17.1913C16.4545 17.6336 17.7047 17.843 18.96 17.8079C18.9974 18.4171 19.0364 19.0271 19.077 19.6378C18.3789 20.03 17.5927 20.2385 16.792 20.2439C15.7888 20.3578 14.7741 20.3184 13.7828 20.1269C13.5488 20.0754 13.0164 19.9478 12.8994 19.7396C12.972 19.8706 12.6174 19.5734 12.3928 14.4196C12.5055 14.4083 12.6176 14.3911 12.7286 14.3681C12.8184 14.3434 12.8948 14.2841 12.9409 14.2031C12.9869 14.1222 12.999 14.0262 12.9743 13.9364C12.9496 13.8466 12.8903 13.7702 12.8093 13.7241C12.7283 13.678 12.6324 13.666 12.5426 13.6907C12.1167 13.8056 11.6634 13.7594 11.2695 13.561C10.8755 13.3627 10.5686 13.026 10.4073 12.6155C10.2856 12.2469 10.2939 11.8477 10.4308 11.4845C10.5677 11.1213 10.8249 10.816 11.1596 10.6194C11.9189 10.3433 12.4092 10.8464 13.3463 11.3729C13.3463 11.3729 14.1572 11.7789 14.5632 10.3585C14.9691 8.93814 15.1715 8.32975 15.1715 8.32975C15.3592 8.5047 15.596 8.61791 15.8499 8.6541C16.1039 8.69029 16.3629 8.64773 16.5919 8.53215C17.4649 7.92123 18.1744 7.10524 18.6581 6.15589L10.1078 10.63C9.85024 10.9579 9.68502 11.3487 9.6292 11.762C9.57338 12.1752 9.629 12.5959 9.7903 12.9804C9.9516 13.3649 10.2127 13.6993 10.5467 13.9491C10.8806 14.1988 11.2752 14.3548 11.6896 14.4009C11.7821 16.5607 11.8838 17.499 11.9236 17.8805C10.6831 18.3864 9.51752 19.0596 8.45926 19.8812C8.10826 20.1386 7.5139 20.4369 7.666 20.9599C7.70695 21.098 8.84769 22.9653 12.58 29.1593C12.6297 29.233 12.7056 29.2851 12.7923 29.3051C12.8789 29.325 12.97 29.3113 13.0469 29.2668C13.1239 29.2222 13.1811 29.1501 13.2069 29.0649C13.2327 28.9798 13.2253 28.8881 13.1861 28.8083C8.93077 21.7333 8.44288 20.8803 8.40076 20.8148C9.51078 19.9437 10.7138 19.1981 11.988 18.5918C11.9985 18.7205 12.0933 19.3476 12.1108 19.4541C12.2348 20.2088 12.4454 20.5598 13.6026 20.8136C15.0066 21.1237 17.9222 21.1646 19.3601 20.3047C19.586 20.169 19.793 20.0251 19.7919 19.7571C19.7919 19.6074 19.7544 19.1171 19.7006 18.2771C21.8405 19.2728 22.6069 19.6904 22.8187 19.7794C22.9801 19.8472 22.9029 20.0262 22.8631 20.1643C22.7192 20.6756 22.2267 22.4294 20.6975 27.9237C20.6726 28.0136 20.6845 28.1096 20.7305 28.1907C20.7764 28.2717 20.8527 28.3312 20.9426 28.3561C21.0324 28.3809 21.1284 28.369 21.2095 28.323C21.2906 28.2771 21.3501 28.2008 21.3749 28.1109C21.9716 25.9698 23.4575 20.6522 23.5979 20.1327C23.6384 20.042 23.6593 19.9439 23.6595 19.8446C23.6596 19.7452 23.6388 19.647 23.5986 19.5562C23.5583 19.4655 23.4994 19.3842 23.4258 19.3176C23.3521 19.251 23.2652 19.2007 23.1708 19.1698ZM22.3448 31.4712C23.5523 31.5039 24.7613 31.5246 25.9718 31.5332C26.0649 31.5332 26.1542 31.4962 26.22 31.4304C26.2858 31.3646 26.3228 31.2753 26.3228 31.1822C26.3228 31.0891 26.2858 30.9998 26.22 30.934C26.1542 30.8682 26.0649 30.8312 25.9718 30.8312C24.7628 30.8226 23.5538 30.8019 22.3448 30.7692C22.2517 30.7692 22.1624 30.8062 22.0966 30.872C22.0308 30.9378 21.9938 31.0271 21.9938 31.1202C21.9938 31.2133 22.0308 31.3025 22.0966 31.3684C22.1624 31.4342 22.2517 31.4712 22.3448 31.4712ZM24.5362 37.5166C23.2293 37.2989 23.0679 35.8306 22.9778 34.5377L22.828 32.3709C22.7964 31.9228 22.0944 31.9193 22.126 32.3709C22.3004 34.8782 22.3004 36.0997 22.8175 37.0509C22.9703 37.3445 23.1876 37.5997 23.453 37.7975C23.7185 37.9952 24.0252 38.1304 24.3502 38.1928C25.0547 38.2798 25.7696 38.2188 26.4492 38.0138C26.8891 37.9097 26.7031 37.2311 26.262 37.3364C25.7041 37.5092 25.1177 37.5704 24.5362 37.5166ZM5.40556 72.7523C5.52841 73.246 5.75655 74.0065 6.25965 74.0124C6.76275 74.0182 7.19565 73.5303 7.42965 73.0272C7.74447 72.2923 7.90993 71.502 7.91637 70.7024C7.91637 70.6094 7.8794 70.5201 7.81357 70.4543C7.74775 70.3884 7.65847 70.3514 7.56538 70.3514C7.47229 70.3514 7.38301 70.3884 7.31718 70.4543C7.25135 70.5201 7.21438 70.6094 7.21438 70.7024C7.17811 71.4489 6.98037 72.9348 6.33336 73.2764C6.09379 72.669 5.92612 72.0356 5.83377 71.3892C5.98587 70.7539 6.10522 70.0543 6.19297 69.4002C6.2503 68.9533 5.5483 68.958 5.49097 69.4002C5.56819 68.8059 5.18676 72.1345 4.46487 72.9945C4.25895 72.895 3.55461 70.0472 3.17787 54.1668C2.931 54.1434 2.69467 54.1154 2.47588 54.0814C2.56831 57.8161 2.88186 68.5543 3.52887 72.2071C3.55283 72.662 3.70049 73.1017 3.95593 73.4789C4.57954 74.1259 5.12359 73.3572 5.40556 72.7523ZM7.37583 52.0363C7.41213 52.0898 7.45541 52.1381 7.50453 52.1802C7.76544 52.4072 8.35863 52.5171 8.1492 52.9711C7.94978 53.2953 7.64924 53.5448 7.29393 53.6813C6.8856 53.8708 7.24012 54.4769 7.64494 54.2885C8.50957 53.8872 9.32155 52.9173 8.67337 52.1556C8.49092 51.9716 8.28141 51.8165 8.05209 51.6958C8.14493 51.586 8.2283 51.4686 8.30131 51.3448C8.72251 50.7504 9.14371 49.6483 8.68624 49.0925C8.71549 48.9755 8.719 44.6933 8.719 44.5763C8.719 39.9197 8.67453 38.0103 8.60784 35.744L8.63125 35.7206C9.11223 35.0517 9.51168 34.3278 9.82113 33.5643C9.83338 33.5198 9.83675 33.4734 9.83103 33.4276C9.82531 33.3818 9.81061 33.3376 9.78779 33.2975C9.76497 33.2574 9.73447 33.2222 9.69803 33.1939C9.6616 33.1656 9.61993 33.1448 9.57544 33.1326C9.48569 33.1103 9.39083 33.1234 9.31047 33.1692C9.23011 33.2149 9.17041 33.2898 9.14371 33.3783C8.97564 33.7774 8.78017 34.1644 8.5587 34.5366C8.53028 33.9158 8.48542 33.2959 8.42415 32.6774C8.37735 32.2317 7.67419 32.227 7.72216 32.6774C8.06614 35.9815 8.02636 45.5474 7.9936 48.772C7.52272 48.7918 7.05618 48.8704 6.60481 49.006C4.98937 49.1864 3.3546 49.0726 1.77973 48.6702C1.6899 48.6453 1.59388 48.6572 1.5128 48.7032C1.43173 48.7492 1.37224 48.8255 1.34741 48.9153C1.32259 49.0051 1.33446 49.1011 1.38043 49.1822C1.4264 49.2633 1.50269 49.3228 1.59253 49.3476C3.4335 49.8376 5.35912 49.9206 7.23544 49.591C7.46714 49.5075 7.71231 49.4679 7.95849 49.474C8.07549 49.488 8.14218 49.5243 8.16909 49.5746C8.26971 49.7653 8.13283 50.1537 8.04274 50.3702C7.88769 50.7171 7.68055 51.0382 7.42849 51.3226C5.60764 51.5949 3.7527 51.5387 1.95171 51.1564C1.86188 51.1318 1.76593 51.1438 1.68496 51.1899C1.604 51.2359 1.54465 51.3123 1.51998 51.4021C1.49531 51.492 1.50734 51.5879 1.55342 51.6689C1.5995 51.7498 1.67586 51.8092 1.76569 51.8339C3.60917 52.2317 5.50848 52.3002 7.37583 52.0363Z" fill="black"/>
<path d="M37.79 34.6301C37.5668 34.6204 37.345 34.6704 37.1477 34.7752C37.137 34.7793 37.1271 34.7852 37.1184 34.7927C37.1226 34.7715 37.1226 34.7496 37.1184 34.7284C37.0975 34.4404 36.9673 34.1713 36.7545 33.9761C36.1859 33.5081 35.4769 33.7503 34.8264 34.106C34.7838 34.1282 34.7467 34.1596 34.7178 34.1979C34.6888 34.2362 34.6687 34.2805 34.659 34.3275C34.6493 34.3746 34.6501 34.4232 34.6614 34.4698C34.6728 34.5165 34.6944 34.56 34.7246 34.5974C34.6482 34.6235 34.584 34.6768 34.5444 34.7471C33.0843 37.2041 29.4303 38.7649 29.0723 39.6225C29.0361 39.7116 29.0181 39.8071 29.0194 39.9033C29.0208 39.9995 29.0414 40.0945 29.0802 40.1825C29.1189 40.2706 29.1749 40.35 29.2449 40.4159C29.3149 40.4819 29.3975 40.5332 29.4877 40.5667C29.7844 40.6496 30.0945 40.673 30.4003 40.6357C30.309 41.0932 30.0727 41.5273 30.2774 41.9999C30.4215 42.2749 30.6668 42.4831 30.9616 42.5805C31.2563 42.6779 31.5774 42.6568 31.8569 42.5218C31.128 45.1297 29.5087 50.9235 29.4292 51.2137C29.0958 51.1304 28.7467 51.1332 28.4148 51.2219C28.4519 51.1662 28.471 51.1004 28.4698 51.0335C28.4838 43.8731 28.0439 37.9061 27.5876 31.2465C27.556 30.7972 26.8528 30.7937 26.8856 31.2465C27.4039 38.7906 27.7818 43.7409 27.7678 51.0335C27.7651 51.1097 27.7895 51.1844 27.8366 51.2444C27.8837 51.3043 27.9505 51.3457 28.0252 51.3611L27.9994 51.3716C27.2804 51.7979 26.6872 52.4073 26.2805 53.1376C25.8737 53.8678 25.6679 54.6929 25.684 55.5287C25.7149 55.624 25.766 55.7117 25.8336 55.7857C25.9013 55.8597 25.984 55.9184 26.0763 55.9577C26.1685 55.9971 26.2681 56.0162 26.3683 56.0139C26.4686 56.0115 26.5672 55.9877 26.6574 55.944C27.5712 55.6328 27.3594 55.1847 26.9148 56.5477C21.2637 57.8535 12.972 57.5177 7.666 56.5887C7.61373 56.574 7.55876 56.5717 7.50542 56.5819C7.45209 56.592 7.40184 56.6145 7.35864 56.6473C7.31543 56.6802 7.28045 56.7227 7.25643 56.7714C7.23242 56.8201 7.22003 56.8737 7.22023 56.928L7.94096 69.4107L7.91405 69.4189C6.86105 69.6833 6.31114 67.059 6.19882 65.9744C6.19645 65.8821 6.15872 65.7942 6.0934 65.7288C6.02808 65.6635 5.94016 65.6258 5.84782 65.6234C5.75473 65.6234 5.66545 65.6604 5.59963 65.7262C5.5338 65.792 5.49683 65.8813 5.49683 65.9744C5.65712 67.6124 6.3053 70.4017 7.98191 70.1127L8.9612 87.0777C8.98694 87.527 9.6901 87.5305 9.66319 87.0777C7.82629 55.4409 7.97839 57.4194 7.97371 57.348C13.4224 58.2243 21.0847 58.518 26.7581 57.3012C26.7382 58.1822 27.4881 58.5882 28.4943 57.8499C28.4055 58.1757 28.3587 58.5115 28.3551 58.8491C28.3551 59.6225 28.6289 60.404 29.38 60.211C30.6289 59.5224 31.5802 58.3977 32.0523 57.052C32.1832 56.6402 32.239 56.2082 32.2173 55.7767C33.786 52.3482 35.3323 48.9095 36.8563 45.4608C37.3566 44.3572 37.6706 43.1782 37.7853 41.9719C37.8298 40.5374 37.788 39.1016 37.6601 37.6721C38.2451 37.1822 38.6274 36.4926 38.733 35.7369C38.7271 35.4721 38.6301 35.2174 38.4584 35.0158C38.2866 34.8142 38.0505 34.678 37.79 34.6301ZM29.3028 59.4856C29.0887 59.5862 29.1121 59.4447 29.0782 59.2095C29.0363 58.8977 29.0486 58.5811 29.1144 58.2735C29.3025 57.4229 29.7053 56.6346 30.2844 55.9838C30.5278 55.6679 29.9955 55.2596 29.7322 55.5567C29.2338 56.1242 28.2908 57.3878 27.5689 57.5153C27.4741 57.5317 27.4519 57.4943 27.4449 57.4264C27.3594 56.6554 28.7014 54.5716 29.1694 53.907C29.4034 53.5794 28.8875 53.1933 28.6172 53.4812C27.9834 54.2263 27.2115 54.8417 26.3439 55.2935C26.3838 54.6662 26.5619 54.0554 26.8653 53.5049C27.1686 52.9543 27.5899 52.4776 28.0989 52.1088C29.1648 51.4489 29.9311 52.0631 30.5746 53.1383C31.2996 54.1423 31.6127 55.3857 31.4498 56.6132C31.087 57.7888 30.3284 58.8061 29.3028 59.4856ZM31.9938 54.5716C31.6558 53.3889 30.9897 52.3261 30.0727 51.5062L32.7344 41.9801C34.2379 40.8744 35.6643 39.6677 37.0038 38.3683C37.3396 43.5607 37.3512 42.9359 31.9938 54.5716ZM37.2588 37.0731C35.7177 38.7245 34.012 40.2142 32.1681 41.5191C31.8171 41.7929 31.3023 42.131 30.9806 41.8069C30.8098 41.6337 30.9268 41.3389 30.9806 41.1447C31.0689 40.8871 31.1213 40.6186 31.1362 40.3467C31.1344 40.2703 31.1084 40.1963 31.062 40.1356C31.0155 40.0748 30.951 40.0304 30.8776 40.0086C30.3979 39.8284 30.0832 40.0262 29.834 39.9431C29.6129 39.8706 29.7369 39.8074 30.3172 39.3838C32.0196 38.1448 34.0027 37.0169 35.147 35.0958C35.1834 35.0404 35.2014 34.975 35.1984 34.9088C35.1955 34.8427 35.1717 34.7791 35.1306 34.7272C35.1471 34.7215 35.1631 34.7144 35.1786 34.7062C35.5108 34.5236 36.2678 34.1317 36.4117 34.7214C36.5053 35.1063 36.5954 35.5182 37.0997 35.4983C37.3009 35.4901 37.4659 35.3356 37.6566 35.3228C37.8836 35.3075 38.0252 35.5778 38.0299 35.7755C38.0415 36.2681 37.5525 36.735 37.2588 37.0731Z" fill="black"/>
<path d="M35.6862 36.5022L32.0814 39.4155C32.0487 39.4481 32.0227 39.4868 32.005 39.5295C31.9873 39.5722 31.9782 39.6179 31.9782 39.6641C31.9782 39.7103 31.9873 39.756 32.005 39.7987C32.0227 39.8414 32.0487 39.8801 32.0814 39.9127C32.1485 39.9766 32.2375 40.0122 32.3301 40.0122C32.4226 40.0122 32.5117 39.9766 32.5787 39.9127L36.1834 36.9983C36.2492 36.9324 36.2861 36.8432 36.2861 36.7502C36.2861 36.6572 36.2492 36.568 36.1834 36.5022C36.1166 36.438 36.0275 36.4022 35.9348 36.4022C35.8422 36.4022 35.7531 36.438 35.6862 36.5022ZM19.4384 10.568C19.5389 10.5682 19.6373 10.5386 19.721 10.4829C19.8046 10.4272 19.8699 10.3479 19.9085 10.255C19.9471 10.1622 19.9572 10.06 19.9377 9.9614C19.9181 9.86279 19.8697 9.77221 19.7986 9.70112C19.7276 9.63004 19.637 9.58165 19.5384 9.5621C19.4397 9.54254 19.3376 9.5527 19.2447 9.59128C19.1519 9.62985 19.0726 9.69512 19.0169 9.7788C18.9612 9.86248 18.9316 9.96082 18.9318 10.0613C18.9318 10.1957 18.9852 10.3246 19.0802 10.4196C19.1752 10.5146 19.304 10.568 19.4384 10.568ZM19.1307 8.58715C19.2238 8.58715 19.3131 8.55017 19.3789 8.48434C19.4447 8.41852 19.4817 8.32924 19.4817 8.23615C19.4817 8.14306 19.4447 8.05378 19.3789 7.98795C19.3131 7.92213 19.2238 7.88514 19.1307 7.88514C18.8571 7.91283 18.5947 8.00804 18.367 8.16222C18.1393 8.3164 17.9534 8.52473 17.8262 8.7685C17.7842 8.84871 17.7748 8.94205 17.8001 9.02899C17.8253 9.11594 17.8831 9.18977 17.9615 9.23508C18.0399 9.28039 18.1327 9.29365 18.2207 9.27212C18.3086 9.25058 18.3848 9.1959 18.4334 9.1195C18.5036 8.98518 18.6025 8.8679 18.723 8.77592C18.8434 8.68394 18.9826 8.6195 19.1307 8.58715ZM18.3702 4.71796C18.5808 4.76593 18.5785 4.73317 19.9228 4.08967C19.9706 4.0617 20.0124 4.0246 20.0458 3.98048C20.0793 3.93636 20.1037 3.88608 20.1177 3.83252C20.1317 3.77896 20.1351 3.72316 20.1275 3.66831C20.12 3.61346 20.1017 3.56064 20.0737 3.51286C20.0458 3.46507 20.0087 3.42326 19.9645 3.38982C19.9204 3.35637 19.8701 3.33194 19.8166 3.31793C19.763 3.30391 19.7072 3.30059 19.6524 3.30814C19.5975 3.31569 19.5447 3.33396 19.4969 3.36193L18.2696 3.94693C18.1981 3.98893 18.1406 4.05104 18.1041 4.12551C18.0677 4.19999 18.054 4.28353 18.0647 4.36574C18.0755 4.44795 18.1102 4.52518 18.1645 4.58781C18.2188 4.65044 18.2903 4.69571 18.3702 4.71796ZM17.1908 106.844C15.8578 107.119 14.487 107.158 13.1403 106.961C13.036 106.946 12.9297 106.954 12.8287 106.984C12.7277 107.014 12.6343 107.065 12.555 107.134C12.4756 107.204 12.4121 107.289 12.3687 107.385C12.3254 107.481 12.3032 107.585 12.3038 107.691V109.978C12.3038 109.978 2.84898 115.795 4.78767 116.039C6.72636 116.282 15.2135 114.827 16.6679 113.613C17.7431 112.718 18.0227 109.305 18.0964 107.586C18.0999 107.472 18.0774 107.36 18.0306 107.257C17.9837 107.154 17.9138 107.063 17.8263 106.992C17.7388 106.92 17.636 106.869 17.5258 106.844C17.4156 106.818 17.301 106.818 17.1908 106.844ZM28.465 109.978V107.683C28.4653 107.577 28.443 107.473 28.3995 107.377C28.3561 107.281 28.2924 107.195 28.213 107.126C28.1335 107.057 28.0401 107.006 27.939 106.976C27.8379 106.946 27.7316 106.938 27.6272 106.953C26.2806 107.15 24.9097 107.11 23.5767 106.836C23.4662 106.81 23.3512 106.81 23.2407 106.836C23.1302 106.862 23.0272 106.913 22.9396 106.985C22.8521 107.057 22.7824 107.149 22.7361 107.252C22.6897 107.356 22.6679 107.469 22.6723 107.582C22.7448 109.302 23.0233 112.715 24.1009 113.61C25.5552 114.823 34.0459 116.277 35.9799 116.035C37.9139 115.793 28.465 109.978 28.465 109.978ZM19.2044 60.5492C19.1822 60.0999 18.479 60.0964 18.5024 60.5492L18.7879 66.3992C18.8101 66.8508 19.5145 66.8485 19.4899 66.3992C19.4115 64.6992 19.2208 60.7949 19.2044 60.5492Z" fill="black"/>
</svg>
