<svg width="105" height="92" viewBox="0 0 105 92" fill="none" xmlns="http://www.w3.org/2000/svg">
<path d="M104.841 59.7722V60.928C104.843 62.8005 104.488 64.6562 103.793 66.3951C103.708 66.6053 103.62 66.8129 103.526 67.0179C103.378 67.3414 103.22 67.6578 103.052 67.9672C102.997 68.0682 102.941 68.1682 102.883 68.267C102.127 69.5777 101.174 70.7644 100.057 71.7855C100.006 71.8332 99.9534 71.8799 99.9012 71.9265L99.8857 71.9398L99.7069 72.0953C98.8769 72.8087 97.9692 73.4265 97.0012 73.9372C96.7369 74.0771 96.4671 74.2092 96.194 74.3325C95.6526 74.5783 95.0964 74.7901 94.5286 74.9665C94.3942 75.0086 94.2588 75.0486 94.1233 75.0864C93.7969 75.1785 93.4671 75.2596 93.1318 75.3284C92.1456 75.532 91.1411 75.6343 90.1341 75.6337H84.174C83.7758 75.6337 83.3814 75.7122 83.0134 75.8647C82.6455 76.0171 82.3112 76.2406 82.0296 76.5222C81.748 76.8039 81.5247 77.1383 81.3724 77.5063C81.22 77.8743 81.1417 78.2688 81.1419 78.667V89.9764H30.4363V78.6615C30.4372 78.096 30.2796 77.5415 29.9812 77.0611C29.6829 76.5806 29.2559 76.1935 28.7486 75.9435C28.6695 75.9024 28.5883 75.8654 28.5055 75.8325C28.152 75.6928 27.7752 75.6216 27.3952 75.6226H17.3682C17.2094 75.6226 17.0529 75.6226 16.8952 75.616C16.0289 75.5898 15.1665 75.4899 14.3171 75.3173C13.9833 75.2492 13.6536 75.1707 13.3279 75.0819C12.4174 74.8321 11.5323 74.4976 10.6843 74.0827C10.5733 74.0305 10.4722 73.9783 10.3667 73.9228C9.37686 73.4123 8.44604 72.7946 7.59103 72.0808L7.53329 72.0331C7.4911 71.9976 7.44891 71.962 7.40783 71.9221L7.23129 71.7799C7.00258 71.579 6.78052 71.3691 6.56512 71.1537C5.69539 70.2841 4.93344 69.3131 4.2957 68.2614C4.05033 67.8573 3.82272 67.4409 3.61621 67.0124C3.51628 66.8081 3.4208 66.5993 3.33197 66.3895C2.93045 65.4605 2.62358 64.4933 2.41599 63.5028C2.0439 61.7198 1.99052 59.885 2.25833 58.0835C2.2883 57.8736 2.32494 57.666 2.36936 57.4595C2.3849 57.374 2.40266 57.2885 2.42043 57.2041C2.44597 57.0764 2.47483 56.9499 2.50481 56.8233C2.58401 56.4902 2.67394 56.1608 2.77461 55.8351C2.8316 55.653 2.89156 55.4721 2.95448 55.2922C3.3422 54.186 3.85712 53.1286 4.48889 52.1412C5.19144 51.0397 6.03168 50.0323 6.98925 49.1434C7.2213 48.928 7.46001 48.7193 7.70539 48.5206C7.81641 48.4295 7.92744 48.3418 8.03847 48.2563C8.36563 48.0024 8.70464 47.7619 9.05549 47.5346C10.3736 46.6759 11.8172 46.0271 13.3345 45.6116C13.772 45.4917 14.2161 45.3914 14.6669 45.3107C15.0022 45.2493 15.3412 45.2001 15.6839 45.1631C16.0703 45.1209 16.4611 45.092 16.8575 45.0798C17.0285 45.0798 17.2005 45.0709 17.3726 45.0709H29.1428C29.8363 45.0718 30.5179 44.8905 31.1194 44.5453C31.7209 44.2 32.2212 43.7028 32.5702 43.1035C32.6146 43.0302 32.6557 42.9547 32.6935 42.8814C32.7569 42.7553 32.8136 42.626 32.8633 42.4939C33.0133 42.0919 33.097 41.6682 33.1109 41.2393C33.1109 41.2282 33.1109 41.2171 33.1109 41.206C33.1109 41.1727 33.1109 41.1383 33.1109 41.1039C33.1109 41.0883 33.1109 41.0728 33.1109 41.0583C33.1109 41.0439 33.1109 41.0339 33.1109 41.0217C33.106 40.7495 33.0725 40.4786 33.011 40.2134C32.9636 40.0002 32.8971 39.7918 32.8123 39.5905C32.7433 39.4218 32.6624 39.2582 32.5702 39.1009C32.2762 38.5979 31.8752 38.1658 31.3955 37.8352C30.9158 37.5046 30.3692 37.2836 29.7945 37.1879C29.7612 37.1823 29.729 37.1768 29.6957 37.1735C29.5119 37.1468 29.3263 37.1338 29.1405 37.1346H9.28199H9.04883C6.66807 37.079 4.40077 36.1061 2.72021 34.4188C2.61695 34.3156 2.51591 34.2101 2.41821 34.1024C1.66567 33.2759 1.06806 32.3206 0.653965 31.2823C0.573284 31.078 0.499266 30.8704 0.431908 30.6594C0.0278836 29.3806 -0.0946799 28.0296 0.0726294 26.6989C0.239939 25.3683 0.69316 24.0897 1.40119 22.9507C1.52924 22.7442 1.66581 22.5436 1.81088 22.3489C1.96854 22.1335 2.13583 21.9259 2.31273 21.7261C2.34715 21.6861 2.38268 21.6461 2.42376 21.6073C2.52146 21.4962 2.6225 21.3941 2.72576 21.2908C4.40632 19.6036 6.67362 18.6306 9.05438 18.5751C9.1284 18.5751 9.20612 18.5751 9.28754 18.5751C10.717 18.577 12.1184 18.1789 13.3334 17.4259C13.8143 17.1269 14.2611 16.7762 14.6658 16.38C15.5144 15.551 16.1603 14.5373 16.5532 13.4178C16.6243 13.2146 16.6876 13.0059 16.7409 12.7949C16.7864 12.6184 16.8264 12.4407 16.8586 12.2598C16.9408 11.8051 16.9821 11.344 16.9818 10.8819V3.04329C16.9804 2.64464 17.0575 2.2496 17.2089 1.8808C17.3603 1.512 17.5829 1.17667 17.864 0.893996C18.1452 0.611327 18.4793 0.386869 18.8472 0.233467C19.2152 0.0800647 19.6098 0.000730242 20.0085 3.03409e-06H90.6881C92.1581 -0.00118664 93.6073 0.347496 94.9159 1.01723C96.2244 1.68696 97.3548 2.65851 98.2136 3.85158C98.3046 3.97371 98.3901 4.09918 98.4723 4.22575C98.5256 4.30791 98.5833 4.39007 98.6289 4.47445C99.3782 5.71273 99.8279 7.1089 99.9422 8.55173C100.057 9.99455 99.8322 11.4441 99.2872 12.7849C99.2018 12.9959 99.1074 13.2035 99.0063 13.4078C98.0374 15.3552 96.4175 16.902 94.4275 17.7801C94.0964 17.9265 93.7568 18.053 93.4105 18.1587C92.5283 18.429 91.6107 18.566 90.6881 18.5651H83.1382C82.6307 18.5645 82.1257 18.6355 81.6382 18.776C81.4761 18.8238 81.3162 18.8782 81.1607 18.9392C80.9521 19.0211 80.7489 19.116 80.5523 19.2235C80.4124 19.3001 80.2758 19.3834 80.1437 19.4722C79.3585 19.9978 78.724 20.7192 78.3029 21.5651C78.2773 21.6161 78.2529 21.6672 78.2296 21.7194C78.1359 21.9215 78.0558 22.1296 77.9898 22.3423C77.8251 22.8657 77.7416 23.4112 77.7422 23.96C77.7418 24.8479 77.9608 25.7223 78.3798 26.5052C78.7987 27.2882 79.4047 27.9554 80.1437 28.4477C80.4625 28.6616 80.8035 28.8403 81.1607 28.9807C81.7904 29.229 82.4613 29.3559 83.1382 29.3548C83.237 29.3548 83.3347 29.3548 83.4324 29.3615C84.6145 29.4083 85.765 29.7569 86.7743 30.3741C86.8942 30.4462 87.0108 30.5217 87.1252 30.6017L87.1951 30.6516C87.4025 30.7985 87.6012 30.9571 87.7903 31.1268C87.8447 31.1746 87.9013 31.2246 87.9512 31.2745C88.6417 31.9275 89.1915 32.7147 89.5668 33.5878C89.9422 34.4609 90.1352 35.4015 90.1341 36.3518V41.1261C90.1319 42.141 90.4464 43.1313 91.0337 43.959C91.621 44.7867 92.4518 45.4106 93.4105 45.7438C93.476 45.7671 93.5426 45.7882 93.6093 45.8081C93.8735 45.887 94.1466 45.9736 94.4275 46.0713C94.9927 46.2634 95.5867 46.4932 96.194 46.7652C97.2778 47.2434 98.3098 47.8312 99.2739 48.5195C99.5337 48.7071 99.7913 48.9047 100.043 49.1135L100.078 49.1423C100.411 49.421 100.744 49.7208 101.06 50.0394C101.696 50.6765 102.262 51.3787 102.75 52.1346C103.38 53.1144 103.87 54.1771 104.206 55.2922C104.261 55.4698 104.312 55.6508 104.359 55.8351C104.442 56.1549 104.517 56.4846 104.581 56.8233C104.62 57.032 104.655 57.2441 104.684 57.4595C104.713 57.6638 104.739 57.8725 104.758 58.0835C104.814 58.6446 104.842 59.2082 104.841 59.7722Z" fill="#F0F3F9"/>
<path opacity="0.11" d="M98.6289 4.47565H16.9763V3.85278H98.2137C98.3047 3.97491 98.3902 4.10038 98.4724 4.22695C98.5257 4.30911 98.5778 4.39127 98.6289 4.47565Z" fill="#34629B"/>
<path opacity="0.11" d="M99.2872 12.7861C99.2017 12.997 99.1073 13.2046 99.0063 13.4089H16.5476C16.6187 13.2058 16.682 12.997 16.7352 12.7861H99.2872Z" fill="#34629B"/>
<path opacity="0.11" d="M78.2341 21.7206C78.1404 21.9226 78.0603 22.1307 77.9942 22.3434H1.80981C1.96747 22.1281 2.13476 21.9204 2.31166 21.7206H78.2341Z" fill="#34629B"/>
<path opacity="0.11" d="M87.9569 31.2767H0.652965C0.572285 31.0724 0.498265 30.8648 0.430908 30.6539H87.2008C87.4081 30.8007 87.6068 30.9594 87.7959 31.1291C87.8503 31.1768 87.9036 31.2268 87.9569 31.2767Z" fill="#34629B"/>
<path opacity="0.11" d="M90.1396 39.5883V40.2112H33.011C32.9636 39.998 32.8971 39.7895 32.8123 39.5883H90.1396Z" fill="#34629B"/>
<path opacity="0.11" d="M100.076 49.1446H6.98608C7.21813 48.9292 7.45684 48.7205 7.70222 48.5217H99.2741C99.5339 48.7094 99.7915 48.907 100.044 49.1157L100.076 49.1446Z" fill="#34629B"/>
<path opacity="0.11" d="M104.757 58.079H2.25952C2.2895 57.8692 2.32614 57.6615 2.37055 57.455H104.683C104.714 57.6593 104.738 57.868 104.757 58.079Z" fill="#34629B"/>
<path opacity="0.11" d="M103.793 66.3951C103.708 66.6053 103.62 66.8129 103.526 67.0179H3.61724C3.51732 66.8137 3.42183 66.6049 3.33301 66.3951H103.793Z" fill="#34629B"/>
<path opacity="0.11" d="M93.1341 75.3229C92.1478 75.5265 91.1433 75.6289 90.1363 75.6283H84.1741C83.706 75.6271 83.2441 75.7351 82.8251 75.9436H28.7542C28.675 75.9025 28.5939 75.8655 28.511 75.8326C28.1576 75.6929 27.7808 75.6216 27.4007 75.6227H17.3682C17.2094 75.6227 17.0529 75.6227 16.8952 75.616C16.0289 75.5899 15.1665 75.49 14.3171 75.3174L93.1341 75.3229Z" fill="#34629B"/>
<path opacity="0.11" d="M30.4331 84.2574H81.1465V84.8803H30.4331V84.2574Z" fill="#34629B"/>
<path d="M6.08094 91.9305H12.3496C12.8892 91.9305 13.3267 91.493 13.3267 90.9534V90.9523C13.3267 90.4127 12.8892 89.9753 12.3496 89.9753H6.08094C5.54133 89.9753 5.10389 90.4127 5.10389 90.9523V90.9534C5.10389 91.493 5.54133 91.9305 6.08094 91.9305Z" fill="#6E8EC8"/>
<path d="M15.0999 91.9305H103.072C103.612 91.9305 104.049 91.493 104.049 90.9534V90.9523C104.049 90.4127 103.612 89.9753 103.072 89.9753H15.0999C14.5603 89.9753 14.1229 90.4127 14.1229 90.9523V90.9534C14.1229 91.493 14.5603 91.9305 15.0999 91.9305Z" fill="#6E8EC8"/>
<path d="M45.6472 61.149H76.7796V90.1396H45.6472V61.149Z" fill="#547DBA"/>
<path d="M45.6472 68.6667H78.928V81.1286H45.6472V68.6667Z" fill="#34629B"/>
<path d="M72.0498 33.9747H72.9169C79.9193 33.9747 86.6349 36.7564 91.5864 41.7079C96.5378 46.6593 99.3195 53.3749 99.3195 60.3773V61.1545H45.6472V60.3773C45.6472 53.3749 48.4289 46.6593 53.3804 41.7079C58.3318 36.7564 65.0474 33.9747 72.0498 33.9747Z" fill="#547DBA"/>
<path d="M99.3196 60.374V61.1512H86.297V60.374C86.297 47.8844 77.6235 37.4166 65.9722 34.6753C67.9641 34.2072 70.0037 33.9721 72.0499 33.9748H72.917C87.505 33.9748 99.3196 45.7926 99.3196 60.374Z" fill="#34629B"/>
<path d="M45.647 61.149V90.1396H37.5586C37.1758 90.1396 36.8087 89.9876 36.538 89.7169C36.2673 89.4462 36.1152 89.0791 36.1152 88.6963V70.6775C36.1152 69.4259 36.3618 68.1866 36.8409 67.0303C37.3199 65.874 38.0221 64.8235 38.9072 63.9386C39.7924 63.0538 40.8432 62.352 41.9996 61.8733C43.1561 61.3947 44.3955 61.1485 45.647 61.149Z" fill="#BBD7FF"/>
<path d="M39.2619 5.07961V49.9351C39.2619 50.4169 39.0706 50.8789 38.7299 51.2195C38.3893 51.5602 37.9273 51.7515 37.4455 51.7515H18.6673C18.4287 51.7517 18.1924 51.7048 17.972 51.6136C17.7515 51.5224 17.5512 51.3886 17.3825 51.2199C17.2138 51.0512 17.08 50.8509 16.9888 50.6304C16.8976 50.41 16.8507 50.1737 16.8508 49.9351V45.0776C17.0218 45.0776 17.1939 45.0688 17.366 45.0688H29.1428C29.8363 45.0696 30.518 44.8884 31.1195 44.5431C31.721 44.1978 32.2212 43.7007 32.5702 43.1013C32.6147 43.028 32.6557 42.9525 32.6935 42.8793C32.7569 42.7532 32.8136 42.6238 32.8634 42.4918C33.0134 42.0898 33.097 41.666 33.111 41.2372V41.0151C33.0923 40.0892 32.7502 39.199 32.1441 38.4988C31.538 37.7985 30.706 37.3325 29.7923 37.1813C29.759 37.1757 29.7268 37.1702 29.6935 37.1668C29.5097 37.1402 29.3241 37.1272 29.1384 37.128H16.8531V5.07961C16.8529 4.84122 16.8997 4.60513 16.9908 4.38483C17.0819 4.16453 17.2155 3.96433 17.384 3.79566C17.5524 3.62699 17.7525 3.49315 17.9726 3.40179C18.1928 3.31043 18.4289 3.26333 18.6673 3.26318H37.4455C37.9273 3.26318 38.3893 3.45456 38.7299 3.7952C39.0706 4.13585 39.2619 4.59786 39.2619 5.07961Z" fill="#6E8EC8"/>
<path d="M37.0579 7.6509V47.3658C37.0582 47.6046 37.0115 47.8411 36.9203 48.0618C36.8292 48.2825 36.6955 48.483 36.5268 48.652C36.3581 48.821 36.1578 48.9551 35.9372 49.0467C35.7167 49.1382 35.4803 49.1854 35.2415 49.1856H20.8733C20.3916 49.1856 19.9295 48.9942 19.5889 48.6535C19.2483 48.3129 19.0569 47.8509 19.0569 47.3691V45.0775H29.1427C29.8363 45.0784 30.5179 44.8971 31.1194 44.5518C31.7209 44.2066 32.2212 43.7094 32.5702 43.1101C32.6146 43.0368 32.6557 42.9613 32.6934 42.888C32.7568 42.7619 32.8135 42.6326 32.8633 42.5005C33.0133 42.0985 33.0969 41.6748 33.1109 41.2459V41.0238C33.0922 40.0979 32.7502 39.2077 32.144 38.5075C31.5379 37.8073 30.7059 37.3412 29.7922 37.19C29.7589 37.1845 29.7267 37.1789 29.6934 37.1756C29.5096 37.149 29.324 37.136 29.1383 37.1367H19.0569V7.6509C19.0569 7.41236 19.1039 7.17616 19.1952 6.95578C19.2864 6.7354 19.4202 6.53516 19.5889 6.36649C19.7576 6.19782 19.9578 6.06402 20.1782 5.97274C20.3986 5.88146 20.6348 5.83447 20.8733 5.83447H35.2415C35.48 5.83447 35.7162 5.88146 35.9366 5.97274C36.157 6.06402 36.3572 6.19782 36.5259 6.36649C36.6946 6.53516 36.8284 6.7354 36.9197 6.95578C37.011 7.17616 37.0579 7.41236 37.0579 7.6509Z" fill="#E9F1FF"/>
<path d="M37.0578 12.2198V47.3659C37.0581 47.6047 37.0114 47.8412 36.9202 48.0619C36.8291 48.2826 36.6954 48.4832 36.5267 48.6522C36.358 48.8212 36.1577 48.9553 35.9371 49.0468C35.7166 49.1383 35.4802 49.1855 35.2414 49.1857H24.4783V45.0776H29.1415C29.8351 45.0785 30.5167 44.8973 31.1182 44.552C31.7197 44.2067 32.22 43.7095 32.569 43.1102C32.6134 43.0369 32.6545 42.9614 32.6922 42.8881C32.7556 42.7621 32.8123 42.6327 32.8621 42.5007C33.0121 42.0986 33.0957 41.6749 33.1097 41.246V41.024C33.091 40.0981 32.749 39.2079 32.1428 38.5076C31.5367 37.8074 30.7047 37.3413 29.791 37.1902C29.7577 37.1846 29.7255 37.1791 29.6922 37.1757C29.5084 37.1491 29.3228 37.1361 29.1371 37.1369H24.4739V31.4833C24.4739 31.3066 24.5441 31.1372 24.669 31.0122C24.7939 30.8873 24.9634 30.8171 25.14 30.8171H28.6041C28.7808 30.8171 28.9503 30.7469 29.0752 30.622C29.2001 30.4971 29.2703 30.3276 29.2703 30.151V12.886C29.2703 12.7093 29.3405 12.5399 29.4654 12.415C29.5904 12.29 29.7598 12.2198 29.9365 12.2198H37.0578Z" fill="#CDDCF5"/>
<path d="M26.0205 33.1942H26.8554V34.0291H26.0205V33.1942Z" fill="#E9F1FF"/>
<path d="M26.0205 36.9292H26.8554V37.1324H26.0205V36.9292Z" fill="#E9F1FF"/>
<path d="M26.0205 45.072H26.8554V45.2341H26.0205V45.072Z" fill="#E9F1FF"/>
<path d="M26.0205 48.1342H26.8554V48.9691H26.0205V48.1342Z" fill="#E9F1FF"/>
<path d="M29.6934 36.8481V37.1712C29.5095 37.1446 29.324 37.1316 29.1382 37.1324H28.854V36.8481H29.6934Z" fill="#E9F1FF"/>
<path d="M30.7681 13.5399H31.603V14.3749H30.7681V13.5399Z" fill="#E9F1FF"/>
<path d="M30.7681 18.765H31.603V19.5999H30.7681V18.765Z" fill="#E9F1FF"/>
<path d="M30.7681 23.991H31.603V24.826H30.7681V23.991Z" fill="#E9F1FF"/>
<path d="M30.7681 29.2161H31.603V30.051H30.7681V29.2161Z" fill="#E9F1FF"/>
<path d="M30.7681 34.4421H31.603V35.2771H30.7681V34.4421Z" fill="#E9F1FF"/>
<path d="M30.7681 44.8922H31.603V45.7271H30.7681V44.8922Z" fill="#E9F1FF"/>
<path d="M32.6934 16.3644H33.5283V17.1994H32.6934V16.3644Z" fill="#E9F1FF"/>
<path d="M32.6934 21.5895H33.5283V22.4244H32.6934V21.5895Z" fill="#E9F1FF"/>
<path d="M32.6934 26.8145H33.5283V27.6494H32.6934V26.8145Z" fill="#E9F1FF"/>
<path d="M32.6934 32.0406H33.5283V32.8755H32.6934V32.0406Z" fill="#E9F1FF"/>
<path d="M32.6934 37.2656H33.5283V38.1005H32.6934V37.2656Z" fill="#E9F1FF"/>
<path d="M33.5283 42.4917V43.3266H32.6934V42.8825C32.7568 42.7564 32.8135 42.6271 32.8632 42.495L33.5283 42.4917Z" fill="#E9F1FF"/>
<path d="M32.6934 47.7167H33.5283V48.5517H32.6934V47.7167Z" fill="#E9F1FF"/>
<path d="M35.0593 13.4911H35.8943V14.326H35.0593V13.4911Z" fill="#E9F1FF"/>
<path d="M35.0593 18.7172H35.8943V19.5521H35.0593V18.7172Z" fill="#E9F1FF"/>
<path d="M35.0593 23.9422H35.8943V24.7771H35.0593V23.9422Z" fill="#E9F1FF"/>
<path d="M35.0593 29.1683H35.8943V30.0032H35.0593V29.1683Z" fill="#E9F1FF"/>
<path d="M35.0593 34.3933H35.8943V35.2282H35.0593V34.3933Z" fill="#E9F1FF"/>
<path d="M35.0593 39.6183H35.8943V40.4533H35.0593V39.6183Z" fill="#E9F1FF"/>
<path d="M35.0593 44.8444H35.8943V45.6793H35.0593V44.8444Z" fill="#E9F1FF"/>
<path d="M33.111 41.237V50.1481H32.5703V43.1045C32.6147 43.0312 32.6558 42.9557 32.6936 42.8824C32.757 42.7564 32.8137 42.627 32.8634 42.495C33.0138 42.0919 33.0974 41.667 33.111 41.237Z" fill="#6E8EC8"/>
<path d="M33.111 4.86853V41.0194C33.0988 40.3433 32.9126 39.6818 32.5703 39.0986V4.86853H33.111Z" fill="#6E8EC8"/>
<path d="M22.5569 4.86853H23.0976V37.1323H22.5569V4.86853Z" fill="#6E8EC8"/>
<path d="M22.5569 45.072H23.0976V50.1482H22.5569V45.072Z" fill="#6E8EC8"/>
<path d="M38.9111 8.51917V9.05987H16.9453V8.51917H38.9111Z" fill="#6E8EC8"/>
<path d="M38.9111 27.2375V27.7782H16.9452V27.2375H38.9111Z" fill="#6E8EC8"/>
<path d="M17.6907 20.9955H38.4241V23.4448H17.6907V20.9955Z" fill="#6E8EC8"/>
<path d="M81.6426 18.7772C81.4805 18.8249 81.3207 18.8793 81.1652 18.9404C80.9566 19.0222 80.7534 19.1172 80.5568 19.2246C80.4169 19.3012 80.2803 19.3845 80.1482 19.4733C79.6351 19.8138 79.1844 20.2401 78.8159 20.7335H53.1871C52.9277 20.7335 52.6789 20.6304 52.4955 20.447C52.312 20.2635 52.209 20.0147 52.209 19.7553C52.209 19.4959 52.312 19.2471 52.4955 19.0637C52.6789 18.8802 52.9277 18.7772 53.1871 18.7772H81.6426Z" fill="#6285B7"/>
<path d="M48.1162 85.0623L49.2265 64.9206C49.285 63.904 48.9374 62.9058 48.2601 62.1454C47.5828 61.3851 46.6313 60.9248 45.6147 60.8658L45.5126 60.8603C44.4961 60.8018 43.498 61.1494 42.7378 61.8267C41.9776 62.504 41.5176 63.4556 41.4589 64.472L40.3486 84.6148C40.3442 84.6919 40.355 84.769 40.3805 84.8418C40.4061 84.9146 40.4458 84.9816 40.4975 85.0389C40.5491 85.0962 40.6116 85.1427 40.6814 85.1757C40.7511 85.2087 40.8267 85.2275 40.9038 85.2311L47.5044 85.613C47.6584 85.6203 47.809 85.5665 47.9235 85.4634C48.0381 85.3603 48.1073 85.2161 48.1162 85.0623Z" fill="#015D76"/>
<path d="M46.99 84.848L46.902 87.6334L41.2213 87.4539L41.3093 84.6684L46.99 84.848Z" fill="#015D76"/>
<path d="M46.0157 60.9069L60.1596 61.5937C60.5688 61.6136 60.9533 61.795 61.2289 62.098C61.5045 62.4011 61.6486 62.8011 61.6296 63.2102L61.566 64.5188C61.4971 65.9382 60.8671 67.2722 59.8147 68.2271C58.7623 69.182 57.3736 69.6798 55.9542 69.6109L45.6185 69.109C44.5303 69.0562 43.5076 68.5732 42.7755 67.7663C42.0434 66.9594 41.6617 65.8948 41.7146 64.8065C41.7674 63.7183 42.2504 62.6956 43.0573 61.9635C43.8641 61.2313 44.9288 60.8497 46.017 60.9026L46.0157 60.9069Z" fill="#015D76"/>
<path d="M44.47 88.1266L38.8808 88.4319C38.8554 88.0619 38.9038 87.6906 39.0231 87.3394C39.1425 86.9883 39.3304 86.6643 39.576 86.3865C39.8217 86.1086 40.12 85.8823 40.4539 85.7207C40.7877 85.5591 41.1503 85.4655 41.5206 85.4453C41.8909 85.425 42.2616 85.4786 42.611 85.6029C42.9605 85.7271 43.2817 85.9196 43.5561 86.169C43.8306 86.4185 44.0527 86.72 44.2096 87.0561C44.3664 87.3922 44.455 87.756 44.47 88.1266Z" fill="#015D76"/>
<path d="M38.3191 89.1148L38.3091 88.2566C38.3075 88.0777 38.3739 87.9049 38.4949 87.7731C38.6159 87.6414 38.7825 87.5606 38.9608 87.5471L46.3065 87.0075C46.4261 86.9987 46.5462 87.0145 46.6595 87.0539C46.7728 87.0933 46.8768 87.1555 46.9651 87.2366C47.0534 87.3178 47.1242 87.4161 47.173 87.5257C47.2219 87.6352 47.2478 87.7536 47.2491 87.8735L47.2669 89.4623L38.3191 89.1148Z" fill="#015D76"/>
<path d="M47.258 88.9893L47.2635 89.5045C47.265 89.662 47.204 89.8136 47.0939 89.9262C46.9839 90.0387 46.8336 90.1031 46.6762 90.1052L38.7277 90.1929C38.4702 90.1955 38.2222 90.0959 38.0382 89.9158C37.8541 89.7357 37.7491 89.4899 37.7462 89.2325C37.7446 89.1049 37.7681 88.9782 37.8156 88.8597C37.863 88.7412 37.9333 88.6332 38.0225 88.5419C38.1117 88.4507 38.2181 88.3779 38.3355 88.3278C38.4528 88.2776 38.5789 88.2512 38.7066 88.2499L40.9327 88.2255C41.1536 88.2231 41.3665 88.3085 41.5245 88.463C41.6825 88.6175 41.7728 88.8283 41.7754 89.0493L47.258 88.9893Z" fill="#015D76"/>
<path d="M48.5383 49.4967C47.0098 49.2423 45.5644 50.2752 45.31 51.8037C45.0556 53.3322 46.0885 54.7775 47.617 55.0319L57.3578 56.6533C58.8864 56.9077 60.3317 55.8748 60.5861 54.3463C60.8405 52.8178 59.8077 51.3725 58.2792 51.118L48.5383 49.4967Z" fill="#F9A0B4"/>
<path d="M47.1277 55.0658C49.1024 55.0003 50.6601 53.6515 50.6071 52.0532C50.5541 50.4548 48.9103 49.2123 46.9357 49.2778C44.9611 49.3433 43.4033 50.6921 43.4564 52.2904C43.5094 53.8887 45.1531 55.1313 47.1277 55.0658Z" fill="#F9A0B4"/>
<path d="M49.2067 49.5598C49.3952 49.6602 49.5361 49.8313 49.5986 50.0355C49.661 50.2397 49.6399 50.4604 49.5398 50.649C49.4394 50.8375 49.2683 50.9784 49.0641 51.0409C48.8599 51.1033 48.6393 51.0822 48.4506 50.9821L46.2389 49.8008C46.1455 49.7513 46.0628 49.6838 45.9955 49.6023C45.9282 49.5208 45.8777 49.4269 45.8467 49.3258C45.8158 49.2247 45.8051 49.1186 45.8152 49.0134C45.8254 48.9082 45.8562 48.806 45.9058 48.7127C45.9553 48.6193 46.0228 48.5366 46.1043 48.4693C46.1858 48.402 46.2797 48.3514 46.3808 48.3205C46.4819 48.2895 46.588 48.2788 46.6933 48.289C46.7985 48.2991 46.9006 48.3299 46.9939 48.3796" fill="#F9A0B4"/>
<path d="M57.4705 34.1635C58.8355 34.1635 59.942 33.057 59.942 31.692C59.942 30.327 58.8355 29.2205 57.4705 29.2205C56.1056 29.2205 54.999 30.327 54.999 31.692C54.999 33.057 56.1056 34.1635 57.4705 34.1635Z" fill="#4F182E"/>
<path d="M57.2564 34.1535C57.1997 34.1535 57.1453 34.1413 57.0843 34.1324C56.4364 34.0294 55.8561 33.6732 55.4709 33.1422C55.0857 32.6112 54.9272 31.949 55.0302 31.3012C55.1333 30.6534 55.4895 30.073 56.0205 29.6878C56.5514 29.3026 57.2136 29.1441 57.8615 29.2472C57.9192 29.256 57.9725 29.2671 58.0302 29.2805C57.4078 29.2277 56.7885 29.4126 56.2969 29.7979C55.8053 30.1833 55.4778 30.7404 55.3803 31.3574C55.2829 31.9744 55.4226 32.6054 55.7715 33.1235C56.1203 33.6416 56.6525 34.0085 57.2608 34.1502L57.2564 34.1535Z" fill="#622F2B"/>
<path d="M60.2531 32.1317C60.1507 32.779 59.7954 33.3592 59.2653 33.7446C58.7352 34.13 58.0737 34.2891 57.4263 34.1868C57.3686 34.1779 57.312 34.1668 57.2565 34.1535C56.6481 34.0118 56.116 33.645 55.7671 33.1269C55.4183 32.6087 55.2785 31.9777 55.376 31.3607C55.4735 30.7438 55.801 30.1866 56.2926 29.8013C56.7842 29.4159 57.4035 29.2311 58.0259 29.2838C58.0836 29.2838 58.1369 29.296 58.198 29.3049C58.8453 29.4073 59.4255 29.7626 59.8109 30.2927C60.1963 30.8228 60.3554 31.4843 60.2531 32.1317Z" fill="#512522"/>
<path d="M65.4481 42.9791L58.9662 44.1227L58.1713 39.6194L57.7527 37.2434L64.2345 36.0998L64.5465 37.8685L65.4481 42.9791Z" fill="#FFB2BF"/>
<path d="M64.5706 39.0491L58.7686 40.7358C58.4683 40.8231 58.2956 41.1374 58.3829 41.4377L59.1094 43.9367C59.1967 44.237 59.511 44.4097 59.8112 44.3224L65.6132 42.6356C65.9135 42.5483 66.0862 42.2341 65.9989 41.9338L65.2724 39.4348C65.1851 39.1345 64.8709 38.9618 64.5706 39.0491Z" fill="#FFF2EE"/>
<path d="M58.4111 50.4593L70.882 51.0801L70.1895 64.9903L57.7186 64.3695L58.4111 50.4593Z" fill="#FFF2EE"/>
<path d="M71.0624 49.7088C71.2933 45.072 67.8144 41.1307 63.2922 40.9055C58.77 40.6804 54.9169 44.2567 54.686 48.8935C54.4552 53.5302 57.9341 57.4716 62.4563 57.6967C66.9785 57.9218 70.8316 54.3455 71.0624 49.7088Z" fill="#FFF2EE"/>
<path d="M62.89 57.7104C62.7467 57.7104 62.6035 57.7104 62.4592 57.7004C57.937 57.4783 54.4585 53.5335 54.6872 48.8969C54.9159 44.2604 58.7708 40.6808 63.293 40.9084C63.4307 40.9151 63.5672 40.9251 63.7027 40.9395C59.3726 40.9539 55.7519 44.4491 55.5288 48.9335C55.3056 53.418 58.5698 57.2751 62.89 57.7104Z" fill="white"/>
<path d="M70.2198 64.945C70.1877 65.663 70.0133 66.3675 69.7069 67.0176C69.4004 67.6677 68.9679 68.2505 68.4345 68.7322C67.5213 69.5618 66.3372 70.0303 65.1036 70.0501H65.047C64.9593 70.0501 64.8727 70.0501 64.7838 70.0501L54.7857 69.5638C54.2617 69.5381 53.7483 69.4069 53.2763 69.1779C52.8043 68.949 52.3834 68.6271 52.0389 68.2314C51.5529 67.6754 51.2244 66.9996 51.0874 66.274C51.0275 65.9628 51.0029 65.6459 51.0141 65.3291C51.0918 63.0375 53.0415 61.2522 55.2576 61.361L70.3575 62.0949L70.2198 64.945Z" fill="#007391"/>
<path d="M57.707 67.8384L57.5749 67.9839L56.0749 69.6249L48.4139 78.012L41.337 85.7573C41.2617 85.8397 41.171 85.9065 41.07 85.9538C40.9689 86.0012 40.8596 86.0281 40.7481 86.0332C40.6367 86.0382 40.5253 86.0213 40.4204 85.9833C40.3155 85.9453 40.2191 85.887 40.1367 85.8117L35.6467 81.7037C35.5644 81.6286 35.4976 81.5379 35.4503 81.437C35.403 81.336 35.376 81.2268 35.371 81.1154C35.3659 81.004 35.3829 80.8928 35.4209 80.7879C35.4588 80.6831 35.5171 80.5868 35.5923 80.5046L38.3192 77.5179L49.0779 65.7489L51.9646 62.5935C52.6601 61.832 53.6297 61.378 54.6599 61.3313C55.6902 61.2847 56.6968 61.6492 57.4583 62.3447C58.2198 63.0403 58.6738 64.0098 58.7204 65.0401C58.7671 66.0703 58.4025 67.0769 57.707 67.8384Z" fill="#007391"/>
<path d="M40.0083 85.6932L37.5757 88.3554L33.3374 84.4826L35.77 81.8204L40.0083 85.6932Z" fill="#FFB2BF"/>
<path d="M40.0095 85.6935L39.2104 86.568L34.9721 82.6952L35.7712 81.8206L40.0095 85.6935Z" fill="#F9A0B4"/>
<path d="M65.6899 50.9332C68.0464 50.9332 69.9567 49.0229 69.9567 46.6664C69.9567 44.3099 68.0464 42.3995 65.6899 42.3995C63.3334 42.3995 61.4231 44.3099 61.4231 46.6664C61.4231 49.0229 63.3334 50.9332 65.6899 50.9332Z" fill="#F9CABD"/>
<path d="M69.0471 46.619C68.9303 44.8563 67.4066 43.522 65.6439 43.6387C63.8811 43.7555 62.5468 45.2792 62.6636 47.0419L63.303 56.6947C63.4198 58.4574 64.9435 59.7917 66.7062 59.675C68.4689 59.5582 69.8033 58.0345 69.6865 56.2718L69.0471 46.619Z" fill="#329DA3"/>
<path d="M66.2854 59.7967C68.2838 59.7967 69.9038 58.1766 69.9038 56.1782C69.9038 54.1798 68.2838 52.5598 66.2854 52.5598C64.287 52.5598 62.667 54.1798 62.667 56.1782C62.667 58.1766 64.287 59.7967 66.2854 59.7967Z" fill="#F9CABD"/>
<path d="M66.3594 59.4689C67.908 59.5252 69.2089 58.3154 69.2651 56.7669C69.3214 55.2184 68.1116 53.9175 66.5631 53.8612L56.6947 53.5028C55.1462 53.4466 53.8453 54.6563 53.7891 56.2048C53.7328 57.7534 54.9425 59.0543 56.4911 59.1105L66.3594 59.4689Z" fill="#FFB2BF"/>
<path d="M56.0177 59.2029C57.9676 58.8846 59.3395 57.3471 59.0819 55.7688C58.8243 54.1905 57.0347 53.169 55.0848 53.4873C53.1349 53.8055 51.763 55.343 52.0206 56.9213C52.2783 58.4997 54.0678 59.5212 56.0177 59.2029Z" fill="#FFB2BF"/>
<path d="M55.0862 58.513C55.5267 58.4533 55.8355 58.048 55.7758 57.6078C55.7161 57.1675 55.3106 56.8591 54.8701 56.9188L52.3858 57.2556C51.9452 57.3153 51.6365 57.7206 51.6962 58.1608C51.7558 58.601 52.1613 58.9095 52.6019 58.8498L55.0862 58.513Z" fill="#FFB2BF"/>
<path d="M53.4965 57.2011C53.9371 57.1414 54.2459 56.7362 54.1863 56.296C54.1267 55.8557 53.7212 55.5472 53.2807 55.6068L50.7963 55.9432C50.3558 56.0028 50.047 56.4081 50.1066 56.8483C50.1662 57.2885 50.5716 57.5971 51.0122 57.5374L53.4965 57.2011Z" fill="#FFB2BF"/>
<path d="M54.5847 55.4415C55.0252 55.3818 55.334 54.9765 55.2743 54.5362C55.2146 54.096 54.8091 53.7875 54.3686 53.8473L51.8843 54.184C51.4438 54.2438 51.135 54.6491 51.1947 55.0893C51.2544 55.5295 51.6599 55.838 52.1004 55.7783L54.5847 55.4415Z" fill="#FFB2BF"/>
<path d="M56.8 54.9885C57.2158 55.1459 57.6803 54.9366 57.8376 54.5211C57.9948 54.1056 57.7853 53.6412 57.3695 53.4839L55.0248 52.5965C54.609 52.4391 54.1444 52.6484 53.9872 53.0639C53.8299 53.4794 54.0395 53.9438 54.4553 54.1011L56.8 54.9885Z" fill="#FFB2BF"/>
<path d="M65.0968 57.5961L65.0968 57.595C65.117 57.0399 64.6832 56.5734 64.128 56.5533L60.1459 56.4086C59.5907 56.3885 59.1243 56.8222 59.1041 57.3774L59.1041 57.3785C59.0839 57.9337 59.5176 58.4001 60.0728 58.4203L64.055 58.5649C64.6102 58.5851 65.0766 58.1513 65.0968 57.5961Z" fill="#FDC3CD"/>
<path d="M64.5464 37.8685C64.0861 38.5157 63.4734 39.0395 62.7625 39.3937C62.0517 39.7479 61.2645 39.9215 60.4706 39.8992L59.267 39.8659C58.8891 39.8563 58.5168 39.7725 58.1712 39.6194L57.7493 37.2434L64.2311 36.0998L64.5464 37.8685Z" fill="#F9A0B4"/>
<path d="M58.7363 28.3014L62.6308 28.4081C62.9766 28.4176 63.317 28.4951 63.6328 28.6361C63.9486 28.7772 64.2335 28.9791 64.4712 29.2302C64.709 29.4814 64.895 29.7769 65.0185 30.0999C65.1421 30.423 65.2008 30.7672 65.1913 31.1129L65.0925 34.7177C65.0573 36.0005 64.514 37.2168 63.5821 38.0991C62.6501 38.9813 61.4059 39.4571 60.1231 39.422L58.9189 39.389C58.1482 39.3679 57.4173 39.0417 56.8868 38.4822C56.3564 37.9227 56.0696 37.1755 56.0896 36.4047L56.2471 30.6578C56.2558 30.3397 56.3271 30.0263 56.4569 29.7357C56.5867 29.4451 56.7725 29.1829 57.0037 28.9641C57.2348 28.7453 57.5068 28.5741 57.8041 28.4604C58.1014 28.3467 58.4181 28.2927 58.7363 28.3014Z" fill="#FFB2BF"/>
<path d="M63.5338 28.5943C63.4035 28.5719 63.2718 28.5585 63.1397 28.5543L59.2459 28.4433C58.6033 28.4259 57.9802 28.6643 57.5133 29.1061C57.0463 29.5478 56.7738 30.1568 56.7555 30.7993L56.5979 36.5417C56.5816 37.1394 56.7496 37.7277 57.0791 38.2266C57.4086 38.7256 57.8837 39.111 58.4398 39.3307C57.7643 39.1983 57.1575 38.8308 56.7274 38.2933C56.2972 37.7558 56.0716 37.0833 56.0905 36.3951L56.247 30.6527C56.2662 30.0109 56.5391 29.4029 57.006 28.962C57.4728 28.5212 58.0955 28.2835 58.7374 28.3011L62.6311 28.4122C62.9404 28.4191 63.246 28.4807 63.5338 28.5943Z" fill="#FDC3CD"/>
<path d="M59.5642 34.2208L59.4677 34.2182C57.5877 34.1666 56.0219 35.6489 55.9704 37.5288L55.9298 39.0105C55.8783 40.8905 57.3605 42.4563 59.2405 42.5078L59.337 42.5104C61.217 42.562 62.7828 41.0797 62.8343 39.1998L62.8749 37.7181C62.9264 35.8381 61.4442 34.2723 59.5642 34.2208Z" fill="#622F2B"/>
<path d="M58.7466 34.2206L58.6501 34.2179C56.7701 34.1664 55.2043 35.6486 55.1528 37.5286L55.1122 39.0103C55.0607 40.8902 56.5429 42.456 58.4229 42.5075L58.5194 42.5102C60.3994 42.5617 61.9652 41.0795 62.0167 39.1995L62.0573 37.7178C62.1088 35.8379 60.6266 34.2721 58.7466 34.2206Z" fill="#622F2B"/>
<path d="M58.8351 42.504C58.7308 42.5118 58.6253 42.5129 58.5198 42.5106H58.4232C57.5205 42.4857 56.6646 42.1032 56.0437 41.4474C55.4229 40.7915 55.0879 39.916 55.1123 39.0132L55.1534 37.5321C55.1656 37.0851 55.2658 36.6448 55.4482 36.2365C55.6306 35.8282 55.8916 35.4597 56.2164 35.1523C56.5411 34.8449 56.9233 34.6044 57.341 34.4446C57.7587 34.2849 58.2038 34.209 58.6508 34.2213H58.7474H58.8251C57.9774 34.2758 57.1807 34.6452 56.5914 35.2569C56.002 35.8686 55.6626 36.6786 55.6397 37.5277L55.5998 39.0088C55.5749 39.8988 55.8996 40.7631 56.5044 41.4164C57.1092 42.0698 57.9459 42.4602 58.8351 42.504Z" fill="#774340"/>
<path d="M63.4136 30.0799L65.2483 30.1302C65.4708 30.1363 65.6818 30.2306 65.8348 30.3922C65.9879 30.5539 66.0704 30.7698 66.0643 30.9923L65.9785 34.1221C65.9719 34.3644 65.8693 34.5941 65.6933 34.7607C65.5173 34.9273 65.2823 35.0171 65.0401 35.0105L65.0334 35.0103C64.568 34.9976 64.1268 34.8005 63.8067 34.4624C63.4867 34.1243 63.3141 33.6729 63.3268 33.2075L63.4126 30.0777L63.4136 30.0799Z" fill="#622F2B"/>
<path d="M64.825 35.3415C65.6669 35.3415 66.3494 34.659 66.3494 33.8171C66.3494 32.9752 65.6669 32.2927 64.825 32.2927C63.983 32.2927 63.3005 32.9752 63.3005 33.8171C63.3005 34.659 63.983 35.3415 64.825 35.3415Z" fill="#FFB2BF"/>
<path d="M63.5984 27.0207L57.8803 26.864C56.5447 26.8274 55.4322 27.8805 55.3956 29.2161L55.3956 29.2172C55.359 30.5529 56.4121 31.6653 57.7477 31.7019L63.4658 31.8587C64.8014 31.8953 65.9138 30.8422 65.9504 29.5065L65.9505 29.5054C65.9871 28.1698 64.934 27.0573 63.5984 27.0207Z" fill="#622F2B"/>
<path d="M62.4423 27.9465L58.985 27.8517C58.1771 27.8296 57.5043 28.4663 57.4821 29.2739C57.46 30.0815 58.097 30.7541 58.9049 30.7762L62.3621 30.871C63.17 30.8931 63.8429 30.2564 63.865 29.4488C63.8871 28.6413 63.2501 27.9686 62.4423 27.9465Z" fill="#774340"/>
<path d="M65.1037 27.6006C64.8741 27.5231 64.6342 27.4804 64.392 27.474L58.6751 27.313C58.3575 27.3047 58.0413 27.3592 57.7446 27.4732C57.448 27.5872 57.1767 27.7586 56.9464 27.9775C56.716 28.1964 56.5311 28.4586 56.4021 28.749C56.2731 29.0394 56.2027 29.3525 56.1948 29.6702V29.7379C56.1948 30.0865 56.2702 30.4311 56.4158 30.7479C56.5615 31.0646 56.7739 31.3462 57.0386 31.5732C56.5605 31.4105 56.1453 31.1022 55.8512 30.6917C55.5571 30.2811 55.3989 29.7888 55.3987 29.2838C55.3987 29.2616 55.3987 29.2383 55.3987 29.216C55.4179 28.5762 55.6897 27.97 56.1548 27.5301C56.6198 27.0902 57.2402 26.8525 57.8802 26.8689L63.597 27.0255C64.1503 27.0388 64.6822 27.2419 65.1037 27.6006Z" fill="#774340"/>
<path d="M58.2534 35.1639C58.252 35.4316 58.3566 35.6891 58.5443 35.88C58.5676 35.9033 58.5921 35.9244 58.6165 35.9455C58.7961 36.0962 59.0227 36.1795 59.2571 36.1809H59.3038C59.5573 36.1827 59.8022 36.089 59.9899 35.9185C60.1775 35.748 60.294 35.513 60.3163 35.2605C60.3163 35.2331 60.3163 35.2053 60.3163 35.1772C60.3168 35.1515 60.3121 35.1261 60.3026 35.1022C60.293 35.0784 60.2788 35.0567 60.2608 35.0384C60.224 35.0015 60.1742 34.9804 60.122 34.9796L58.4566 34.9696C58.4304 34.9685 58.4042 34.9728 58.3797 34.9821C58.3552 34.9913 58.3327 35.0055 58.3138 35.0236C58.2948 35.0417 58.2797 35.0635 58.2693 35.0876C58.259 35.1117 58.2536 35.1376 58.2534 35.1639Z" fill="#962F4A"/>
<path d="M59.2781 36.0254C59.2778 36.0775 59.2826 36.1296 59.2925 36.1808H59.3036C59.557 36.1821 59.8017 36.0883 59.9892 35.9178C60.1767 35.7474 60.2934 35.5128 60.3162 35.2604C60.2442 35.2387 60.1694 35.2275 60.0941 35.2271C59.988 35.2255 59.8826 35.2449 59.7841 35.2842C59.6855 35.3235 59.5957 35.382 59.5198 35.4562C59.4439 35.5304 59.3835 35.6189 59.342 35.7166C59.3005 35.8143 59.2788 35.9192 59.2781 36.0254Z" fill="#E1617F"/>
<path d="M58.4878 34.974C58.4945 35.1716 58.7987 35.3326 59.1751 35.3348C59.5514 35.3371 59.8568 35.1805 59.8657 34.9829L58.4878 34.974Z" fill="white"/>
<path d="M59.6455 36.1209C59.5279 36.0565 59.3966 36.0212 59.2626 36.018C59.1285 36.0147 58.9956 36.0435 58.875 36.1021C58.996 36.1527 59.1257 36.1795 59.2569 36.1809H59.3036C59.4202 36.181 59.5359 36.1607 59.6455 36.1209Z" fill="white"/>
<path d="M60.7468 34.0657C60.9381 34.0657 61.0932 33.9107 61.0932 33.7193C61.0932 33.528 60.9381 33.3729 60.7468 33.3729C60.5555 33.3729 60.4004 33.528 60.4004 33.7193C60.4004 33.9107 60.5555 34.0657 60.7468 34.0657Z" fill="#592702"/>
<path d="M57.4795 33.9802C57.6708 33.9802 57.8259 33.8251 57.8259 33.6338C57.8259 33.4425 57.6708 33.2874 57.4795 33.2874C57.2881 33.2874 57.1331 33.4425 57.1331 33.6338C57.1331 33.8251 57.2881 33.9802 57.4795 33.9802Z" fill="#592702"/>
<path d="M35.5436 87.2374L31.1169 83.8099C31.342 83.5193 31.6221 83.2758 31.9412 83.0934C32.2604 82.911 32.6123 82.7932 32.977 82.7468C33.3417 82.7004 33.7119 82.7263 34.0666 82.823C34.4212 82.9197 34.7534 83.0853 35.044 83.3103C35.3347 83.5354 35.5782 83.8155 35.7606 84.1346C35.943 84.4538 36.0608 84.8057 36.1072 85.1704C36.1536 85.535 36.1277 85.9053 36.031 86.2599C35.9343 86.6146 35.7687 86.9467 35.5436 87.2374Z" fill="#007391"/>
<path d="M30.2363 83.9553L30.7915 83.3002C30.9071 83.1637 31.0704 83.0763 31.2481 83.0557C31.4258 83.0351 31.6047 83.0828 31.7485 83.1892L37.653 87.5893C37.7494 87.6608 37.83 87.7514 37.89 87.8554C37.95 87.9593 37.988 88.0745 38.0017 88.1937C38.0155 88.313 38.0046 88.4337 37.9698 88.5486C37.9351 88.6635 37.8771 88.77 37.7996 88.8616L36.7737 90.0741L30.2363 83.9553Z" fill="#FFF2EE"/>
<path d="M37.0813 89.711L36.7482 90.1019C36.6459 90.2227 36.4997 90.2979 36.3419 90.3111C36.1841 90.3242 36.0275 90.2741 35.9066 90.1718L29.8412 85.039C29.6452 84.8719 29.5235 84.634 29.5027 84.3774C29.4819 84.1208 29.5637 83.8664 29.7301 83.67C29.897 83.4738 30.1349 83.3519 30.3916 83.3311C30.6483 83.3102 30.9028 83.3922 31.0991 83.5589L32.7978 84.9968C32.8815 85.0674 32.9504 85.1539 33.0005 85.2512C33.0507 85.3485 33.0812 85.4547 33.0903 85.5638C33.0994 85.673 33.0868 85.7828 33.0534 85.887C33.02 85.9913 32.9664 86.0879 32.8955 86.1714L37.0813 89.711Z" fill="#007391"/>
<path d="M65.3913 33.8414C65.3939 33.9836 65.3546 34.1233 65.2781 34.2432C65.2017 34.3631 65.0916 34.4578 64.9617 34.5154C64.9304 34.5279 64.8965 34.5325 64.8631 34.5289C64.8296 34.5254 64.7975 34.5136 64.7696 34.4948C64.7417 34.476 64.7188 34.4506 64.7029 34.4209C64.687 34.3912 64.6787 34.3581 64.6785 34.3244L64.6619 33.3851C64.6613 33.3499 64.6697 33.3151 64.6862 33.284C64.7027 33.2529 64.7269 33.2264 64.7563 33.2071C64.7858 33.1879 64.8197 33.1764 64.8548 33.1737C64.8899 33.171 64.9252 33.1773 64.9572 33.1919C65.0843 33.2471 65.1928 33.3377 65.2698 33.4529C65.3468 33.568 65.389 33.7029 65.3913 33.8414Z" fill="#F9A0B4"/>
<path d="M54.0574 61.1493L52.6064 61.1306L52.6099 60.853C52.6116 60.7267 52.6633 60.6062 52.7538 60.518C52.8443 60.4299 52.966 60.3812 53.0924 60.3829L53.5853 60.3892C53.7116 60.3909 53.8321 60.4426 53.9203 60.5331C54.0084 60.6236 54.057 60.7454 54.0554 60.8717L54.0518 61.1492L54.0574 61.1493Z" fill="#D7E2FF"/>
<path d="M55.5075 61.1673L54.0565 61.1485L54.0601 60.871C54.0617 60.7447 54.1135 60.6242 54.204 60.536C54.2944 60.4478 54.4162 60.3992 54.5425 60.4009L55.0432 60.4073C55.1695 60.409 55.29 60.4607 55.3782 60.5512C55.4664 60.6416 55.515 60.7634 55.5134 60.8897L55.5098 61.1673L55.5075 61.1673Z" fill="#D7E2FF"/>
<path d="M56.958 61.1863L55.507 61.1675L55.5106 60.89C55.5122 60.7637 55.5639 60.6432 55.6544 60.555C55.7449 60.4668 55.8667 60.4182 55.993 60.4199L56.4904 60.4263C56.6167 60.4279 56.7372 60.4797 56.8253 60.5701C56.9135 60.6606 56.9621 60.7824 56.9605 60.9087L56.9569 61.1863L56.958 61.1863Z" fill="#D7E2FF"/>
<path d="M58.4097 61.2053L56.9586 61.1865L56.9622 60.909C56.9639 60.7827 57.0156 60.6622 57.1061 60.574C57.1966 60.4858 57.3183 60.4372 57.4447 60.4388L57.942 60.4453C58.0683 60.4469 58.1888 60.4986 58.277 60.5891C58.3652 60.6796 58.4138 60.8014 58.4121 60.9277L58.4086 61.2052L58.4097 61.2053Z" fill="#D7E2FF"/>
<path d="M59.8601 61.2231L58.4102 61.2044L58.4138 60.9269C58.4154 60.8006 58.4672 60.6801 58.5576 60.5919C58.6481 60.5037 58.7699 60.4551 58.8962 60.4568L59.3936 60.4632C59.5199 60.4648 59.6404 60.5166 59.7285 60.607C59.8167 60.6975 59.8653 60.8193 59.8637 60.9456L59.8601 61.2231Z" fill="#D7E2FF"/>
<path d="M61.3127 61.2422L59.8617 61.2235L59.8653 60.946C59.8669 60.8196 59.9187 60.6991 60.0092 60.611C60.0996 60.5228 60.2214 60.4742 60.3477 60.4758L60.8451 60.4823C60.9714 60.4839 61.0919 60.5356 61.1801 60.6261C61.2682 60.7166 61.3168 60.8384 61.3152 60.9647L61.3116 61.2422L61.3127 61.2422Z" fill="#D7E2FF"/>
<path d="M62.762 61.2601L61.3109 61.2413L61.3145 60.9638C61.3162 60.8375 61.3679 60.717 61.4584 60.6288C61.5488 60.5406 61.6706 60.492 61.797 60.4937L62.2943 60.5001C62.4206 60.5017 62.5411 60.5535 62.6293 60.6439C62.7175 60.7344 62.7661 60.8562 62.7644 60.9825L62.7609 61.2601L62.762 61.2601Z" fill="#D7E2FF"/>
<path d="M48.7094 61.8536L64.09 62.0523C64.4162 62.0565 64.6841 61.7955 64.6883 61.4693L64.6883 61.4682C64.6925 61.142 64.4315 60.8742 64.1053 60.87L48.7247 60.6713C48.3985 60.6671 48.1307 60.9281 48.1265 61.2543L48.1264 61.2554C48.1222 61.5816 48.3832 61.8494 48.7094 61.8536Z" fill="#64617F"/>
<path d="M52.6764 61.9106L38.8578 61.7318C38.5762 61.7281 38.3039 61.6305 38.0841 61.4545C37.8643 61.2785 37.7095 61.0342 37.6442 60.7603L35.0906 50.025C35.0465 49.838 35.0457 49.6435 35.088 49.4562C35.1304 49.2688 35.2149 49.0936 35.335 48.9438C35.4552 48.794 35.6079 48.6735 35.7816 48.5915C35.9553 48.5095 36.1454 48.4681 36.3374 48.4706L48.5339 48.6304C48.8155 48.6342 49.0877 48.7317 49.3076 48.9077C49.5274 49.0837 49.6822 49.328 49.7474 49.6019L52.6764 61.9106Z" fill="#7D7BA3"/>
<path d="M35.0881 50.0273L37.6418 60.7615C37.7074 61.0356 37.8626 61.28 38.0828 61.4558C38.3031 61.6316 38.5758 61.7288 38.8576 61.7319L52.6762 61.9096L52.3942 60.7227L41.4756 60.5828C41.194 60.5791 40.9218 60.4815 40.7019 60.3055C40.4821 60.1295 40.3273 59.8852 40.2621 59.6113L37.7084 48.877C37.678 48.7491 37.6675 48.6173 37.6773 48.4862L36.3372 48.4684C36.1446 48.4657 35.9539 48.507 35.7796 48.5892C35.6054 48.6714 35.4522 48.7922 35.3317 48.9426C35.2112 49.0929 35.1267 49.2688 35.0845 49.4568C35.0423 49.6447 35.0435 49.8399 35.0881 50.0273Z" fill="#64617F"/>
<path d="M43.0223 56.2159C43.4043 56.2159 43.714 55.9063 43.714 55.5242C43.714 55.1422 43.4043 54.8325 43.0223 54.8325C42.6403 54.8325 42.3306 55.1422 42.3306 55.5242C42.3306 55.9063 42.6403 56.2159 43.0223 56.2159Z" fill="#D7E2FF"/>
<path d="M42.0833 56.548C42.1904 56.7199 42.3346 56.8656 42.5054 56.9744C42.6762 57.0832 42.8693 57.1524 43.0703 57.1768C43.2714 57.2013 43.4754 57.1803 43.6673 57.1156C43.8592 57.0508 44.0341 56.9439 44.1793 56.8026C44.3244 56.6614 44.4361 56.4894 44.5061 56.2993C44.576 56.1093 44.6025 55.9059 44.5836 55.7043C44.5646 55.5026 44.5008 55.3078 44.3966 55.1341C44.2925 54.9604 44.1508 54.8122 43.9818 54.7004C44.1446 54.9629 44.2128 55.2729 44.1753 55.5794C44.1378 55.8859 43.9969 56.1704 43.7757 56.3859C43.5545 56.6013 43.2665 56.7348 42.9591 56.7643C42.6518 56.7938 42.3436 56.7175 42.0855 56.548H42.0833Z" fill="#D7E2FF"/>
<path d="M62.4543 11.0378C62.6615 11.5403 62.6605 12.1046 62.4516 12.6065C62.2427 13.1083 61.843 13.5066 61.3404 13.7138L60.3068 14.1398C60.0996 13.6372 60.1006 13.073 60.3095 12.5711C60.5184 12.0693 60.9181 11.671 61.4206 11.4638L62.4543 11.0378Z" fill="#6E8EC8"/>
<path d="M59.8181 9.04181C60.0673 9.14405 60.2939 9.29439 60.4849 9.48425C60.676 9.67412 60.8277 9.89977 60.9315 10.1483C61.0353 10.3969 61.089 10.6634 61.0897 10.9328C61.0904 11.2021 61.038 11.469 60.9355 11.718L60.5095 12.7517C60.2606 12.6492 60.0344 12.4986 59.8437 12.3086C59.6531 12.1186 59.5017 11.8929 59.3983 11.6444C59.2949 11.3959 59.2414 11.1295 59.2409 10.8604C59.2404 10.5912 59.293 10.3246 59.3956 10.0757L59.8212 9.04308L59.8181 9.04181Z" fill="#6285B7"/>
<path d="M60.3115 14.1394L59.2778 13.7134C58.7752 13.5062 58.3755 13.1079 58.1666 12.6061C57.9577 12.1043 57.9568 11.54 58.1639 11.0374L59.1976 11.4635C59.7002 11.6706 60.0999 12.0689 60.3088 12.5708C60.5177 13.0726 60.5186 13.6369 60.3115 14.1394Z" fill="#6E8EC8"/>
<path d="M63.8913 15.1076C63.8913 16.0804 63.5049 17.0133 62.817 17.7012C62.1292 18.389 61.1963 18.7754 60.2235 18.7754C59.2507 18.7754 58.3178 18.389 57.63 17.7012C56.9421 17.0133 56.5557 16.0804 56.5557 15.1076C56.5554 14.9663 56.5635 14.825 56.5801 14.6846C56.5985 14.5229 56.6278 14.3627 56.6678 14.205H63.7803C63.8205 14.3626 63.8494 14.5229 63.8669 14.6846C63.884 14.8249 63.8922 14.9662 63.8913 15.1076Z" fill="#6E8EC8"/>
<path d="M64.0335 13.2457H56.5846C56.3197 13.2457 56.105 13.4604 56.105 13.7253V13.7264C56.105 13.9913 56.3197 14.2061 56.5846 14.2061H64.0335C64.2984 14.2061 64.5132 13.9913 64.5132 13.7264V13.7253C64.5132 13.4604 64.2984 13.2457 64.0335 13.2457Z" fill="#6285B7"/>
<path d="M63.8669 14.6846H56.5801C56.5985 14.5229 56.6278 14.3627 56.6678 14.205H63.7803C63.8204 14.3626 63.8494 14.5229 63.8669 14.6846Z" fill="#4575AF"/>
<path d="M80.0198 12.7231C80.1818 13.1163 80.181 13.5577 80.0176 13.9502C79.8542 14.3428 79.5416 14.6543 79.1484 14.8164L78.3406 15.1494C78.2604 14.9547 78.2192 14.7461 78.2196 14.5356C78.22 14.3251 78.2618 14.1167 78.3427 13.9223C78.4236 13.7279 78.542 13.5514 78.6912 13.4028C78.8403 13.2541 79.0173 13.1364 79.2119 13.0561L80.0198 12.7231Z" fill="#6E8EC8"/>
<path d="M77.957 11.1615C78.3502 11.3235 78.6628 11.6351 78.8262 12.0277C78.9896 12.4202 78.9904 12.8616 78.8284 13.2547L78.4954 14.0626C78.1023 13.9006 77.7896 13.589 77.6262 13.1964C77.4628 12.8039 77.462 12.3625 77.6241 11.9694L77.957 11.1615Z" fill="#6285B7"/>
<path d="M78.3422 15.1488L77.5343 14.8159C77.3397 14.7356 77.1627 14.6179 77.0136 14.4692C76.8644 14.3206 76.746 14.1441 76.6651 13.9497C76.5842 13.7553 76.5424 13.5469 76.542 13.3364C76.5416 13.1258 76.5828 12.9173 76.663 12.7226L77.4708 13.0556C77.864 13.2176 78.1766 13.5292 78.34 13.9218C78.5034 14.3143 78.5042 14.7557 78.3422 15.1488Z" fill="#6E8EC8"/>
<path d="M81.1441 15.907C81.1293 16.6583 80.8205 17.3738 80.284 17.8999C79.7475 18.426 79.026 18.7207 78.2746 18.7207C77.5232 18.7207 76.8017 18.426 76.2652 17.8999C75.7287 17.3738 75.4198 16.6583 75.4051 15.907C75.4045 15.7957 75.4108 15.6845 75.4239 15.5739C75.4378 15.4474 75.4608 15.3219 75.4928 15.1987H81.0564C81.1149 15.4295 81.1443 15.6667 81.1441 15.9048V15.907Z" fill="#6E8EC8"/>
<path d="M81.2541 14.4493H75.4273C75.22 14.4493 75.052 14.6173 75.052 14.8246C75.052 15.0318 75.22 15.1998 75.4273 15.1998H81.2541C81.4613 15.1998 81.6293 15.0318 81.6293 14.8246C81.6293 14.6173 81.4613 14.4493 81.2541 14.4493Z" fill="#6285B7"/>
<path d="M81.1251 15.5762H75.4238C75.4377 15.4496 75.4607 15.3242 75.4927 15.2009H81.0563C81.0872 15.3244 81.1102 15.4498 81.1251 15.5762Z" fill="#4575AF"/>
<path d="M67.6864 5.28271H69.4262C69.685 5.28271 69.9333 5.38554 70.1163 5.56856C70.2993 5.75158 70.4021 5.99982 70.4021 6.25865V18.776H66.7104V6.25755C66.7107 5.9989 66.8137 5.75095 66.9967 5.56817C67.1797 5.38538 67.4277 5.28271 67.6864 5.28271Z" fill="#6E8EC8"/>
<path d="M68.5557 13.2191C69.2131 13.2191 69.7459 12.6862 69.7459 12.0288C69.7459 11.3715 69.2131 10.8386 68.5557 10.8386C67.8984 10.8386 67.3655 11.3715 67.3655 12.0288C67.3655 12.6862 67.8984 13.2191 68.5557 13.2191Z" fill="#4575AF"/>
<path d="M68.5555 12.8882C68.5111 12.8958 68.4661 12.8995 68.4211 12.8993C68.1905 12.8993 67.9694 12.8077 67.8064 12.6447C67.6434 12.4816 67.5518 12.2605 67.5518 12.0299C67.5518 11.7994 67.6434 11.5782 67.8064 11.4152C67.9694 11.2522 68.1905 11.1606 68.4211 11.1606C68.4661 11.1605 68.511 11.1638 68.5555 11.1706C68.3508 11.2028 68.1644 11.3069 68.0297 11.4644C67.8951 11.6219 67.8211 11.8222 67.8211 12.0294C67.8211 12.2365 67.8951 12.4369 68.0297 12.5944C68.1644 12.7518 68.3508 12.856 68.5555 12.8882Z" fill="#6E8EC8"/>
<path d="M71.1293 8.71466H72.4272C72.6201 8.71466 72.8051 8.79128 72.9414 8.92766C73.0778 9.06405 73.1544 9.24902 73.1544 9.4419V18.7761H70.4065V9.43746C70.4077 9.24612 70.4842 9.06295 70.6195 8.92765C70.7548 8.79235 70.938 8.71583 71.1293 8.71466Z" fill="#6285B7"/>
<path d="M71.7779 14.6335C72.2684 14.6335 72.6661 14.2358 72.6661 13.7453C72.6661 13.2547 72.2684 12.8571 71.7779 12.8571C71.2873 12.8571 70.8896 13.2547 70.8896 13.7453C70.8896 14.2358 71.2873 14.6335 71.7779 14.6335Z" fill="#6E8EC8"/>
<path d="M71.7778 14.386C71.7444 14.3914 71.7106 14.394 71.6767 14.3937C71.5048 14.3937 71.3398 14.3254 71.2182 14.2038C71.0966 14.0822 71.0283 13.9173 71.0283 13.7453C71.0283 13.5734 71.0966 13.4084 71.2182 13.2868C71.3398 13.1652 71.5048 13.0969 71.6767 13.0969C71.7106 13.097 71.7444 13.1 71.7778 13.1058C71.6257 13.1304 71.4874 13.2083 71.3876 13.3256C71.2878 13.4429 71.2329 13.5919 71.2329 13.7459C71.2329 13.8999 71.2878 14.0489 71.3876 14.1662C71.4874 14.2834 71.6257 14.3614 71.7778 14.386Z" fill="#E9F1FF"/>
<path d="M30.807 88.956H29.4746V13.3956C29.4993 11.3086 30.3457 9.3155 31.8302 7.84844C33.3147 6.38139 35.3177 5.55865 37.4048 5.55865C39.4919 5.55865 41.4949 6.38139 42.9794 7.84844C44.464 9.3155 45.3103 11.3086 45.335 13.3956V22.0847H44.0027V13.3956C43.9802 11.6605 43.2751 10.0042 42.0403 8.78522C40.8054 7.56624 39.14 6.88275 37.4048 6.88275C35.6696 6.88275 34.0043 7.56624 32.7694 8.78522C31.5345 10.0042 30.8295 11.6605 30.807 13.3956V88.956Z" fill="#34629B"/>
<path d="M44.8169 31.6009C47.0771 31.6009 48.9094 29.7686 48.9094 27.5084C48.9094 25.2482 47.0771 23.4159 44.8169 23.4159C42.5566 23.4159 40.7244 25.2482 40.7244 27.5084C40.7244 29.7686 42.5566 31.6009 44.8169 31.6009Z" fill="#BBD7FF"/>
<path d="M48.9091 27.5084C48.9089 28.1142 48.7743 28.7124 48.515 29.2598C48.2557 29.8072 47.8781 30.2903 47.4095 30.6741C46.9409 31.058 46.3929 31.3331 45.8052 31.4795C45.2174 31.6259 44.6044 31.6401 44.0105 31.521C44.9377 31.335 45.7719 30.8336 46.3712 30.1021C46.9706 29.3706 47.2981 28.4541 47.2981 27.5084C47.2981 26.5628 46.9706 25.6463 46.3712 24.9148C45.7719 24.1833 44.9377 23.6819 44.0105 23.4959C44.6044 23.3768 45.2174 23.3909 45.8052 23.5374C46.3929 23.6838 46.9409 23.9589 47.4095 24.3428C47.8781 24.7266 48.2557 25.2097 48.515 25.7571C48.7743 26.3045 48.9089 26.9027 48.9091 27.5084Z" fill="#D4E6FC"/>
<path d="M53.3669 27.5084H35.9709C35.9709 21.5129 39.8669 16.6609 44.6689 16.6609C49.4709 16.6609 53.3669 21.5162 53.3669 27.5084Z" fill="#547DBA"/>
<path d="M53.3669 27.5084H35.9709C35.9709 21.5129 39.8669 16.6609 44.6689 16.6609C49.4709 16.6609 53.3669 21.5162 53.3669 27.5084Z" fill="#547DBA"/>
<path d="M53.3659 27.5084H50.4381C50.4381 22.1402 47.3115 17.6824 43.2046 16.8153C43.6859 16.7123 44.1768 16.6606 44.6691 16.661C49.4733 16.661 53.3659 21.5173 53.3659 27.5084Z" fill="#34629B"/>
<path d="M37.8906 87.9368H22.3911C21.8282 87.9368 21.3718 88.3932 21.3718 88.9561C21.3718 89.519 21.8282 89.9753 22.3911 89.9753H37.8906C38.4536 89.9753 38.9099 89.519 38.9099 88.9561C38.9099 88.3932 38.4536 87.9368 37.8906 87.9368Z" fill="#547DBA"/>
<path d="M38.91 88.9572C38.91 89.2275 38.8026 89.4868 38.6115 89.6779C38.4203 89.869 38.1611 89.9764 37.8907 89.9764H34.9485C35.0852 89.9809 35.2215 89.9579 35.3492 89.9087C35.4768 89.8595 35.5933 89.7851 35.6916 89.6899C35.79 89.5948 35.8682 89.4808 35.9216 89.3549C35.975 89.2289 36.0025 89.0935 36.0025 88.9566C36.0025 88.8198 35.975 88.6844 35.9216 88.5584C35.8682 88.4324 35.79 88.3185 35.6916 88.2233C35.5933 88.1282 35.4768 88.0538 35.3492 88.0046C35.2215 87.9554 35.0852 87.9323 34.9485 87.9368H37.8907C38.1612 87.9371 38.4204 88.0448 38.6115 88.2361C38.8026 88.4274 38.91 88.6868 38.91 88.9572Z" fill="#34629B"/>
<path d="M75.2918 61.149V90.1396H65.7644V70.6775C65.7644 68.1505 66.7681 65.7271 68.5548 63.9402C70.3415 62.1533 72.7648 61.1493 75.2918 61.149Z" fill="#BBD7FF"/>
<path d="M75.2917 61.149H99.3183V88.6108C99.3183 89.0166 99.1571 89.4057 98.8702 89.6926C98.5833 89.9796 98.1941 90.1408 97.7883 90.1408H75.2917V61.149Z" fill="#34629B"/>
<path d="M71.4025 70.2233C71.4025 69.5935 70.8922 69.083 70.2628 69.083C69.6333 69.083 69.123 69.5935 69.123 70.2233V84.9434C69.123 85.5732 69.6333 86.0837 70.2628 86.0837C70.8922 86.0837 71.4025 85.5732 71.4025 84.9434V70.2233Z" fill="#D4E6FC"/>
</svg>
