<svg width="106" height="92" viewBox="0 0 106 92" fill="none" xmlns="http://www.w3.org/2000/svg">
<path d="M99.9084 56.5538H92.6034C90.4098 56.5538 88.6315 54.7755 88.6315 52.5818V50.4325C88.6315 47.6658 86.3916 45.4117 83.6248 45.4164C80.545 45.4215 78.0466 42.9264 78.0466 39.8477C78.0466 36.7722 80.5398 34.2791 83.6153 34.2791L95.3121 34.2791C98.2955 34.2791 100.714 31.8608 100.714 28.8774V28.7376C100.714 25.6347 98.2212 23.1414 95.1456 23.1411C94.3246 23.141 93.4789 23.1409 92.6587 23.1408C89.6034 23.1405 87.1269 20.6637 87.1269 17.6084C87.1269 14.5531 84.652 12.0762 81.5966 12.0761C67.2839 12.0756 35.1962 12.076 20.8442 12.0762C17.7693 12.0762 15.2785 14.5689 15.2785 17.6439C15.2785 20.7194 17.7717 23.2126 20.8472 23.2126H23.7209C26.7769 23.2126 29.2542 25.6899 29.2542 28.7458C29.2542 31.8017 26.7769 34.2791 23.7209 34.2791H5.56867C2.49318 34.2791 0 36.7722 0 39.8477C0 42.9232 2.49318 45.4164 5.56868 45.4164H11.2967C13.4903 45.4164 15.2686 47.1947 15.2686 49.3884V52.5818C15.2686 54.7756 17.0468 56.5541 19.2406 56.5546L29.4136 56.5567C32.487 56.5574 34.9781 59.049 34.9781 62.1225C34.9781 65.1968 32.488 67.6892 29.4137 67.6899C24.4036 67.691 17.0786 67.6917 12.0682 67.692C8.99332 67.6923 6.5025 70.185 6.5025 73.2598C6.5025 76.3349 8.99523 78.8279 12.0704 78.8281C17.02 78.8284 24.1454 78.8285 28.6148 78.8285C30.9136 78.8285 32.7761 80.692 32.7761 82.9908V85.8517C32.7761 88.1505 34.6396 90.014 36.9384 90.014H95.1061C98.1949 90.014 100.699 87.51 100.699 84.4212C100.699 81.3325 98.1949 78.8285 95.1061 78.8285H89.4484C86.3729 78.8285 83.8797 76.3353 83.8797 73.2598C83.8797 70.1843 86.3729 67.6911 89.4484 67.6911H99.9084C102.984 67.6911 105.477 65.198 105.477 62.1225C105.477 59.047 102.984 56.5538 99.9084 56.5538Z" fill="#E8D6D3"/>
<path d="M32.3393 26.0839V19.418H32.8252V15.2818C32.8252 14.8301 32.4591 14.464 32.0074 14.464C31.5558 14.464 31.1896 14.8301 31.1896 15.2818V19.418H31.6755V26.0839C30.7473 26.3451 30.04 27.6442 30.04 28.6175C30.04 29.704 30.9208 30.5848 32.0074 30.5848C33.094 30.5848 33.9748 29.704 33.9748 28.6175C33.9748 27.6443 33.2675 26.3451 32.3393 26.0839Z" fill="#E3BEBC"/>
<path d="M38.5926 19.418H39.0785V15.2818C39.0785 14.8301 38.7124 14.464 38.2608 14.464C37.8092 14.464 37.443 14.8301 37.443 15.2818V19.418H37.929V25.4232L35.9526 30.4181H40.5689L38.5926 25.5402L38.5926 19.418Z" fill="#E3BEBC"/>
<path d="M44.5373 23.9753V19.418H44.9852V15.2818C44.9852 14.8301 44.619 14.464 44.1674 14.464C43.7158 14.464 43.3496 14.8301 43.3496 15.2818V19.418H43.7974L43.8177 30.2389H45.3763V25.357C45.3763 24.756 45.0356 24.2354 44.5373 23.9753Z" fill="#E3BEBC"/>
<path d="M48.0822 15.7148H28.4385V16.1181H48.0822V15.7148Z" fill="#E3BEBC"/>
<path d="M96.4895 48.5727C99.6345 48.5727 102.184 46.0232 102.184 42.8783C102.184 39.7334 99.6345 37.1839 96.4895 37.1839C93.3446 37.1839 90.7952 39.7334 90.7952 42.8783C90.7952 46.0232 93.3446 48.5727 96.4895 48.5727Z" fill="#E8D6D3"/>
<path d="M95.9143 23.1958C95.6628 23.1611 95.4063 23.1417 95.1451 23.1417H92.6599C91.693 23.1417 90.7845 22.8931 89.9937 22.4573V28.3193H95.9143V23.1958Z" fill="#E3BEBC"/>
<path d="M96.8516 23.4091V28.3193H100.699C100.538 26.0115 98.9732 24.0915 96.8516 23.4091Z" fill="#E3BEBC"/>
<path d="M75.7673 15.2716V28.3193H81.688V15.2716H75.7673ZM80.3676 22.0622C80.0029 22.0622 79.7073 21.7666 79.7073 21.402C79.7073 21.0374 80.0029 20.7418 80.3676 20.7418C80.7322 20.7418 81.0278 21.0374 81.0278 21.402C81.0278 21.7666 80.7322 22.0622 80.3676 22.0622Z" fill="#E3BEBC"/>
<path d="M87.1269 17.6085C87.1269 16.7731 86.9407 15.9817 86.6093 15.2716H82.8167V28.3193H88.8225V21.5927C87.7776 20.5864 87.1269 19.1738 87.1269 17.6085ZM84.137 22.0622C83.7724 22.0622 83.4768 21.7666 83.4768 21.402C83.4768 21.0374 83.7724 20.7418 84.137 20.7418C84.5016 20.7418 84.7973 21.0374 84.7973 21.402C84.7973 21.7666 84.5017 22.0622 84.137 22.0622Z" fill="#E3BEBC"/>
<path d="M35.7521 72.0165H28.2629C28.0845 72.0165 27.9399 72.1611 27.9399 72.3394V74.8668C27.9399 75.0452 28.0845 75.1898 28.2629 75.1898H35.7521C35.9304 75.1898 36.075 75.0452 36.075 74.8668V72.3394C36.075 72.1611 35.9304 72.0165 35.7521 72.0165Z" fill="#E3BEBC"/>
<path d="M84.2651 52.1066C84.0867 52.1066 83.9421 52.2512 83.9421 52.4295V54.9569C83.9421 55.1353 84.0867 55.2799 84.2651 55.2799H89.6942C89.0366 54.5711 88.6313 53.6249 88.6313 52.5818V52.1066H84.2651Z" fill="#E3BEBC"/>
<path d="M43.9491 52.1285H36.4599C36.2816 52.1285 36.137 52.2731 36.137 52.4515V54.9789C36.137 55.1573 36.2816 55.3019 36.4599 55.3019H43.9491C44.1274 55.3019 44.272 55.1573 44.272 54.9789V52.4515C44.272 52.2731 44.1274 52.1285 43.9491 52.1285Z" fill="#E3BEBC"/>
<path d="M75.3129 82.2784H67.8237C67.6453 82.2784 67.5007 82.423 67.5007 82.6014V85.1288C67.5007 85.3072 67.6453 85.4518 67.8237 85.4518H75.3129C75.4912 85.4518 75.6358 85.3072 75.6358 85.1288V82.6014C75.6358 82.423 75.4912 82.2784 75.3129 82.2784Z" fill="#E3BEBC"/>
<path d="M80.7941 73.4069H73.3049C73.1265 73.4069 72.9819 73.5515 72.9819 73.7298V76.2572C72.9819 76.4356 73.1265 76.5802 73.3049 76.5802H80.7941C80.9724 76.5802 81.117 76.4356 81.117 76.2572V73.7298C81.117 73.5515 80.9724 73.4069 80.7941 73.4069Z" fill="#E3BEBC"/>
<path d="M17.6353 46.4174H53.6574C53.9266 46.4174 54.1449 46.6356 54.1449 46.9049V47.7993H17.1477V46.9049C17.1477 46.6356 17.366 46.4174 17.6353 46.4174Z" fill="#D6772F"/>
<path d="M54.1449 47.1083H17.1477V47.7993H54.1449V47.1083Z" fill="#9D5235"/>
<path d="M43.0871 39.3586C43.0871 39.099 42.8767 38.8885 42.617 38.8885H25.0456C24.7908 38.8885 24.6004 39.123 24.6527 39.3724L25.1967 41.9658C25.4618 43.2293 26.5761 44.1342 27.8672 44.1342H31.8841C33.1751 44.1342 34.2894 43.2293 34.5545 41.9658L35.0027 39.8287H42.6171C42.8767 39.8287 43.0871 39.6183 43.0871 39.3586Z" fill="#41465C"/>
<path d="M42.6352 38.8904C42.5534 39.0287 42.4043 39.1225 42.232 39.1225H34.6177L34.1694 41.2596C33.9044 42.5231 32.7901 43.4279 31.4991 43.4279H27.4821C26.6055 43.4279 25.8112 43.01 25.3081 42.3466C25.6973 43.4067 26.7102 44.1342 27.867 44.1342H31.8839C33.175 44.1342 34.2893 43.2294 34.5543 41.9659L35.0026 39.8287H42.6169C42.8765 39.8287 43.087 39.6183 43.087 39.3587C43.087 39.1053 42.8862 38.9003 42.6352 38.8904Z" fill="#363A4D"/>
<path d="M26.2972 38.8886L25.0322 36.5686L23.2292 37.0373C23.0387 37.0869 22.8395 36.9964 22.7515 36.8203C22.6323 36.5818 22.7645 36.2942 23.0232 36.2296L25.1317 35.7024C25.4006 35.6352 25.6816 35.7543 25.8203 35.9943L27.4932 38.8886H26.2972Z" fill="#CF345F"/>
<path d="M26.0742 39.921C26.0339 39.7412 25.8555 39.6281 25.6757 39.6684C25.4959 39.7087 25.3828 39.8872 25.4231 40.067L25.9074 42.2283C25.9477 42.4081 26.1262 42.5212 26.306 42.4809C26.4858 42.4406 26.5989 42.2622 26.5586 42.0824L26.0742 39.921Z" fill="#656C87"/>
<path d="M35.7796 45.576H24.4826C24.2853 45.576 24.1252 45.736 24.1252 45.9334V46.4174H36.137V45.9334C36.137 45.736 35.977 45.576 35.7796 45.576Z" fill="#41465C"/>
<path d="M26.7137 43.8786L26.4153 43.7161C26.4153 43.7161 25.5308 44.3124 25.4456 45.576H26.2975C25.8715 44.4828 26.7137 43.8786 26.7137 43.8786Z" fill="#D6772F"/>
<path d="M33.0418 43.8786L33.3402 43.7161C33.3402 43.7161 34.2247 44.3124 34.3099 45.576H33.4579C33.8839 44.4828 33.0418 43.8786 33.0418 43.8786Z" fill="#D6772F"/>
<path d="M28.5274 45.576H27.8523L28.5274 44.1343H28.8533L28.5274 45.576Z" fill="#D6772F"/>
<path d="M31.1704 45.576H31.8455L31.1704 44.1343H30.8445L31.1704 45.576Z" fill="#D6772F"/>
<path d="M40.4967 46.4174H37.2595V37.768C37.2595 37.5871 37.4062 37.4404 37.5872 37.4404H40.1691C40.35 37.4404 40.4967 37.5871 40.4967 37.768L40.4967 46.4174Z" fill="#CF345F"/>
<path d="M38.3955 38.3633C38.3955 38.1672 38.2365 38.0083 38.0405 38.0083C37.8445 38.0083 37.6855 38.1672 37.6855 38.3633V42.3388C37.6855 42.5348 37.8445 42.6937 38.0405 42.6937C38.2365 42.6937 38.3955 42.5348 38.3955 42.3388V38.3633Z" fill="#E8809C"/>
<path d="M39.9714 36.7511H37.7849V37.4405H39.9714V36.7511Z" fill="#B02E5F"/>
<path d="M39.1409 32.9254H38.6156L38.3955 36.7511H39.361L39.1409 32.9254Z" fill="#CF345F"/>
<path d="M24.1251 47.7994H22.5349V56.4576H24.1251V47.7994Z" fill="#9D5235"/>
<path d="M24.1251 47.7994H22.5349V49.964H24.1251V47.7994Z" fill="#703B26"/>
<path d="M47.6573 47.7994H46.0671V89.9906H47.6573V47.7994Z" fill="#9D5235"/>
<path d="M47.6573 47.7994H46.0671V49.8146H47.6573V47.7994Z" fill="#703B26"/>
<path d="M44.806 46.4175H41.7817L42.1028 43.4889H44.4849L44.806 46.4175Z" fill="#9D5235"/>
<path d="M44.4191 42.8784H42.1687C41.9903 42.8784 41.8457 43.023 41.8457 43.2014V43.4889H44.7422V43.2014C44.7422 43.023 44.5975 42.8784 44.4191 42.8784Z" fill="#D6772F"/>
<path d="M24.1251 67.6431H22.5349V78.8285H24.1251V67.6431Z" fill="#9D5235"/>
<path d="M49.6565 41.5115V44.9532C50.57 44.9532 51.3106 44.2126 51.3106 43.2991V41.7044C51.3106 41.5979 51.2242 41.5115 51.1176 41.5115H49.6565ZM49.8766 44.3377V42.127H50.7853V43.429C50.7853 43.9309 50.3784 44.3377 49.8766 44.3377Z" fill="#363A4D"/>
<path d="M49.387 46.4175H47.3701C46.9508 46.4175 46.6108 46.0776 46.6108 45.6583V40.7988C46.6108 40.7664 46.6371 40.7401 46.6695 40.7401H50.0875C50.12 40.7401 50.1462 40.7664 50.1462 40.7988V45.6583C50.1462 46.0776 49.8063 46.4175 49.387 46.4175Z" fill="#41465C"/>
<path d="M47.3352 41.5115H47.3352C47.194 41.5115 47.0796 41.6259 47.0796 41.767V44.2998C47.0796 44.4409 47.194 44.5553 47.3352 44.5553H47.3352C47.4763 44.5553 47.5907 44.4409 47.5907 44.2998V41.767C47.5907 41.6259 47.4763 41.5115 47.3352 41.5115Z" fill="#656C87"/>
<path d="M92.4296 68.54L77.9963 57.6183L76.2778 44.6127C76.4482 37.7975 73.8357 35.9233 73.8357 35.9233L57.7455 36.8888L57.418 42.8521L53.7451 88.741H63.0826C63.3474 85.7878 62.6233 84.084 62.6233 84.084L65.7924 49.0994L69.3876 61.4084C69.7902 62.7866 70.681 63.9709 71.8935 64.7399L93.0318 78.1462L97.1397 70.2486C95.7094 68.1708 92.4296 68.54 92.4296 68.54Z" fill="#34374E"/>
<path d="M72.6884 63.6609C71.4759 62.8919 70.5851 61.7076 70.1826 60.3294L66.5873 48.0203L66.3245 50.9218L69.3875 61.4085C69.79 62.7866 70.6808 63.971 71.8933 64.7399L93.0317 78.1462L93.651 76.9556L72.6884 63.6609Z" fill="#2B2D40"/>
<path d="M65.6836 50.2997L64.2021 49.0994L61.033 84.084C61.033 84.084 61.7571 85.7878 61.4923 88.7411H63.0825C63.3473 85.7878 62.6232 84.084 62.6232 84.084L65.6836 50.2997Z" fill="#2B2D40"/>
<path d="M92.4298 68.54L88.538 65.6091L84.1121 72.3934L93.0319 78.1462L97.1398 70.2486C95.7095 68.1708 92.4298 68.54 92.4298 68.54Z" fill="#E9A586"/>
<path d="M93.6512 76.9557L84.7986 71.3412L84.1121 72.3935L93.0311 78.1458L93.032 78.1463L93.6512 76.9557Z" fill="#E98E72"/>
<path d="M54.3504 81.1781L53.7451 88.7411H63.0826C63.3474 85.7879 62.6233 84.0841 62.6233 84.0841L62.8865 81.1781H54.3504Z" fill="#E9A586"/>
<path d="M62.8864 81.1781H61.2962L61.033 84.0841C61.033 84.0841 61.7571 85.7879 61.4923 88.7411H63.0825C63.3473 85.7879 62.6232 84.0841 62.6232 84.0841L62.8864 81.1781Z" fill="#E98E72"/>
<path d="M64.2944 88.7411H48.3923V89.9905H64.2944V88.7411Z" fill="#952D52"/>
<path d="M48.3923 88.741C48.3923 88.741 48.9603 85.3902 52.3679 84.5383C55.7755 83.6864 59.0127 88.741 59.0127 88.741H48.3923Z" fill="#D63A65"/>
<path d="M97.3953 69.7574L90.0571 83.8651L91.1656 84.4417L98.5037 70.3339L97.3953 69.7574Z" fill="#952D52"/>
<path d="M90.0571 83.865C90.0571 83.865 87.3465 81.8149 88.1631 78.3987C88.9798 74.9825 94.9579 74.4431 94.9579 74.4431L90.0571 83.865Z" fill="#D63A65"/>
<path d="M50.0179 87.8025C49.9683 87.8025 49.9179 87.7912 49.8704 87.7675C49.7074 87.6859 49.6414 87.4876 49.723 87.3245C50.0102 86.7503 50.4305 86.2451 50.9383 85.8635C51.313 85.582 51.7326 85.3672 52.1858 85.2251C52.3592 85.1704 52.5449 85.2672 52.5995 85.4413C52.6541 85.6153 52.5573 85.8005 52.3833 85.855C52.0021 85.9746 51.6494 86.1551 51.3348 86.3914C50.9084 86.7118 50.5552 87.1367 50.3133 87.62C50.2555 87.7357 50.1389 87.8025 50.0179 87.8025Z" fill="#E8809C"/>
<path d="M81.9763 62.1026C81.6461 61.8582 81.1804 61.9277 80.9359 62.2579C80.6915 62.5881 80.7611 63.0538 81.0912 63.2983L84.4531 65.7868C84.7833 66.0312 85.249 65.9617 85.4935 65.6315C85.7379 65.3014 85.6683 64.8356 85.3382 64.5912L81.9763 62.1026Z" fill="#494D6E"/>
<path d="M57.8971 55.3084L56.8964 67.5291C56.8553 68.0309 57.2288 68.4709 57.7305 68.512L57.7305 68.512C58.2323 68.5531 58.6724 68.1797 58.7135 67.6779L59.7142 55.4572C59.7553 54.9554 59.3818 54.5154 58.88 54.4743C58.3783 54.4332 57.9382 54.8066 57.8971 55.3084Z" fill="#494D6E"/>
<path d="M73.7368 18.8405C70.7632 16.361 65.2313 15.3461 65.2313 15.3461L60.9531 15.7531C57.8956 16.7099 55.7188 18.8286 55.7188 18.8286L56.6842 36.8888L74.4605 35.6394L73.7368 18.8405Z" fill="#CF345F"/>
<path d="M71.0086 30.1278C68.0109 29.1596 67.4182 22.2988 67.4182 22.2988L57.4181 23.1997C57.4181 23.1997 57.3091 26.5694 56.1732 27.3276L56.6843 36.8889L54.8669 50.0649C54.8669 50.0649 65.9236 54.4948 75.7498 49.4634L71.4809 32.2091L71.0086 30.1278Z" fill="#FAF8FF"/>
<path d="M51.019 31.9904C52.2117 22.577 55.7187 18.8286 55.7187 18.8286L56.173 27.0068L51.019 31.9904Z" fill="#CF345F"/>
<path d="M71.4167 31.9904L58.6294 35.9603C58.6294 35.9603 58.686 38.8908 60.9009 41.0205C63.1158 43.1503 71.8478 36.8888 71.8478 36.8888C71.8478 36.8888 72.4765 33.9924 71.4167 31.9904Z" fill="#C0652F"/>
<path d="M66.1452 37.4551C69.6749 36.2077 72.0637 33.8591 71.4806 32.2092C70.8976 30.5593 67.5635 30.2331 64.0338 31.4804C60.504 32.7278 58.1152 35.0765 58.6983 36.7264C59.2813 38.3762 62.6154 38.7025 66.1452 37.4551Z" fill="#D6772F"/>
<path d="M66.1451 37.4551C68.6888 36.5562 70.6396 35.0854 71.313 33.7163C70.484 32.5858 67.8149 32.4338 65.0023 33.4278C61.9254 34.5151 59.8425 36.5617 60.3467 38.0009C61.7762 38.4016 63.9215 38.2409 66.1451 37.4551Z" fill="#914A2F"/>
<path d="M69.314 22.4003L71.5074 32.4022L62.7612 38.9902C62.7612 38.9902 61.3982 38.0247 60.887 38.1383C60.3759 38.2519 60.887 39.2741 60.887 39.2741C60.887 39.2741 59.9783 39.5013 59.808 40.0124C59.6376 40.5236 60.6031 43.704 62.7612 43.8176C64.9193 43.9312 65.2988 42.1138 65.2988 42.1138L76.2623 35.3182C77.596 34.4915 78.2554 32.9074 77.9022 31.3786L75.5058 21.0061C75.073 19.133 73.0874 18.0718 71.2896 18.7529C69.8177 19.3105 68.9769 20.8628 69.314 22.4003Z" fill="#E9A586"/>
<path d="M71.9154 33.4871L67.8508 36.2556C67.6186 36.4137 67.5586 36.7301 67.7167 36.9622C67.8748 37.1944 68.1912 37.2544 68.4233 37.0963L72.488 34.3278C72.7202 34.1697 72.7802 33.8533 72.6221 33.6212C72.464 33.389 72.1476 33.329 71.9154 33.4871Z" fill="#F0BDA6"/>
<path d="M77.902 31.3787L75.5056 21.0062C75.2736 20.0019 74.5933 19.2347 73.7367 18.8406C74.2191 19.262 74.582 19.8324 74.7389 20.5117L77.1353 30.8841C77.4885 32.413 76.8292 33.997 75.4955 34.8237L64.532 41.6193C64.532 41.6193 64.1525 43.4367 61.9943 43.3231C61.7319 43.3093 61.4875 43.2495 61.2603 43.1553C61.6727 43.5265 62.1721 43.7867 62.7611 43.8177C64.9192 43.9313 65.2987 42.1139 65.2987 42.1139L76.2622 35.3183C77.5959 34.4916 78.2552 32.9075 77.902 31.3787Z" fill="#E98E72"/>
<path d="M75.5056 21.0061C75.0728 19.133 73.0871 18.0718 71.2893 18.7529C69.8174 19.3105 68.9766 20.8628 69.3138 22.4002L70.5096 27.8535C71.9231 27.8619 74.5183 27.6577 76.7241 26.2806L75.5056 21.0061Z" fill="#CF345F"/>
<path d="M75.5056 21.0062C75.4774 20.8842 75.442 20.766 75.4012 20.6512C75.3899 20.6197 75.3753 20.5904 75.3632 20.5595C75.3308 20.477 75.2977 20.3949 75.2591 20.3166C75.2439 20.2855 75.2258 20.2566 75.2096 20.2262C75.1689 20.1502 75.1274 20.0747 75.0811 20.003C75.0648 19.9778 75.0467 19.9542 75.0297 19.9295C74.9785 19.855 74.9258 19.7818 74.8688 19.7126C74.8539 19.6944 74.8379 19.6773 74.8226 19.6595C74.7594 19.5862 74.694 19.515 74.6247 19.4481C74.6129 19.4366 74.6006 19.4258 74.5886 19.4145C74.5127 19.3434 74.4339 19.2755 74.3517 19.2124C74.3442 19.2066 74.3364 19.2009 74.3288 19.1951C74.2403 19.1285 74.1488 19.066 74.0541 19.0089C74.0508 19.0069 74.0475 19.0049 74.0442 19.003C73.9448 18.9435 73.8424 18.8892 73.7372 18.8408C73.7371 18.8408 73.7369 18.8407 73.7368 18.8406C74.2191 19.262 74.582 19.8324 74.7389 20.5116L76.1473 26.6073C76.3416 26.5057 76.5346 26.399 76.7242 26.2807L75.5056 21.0062Z" fill="#BA2E56"/>
<path d="M59.5518 22.2547L62.4486 29.023L63.3289 28.739L61.1168 21.6764C60.9718 21.2135 60.4644 20.971 60.0131 21.149C59.5753 21.3218 59.3666 21.822 59.5518 22.2547Z" fill="#34374E"/>
<path d="M51.5049 30.9918L58.5158 24.6215C58.5158 24.6215 58.7714 22.7474 59.1973 22.577C59.6233 22.4066 59.9853 23.2159 59.9853 23.2159C59.9853 23.2159 61.2206 22.364 61.6465 22.3001C62.0725 22.2362 64.756 24.5789 64.0531 25.9633C63.3503 27.3476 62.2855 26.6235 62.2855 26.6235L55.1329 34.5968C54.1028 35.7451 52.2988 35.7286 51.2899 34.5617C50.381 33.5105 50.4765 31.9263 51.5049 30.9918Z" fill="#E9A586"/>
<path d="M63.0841 23.3762C63.5686 24.0483 63.8748 24.8019 63.5785 25.3854C62.8757 26.7698 61.8109 26.0457 61.8109 26.0457L54.6583 34.019C53.6992 35.0881 52.0699 35.1463 51.0354 34.2074C51.1096 34.3303 51.1927 34.4495 51.2896 34.5616C52.2986 35.7286 54.1026 35.7451 55.1327 34.5968L62.2852 26.6235C62.2852 26.6235 63.3501 27.3476 64.0529 25.9633C64.4384 25.2039 63.8049 24.1569 63.0841 23.3762Z" fill="#E98E72"/>
<path d="M63.233 35.5435C61.6665 32.7493 63.12 30.8919 63.4154 30.5594L62.8099 28.911L63.0165 28.8352L63.6698 30.6135L63.6188 30.6635C63.5432 30.7375 61.785 32.5105 63.425 35.4359L63.233 35.5435Z" fill="black"/>
<path d="M66.7577 33.6788C66.0018 30.7235 63.5807 30.6948 63.5427 30.6948H63.5425L63.5413 30.4747H63.5415C63.582 30.4747 66.173 30.5048 66.9709 33.6244L66.7577 33.6788Z" fill="black"/>
<path d="M64.2401 34.9077C64.188 34.834 62.9714 33.0734 63.4337 30.5648L63.6502 30.6047C63.2053 33.0187 64.4077 34.7636 64.4199 34.7809L64.2401 34.9077Z" fill="black"/>
<path d="M65.3288 34.1812C65.3244 34.1554 64.8724 31.5769 63.4819 30.6771L63.6016 30.4925C65.0735 31.4449 65.5271 34.0347 65.5457 34.1445L65.3288 34.1812Z" fill="black"/>
<path d="M68.7829 16.2608L67.874 15.9753C67.874 15.9753 66.0997 18.6386 66.5672 22.3755L67.4181 22.2988C67.4181 22.2988 67.2512 18.1229 68.7829 16.2608Z" fill="#FAF8FF"/>
<path d="M57.8624 17.2037L56.8862 17.8676C57.4859 20.6834 57.418 23.1997 57.418 23.1997L58.3082 23.1195C58.3988 20.4816 57.8624 17.2037 57.8624 17.2037Z" fill="#FAF8FF"/>
<path d="M54.4122 29.5383L52.406 31.2967C52.1943 31.4823 52.1731 31.8043 52.3587 32.016C52.5442 32.2277 52.8663 32.2489 53.078 32.0633L55.0841 30.3049C55.2958 30.1194 55.317 29.7973 55.1315 29.5856C54.9459 29.3739 54.6239 29.3527 54.4122 29.5383Z" fill="#F0BDA6"/>
<path d="M66.183 4.38892C66.183 4.38892 66.9497 1.62025 64.8199 0.72576C62.6901 -0.16873 61.47 1.44988 61.47 1.44988C61.47 1.44988 60.2622 -0.594669 57.5362 0.172027C54.493 1.02791 55.0018 3.75001 55.0018 3.75001L54.0248 4.01496C53.8608 4.05942 53.7592 4.22249 53.7874 4.39002C54.2479 7.12223 56.4855 7.81072 56.4855 7.81072L64.8152 12.268C70.5702 10.0658 68.2701 4.17596 66.183 4.38892Z" fill="#34374E"/>
<path d="M62.7799 6.49309L62.7945 5.96131C56.1497 9.56057 54.5736 5.64184 53.9627 4.04517C53.8379 4.11007 53.763 4.24601 53.7873 4.39002C54.2477 7.12225 56.4853 7.81072 56.4853 7.81072L58.2271 8.74275C59.2363 8.62755 60.1485 8.51699 60.1485 8.51699L62.7799 6.49309Z" fill="#202230"/>
<path d="M65.6719 4.17354C65.8937 4.27844 66.183 4.38897 66.183 4.38897L66.2151 4.25248C66.3356 3.68623 66.6672 1.50164 64.82 0.725804C64.7243 0.685645 64.6312 0.652226 64.5393 0.621826C66.3797 1.61344 65.6719 4.17354 65.6719 4.17354Z" fill="#202230"/>
<path d="M66.5227 4.40985C68.2311 5.5094 69.2563 10.1126 64.3647 12.0271L64.815 12.2681C70.2582 10.1852 68.4955 4.8069 66.5227 4.40985Z" fill="#202230"/>
<path d="M65.9152 16.117C65.868 15.7975 65.6157 15.5339 65.2311 15.3462L64.7345 11.6727L60.1484 12.9506L60.9529 15.7532C60.407 16.1045 60.0934 16.5417 60.1565 16.9685C60.2746 17.7675 61.6595 18.2246 63.2498 17.9894C64.84 17.7543 66.0334 16.916 65.9152 16.117Z" fill="#E9A586"/>
<path d="M64.8825 12.7675L64.7345 11.6727L60.1484 12.9506L60.5475 14.341C61.2375 14.5079 61.977 14.5107 62.7098 14.3142C63.6344 14.0662 64.3856 13.5001 64.8825 12.7675Z" fill="#E98E72"/>
<path d="M56.4854 7.81074L57.2462 10.8719C57.9096 13.1656 60.2867 14.5066 62.5929 13.8882C64.6756 13.3297 65.8855 11.1613 65.267 9.09569L65.5904 8.97131C66.0305 8.80204 66.2621 8.31875 66.1183 7.86966C65.9716 7.4114 65.487 7.15286 65.0247 7.28609L64.3145 7.49075L64.5026 8.15982C64.5689 8.39525 64.4112 8.63476 64.1688 8.66709C64.0493 8.68302 63.9287 8.64568 63.8414 8.5626C63.4914 8.2298 63.135 8.2111 62.78 6.4931C62.78 6.4931 60.6861 8.68372 56.4854 7.81074Z" fill="#E9A586"/>
<path d="M59.7532 11.2784C60.0264 11.882 60.697 12.2267 61.3649 12.0661C61.9932 11.915 62.4195 11.3646 62.4424 10.7491L59.7532 11.2784Z" fill="#C2635E"/>
<path d="M60.4487 11.9738C60.7258 12.1015 61.045 12.143 61.3647 12.0661C61.6353 12.001 61.8651 11.8589 62.0447 11.6724C61.8149 11.4284 61.4674 11.3079 61.1183 11.3919C60.8017 11.468 60.561 11.6928 60.4487 11.9738Z" fill="#E98E72"/>
<path d="M59.824 9.70057C59.9698 9.68255 60.0704 9.52537 60.0487 9.3495C60.027 9.17363 59.8911 9.04567 59.7453 9.06369C59.5994 9.08171 59.4988 9.23888 59.5205 9.41475C59.5423 9.59062 59.6781 9.71859 59.824 9.70057Z" fill="#34374E"/>
<path d="M61.6379 9.31727C61.7838 9.29925 61.8844 9.14207 61.8627 8.9662C61.8409 8.79033 61.7051 8.66237 61.5592 8.68039C61.4134 8.69841 61.3128 8.85558 61.3345 9.03145C61.3562 9.20732 61.4921 9.33529 61.6379 9.31727Z" fill="#34374E"/>
<path d="M65.2011 7.66505C65.1061 7.66505 65.0182 7.69272 64.9419 7.73792L65.2374 8.68367C65.5024 8.66477 65.7123 8.44608 65.7123 8.17618C65.7123 7.89389 65.4834 7.66505 65.2011 7.66505Z" fill="#E98E72"/>
<path d="M63.8887 3.32749C64.4376 3.32749 64.8825 2.88251 64.8825 2.3336C64.8825 1.7847 64.4376 1.33972 63.8887 1.33972C63.3398 1.33972 62.8948 1.7847 62.8948 2.3336C62.8948 2.88251 63.3398 3.32749 63.8887 3.32749Z" fill="#4B4F70"/>
<path d="M102.69 90.014H28.7487C28.3151 90.014 27.9636 90.3655 27.9636 90.7991V90.7991C27.9636 91.2327 28.3151 91.5842 28.7487 91.5842H102.69C103.124 91.5842 103.475 91.2327 103.475 90.7991C103.475 90.3655 103.124 90.014 102.69 90.014Z" fill="#D6772F"/>
<path d="M24.3304 90.014H18.5361C18.1025 90.014 17.751 90.3655 17.751 90.7991V90.7991C17.751 91.2327 18.1025 91.5842 18.5361 91.5842H24.3304C24.764 91.5842 25.1155 91.2327 25.1155 90.7991V90.7991C25.1155 90.3655 24.764 90.014 24.3304 90.014Z" fill="#D6772F"/>
</svg>
