<svg width="105" height="99" viewBox="0 0 105 99" fill="none" xmlns="http://www.w3.org/2000/svg">
<path d="M104.842 66.0821V67.2379C104.841 70.0661 104.025 72.8342 102.492 75.2106C100.958 77.587 98.7721 79.4709 96.1953 80.6368C95.6539 80.8826 95.0977 81.0944 94.5299 81.2708C93.1083 81.7137 91.6277 81.9383 90.1387 81.9369H84.1753C83.3711 81.9372 82.5998 82.2569 82.0312 82.8258C81.4626 83.3946 81.1432 84.1659 81.1432 84.9702V96.2863H30.4376V84.9713C30.4382 84.3613 30.2546 83.7653 29.9106 83.2614C29.5667 82.7576 29.0785 82.3694 28.5101 82.1479C28.4246 82.1146 28.338 82.0846 28.2492 82.058C28.1397 82.0265 28.0285 82.0013 27.9161 81.9825C27.7471 81.9525 27.5758 81.9376 27.4043 81.938H17.3695C17.2107 81.938 17.0542 81.938 16.8965 81.9314C13.4615 81.8282 10.1622 80.5667 7.53459 78.3518C7.19929 78.0698 6.87693 77.7737 6.56753 77.4636C4.42835 75.3279 2.97099 72.6056 2.37999 69.6411C1.78898 66.6767 2.09091 63.6036 3.24754 60.8109C4.40416 58.0182 6.36348 55.6314 8.87739 53.9529C11.3913 52.2745 14.3467 51.3797 17.3695 51.3819H29.1441C29.671 51.3907 30.1944 51.2945 30.6837 51.099C31.1731 50.9034 31.6186 50.6124 31.9944 50.2429C32.3701 49.8734 32.6685 49.4328 32.8722 48.9468C33.0759 48.4608 33.1808 47.939 33.1808 47.4121C33.1808 46.8851 33.0759 46.3634 32.8722 45.8773C32.6685 45.3913 32.3701 44.9507 31.9944 44.5812C31.6186 44.2117 31.1731 43.9207 30.6837 43.7251C30.1944 43.5296 29.671 43.4334 29.1441 43.4422H9.28329C7.44717 43.4425 5.65221 42.8982 4.12549 41.8781C2.59877 40.8581 1.40887 39.4082 0.706326 37.7118C0.0037792 36.0154 -0.179854 34.1487 0.178656 32.3479C0.537166 30.5471 1.42171 28.8931 2.7204 27.5951C2.7526 27.5629 2.78479 27.5307 2.8181 27.4997C4.5474 25.8137 6.86814 24.8719 9.28329 24.876C11.1929 24.8776 13.0347 24.1679 14.4494 22.8853C14.5682 22.7743 14.6826 22.6633 14.7947 22.5522C16.0762 21.242 16.8456 19.5159 16.9631 17.687C16.9742 17.5204 16.9798 17.3539 16.9798 17.1829V9.34427C16.9796 8.94599 17.058 8.55157 17.2103 8.18356C17.3626 7.81555 17.5859 7.48116 17.8675 7.19947C18.1491 6.91779 18.4834 6.69434 18.8514 6.54189C19.2193 6.38944 19.6137 6.31097 20.012 6.31097H90.6894C92.6861 6.31111 94.6296 6.95497 96.2314 8.147C97.8332 9.33903 99.0081 11.0157 99.5817 12.9283C99.8393 13.7931 99.9709 14.6906 99.9725 15.593C99.9725 15.9149 99.9558 16.2325 99.9247 16.5456C99.8853 16.9292 99.8223 17.31 99.736 17.6858C99.2621 19.73 98.1098 21.5534 96.467 22.8588C94.8242 24.1643 92.7877 24.875 90.6894 24.8749H83.1395C82.4309 24.8748 81.7292 25.0142 81.0746 25.2853C80.4199 25.5563 79.8251 25.9537 79.324 26.4547C78.8229 26.9556 78.4254 27.5504 78.1542 28.205C77.883 28.8596 77.7435 29.5613 77.7435 30.2698C77.7438 31.7007 78.3124 33.0729 79.3243 34.0846C80.3362 35.0963 81.7085 35.6647 83.1395 35.6647C83.2383 35.6647 83.336 35.6647 83.4337 35.6714C85.2375 35.747 86.9423 36.5172 88.1913 37.8209C89.4404 39.1246 90.1369 40.8607 90.1354 42.6661V47.4404C90.135 48.4898 90.4731 49.5113 91.0996 50.3532C91.7261 51.1952 92.6075 51.8125 93.6128 52.1136C94.4944 52.3757 95.3578 52.6954 96.1975 53.0706C98.5291 54.1165 101.039 55.7886 102.748 58.4466C103.378 59.4242 103.869 60.4847 104.206 61.5976C104.64 63.0525 104.854 64.5639 104.842 66.0821Z" fill="#F3F4FE"/>
<path d="M6.08216 98.2415H12.3508C12.8904 98.2415 13.3279 97.804 13.3279 97.2644V97.2633C13.3279 96.7237 12.8904 96.2862 12.3508 96.2862H6.08216C5.54255 96.2862 5.10511 96.7237 5.10511 97.2633V97.2644C5.10511 97.804 5.54255 98.2415 6.08216 98.2415Z" fill="#D2D6FA"/>
<path d="M15.1012 98.2415H103.073C103.613 98.2415 104.051 97.804 104.051 97.2644V97.2633C104.051 96.7237 103.613 96.2862 103.073 96.2862H15.1012C14.5616 96.2862 14.1241 96.7237 14.1241 97.2633V97.2644C14.1241 97.804 14.5616 98.2415 15.1012 98.2415Z" fill="#D2D6FA"/>
<path d="M54.8073 21.4908V96.2862H30.4376V84.9713C30.4383 84.3613 30.2547 83.7652 29.9107 83.2614C29.5668 82.7576 29.0786 82.3694 28.5102 82.1479C28.4247 82.1146 28.3381 82.0846 28.2493 82.0579C28.1398 82.0265 28.0286 82.0013 27.9162 81.9824C27.7472 81.9524 27.5759 81.9376 27.4043 81.938H26.3296V51.3819H29.1453C29.6722 51.3907 30.1956 51.2945 30.6849 51.099C31.1743 50.9034 31.6198 50.6124 31.9956 50.2429C32.3713 49.8734 32.6697 49.4328 32.8734 48.9468C33.0771 48.4607 33.182 47.939 33.182 47.412C33.182 46.8851 33.0771 46.3633 32.8734 45.8773C32.6697 45.3913 32.3713 44.9507 31.9956 44.5812C31.6198 44.2117 31.1743 43.9207 30.6849 43.7251C30.1956 43.5296 29.6722 43.4334 29.1453 43.4422H26.3296V21.4908C26.3299 21.1255 26.4752 20.7753 26.7335 20.5172C26.9919 20.259 27.3422 20.114 27.7075 20.114H53.4294C53.7947 20.114 54.145 20.259 54.4033 20.5172C54.6617 20.7753 54.807 21.1255 54.8073 21.4908Z" fill="#D2D6FA"/>
<path d="M27.9128 51.3818V81.9879C28.0252 82.0068 28.1364 82.032 28.2459 82.0634V51.3818H27.9128ZM27.9128 23.1273V43.4455H28.2459V23.4603C28.2459 23.3847 28.2608 23.3098 28.2898 23.24C28.3188 23.1701 28.3612 23.1067 28.4148 23.0533C28.4683 22.9998 28.5318 22.9575 28.6017 22.9287C28.6716 22.8998 28.7465 22.8851 28.8222 22.8852H52.3102C52.3859 22.8851 52.4608 22.8998 52.5307 22.9287C52.6006 22.9575 52.6641 22.9998 52.7176 23.0533C52.7712 23.1067 52.8136 23.1701 52.8426 23.24C52.8716 23.3098 52.8865 23.3847 52.8865 23.4603V96.1196H30.4376V96.2862H53.224V23.1273C53.224 23.0516 53.2091 22.9768 53.1801 22.9069C53.1512 22.8371 53.1087 22.7736 53.0552 22.7202C53.0016 22.6668 52.9381 22.6244 52.8682 22.5956C52.7983 22.5667 52.7234 22.552 52.6478 22.5521H28.4891C28.4135 22.552 28.3386 22.5667 28.2686 22.5956C28.1987 22.6244 28.1352 22.6668 28.0817 22.7202C28.0282 22.7736 27.9857 22.8371 27.9567 22.9069C27.9278 22.9768 27.9128 23.0516 27.9128 23.1273Z" fill="#B7BFED"/>
<path d="M32.9358 27.4995H48.2899V28.7541H32.9358V27.4995Z" fill="#B7BFED"/>
<path d="M32.9358 31.4732H48.2899V32.7278H32.9358V31.4732Z" fill="#B7BFED"/>
<path d="M32.9358 35.447H48.2899V36.7016H32.9358V35.447Z" fill="#B7BFED"/>
<path d="M32.1929 56.5546V64.4898H30.9383V56.5546H32.1929Z" fill="#B7BFED"/>
<path d="M23.4572 51.3818V81.9379H17.3695C17.2107 81.9379 17.0542 81.9379 16.8965 81.9313C13.4615 81.8281 10.1622 80.5666 7.53459 78.3517C7.19928 78.0697 6.87693 77.7736 6.56753 77.4635C4.42835 75.3278 2.97099 72.6054 2.37998 69.641C1.78898 66.6766 2.0909 63.6035 3.24753 60.8108C4.40416 58.018 6.36347 55.6313 8.87738 53.9528C11.3913 52.2743 14.3467 51.3796 17.3695 51.3818H23.4572Z" fill="#D2D6FA"/>
<path d="M23.4572 21.4907V43.4421H9.28329C7.44717 43.4424 5.65221 42.8981 4.12549 41.878C2.59877 40.858 1.40887 39.4081 0.706326 37.7117C0.0037792 36.0153 -0.179854 34.1486 0.178656 32.3478C0.537166 30.547 1.42171 28.893 2.7204 27.595C2.7526 27.5628 2.78479 27.5306 2.8181 27.4996C4.5474 25.8136 6.86814 24.8718 9.28329 24.8759C11.1929 24.8775 13.0347 24.1678 14.4494 22.8852C14.5682 22.7742 14.6826 22.6632 14.7947 22.5521C15.4815 21.8481 16.0269 21.0189 16.4013 20.1095H22.0815C22.2626 20.1098 22.4418 20.1458 22.6089 20.2153C22.7761 20.2849 22.9278 20.3868 23.0556 20.515C23.1833 20.6433 23.2846 20.7955 23.3535 20.9629C23.4224 21.1303 23.4576 21.3097 23.4572 21.4907Z" fill="#D2D6FA"/>
<path d="M14.7926 22.5521C14.6815 22.6631 14.5705 22.7741 14.4473 22.8851H20.9635C21.0391 22.885 21.1141 22.8998 21.184 22.9286C21.2539 22.9574 21.3174 22.9998 21.3709 23.0532C21.4244 23.1066 21.4669 23.1701 21.4959 23.2399C21.5249 23.3098 21.5398 23.3847 21.5398 23.4603V43.4454H21.8729V23.1272C21.8729 23.0516 21.8579 22.9767 21.829 22.9068C21.8 22.837 21.7575 22.7735 21.704 22.7201C21.6505 22.6667 21.587 22.6244 21.517 22.5955C21.4471 22.5667 21.3722 22.5519 21.2966 22.5521H14.7926ZM21.5398 51.3817V81.9379H21.8729V51.3817H21.5398Z" fill="#B7BFED"/>
<path d="M16.9386 27.4995V28.7541H1.73657C2.03211 28.3414 2.36112 27.9537 2.72028 27.5949C2.75248 27.5627 2.78468 27.5305 2.81799 27.4995H16.9386Z" fill="#B7BFED"/>
<path d="M1.58447 31.4731H16.9386V32.7278H1.58447V31.4731Z" fill="#B7BFED"/>
<path d="M1.58447 35.4469H16.9386V36.7015H1.58447V35.4469Z" fill="#B7BFED"/>
<path d="M99.9245 16.5465C99.8851 16.9301 99.8221 17.3109 99.7358 17.6868H16.9607C16.9718 17.5202 16.9773 17.3537 16.9773 17.1827V16.5465H99.9245Z" fill="#B7BFED"/>
<path d="M99.887 14.3404H16.9775V11.1017H98.8144C99.1345 11.6814 99.3917 12.2937 99.5816 12.9281C99.7208 13.39 99.8229 13.8623 99.887 14.3404Z" fill="#B7BFED"/>
<path d="M50.8667 43.3267H52.3667V52.2445H50.8667V43.3267Z" fill="#604970"/>
<path d="M51.6162 53.3647C52.4256 53.3647 53.0818 52.7086 53.0818 51.8992C53.0818 51.0898 52.4256 50.4336 51.6162 50.4336C50.8068 50.4336 50.1506 51.0898 50.1506 51.8992C50.1506 52.7086 50.8068 53.3647 51.6162 53.3647Z" fill="#836B96"/>
<path d="M37.9385 86.5228L41.3008 82.6888L45.9713 86.7847L42.6089 90.6187L37.9385 86.5228Z" fill="#F29495"/>
<path d="M39.3235 84.9427L41.3008 82.6881L45.9712 86.784L43.994 89.0386L39.3235 84.9427Z" fill="#E5888C"/>
<path d="M38.5481 86.0717L41.4959 88.2778C42.3155 88.0463 43.1879 88.086 43.983 88.3909C44.7782 88.6959 45.4534 89.2498 45.908 89.9699C46.3625 90.6901 46.572 91.5379 46.5052 92.3869C46.4384 93.2359 46.0989 94.0406 45.5373 94.6808L39.5995 89.4736L36.6406 86.8733L37.2246 86.2071C37.3876 86.022 37.6145 85.9053 37.8598 85.8802C38.1052 85.855 38.351 85.9234 38.5481 86.0717Z" fill="#604970"/>
<path d="M44.8557 88.855C45.5194 89.5717 45.894 90.5087 45.9073 91.4853C45.9207 92.4619 45.5717 93.4089 44.9279 94.1433L45.5419 94.6807C45.8838 94.2907 46.1456 93.8372 46.3123 93.346C46.4789 92.8548 46.5472 92.3356 46.5132 91.818C46.4791 91.3004 46.3435 90.7946 46.114 90.3295C45.8845 89.8643 45.5655 89.449 45.1755 89.1071C45.0737 89.0171 44.9669 88.933 44.8557 88.855Z" fill="#836B96"/>
<path d="M35.7035 86.8232C35.6053 86.9343 35.551 87.0774 35.551 87.2257C35.551 87.374 35.6053 87.5172 35.7035 87.6282C35.7206 87.6488 35.7392 87.6681 35.7591 87.6859L44.6136 95.4513C44.6382 95.4729 44.6641 95.4929 44.6913 95.5112C44.8784 95.6426 45.1074 95.7002 45.3343 95.673C45.5613 95.6459 45.7702 95.5358 45.921 95.364C46.0717 95.1922 46.1537 94.9707 46.1511 94.7421C46.1486 94.5135 46.0616 94.294 45.9071 94.1256C45.8731 94.0891 45.8359 94.0556 45.796 94.0257L45.4396 93.7448L44.427 92.9465L43.953 92.5734L42.937 91.7751L42.4641 91.4032L41.447 90.6038L40.9741 90.2318L39.9582 89.4324L39.4841 89.0605L38.4681 88.2611L37.9952 87.8891L36.977 87.0953L36.544 86.7466C36.5316 86.737 36.5186 86.7281 36.5052 86.72C36.3824 86.6368 36.2335 86.6014 36.0865 86.6204C35.9394 86.6394 35.8044 86.7116 35.7069 86.8232H35.7035Z" fill="#3C1C39"/>
<path d="M45.4428 93.7448L44.2371 95.1193L44.6889 95.5157L45.9103 94.1256C45.8763 94.0891 45.8391 94.0557 45.7992 94.0257L45.4428 93.7448Z" fill="#604970"/>
<path d="M43.952 92.5735L42.814 93.8714L43.267 94.2689L44.4261 92.9465L43.952 92.5735Z" fill="#604970"/>
<path d="M42.463 91.4032L41.3916 92.6245L41.8446 93.0209L42.936 91.7751L42.463 91.4032Z" fill="#604970"/>
<path d="M40.9732 90.2318L39.9695 91.3765L40.4214 91.7729L41.4462 90.6038L40.9732 90.2318Z" fill="#604970"/>
<path d="M39.483 89.0605L38.5459 90.1286L38.9989 90.525L39.9571 89.4325L39.483 89.0605Z" fill="#604970"/>
<path d="M37.994 87.8892L37.1235 88.8818L37.5754 89.2781L38.467 88.2611L37.994 87.8892Z" fill="#604970"/>
<path d="M36.5018 86.72L35.7002 87.6337L36.1532 88.0301L36.977 87.0952L36.544 86.7466C36.5305 86.7369 36.5164 86.728 36.5018 86.72Z" fill="#604970"/>
<path d="M64.4045 60.7153C64.8006 61.0638 65.1241 61.4869 65.3565 61.9605C65.589 62.4341 65.726 62.9488 65.7595 63.4753C65.793 64.0018 65.7225 64.5297 65.552 65.0289C65.3814 65.5281 65.1142 65.9889 64.7656 66.3848L45.6604 88.0953C45.5844 88.1817 45.4772 88.2343 45.3624 88.2417C45.2476 88.249 45.1346 88.2104 45.0483 88.1344L39.6681 83.3999C39.5817 83.3239 39.5291 83.2167 39.5218 83.1019C39.5145 82.9871 39.553 82.8741 39.629 82.7878L58.7343 61.0772C59.438 60.2775 60.4306 59.7902 61.4937 59.7223C62.5568 59.6545 63.6033 60.0117 64.403 60.7154L64.4045 60.7153Z" fill="#3C1C39"/>
<path d="M61.9966 39.2511L69.934 40.5424L66.0033 64.7043C65.8321 65.7567 65.2499 66.698 64.3846 67.3211C63.5194 67.9443 62.442 68.1981 61.3896 68.0269C60.3372 67.8557 59.3959 67.2734 58.7728 66.4082C58.1497 65.543 57.8958 64.4656 58.067 63.4132L61.9977 39.2513L61.9966 39.2511Z" fill="#3C1C39"/>
<path d="M63.08 39.4274L59.6925 60.2352L59.4782 61.5465C59.3908 62.082 59.1546 62.5822 58.7965 62.9898L57.9849 63.9158L40.3647 84.012L39.8295 83.5423C39.7865 83.5048 39.7513 83.4591 39.726 83.408C39.7007 83.3568 39.6858 83.3012 39.6821 83.2442C39.6784 83.1872 39.6859 83.1301 39.7044 83.0761C39.7228 83.0221 39.7518 82.9722 39.7895 82.9294L58.3313 61.7863L61.9952 39.2475L63.08 39.4274Z" fill="#EFCBD1"/>
<path d="M47.9212 33.8492H53.0874V43.0169H47.9212C47.1759 43.0169 46.4612 42.7208 45.9342 42.1938C45.4071 41.6668 45.1111 40.952 45.1111 40.2067V36.6538C45.1126 35.9095 45.4093 35.1962 45.9361 34.6703C46.463 34.1445 47.1769 33.8492 47.9212 33.8492Z" fill="#836B96"/>
<path d="M48.7206 43.0169H47.9212C47.1759 43.0169 46.4612 42.7209 45.9342 42.1939C45.4071 41.6669 45.1111 40.9521 45.1111 40.2068V36.6539C45.1111 35.9086 45.4071 35.1938 45.9342 34.6668C46.4612 34.1398 47.1759 33.8438 47.9212 33.8438H48.7206C47.9753 33.8438 47.2606 34.1398 46.7336 34.6668C46.2066 35.1938 45.9105 35.9086 45.9105 36.6539V40.2068C45.9105 40.9521 46.2066 41.6669 46.7336 42.1939C47.2606 42.7209 47.9753 43.0169 48.7206 43.0169Z" fill="#C8B3DD"/>
<path d="M53.212 21.5298L54.7832 21.8807L52.7842 30.8312L47.7477 29.7063C47.0203 29.5438 46.3873 29.0991 45.9878 28.4699C45.5884 27.8407 45.4552 27.0786 45.6177 26.3512C45.9857 24.7049 46.9924 23.2722 48.4166 22.368C49.8407 21.4639 51.5656 21.1624 53.212 21.5298Z" fill="#836B96"/>
<path d="M46.6277 26.5337C46.4652 27.261 46.5983 28.0231 46.9976 28.6523C47.397 29.2815 48.0299 29.7264 48.7573 29.8889L52.7942 30.7905L52.7865 30.8293L47.7491 29.7046C47.389 29.6244 47.0481 29.474 46.7462 29.2619C46.4442 29.0499 46.1869 28.7804 45.9892 28.4689C45.7914 28.1574 45.657 27.81 45.5935 27.4465C45.5301 27.083 45.539 26.7105 45.6196 26.3505C45.8015 25.5351 46.1422 24.7635 46.6223 24.0798C47.1024 23.3961 47.7125 22.8137 48.4177 22.3659C49.1229 21.918 49.9095 21.6134 50.7324 21.4695C51.5554 21.3257 52.3986 21.3453 53.2139 21.5274L53.5237 21.5962C51.9682 21.427 50.4049 21.837 49.1327 22.7479C47.8605 23.6588 46.9687 25.0066 46.6277 26.5337Z" fill="#C8B3DD"/>
<path d="M58.3057 18.3586H60.8305C61.6285 18.3586 62.3938 18.6756 62.9581 19.2399C63.5223 19.8042 63.8393 20.5695 63.8393 21.3675V42.3408C63.8393 43.1388 63.5223 43.9041 62.9581 44.4684C62.3938 45.0327 61.6285 45.3497 60.8305 45.3497H49.8209C49.0229 45.3497 48.2576 45.0327 47.6933 44.4684C47.129 43.9041 46.812 43.1388 46.812 42.3408V29.8534C46.8119 28.344 47.109 26.8492 47.6866 25.4546C48.2641 24.06 49.1107 22.7929 50.178 21.7255C51.2453 20.658 52.5124 19.8113 53.907 19.2337C55.3015 18.656 56.7962 18.3586 58.3057 18.3586Z" fill="#604970"/>
<path d="M59.5526 18.3586H61.0038C61.7558 18.3586 62.4771 18.6574 63.0089 19.1892C63.5407 19.721 63.8394 20.4422 63.8394 21.1943V42.5118C63.8396 42.8843 63.7663 43.2531 63.6239 43.5973C63.4815 43.9415 63.2726 44.2542 63.0093 44.5176C62.7459 44.7811 62.4333 44.99 62.0892 45.1326C61.7451 45.2752 61.3762 45.3486 61.0038 45.3486H51.5586C50.8065 45.3486 50.0852 45.0498 49.5534 44.518C49.0217 43.9862 48.7229 43.265 48.7229 42.5129V29.1895C48.7228 27.7672 49.0028 26.3588 49.5469 25.0448C50.0911 23.7307 50.8888 22.5367 51.8945 21.531C52.9001 20.5252 54.094 19.7274 55.408 19.1831C56.722 18.6388 58.1303 18.3586 59.5526 18.3586Z" fill="#503B60"/>
<path d="M37.8765 85.4609L36.7795 86.7122L42.0101 91.2999L43.811 89.247L39.1167 85.1301C38.8202 84.8747 38.2651 85.0179 37.8765 85.4609Z" fill="#604970"/>
<path d="M56.1912 41.3997L64.0863 39.8707L68.7404 63.9038C68.9431 64.9506 68.7217 66.0351 68.1249 66.9186C67.528 67.8022 66.6046 68.4124 65.5578 68.6152C64.511 68.8179 63.4265 68.5965 62.5429 67.9996C61.6594 67.4027 61.0491 66.4793 60.8464 65.4325L56.1922 41.3994L56.1912 41.3997Z" fill="#915E8C"/>
<path d="M90.4251 27.5921L88.1169 27.6845C86.9138 27.7326 85.9775 28.7469 86.0256 29.95L86.0257 29.9511C86.0738 31.1542 87.0881 32.0905 88.2912 32.0423L90.5995 31.95C91.8025 31.9019 92.7388 30.8876 92.6907 29.6845L92.6907 29.6834C92.6425 28.4803 91.6282 27.544 90.4251 27.5921Z" fill="#F29495"/>
<path d="M84.451 21.4917L82.7905 24.2465C82.2989 25.062 82.5616 26.1217 83.3771 26.6133L83.3781 26.6139C84.1937 27.1055 85.2534 26.8429 85.745 26.0273L87.4054 23.2725C87.897 22.4569 87.6344 21.3973 86.8188 20.9056L86.8179 20.9051C86.0023 20.4135 84.9426 20.6761 84.451 21.4917Z" fill="#F29495"/>
<path d="M90.2111 23.4643L87.8014 23.5586C86.1188 23.6244 84.8082 25.0417 84.874 26.7242C84.9399 28.4068 86.3572 29.7174 88.0397 29.6516L90.4494 29.5573C92.132 29.4915 93.4426 28.0742 93.3768 26.3917C93.311 24.7091 91.8936 23.3985 90.2111 23.4643Z" fill="#F29495"/>
<path d="M70.6777 21.0721C69.3262 19.5727 67.0153 19.4526 65.5161 20.8039C64.0169 22.1552 63.8971 24.4662 65.2486 25.9656L71.0966 32.4536C72.4482 33.9531 74.7591 34.0732 76.2583 32.7218C77.7575 31.3705 77.8772 29.0596 76.5257 27.5601L70.6777 21.0721Z" fill="#F29495"/>
<path d="M74.054 25.6302C71.5973 26.1582 70.0337 28.5779 70.5617 31.0347C71.0898 33.4914 73.5094 35.055 75.9662 34.5269L86.9536 32.1654C89.4103 31.6374 90.9739 29.2178 90.4459 26.761C89.9178 24.3042 87.4982 22.7407 85.0414 23.2687L74.054 25.6302Z" fill="#F29495"/>
<path d="M92.5892 29.8245C92.589 30.3874 92.371 30.9283 91.9809 31.334C91.5907 31.7397 91.0587 31.9786 90.4963 32.0007L88.1891 32.0906C87.9617 32.0993 87.7342 32.0723 87.5152 32.0107C87.3336 32.0744 87.1482 32.1267 86.96 32.1672L75.9737 34.5266C75.0722 34.7206 74.133 34.6363 73.2805 34.2848C72.4279 33.9333 71.7023 33.3311 71.1995 32.558C71.1629 32.5225 71.1285 32.4859 71.0951 32.447L65.2462 25.9596C64.8339 25.5025 64.5438 24.9486 64.4029 24.3494C64.262 23.7502 64.2748 23.1251 64.4401 22.5322C64.5907 23.0848 64.8695 23.5942 65.2539 24.0188L70.4723 29.809L71.1018 30.5062C71.1373 30.5451 71.1729 30.5828 71.2128 30.6173C71.7154 31.3887 72.4401 31.9896 73.2913 32.3407C74.1425 32.6917 75.0801 32.7764 75.9804 32.5836L76.5022 32.4725L85.9907 30.4341L86.9678 30.2231C87.156 30.1827 87.3414 30.1304 87.5229 30.0666C87.7421 30.1299 87.9701 30.1569 88.198 30.1465L89.8912 30.081L90.504 30.0566C90.8934 30.0418 91.2716 29.9229 91.5993 29.7122C91.927 29.5015 92.1921 29.2067 92.3671 28.8586C92.502 29.1321 92.5776 29.431 92.5892 29.7357V29.8245Z" fill="#E58389"/>
<path d="M68.4259 28.218C71.0283 28.218 73.138 26.1083 73.138 23.5059C73.138 20.9035 71.0283 18.7939 68.4259 18.7939C65.8235 18.7939 63.7139 20.9035 63.7139 23.5059C63.7139 26.1083 65.8235 28.218 68.4259 28.218Z" fill="#FFB41F"/>
<path d="M60.6707 13.1125H65.446V18.6828H60.6707V13.1125Z" fill="#F5B5A9"/>
<path d="M63.0589 48.7238C62.1875 48.7238 61.3246 48.5522 60.5195 48.2186C59.7145 47.8851 58.983 47.3963 58.3668 46.7801C57.7507 46.1638 57.262 45.4322 56.9286 44.6271C56.5952 43.822 56.4237 42.9591 56.4239 42.0876V39.7116H69.6929V42.0876C69.693 42.959 69.5215 43.8218 69.1882 44.6269C68.8549 45.4319 68.3663 46.1634 67.7503 46.7797C67.1343 47.3959 66.4029 47.8848 65.598 48.2183C64.793 48.5519 63.9302 48.7237 63.0589 48.7238Z" fill="#915E8C"/>
<path d="M66.4707 89.3447L72.5694 88.1637L73.539 93.1702L67.4402 94.3513L66.4707 89.3447Z" fill="#F29495"/>
<path d="M66.5352 93.5827L66.9149 95.5423L73.7465 94.2189L73.2014 91.4054L67.2236 92.5634C67.1115 92.5851 67.0047 92.6287 66.9094 92.6916C66.8141 92.7546 66.7321 92.8357 66.6682 92.9304C66.6043 93.0251 66.5596 93.1314 66.5368 93.2433C66.514 93.3552 66.5135 93.4705 66.5352 93.5827Z" fill="#604970"/>
<path d="M66.4712 89.3443L72.5699 88.1632L73.1401 91.1074L67.0413 92.2885L66.4712 89.3443Z" fill="#E5888C"/>
<path d="M67.4601 93.5893L71.0131 92.6111C71.3315 91.8206 71.8972 91.1544 72.6256 90.7119C73.354 90.2695 74.206 90.0747 75.0543 90.1565C75.9026 90.2383 76.7017 90.5924 77.3321 91.166C77.9625 91.7395 78.3904 92.5016 78.5519 93.3384L70.7977 94.8406L66.9294 95.59L66.7607 94.7207C66.7137 94.4787 66.7596 94.2279 66.8892 94.0182C67.0188 93.8085 67.2227 93.6554 67.4601 93.5893Z" fill="#604970"/>
<path d="M73.5256 90.3151C74.498 90.2303 75.4672 90.5087 76.2464 91.0966C77.0255 91.6844 77.5593 92.54 77.7447 93.4983L78.5452 93.3428C78.4466 92.8336 78.2487 92.3487 77.9627 91.916C77.6767 91.4832 77.3083 91.1111 76.8785 90.8207C76.4486 90.5304 75.9658 90.3276 75.4576 90.2239C74.9494 90.1201 74.4257 90.1176 73.9165 90.2163C73.7846 90.2424 73.6541 90.2754 73.5256 90.3151Z" fill="#836B96"/>
<path d="M66.3122 96.2984C66.3402 96.444 66.4204 96.5744 66.5377 96.6652C66.6551 96.7559 66.8014 96.8008 66.9495 96.7914C66.976 96.7902 67.0023 96.7868 67.0283 96.7814L78.5908 94.5419C78.6231 94.5356 78.6549 94.5275 78.6863 94.5175C78.9048 94.4501 79.0907 94.3044 79.2083 94.1083C79.3258 93.9122 79.3668 93.6796 79.3233 93.4551C79.2798 93.2306 79.1548 93.0302 78.9725 92.8922C78.7902 92.7543 78.5633 92.6886 78.3354 92.7077C78.2865 92.7126 78.2379 92.7208 78.19 92.7322L77.7459 92.8432L76.4912 93.1574L75.9061 93.304L74.6526 93.6171L74.0719 93.7625L72.8173 94.0756L72.2333 94.2222L70.9798 94.5342L70.3958 94.6807L69.1423 94.9938L68.5583 95.1404L67.2992 95.4546L66.7596 95.59C66.7445 95.5933 66.7296 95.5978 66.7152 95.6034C66.5821 95.6478 66.4681 95.7363 66.3921 95.8543C66.3095 95.9866 66.2809 96.1456 66.3122 96.2984Z" fill="#3C1C39"/>
<path d="M77.7502 92.8421L78.0978 94.6374L78.6873 94.5264L78.3354 92.7111C78.2864 92.716 78.2378 92.7241 78.1899 92.7355L77.7502 92.8421Z" fill="#604970"/>
<path d="M75.9106 93.3028L76.2393 94.9971L76.83 94.8827L76.4958 93.1562L75.9106 93.3028Z" fill="#604970"/>
<path d="M74.073 93.7625L74.3817 95.3568L74.9723 95.2425L74.657 93.6159L74.073 93.7625Z" fill="#604970"/>
<path d="M72.2344 94.2222L72.5242 95.7166L73.1137 95.6034L72.8184 94.0756L72.2344 94.2222Z" fill="#604970"/>
<path d="M70.3958 94.6818L70.6667 96.0774L71.2562 95.963L70.9798 94.5352L70.3958 94.6818Z" fill="#604970"/>
<path d="M68.5583 95.1415L68.8093 96.4372L69.3988 96.3228L69.1424 94.9949L68.5583 95.1415Z" fill="#604970"/>
<path d="M66.7195 95.6034L66.9504 96.7969L67.5411 96.6859L67.299 95.4546L66.7595 95.59C66.7458 95.5935 66.7325 95.598 66.7195 95.6034Z" fill="#604970"/>
<path d="M63.9176 60.1538C64.436 60.0532 64.9691 60.0558 65.4865 60.1613C66.0039 60.2669 66.4954 60.4733 66.9331 60.7688C67.3707 61.0643 67.7458 61.4432 68.0369 61.8837C68.3281 62.3242 68.5297 62.8178 68.63 63.3362L73.6306 89.158C73.6525 89.271 73.6286 89.3881 73.5641 89.4836C73.4997 89.579 73.4 89.6449 73.2869 89.6667L66.2431 91.0308C66.1301 91.0527 66.013 91.0288 65.9176 90.9644C65.8222 90.8999 65.7563 90.8002 65.7344 90.6872L60.7338 64.8653C60.5311 63.8185 60.7525 62.7341 61.3494 61.8505C61.9463 60.967 62.8697 60.3567 63.9165 60.154L63.9176 60.1538Z" fill="#915E8C"/>
<path d="M69.6929 39.7117H56.4239V27.9871H69.6929V39.7117Z" fill="#FFD41D"/>
<path d="M56.0177 40.51L57.0707 40.3061L66.8702 90.9088L66.2423 91.0303C66.1293 91.0522 66.0122 91.0283 65.9168 90.9639C65.8213 90.8994 65.7555 90.7997 65.7336 90.6867L56.0166 40.5103L56.0177 40.51Z" fill="#F4DBDE"/>
<path d="M52.8029 25.5421C52.8031 27.2974 53.4529 28.9906 54.6271 30.2953C55.7552 31.5255 57.3118 32.2871 59.0316 32.2871H66.2596C69.7137 32.2871 72.6315 29.2016 72.6038 25.43C72.6039 23.6743 71.9541 21.9807 70.7796 20.6758C69.6526 19.4456 68.0949 18.6839 66.3751 18.6839H59.1471C55.693 18.6839 52.7752 21.7694 52.8029 25.5421Z" fill="#FFD41D"/>
<path d="M60.6707 13.1125V14.778C61.5932 15.9594 62.882 16.801 64.3346 17.1706C64.6987 17.2642 65.0702 17.3262 65.4449 17.3561V13.1125H60.6707Z" fill="#F29495"/>
<path d="M63.623 32.3482H65.9247C67.6696 32.3518 69.3492 31.6847 70.6161 30.4847C71.883 29.2847 72.6403 27.6438 72.7312 25.9012C72.8222 24.1586 72.24 22.4477 71.1049 21.1223C69.9699 19.797 68.3689 18.9586 66.633 18.7805C66.4398 18.7605 66.2455 18.7494 66.0479 18.7449H63.6275C64.4546 18.7442 65.2749 18.8947 66.0479 19.1891C66.2478 19.2657 66.4421 19.35 66.633 19.4433C67.3012 19.7742 67.911 20.2119 68.4384 20.739C69.3898 21.6903 70.0377 22.9024 70.3001 24.2219C70.5626 25.5415 70.4278 26.9093 69.9128 28.1522C69.3978 29.3952 68.5258 30.4575 67.407 31.2047C66.2882 31.952 64.9729 32.3507 63.6275 32.3504L63.623 32.3482Z" fill="#F9E27D"/>
<path d="M59.4902 18.3775V20.5592H66.6327V18.3775C66.6325 18.0619 66.5087 17.7591 66.2879 17.5337C66.0671 17.3083 65.7668 17.1784 65.4514 17.1717H60.6771C60.3606 17.1766 60.0588 17.3059 59.8367 17.5315C59.6146 17.757 59.4902 18.0609 59.4902 18.3775Z" fill="#FFD41D"/>
<path d="M64.863 17.1717C65.1784 17.1784 65.4786 17.3084 65.6992 17.5338C65.9198 17.7592 66.0433 18.062 66.0433 18.3775V19.1869C66.2431 19.2635 66.4374 19.3479 66.6284 19.4411V18.3775C66.6282 18.0619 66.5044 17.7591 66.2836 17.5337C66.0628 17.3083 65.7625 17.1784 65.447 17.1717H64.863Z" fill="#F9E27D"/>
<path d="M65.467 16.2257C64.5791 16.2783 63.6895 16.1555 62.8491 15.8643C62.0087 15.5731 61.2339 15.1192 60.5689 14.5285C59.9039 13.9378 59.3617 13.222 58.9734 12.4218C58.5851 11.6216 58.3582 10.7528 58.3056 9.86488L58.1335 6.9093C58.0889 6.19442 58.2562 5.48226 58.6143 4.86193V4.85416C59.0321 4.13237 59.6822 3.57347 60.4585 3.26867C60.8223 3.12454 61.2069 3.03981 61.5976 3.01775L64.6231 2.84122L65.357 2.7968C65.8017 2.77052 66.2472 2.8321 66.668 2.97803C67.0889 3.12396 67.4769 3.35138 67.8098 3.64729C68.1427 3.94321 68.4141 4.30183 68.6084 4.70265C68.8027 5.10347 68.9161 5.53865 68.9421 5.98332L68.9877 6.76052L69.0032 7.02144L69.0454 7.73091L69.0732 8.21166L69.2952 11.9289C69.326 12.4624 69.2514 12.9967 69.0757 13.5014C68.8999 14.0061 68.6265 14.4712 68.271 14.8702C67.9155 15.2692 67.4849 15.5942 67.0038 15.8268C66.5227 16.0594 66.0005 16.1949 65.467 16.2257Z" fill="#F5B5A9"/>
<path d="M69.0757 8.20389C68.9737 8.20068 68.872 8.19029 68.7715 8.1728L60.8707 6.90375C60.3367 6.81848 59.8392 6.57908 59.4394 6.21497C59.0396 5.85086 58.7548 5.37789 58.6201 4.85416C59.0365 4.13332 59.6845 3.57454 60.4587 3.26867C60.8226 3.12454 61.2072 3.03981 61.5979 3.01775L64.6234 2.84122L65.3573 2.7968C65.802 2.77052 66.2475 2.8321 66.6683 2.97803C67.0892 3.12396 67.4771 3.35138 67.8101 3.64729C68.143 3.94321 68.4144 4.30183 68.6087 4.70265C68.803 5.10347 68.9164 5.53865 68.9424 5.98332L68.988 6.76052L69.0035 7.02144L69.0457 7.73091L69.0757 8.20389Z" fill="#F29495"/>
<path d="M63.7139 10.449C63.9727 10.449 64.1824 10.2393 64.1824 9.9805C64.1824 9.72174 63.9727 9.51196 63.7139 9.51196C63.4551 9.51196 63.2454 9.72174 63.2454 9.9805C63.2454 10.2393 63.4551 10.449 63.7139 10.449Z" fill="#3C1C39"/>
<path d="M67.0271 10.449C67.2859 10.449 67.4957 10.2393 67.4957 9.9805C67.4957 9.72174 67.2859 9.51196 67.0271 9.51196C66.7684 9.51196 66.5586 9.72174 66.5586 9.9805C66.5586 10.2393 66.7684 10.449 67.0271 10.449Z" fill="#3C1C39"/>
<path d="M66.677 11.9023C66.664 12.0847 66.615 12.2626 66.5328 12.4259C66.4507 12.5892 66.3371 12.7346 66.1985 12.8538C66.1641 12.8827 66.1297 12.9105 66.0875 12.9371C65.8241 13.124 65.5035 13.2128 65.1815 13.188H65.1248C64.7768 13.1619 64.4513 13.006 64.2128 12.7512C63.9743 12.4964 63.8401 12.1614 63.8369 11.8124C63.8369 11.7746 63.8369 11.7358 63.8369 11.7014C63.8424 11.63 63.876 11.5638 63.9302 11.5171C63.9568 11.4938 63.9878 11.4761 64.0214 11.4651C64.0549 11.454 64.0904 11.4498 64.1256 11.4527L66.4194 11.6214C66.4548 11.6228 66.4896 11.6313 66.5217 11.6462C66.5538 11.6611 66.5827 11.6822 66.6067 11.7083C66.6306 11.7344 66.6491 11.765 66.6612 11.7983C66.6733 11.8316 66.6787 11.8669 66.677 11.9023Z" fill="#962F4A"/>
<path d="M65.1751 12.9726C65.1699 13.0443 65.1576 13.1154 65.1385 13.1847H65.1307C64.7827 13.1585 64.4572 13.0026 64.2186 12.7479C63.9801 12.4931 63.846 12.158 63.8428 11.809C64.0105 11.7744 64.184 11.779 64.3497 11.8226C64.5154 11.8661 64.6688 11.9474 64.7978 12.0601C64.9268 12.1728 65.028 12.3138 65.0935 12.4721C65.1589 12.6304 65.1869 12.8017 65.1751 12.9726Z" fill="#E1617F"/>
<path d="M66.3776 11.6103C66.3465 11.8823 65.9113 12.0688 65.395 12.0311C64.8787 11.9933 64.4746 11.7435 64.4846 11.476L66.3776 11.6103Z" fill="white"/>
<path d="M57.08 28.218C59.6824 28.218 61.792 26.1083 61.792 23.5059C61.792 20.9035 59.6824 18.7939 57.08 18.7939C54.4776 18.7939 52.3679 20.9035 52.3679 23.5059C52.3679 26.1083 54.4776 28.218 57.08 28.218Z" fill="#FFB41F"/>
<path d="M67.8607 1.37787H59.86C58.3245 1.37787 57.0798 2.62259 57.0798 4.15802C57.0798 5.69346 58.3245 6.93818 59.86 6.93818H67.8607C69.3961 6.93818 70.6409 5.69346 70.6409 4.15802C70.6409 2.62259 69.3961 1.37787 67.8607 1.37787Z" fill="#50274C"/>
<path d="M66.3741 0.00671387H60.5773C59.0418 0.00671387 57.7971 1.25143 57.7971 2.78687C57.7971 4.3223 59.0418 5.56702 60.5773 5.56702H66.3741C67.9095 5.56702 69.1542 4.3223 69.1542 2.78687C69.1542 1.25143 67.9095 0.00671387 66.3741 0.00671387Z" fill="#50274C"/>
<path d="M70.6399 4.15691C70.6382 4.89349 70.3444 5.59932 69.8231 6.11965C69.3017 6.63997 68.5953 6.93233 67.8587 6.93262H66.2932C66.9444 6.9388 67.5771 6.7158 68.0805 6.30263C68.5839 5.88947 68.926 5.31244 69.047 4.67251C69.1679 4.03259 69.06 3.37051 68.7421 2.80211C68.4242 2.23372 67.9165 1.7952 67.308 1.56328C67.2765 1.49752 67.2417 1.43341 67.2036 1.3712C66.9586 0.95349 66.6085 0.607159 66.1882 0.366613C65.7678 0.126067 65.2919 -0.000322108 64.8076 6.16491e-07H66.3731C66.8948 -0.000101074 67.4061 0.146539 67.8484 0.423169C68.2907 0.699799 68.6463 1.09527 68.8746 1.56439C69.3959 1.76814 69.8435 2.12474 70.1585 2.5874C70.4736 3.05007 70.6414 3.59717 70.6399 4.15691Z" fill="#684568"/>
<path d="M57.5063 6.2309H59.8379V8.82896C59.8379 9.11328 59.7819 9.39482 59.6731 9.65749C59.5643 9.92017 59.4049 10.1588 59.2038 10.3599C59.0028 10.5609 58.7641 10.7204 58.5014 10.8292C58.2387 10.938 57.9572 10.994 57.6729 10.994H57.5063V6.2309Z" fill="#50274C"/>
<path d="M58.8175 8.04524C60.4817 8.04524 61.8308 6.69614 61.8308 5.03193C61.8308 3.36772 60.4817 2.01862 58.8175 2.01862C57.1533 2.01862 55.8042 3.36772 55.8042 5.03193C55.8042 6.69614 57.1533 8.04524 58.8175 8.04524Z" fill="#50274C"/>
<path d="M57.5066 7.10151C57.7579 7.36893 58.0559 7.58828 58.3859 7.74881V10.8754C58.1571 10.955 57.9165 10.9956 57.6742 10.9953H57.5066V7.74659C56.8924 7.44948 56.3973 6.95286 56.102 6.33788C55.8067 5.72291 55.7287 5.02595 55.8808 4.36093C56.0329 3.6959 56.4061 3.10213 56.9394 2.67668C57.4727 2.25122 58.1345 2.01923 58.8167 2.01862C58.9654 2.01827 59.1138 2.02941 59.2608 2.05193C58.7155 2.13207 58.2026 2.36031 57.778 2.71179C57.3534 3.06327 57.0333 3.52452 56.8528 4.0453C56.6722 4.56609 56.638 5.12644 56.7538 5.66532C56.8697 6.20421 57.1312 6.70097 57.5099 7.10151H57.5066Z" fill="#3F1B3D"/>
<path d="M58.8019 12.1454C59.7529 12.1454 60.5239 11.3744 60.5239 10.4233C60.5239 9.47228 59.7529 8.70129 58.8019 8.70129C57.8508 8.70129 57.0798 9.47228 57.0798 10.4233C57.0798 11.3744 57.8508 12.1454 58.8019 12.1454Z" fill="#F5B5A9"/>
<path d="M58.2824 10.228C58.263 10.3731 58.2869 10.5207 58.3511 10.6523C58.4153 10.7838 58.517 10.8935 58.6433 10.9675C58.6738 10.9838 58.7079 10.9924 58.7425 10.9926C58.7771 10.9928 58.8113 10.9845 58.842 10.9686C58.8727 10.9526 58.8991 10.9294 58.9188 10.901C58.9385 10.8725 58.9511 10.8397 58.9553 10.8054L59.083 9.84608C59.0875 9.81012 59.0829 9.7736 59.0696 9.73989C59.0563 9.70618 59.0347 9.67638 59.0068 9.65324C58.9789 9.6301 58.9456 9.61438 58.91 9.60752C58.8744 9.60067 58.8377 9.60291 58.8032 9.61403C58.6665 9.6555 58.5448 9.73547 58.4524 9.84436C58.3601 9.95325 58.301 10.0865 58.2824 10.228Z" fill="#F29495"/>
<path d="M65.4391 3.27319H59.9166C59.3095 3.27319 58.8174 3.76531 58.8174 4.37238V4.46786C58.8174 5.07492 59.3095 5.56704 59.9166 5.56704H65.4391C66.0462 5.56704 66.5383 5.07492 66.5383 4.46786V4.37238C66.5383 3.76531 66.0462 3.27319 65.4391 3.27319Z" fill="#684568"/>
<path d="M57.0845 18.423C57.0845 18.423 66.4875 18.9027 60.0978 32.5858L61.7965 33.4874C61.7965 33.4874 69.4453 20.386 59.3284 18.423H57.0845Z" fill="#604970"/>
<path d="M68.883 38.4039L66.8788 37.2588C65.8341 36.662 64.5035 37.0251 63.9067 38.0697L63.9061 38.0706C63.3093 39.1153 63.6724 40.4459 64.717 41.0427L66.7212 42.1878C67.7658 42.7846 69.0965 42.4216 69.6933 41.3769L69.6938 41.376C70.2907 40.3314 69.9276 39.0007 68.883 38.4039Z" fill="#F5B5A9"/>
<path d="M66.911 34.1353L63.7032 34.372C62.7535 34.442 62.0404 35.2687 62.1105 36.2184L62.1106 36.2195C62.1807 37.1693 63.0074 37.8823 63.9571 37.8123L67.1649 37.5756C68.1146 37.5055 68.8277 36.6788 68.7576 35.7291L68.7575 35.728C68.6874 34.7783 67.8607 34.0652 66.911 34.1353Z" fill="#F5B5A9"/>
<path d="M69.5406 39.038L67.6364 37.5583C66.3068 36.5251 64.3914 36.7653 63.3582 38.0949C62.3251 39.4245 62.5653 41.3399 63.8949 42.3731L65.7991 43.8528C67.1287 44.886 69.0441 44.6457 70.0773 43.3162C71.1105 41.9866 70.8702 40.0712 69.5406 39.038Z" fill="#F5B5A9"/>
<path d="M59.7228 24.6207C60.2477 22.6829 59.1024 20.6865 57.1648 20.1617C55.2272 19.637 53.231 20.7825 52.7062 22.7204L50.8298 29.6486C50.305 31.5865 51.4502 33.5828 53.3878 34.1076C55.3254 34.6324 57.3216 33.4868 57.8464 31.5489L59.7228 24.6207Z" fill="#F5B5A9"/>
<path d="M66.9287 42.3137L65.1061 40.8973C64.1561 40.1591 62.7875 40.3308 62.0493 41.2808L62.0487 41.2816C61.3105 42.2316 61.4821 43.6002 62.4321 44.3384L64.2548 45.7547C65.2047 46.4929 66.5733 46.3213 67.3115 45.3713L67.3122 45.3704C68.0504 44.4204 67.8787 43.0519 66.9287 42.3137Z" fill="#F5B5A9"/>
<path d="M59.9457 24.9356C60.4759 22.9878 59.3271 20.9791 57.3797 20.4488C55.4322 19.9186 53.4236 21.0678 52.8934 23.0155L50.7018 31.0652C50.1715 33.0129 51.3203 35.0217 53.2678 35.5519C55.2152 36.0821 57.2238 34.933 57.7541 32.9852L59.9457 24.9356Z" fill="#F5B5A9"/>
<path d="M57.3785 20.4491C58.3468 20.7128 59.1707 21.3502 59.669 22.2213C60.1673 23.0924 60.2991 24.1258 60.0355 25.0941L58.5733 30.4645L51.2714 28.4765L52.7335 23.1061C52.9972 22.1378 53.6346 21.3139 54.5057 20.8156C55.3768 20.3173 56.4102 20.1855 57.3785 20.4491Z" fill="#FFD41D"/>
<path d="M67.5921 41.72C67.0591 42.7224 66.1707 43.4895 65.1014 43.8707C64.032 44.2519 62.8588 44.2198 61.8119 43.7807C61.7697 43.7629 61.7286 43.7452 61.6864 43.7252C61.6443 43.7052 61.6187 43.6941 61.5854 43.6775C61.5521 43.6608 61.4877 43.6297 61.44 43.6042L51.514 38.3336C50.989 38.0568 50.5235 37.6796 50.1439 37.2234C50.1073 37.1778 50.0706 37.1334 50.0329 37.0868C49.9618 36.9958 49.8952 36.9025 49.833 36.8048C49.802 36.7582 49.7709 36.7093 49.742 36.6604C49.6832 36.5616 49.631 36.4617 49.5777 36.3596C49.4752 36.1564 49.3887 35.9455 49.319 35.7289C49.2823 35.6179 49.2524 35.5069 49.2246 35.3958C49.1968 35.2848 49.1735 35.1738 49.1558 35.0627C49.1458 35.005 49.138 34.9517 49.1302 34.8918C49.1169 34.7807 49.1069 34.6697 49.0991 34.5509C49.0563 33.7282 49.2387 32.9094 49.6265 32.1827C49.6709 32.0983 49.7176 32.0183 49.7664 31.9395C50.3708 30.9515 51.3297 30.2315 52.4472 29.9267C53.5646 29.6219 54.7562 29.7553 55.7786 30.2996L65.7046 35.5701C66.7697 36.136 67.5668 37.1015 67.9207 38.2546C68.2746 39.4076 68.1564 40.654 67.5921 41.72Z" fill="#F5B5A9"/>
<path d="M66.4636 41.4129C66.7362 40.5582 66.0133 39.5643 64.849 39.193C63.6847 38.8216 62.5198 39.2134 62.2472 40.0681C61.9746 40.9228 62.6975 41.9167 63.8618 42.2881C65.0261 42.6594 66.191 42.2676 66.4636 41.4129Z" fill="#F8CDC5"/>
</svg>
