<svg width="105" height="92" viewBox="0 0 105 92" fill="none" xmlns="http://www.w3.org/2000/svg">
<path d="M101.886 55.2922C102.837 58.0082 103.002 60.9376 102.363 63.7434C101.724 66.5493 100.306 69.1178 98.2719 71.1537C97.9625 71.4631 97.6398 71.7592 97.3038 72.042C94.6777 74.2565 91.3799 75.518 87.9463 75.6215C87.7886 75.6215 87.631 75.6282 87.4722 75.6282H77.4374C77.0574 75.6271 76.6806 75.6983 76.3271 75.838C75.7593 76.0603 75.2717 76.4486 74.928 76.9523C74.5844 77.456 74.4006 78.0517 74.4008 78.6615V85.714C74.4008 86.8459 73.9511 87.9315 73.1508 88.7319C72.3504 89.5323 71.2648 89.9819 70.1329 89.9819H23.6919V78.6615C23.6919 77.8578 23.3729 77.0869 22.805 76.5182C22.2371 75.9495 21.4667 75.6294 20.663 75.6282H14.7008C12.7701 75.6289 10.8582 75.2492 9.0744 74.5107C7.29056 73.7722 5.66974 72.6894 4.30456 71.3242C2.93937 69.959 1.85659 68.3382 1.1181 66.5544C0.379606 64.7705 -0.000127221 62.8587 0.000602293 60.928V59.7722C-0.012868 58.2558 0.19968 56.7459 0.631244 55.2922C0.968653 54.1793 1.45929 53.1188 2.08905 52.1412C2.66864 51.2451 3.3575 50.4246 4.13975 49.6986C4.45803 49.4025 4.7863 49.1223 5.12457 48.8581C5.64413 48.4538 6.1889 48.0829 6.75558 47.7478C6.94655 47.6338 7.13789 47.5228 7.32959 47.4147C7.34958 47.4025 7.37289 47.3903 7.39399 47.3792C8.59043 46.7374 9.84796 46.2167 11.1479 45.8248L11.2289 45.8004C11.8022 45.629 12.3387 45.3526 12.8111 44.9854C13.3181 44.591 13.7424 44.1004 14.0596 43.5418C14.3768 42.9832 14.5807 42.3676 14.6597 41.7301C14.6848 41.5297 14.697 41.328 14.6963 41.1261V36.3518C14.6963 36.2286 14.6963 36.1065 14.7063 35.9855C14.7663 34.8623 15.0962 33.7701 15.6681 32.8016C16.24 31.833 17.0371 31.0167 17.9917 30.4218C18.2062 30.2868 18.4286 30.1648 18.6578 30.0565C18.9609 29.9082 19.2749 29.7835 19.5971 29.6835C20.1732 29.5024 20.7703 29.3968 21.3736 29.3693H21.4036C21.5013 29.3693 21.6001 29.3626 21.6978 29.3626C21.8011 29.3626 21.9043 29.3626 22.0053 29.3537C22.1064 29.3448 22.1797 29.3426 22.264 29.3326C23.1774 29.2357 24.0509 28.9074 24.802 28.3788C25.5531 27.8501 26.157 27.1386 26.5564 26.3115C26.6197 26.185 26.6752 26.0562 26.7252 25.9252C26.968 25.3019 27.0923 24.6388 27.0916 23.9699C27.0921 22.7294 26.6649 21.5266 25.882 20.5643C25.0991 19.602 24.0084 18.939 22.7936 18.6872C22.6182 18.6517 22.4417 18.6239 22.2629 18.605C22.1774 18.5962 22.0908 18.5884 22.0042 18.5851C21.9176 18.5817 21.7999 18.5751 21.6967 18.5751H14.1467C13.127 18.5758 12.1141 18.4081 11.149 18.0788C10.6881 17.922 10.2407 17.7282 9.81108 17.4992C9.60753 17.3911 9.40916 17.2764 9.21597 17.155L9.20153 17.1461C8.42163 16.6522 7.71932 16.0453 7.11753 15.3453C6.92545 15.1232 6.74225 14.8878 6.57016 14.6458C6.22498 14.1604 5.92752 13.6428 5.68193 13.1003C5.54201 12.7919 5.42005 12.4757 5.31665 12.1532C5.15205 11.6495 5.03205 11.1323 4.95803 10.6077C4.91387 10.2933 4.88608 9.97677 4.87475 9.65948C4.87475 9.53624 4.86698 9.41189 4.86698 9.28642C4.86723 8.89484 4.8917 8.50364 4.94026 8.11507C4.98038 7.79628 5.03708 7.47979 5.11013 7.16689C5.15233 6.98036 5.2034 6.79717 5.2578 6.61175C5.40101 6.13606 5.58143 5.67238 5.7974 5.225C5.9493 4.91216 6.11946 4.60853 6.30702 4.31568C6.50102 4.00707 6.71347 3.71045 6.94321 3.42745C7.00095 3.35639 7.05424 3.28644 7.11864 3.2165C7.18304 3.14655 7.23966 3.07771 7.30295 3.01109C8.16391 2.06871 9.21058 1.3147 10.3771 0.796492C11.5436 0.278287 12.8048 0.00710287 14.0812 0H76.99C79.8733 0.000294412 82.6385 1.14582 84.6773 3.18463C86.7161 5.22345 87.8616 7.98859 87.8619 10.8719C87.8619 15.1132 91.2949 18.5729 95.5362 18.5651C97.9982 18.5626 100.36 19.5382 102.103 21.2774C103.846 23.0165 104.826 25.3767 104.829 27.8387C104.831 30.3008 103.856 32.663 102.116 34.4056C100.377 36.1483 98.0171 37.1288 95.5551 37.1313H75.6954C74.6427 37.1316 73.6331 37.5498 72.8886 38.2941C72.1441 39.0384 71.7256 40.0478 71.725 41.1005C71.725 41.1727 71.725 41.2449 71.7317 41.3159C71.7838 42.3317 72.2243 43.2885 72.962 43.9887C73.6997 44.6888 74.6783 45.0786 75.6954 45.0776H87.4644C90.9856 45.0723 94.3995 46.2887 97.1239 48.5195C98.0235 49.2543 98.8369 50.0886 99.5488 51.0065C99.8319 51.374 100.104 51.7537 100.353 52.1468C100.983 53.1327 101.498 54.1881 101.886 55.2922Z" fill="#F0F3F9"/>
<path d="M101.937 89.9753H95.6685C95.1288 89.9753 94.6914 90.4127 94.6914 90.9523V90.9534C94.6914 91.4931 95.1288 91.9305 95.6685 91.9305H101.937C102.477 91.9305 102.914 91.4931 102.914 90.9534V90.9523C102.914 90.4127 102.477 89.9753 101.937 89.9753Z" fill="#34629B"/>
<path d="M92.9181 89.9753H4.9458C4.40619 89.9753 3.96875 90.4127 3.96875 90.9523V90.9534C3.96875 91.4931 4.40619 91.9305 4.9458 91.9305H92.9181C93.4577 91.9305 93.8952 91.4931 93.8952 90.9534V90.9523C93.8952 90.4127 93.4577 89.9753 92.9181 89.9753Z" fill="#34629B"/>
<path d="M58.9411 0V48.7659C58.9413 48.8876 58.9174 49.0082 58.8709 49.1206C58.8245 49.2331 58.7563 49.3353 58.6703 49.4214C58.5843 49.5075 58.4822 49.5758 58.3697 49.6224C58.2573 49.669 58.1368 49.693 58.0151 49.693H4.13965C4.45793 49.3969 4.7862 49.1168 5.12447 48.8525C5.64403 48.4482 6.1888 48.0774 6.75548 47.7423C6.94645 47.6283 7.13779 47.5172 7.3295 47.4092C7.34948 47.397 7.3728 47.3847 7.39389 47.3736C8.59033 46.7319 9.84786 46.2111 11.1478 45.8192L11.2288 45.7948C11.8021 45.6234 12.3386 45.3471 12.811 44.9799C13.318 44.5854 13.7423 44.0949 14.0595 43.5363C14.3767 42.9777 14.5806 42.362 14.6596 41.7245C14.6847 41.5242 14.6969 41.3224 14.6962 41.1205V36.3463C14.6962 36.223 14.6962 36.1009 14.7062 35.9799C14.767 34.8577 15.0974 33.7666 15.6693 32.7991C16.2411 31.8316 17.0377 31.0162 17.9916 30.4218C18.2061 30.2868 18.4285 30.1648 18.6577 30.0565C18.9608 29.9082 19.2748 29.7835 19.597 29.6835C20.1731 29.5024 20.7703 29.3967 21.3735 29.3693H21.4035C21.5012 29.3693 21.6 29.3626 21.6977 29.3626C21.801 29.3626 21.9042 29.3626 22.0052 29.3537C22.1063 29.3448 22.1796 29.3426 22.2639 29.3326C23.1773 29.2357 24.0508 28.9074 24.8019 28.3788C25.553 27.8501 26.1569 27.1386 26.5563 26.3115C26.6196 26.185 26.6751 26.0562 26.7251 25.9252C26.9679 25.3019 27.0922 24.6388 27.0915 23.9699C27.092 22.7294 26.6648 21.5266 25.8819 20.5643C25.099 19.602 24.0083 18.939 22.7936 18.6872C22.6181 18.6517 22.4416 18.6239 22.2628 18.605C22.1773 18.5962 22.0907 18.5884 22.0041 18.5851C21.9175 18.5817 21.7998 18.5751 21.6966 18.5751H14.1466C13.1269 18.5758 12.114 18.4081 11.1489 18.0788C10.688 17.922 10.2406 17.7282 9.81099 17.4992C9.60743 17.3911 9.40906 17.2764 9.21587 17.155L9.20144 17.1461C8.42154 16.6522 7.71923 16.0453 7.11743 15.3453C6.92535 15.1232 6.74216 14.8878 6.57006 14.6458C6.22488 14.1604 5.92742 13.6428 5.68183 13.1003C5.54192 12.7919 5.41995 12.4756 5.31655 12.1532C5.15196 11.6495 5.03195 11.1323 4.95793 10.6077C4.91378 10.2933 4.88598 9.97677 4.87466 9.65948C4.87466 9.53624 4.86689 9.41189 4.86689 9.28642C4.86713 8.89484 4.8916 8.50364 4.94016 8.11507C4.98028 7.79628 5.03698 7.47979 5.11004 7.16689C5.15223 6.98036 5.2033 6.79716 5.25771 6.61175C5.40091 6.13606 5.58134 5.67238 5.7973 5.225C5.9492 4.91216 6.11937 4.60853 6.30692 4.31568C6.50092 4.00707 6.71337 3.71045 6.94312 3.42745C7.00085 3.35639 7.05415 3.28644 7.11854 3.2165C7.18294 3.14655 7.23956 3.07771 7.30285 3.01109C8.16381 2.06871 9.21048 1.3147 10.377 0.796492C11.5436 0.278287 12.8047 0.00710286 14.0811 0H58.9367H58.9411Z" fill="#6E8EC8"/>
<path d="M57.1392 0V46.4854V46.5798C57.1362 46.6108 57.131 46.6416 57.1236 46.6719C57.1236 46.6953 57.1136 46.7175 57.1081 46.7397C57.1025 46.7619 57.0936 46.783 57.0881 46.8041C57.0807 46.8238 57.0722 46.8431 57.0626 46.8618C57.0537 46.8841 57.0437 46.906 57.0326 46.9273C57.0184 46.9539 57.0024 46.9795 56.9848 47.0039C56.9688 47.0286 56.9514 47.0523 56.9326 47.075C56.9138 47.0981 56.8934 47.12 56.8716 47.1405C56.8515 47.1619 56.8299 47.1819 56.8072 47.2004C56.7828 47.2193 56.7594 47.2371 56.735 47.2537C56.7108 47.2708 56.6856 47.2864 56.6595 47.3004C56.6333 47.3149 56.6062 47.3278 56.5785 47.3392C56.5507 47.3503 56.5218 47.3614 56.493 47.3703C56.4641 47.3792 56.4341 47.387 56.403 47.3936C56.342 47.4061 56.2799 47.4124 56.2176 47.4125H7.32956C7.34954 47.4003 7.37286 47.3881 7.39395 47.377C8.59039 46.7352 9.84792 46.2145 11.1478 45.8226L11.2289 45.7981C11.8022 45.6268 12.3386 45.3504 12.811 44.9832C13.3181 44.5888 13.7423 44.0982 14.0595 43.5396C14.3768 42.981 14.5807 42.3654 14.6597 41.7278C14.6847 41.5275 14.697 41.3258 14.6963 41.1239V36.3496C14.6963 36.2264 14.6963 36.1042 14.7063 35.9832C14.7666 34.8604 15.0967 33.7687 15.6686 32.8006C16.2405 31.8325 17.0373 31.0165 17.9916 30.4218C18.2061 30.2868 18.4286 30.1648 18.6578 30.0565C18.9608 29.9082 19.2749 29.7835 19.5971 29.6835C20.1732 29.5024 20.7703 29.3968 21.3736 29.3693H21.4035C21.5012 29.3693 21.6 29.3626 21.6978 29.3626C21.801 29.3626 21.9043 29.3626 22.0053 29.3537C22.1063 29.3448 22.1796 29.3426 22.264 29.3326C23.1774 29.2357 24.0509 28.9074 24.802 28.3788C25.5531 27.8501 26.1569 27.1386 26.5564 26.3115C26.6196 26.185 26.6752 26.0562 26.7251 25.9252C26.968 25.3019 27.0923 24.6388 27.0915 23.9699C27.0921 22.7294 26.6649 21.5266 25.882 20.5643C25.0991 19.602 24.0083 18.939 22.7936 18.6872C22.6182 18.6517 22.4416 18.6239 22.2629 18.605C22.1774 18.5962 22.0908 18.5884 22.0042 18.5851C21.9176 18.5817 21.7999 18.5751 21.6966 18.5751H14.1467C13.1269 18.5758 12.1141 18.4081 11.1489 18.0788C10.6881 17.922 10.2406 17.7282 9.81104 17.4992C9.60749 17.3911 9.40912 17.2764 9.21593 17.155L9.2015 17.1461C8.42159 16.6522 7.71928 16.0453 7.11749 15.3453C6.92541 15.1232 6.74221 14.8878 6.57012 14.6458C6.22494 14.1604 5.92748 13.6428 5.68189 13.1003C5.54197 12.7919 5.42001 12.4757 5.31661 12.1532C5.15201 11.6495 5.03201 11.1323 4.95799 10.6077C4.91384 10.2933 4.88604 9.97677 4.87472 9.65948C4.87472 9.53624 4.86694 9.41189 4.86694 9.28642C4.86719 8.89484 4.89166 8.50364 4.94022 8.11507C4.98034 7.79628 5.03704 7.47979 5.1101 7.16689C5.15229 6.98036 5.20336 6.79717 5.25776 6.61175C5.40097 6.13606 5.5814 5.67238 5.79736 5.225C5.94926 4.91216 6.11943 4.60853 6.30698 4.31568C6.50098 4.00707 6.71343 3.71045 6.94318 3.42745C7.00091 3.35639 7.0542 3.28644 7.1186 3.2165C7.183 3.14655 7.23962 3.07771 7.30291 3.01109C8.16387 2.06871 9.21054 1.3147 10.3771 0.796492C11.5436 0.278287 12.8048 0.00710286 14.0812 0H57.1392Z" fill="#E9F1FF"/>
<path d="M57.1392 3.40857V46.4876C57.1389 46.7332 57.0413 46.9687 56.8678 47.1425C56.6942 47.3162 56.4588 47.4141 56.2132 47.4147H27.2981V8.70241L27.368 8.65467L28.4783 7.90412L32.321 5.29939H38.4776L39.7355 4.62545L40.3106 4.3179L40.6271 4.14803L41.9594 3.433L45.0682 1.76757L48.2547 2.48593V6.32862H49.9079V0H52.6925L53.5619 0.869353V3.40857H57.1392Z" fill="#B3C9EB"/>
<path d="M50.1965 10.8619V47.4092H56.2109C56.3326 47.4093 56.4532 47.3855 56.5656 47.339C56.6781 47.2925 56.7803 47.2244 56.8664 47.1384C56.9525 47.0524 57.0208 46.9502 57.0674 46.8378C57.114 46.7254 57.138 46.6049 57.138 46.4832V8.32715H54.8431L50.1965 10.8619Z" fill="#819FCC"/>
<path d="M32.3198 5.29944H34.9667V47.4126H32.3198V5.29944Z" fill="#819FCC"/>
<path d="M11.1478 3.24646V18.0699C10.6869 17.9131 10.2395 17.7193 9.80993 17.4903C9.60638 17.3822 9.40801 17.2675 9.21482 17.1461L9.20039 17.1372C8.42149 16.6459 7.71959 16.042 7.11749 15.3452C6.92541 15.1232 6.74221 14.8878 6.57012 14.6458C6.22494 14.1604 5.92748 13.6428 5.68189 13.1002C5.54197 12.7919 5.42001 12.4756 5.31661 12.1532C5.15201 11.6495 5.03201 11.1323 4.95799 10.6076C4.91384 10.2932 4.88604 9.97676 4.87472 9.65947C4.87472 9.53623 4.86694 9.41187 4.86694 9.28641C4.86719 8.89482 4.89166 8.50362 4.94022 8.11506C4.98034 7.79626 5.03704 7.47977 5.1101 7.16688C5.15229 6.98035 5.20336 6.79715 5.25776 6.61173C5.40097 6.13605 5.5814 5.67237 5.79736 5.22499L8.25553 4.31567L10.6438 3.42744L11.1478 3.24646Z" fill="#B3C9EB"/>
<path d="M7.39399 47.377C8.59042 46.7352 9.84795 46.2145 11.1479 45.8226V47.4092H7.32959C7.34957 47.4003 7.37289 47.3881 7.39399 47.377Z" fill="#B3C9EB"/>
<path d="M14.6599 10.43V18.5662H14.1491C13.1294 18.5669 12.1165 18.3992 11.1514 18.0699V8.32715L14.6599 10.43Z" fill="#88A5D2"/>
<path d="M14.6598 41.7333V47.4091H11.1479V45.8281L11.229 45.8036C11.8023 45.6322 12.3388 45.3559 12.8112 44.9887C13.3182 44.5943 13.7425 44.1037 14.0597 43.5451C14.3769 42.9865 14.5808 42.3708 14.6598 41.7333Z" fill="#88A5D2"/>
<path d="M22.003 7.02817V18.5751C21.902 18.5685 21.7987 18.5651 21.6955 18.5651H18.6555V5.62366L21.3691 6.76281L22.003 7.02817Z" fill="#B3C9EB"/>
<path d="M21.6955 29.3571C21.7987 29.3571 21.902 29.3571 22.003 29.3482V47.4092H18.6555V30.0521C18.9586 29.9038 19.2726 29.7791 19.5948 29.6791C20.1709 29.498 20.768 29.3924 21.3713 29.3649H21.4013C21.499 29.3649 21.5978 29.3582 21.6955 29.3582V29.3571Z" fill="#B3C9EB"/>
<path d="M18.6546 5.62366V18.5663H16.1709V6.48746L18.1516 5.79908L18.6546 5.62366Z" fill="#819FCC"/>
<path d="M17.9916 30.4219C18.2061 30.2868 18.4286 30.1648 18.6578 30.0566V47.4092H16.1719V32.0573C16.678 31.4098 17.2939 30.8562 17.9916 30.4219Z" fill="#819FCC"/>
<path d="M47.3853 7.90753H38.6462V6.97267H47.3853V7.90753Z" fill="#D1DEF5"/>
<path d="M28.012 12.332L31.7425 12.211V7.44006L28.012 9.9482V12.332Z" fill="#D1DEF5"/>
<path d="M47.3853 10.9675H38.6462V10.0326H47.3853V10.9675Z" fill="#D1DEF5"/>
<path d="M47.3853 14.0263H38.6462V13.0914H47.3853V14.0263Z" fill="#D1DEF5"/>
<path d="M47.3853 17.0862H38.6462V16.1514H47.3853V17.0862Z" fill="#D1DEF5"/>
<path d="M47.3853 20.1473H38.6462V19.2124H47.3853V20.1473Z" fill="#D1DEF5"/>
<path d="M47.3853 23.2073H38.6462V22.2724H47.3853V23.2073Z" fill="#D1DEF5"/>
<path d="M47.3853 26.2672H38.6462V25.3324H47.3853V26.2672Z" fill="#D1DEF5"/>
<path d="M47.3853 29.326H38.6462V28.3911H47.3853V29.326Z" fill="#D1DEF5"/>
<path d="M47.3853 32.386H38.6462V31.4511H47.3853V32.386Z" fill="#D1DEF5"/>
<path d="M47.3853 35.4459H38.6462V34.5111H47.3853V35.4459Z" fill="#D1DEF5"/>
<path d="M47.3853 38.5059H38.6462V37.571H47.3853V38.5059Z" fill="#D1DEF5"/>
<path d="M47.3853 41.5658H38.6462V40.6309H47.3853V41.5658Z" fill="#D1DEF5"/>
<path d="M47.3853 44.6257H38.6462V43.6909H47.3853V44.6257Z" fill="#D1DEF5"/>
<path d="M31.7437 21.2798H28.0131V13.7154H31.7437V21.2798Z" fill="#D1DEF5"/>
<path d="M31.7437 30.585H28.0131V23.0206H31.7437V30.585Z" fill="#D1DEF5"/>
<path d="M31.7437 39.8904H28.0131V32.326H31.7437V39.8904Z" fill="#D1DEF5"/>
<path d="M31.7437 45.706H28.0131V41.0983H31.7437V45.706Z" fill="#D1DEF5"/>
<path d="M9.80884 8.11176H8.06014V7.16357H9.80884V8.11176Z" fill="#D1DEF5"/>
<path d="M21.5701 9.30865H19.1375V6.53516L21.5701 7.67653V9.30865Z" fill="#D1DEF5"/>
<path d="M6.57119 7.16473V8.11292H4.94019C4.98031 7.79412 5.03701 7.47763 5.11006 7.16473H6.57119Z" fill="#D1DEF5"/>
<path d="M9.80884 10.6055H8.06014V9.65728H9.80884V10.6055Z" fill="#D1DEF5"/>
<path d="M6.57127 9.65955V10.6077H4.96025C4.91535 10.2934 4.88682 9.97687 4.87476 9.65955H6.57127Z" fill="#D1DEF5"/>
<path d="M9.80884 13.0992H8.06014V12.151H9.80884V13.0992Z" fill="#D1DEF5"/>
<path d="M6.57138 12.151V13.1014H5.68316C5.54324 12.793 5.42127 12.4768 5.31787 12.1543L6.57138 12.151Z" fill="#D1DEF5"/>
<path d="M9.80884 15.5918H8.06014V14.6436H9.80884V15.5918Z" fill="#D1DEF5"/>
<path d="M9.80999 17.1373V17.4903C9.60643 17.3823 9.40806 17.2675 9.21487 17.1461L9.20044 17.1373H9.80999Z" fill="#D1DEF5"/>
<path d="M21.5691 11.4948H19.1365V10.1303H21.5691V11.4948Z" fill="#D1DEF5"/>
<path d="M21.5703 13.8287H20.6765V12.4641H21.5703V13.8287Z" fill="#D1DEF5"/>
<path d="M20.03 13.8287H19.1362V12.4641H20.03V13.8287Z" fill="#D1DEF5"/>
<path d="M21.5691 16.5233H19.1365V15.1588H21.5691V16.5233Z" fill="#D1DEF5"/>
<path d="M20.6753 17.4926H21.5691V18.5662H20.6753V17.4926Z" fill="#D1DEF5"/>
<path d="M19.1375 17.4926H20.0312V18.5662H19.1375V17.4926Z" fill="#D1DEF5"/>
<path d="M21.5691 31.5288H19.1365V30.1643H21.5691V31.5288Z" fill="#D1DEF5"/>
<path d="M21.5703 33.8627H20.6765V32.4981H21.5703V33.8627Z" fill="#D1DEF5"/>
<path d="M20.03 33.8627H19.1362V32.4981H20.03V33.8627Z" fill="#D1DEF5"/>
<path d="M21.5691 36.5173H19.1365V35.1528H21.5691V36.5173Z" fill="#D1DEF5"/>
<path d="M21.5703 38.8511H20.6765V37.4866H21.5703V38.8511Z" fill="#D1DEF5"/>
<path d="M20.03 38.8511H19.1362V37.4866H20.03V38.8511Z" fill="#D1DEF5"/>
<path d="M21.5691 41.5058H19.1365V40.1413H21.5691V41.5058Z" fill="#D1DEF5"/>
<path d="M21.5703 43.8397H20.6765V42.4751H21.5703V43.8397Z" fill="#D1DEF5"/>
<path d="M20.03 43.8397H19.1362V42.4751H20.03V43.8397Z" fill="#D1DEF5"/>
<path opacity="0.51" d="M57.1393 36.3063V46.4887C57.139 46.7343 57.0414 46.9698 56.8679 47.1436C56.6943 47.3173 56.4589 47.4152 56.2133 47.4158L50.1967 38.8444L47.3855 34.8396L47.1534 34.5065L45.6623 32.3815L45.0061 31.4466L43.5128 29.3215L42.8577 28.3867L41.3666 26.2627L40.7082 25.3267L40.6261 25.209L39.7378 23.94L39.2193 23.205L38.6497 22.3911L34.9692 17.1506L32.3211 13.3812L31.5051 12.2187L29.3011 9.08213L28.4751 7.90412L25.9581 4.3179L25.3352 3.42967L22.927 0H31.655L34.0643 3.43189L34.6849 4.32012L35.3744 5.30161L38.6975 10.0348L39.3526 10.9696L39.7367 11.517L40.6249 12.7872L40.8414 13.0947L41.4987 14.0296L42.9899 16.1546L43.646 17.0873L45.1405 19.2079L45.7978 20.1428L47.2878 22.2723L47.3866 22.4111L50.1967 26.4159L57.1393 36.3063Z" fill="white"/>
<path opacity="0.51" d="M54.5788 47.4124H50.402L50.1966 47.1215L46.2972 41.5657L45.6399 40.6308L44.1477 38.5057L43.4927 37.5709L42.0004 35.4458L41.3431 34.5109L40.627 33.4906L39.8509 32.3858L39.7366 32.2215L39.1959 31.451L34.9657 25.4277L32.321 21.6583L31.7436 20.8366L28.012 15.5228L27.2969 14.5047L22.2618 7.33114L21.3702 6.06097L20.1456 4.31783L19.5249 3.43293L17.1145 0.0010376H21.2914L21.3702 0.112066L22.2618 1.38112L23.7018 3.43293L24.3236 4.31783L27.3669 8.6546L28.1918 9.82817L29.9061 12.2708L30.9198 13.7153L31.7436 14.8866L32.321 15.7094L34.9657 19.4777L39.0748 25.3311L39.7321 26.267L39.7366 26.2715L40.627 27.5417L41.2243 28.391L41.8805 29.3259L43.3727 31.451L44.0278 32.3858L45.52 34.5109L46.1773 35.4458L50.1966 41.1726L54.5788 47.4124Z" fill="white"/>
<path opacity="0.51" d="M47.3665 47.4092H44.7851L42.8299 44.6224L42.1737 43.6875L40.6815 41.5657L40.6271 41.4902L40.0253 40.6364L39.7355 40.2256L34.9613 33.4318L32.321 29.6579L31.7437 28.8352L28.0131 23.5225L27.2981 22.5033L22.2618 15.3308L22.0031 14.9633L21.3692 14.0607L21.2071 13.8286L20.6752 13.0725L19.565 11.4959L19.1375 10.8808L18.6556 10.1935L16.1719 6.66171L14.5298 4.32345L13.9092 3.43522L11.7241 0.326424C12.4925 0.116775 13.2848 0.00706306 14.0813 0L16.4906 3.43078L17.1112 4.31901L18.1516 5.80013L18.6556 6.51849L19.1375 7.20464L20.6142 9.31418L21.1915 10.1369L21.3692 10.39L21.5701 10.6743L22.0031 11.2927L22.2618 11.6591L27.2981 18.8327L28.0131 19.8519L29.019 21.2853L30.2403 23.0273L31.7415 25.1657L32.321 25.9807L34.9657 29.7556L38.6496 34.9917L38.9672 35.4459L39.7388 36.545L40.4605 37.5709L40.6304 37.8141L41.1167 38.5058L42.6056 40.6364L43.2607 41.5713L44.7562 43.6908L45.4124 44.6257L47.3665 47.4092Z" fill="white"/>
<path d="M57.7608 3.43292V4.32115H6.30688C6.50088 4.01254 6.71333 3.71593 6.94308 3.43292H57.7608Z" fill="#6E8EC8"/>
<path d="M22.0028 29.3481C22.0894 29.3481 22.1771 29.337 22.2615 29.327V47.4091H21.3733V29.3648H21.4033C21.501 29.3648 21.5998 29.3581 21.6975 29.3581C21.7985 29.357 21.9018 29.3537 22.0028 29.3481Z" fill="#6E8EC8"/>
<path d="M22.2618 0.017765V18.5962C22.1763 18.5873 22.0897 18.5795 22.0031 18.5762C21.9165 18.5728 21.7988 18.5662 21.6956 18.5662H21.3691V0L22.2618 0.017765Z" fill="#6E8EC8"/>
<path d="M39.7354 0.0010376H40.6269V47.4124H39.7354V0.0010376Z" fill="#6E8EC8"/>
<path d="M7.83813 62.7544C8.04021 62.9187 8.23784 63.0871 8.43103 63.2596C9.06984 63.822 9.67245 64.4242 10.2352 65.0627C11.5331 66.5273 12.6171 68.1683 13.4551 69.9368C14.7721 72.7173 15.4547 75.7558 15.4536 78.8324V83.2136C15.4552 85.2688 14.836 87.2765 13.6771 88.9738H20.4243C19.2646 87.2769 18.6453 85.2689 18.6479 83.2136V78.8302C18.6479 73.7578 20.5041 68.8607 23.8662 65.0627C24.4254 64.4246 25.0243 63.8223 25.6593 63.2596C25.8525 63.0878 26.0501 62.9195 26.2522 62.7544H7.83813Z" fill="#547DBA"/>
<path d="M7.83813 62.7544C8.04021 62.9187 8.23784 63.0871 8.43103 63.2596H10.1553C9.96137 63.0878 9.76374 62.9195 9.56241 62.7544H7.83813Z" fill="#34629B"/>
<path d="M12.1328 89.9865H21.9544C22.234 89.9865 22.4607 89.7598 22.4607 89.4802C22.4607 89.2005 22.234 88.9739 21.9544 88.9739H12.1328C11.8532 88.9739 11.6265 89.2005 11.6265 89.4802C11.6265 89.7598 11.8532 89.9865 12.1328 89.9865Z" fill="#6E8EC8"/>
<path d="M11.6274 89.4801C11.6274 89.6142 11.6806 89.7428 11.7753 89.8377C11.87 89.9326 11.9985 89.9861 12.1326 89.9864H15.5445C15.4103 89.9864 15.2815 89.9331 15.1865 89.8381C15.0916 89.7432 15.0382 89.6144 15.0382 89.4801C15.0382 89.3458 15.0916 89.2171 15.1865 89.1221C15.2815 89.0272 15.4103 88.9738 15.5445 88.9738H12.1326C11.9985 88.9741 11.87 89.0276 11.7753 89.1225C11.6806 89.2174 11.6274 89.346 11.6274 89.4801Z" fill="#547DBA"/>
<path d="M6.43682 63.2596H27.651C28.2336 63.2596 28.7058 62.7873 28.7058 62.2048C28.7058 61.6223 28.2336 61.15 27.651 61.15H6.43682C5.85429 61.15 5.38205 61.6223 5.38205 62.2048C5.38205 62.7873 5.85429 63.2596 6.43682 63.2596Z" fill="#6E8EC8"/>
<path d="M5.38232 62.2059C5.38232 62.3444 5.40961 62.4815 5.46264 62.6094C5.51566 62.7373 5.59337 62.8535 5.69133 62.9514C5.78929 63.0492 5.90557 63.1268 6.03354 63.1797C6.1615 63.2326 6.29863 63.2597 6.4371 63.2596H11.8719C11.5922 63.2596 11.3239 63.1484 11.1261 62.9506C10.9283 62.7528 10.8172 62.4845 10.8172 62.2048C10.8172 61.9251 10.9283 61.6568 11.1261 61.459C11.3239 61.2612 11.5922 61.15 11.8719 61.15H6.4371C6.29854 61.1499 6.16132 61.1771 6.03328 61.23C5.90524 61.283 5.78891 61.3607 5.69093 61.4586C5.59296 61.5566 5.51527 61.6729 5.46232 61.801C5.40936 61.929 5.38218 62.0662 5.38232 62.2048V62.2059Z" fill="#547DBA"/>
<path d="M8.43091 63.2596C9.06973 63.822 9.67233 64.4242 10.2351 65.0627C11.533 66.5274 12.617 68.1683 13.4549 69.9368C14.772 72.7173 15.4546 75.7558 15.4535 78.8324V83.2136C15.4551 85.2688 14.8359 87.2765 13.677 88.9738H15.4013C16.5601 87.2765 17.1793 85.2688 17.1777 83.2136V78.8302C17.1789 75.7536 16.4963 72.7151 15.1792 69.9346L15.1537 69.8813C14.0867 67.6452 15.6933 65.0605 18.1714 65.0605H23.855C24.4178 64.4228 25.0205 63.8213 25.6592 63.2596H8.43091Z" fill="#34629B"/>
<path d="M74.2388 62.7544C74.4408 62.9187 74.6385 63.0871 74.8317 63.2596C75.4705 63.822 76.0731 64.4242 76.6359 65.0627C79.9976 68.861 81.8536 73.7579 81.8542 78.8302V83.2114C81.8543 85.2673 81.2328 87.2753 80.0711 88.9716H86.8183C85.6579 87.2747 85.0368 85.2671 85.0363 83.2114V78.8302C85.0355 73.7577 86.8918 68.8603 90.2546 65.0627C90.8162 64.4246 91.4174 63.8224 92.0544 63.2596C92.2491 63.0878 92.4467 62.9195 92.6473 62.7544H74.2388Z" fill="#547DBA"/>
<path d="M74.2388 62.7544C74.4408 62.9187 74.6385 63.0871 74.8317 63.2596H76.5559C76.3627 63.0878 76.1651 62.9195 75.963 62.7544H74.2388Z" fill="#34629B"/>
<path d="M78.5344 89.9865H88.356C88.6356 89.9865 88.8623 89.7598 88.8623 89.4802C88.8623 89.2005 88.6356 88.9739 88.356 88.9739H78.5344C78.2548 88.9739 78.0281 89.2005 78.0281 89.4802C78.0281 89.7598 78.2548 89.9865 78.5344 89.9865Z" fill="#6E8EC8"/>
<path d="M78.0281 89.4801C78.0281 89.6142 78.0813 89.7428 78.176 89.8377C78.2707 89.9326 78.3992 89.9861 78.5333 89.9864H81.9507C81.8164 89.9864 81.6877 89.9331 81.5927 89.8381C81.4978 89.7432 81.4444 89.6144 81.4444 89.4801C81.4444 89.3458 81.4978 89.2171 81.5927 89.1221C81.6877 89.0272 81.8164 88.9738 81.9507 88.9738H78.5333C78.3994 88.9747 78.2712 89.0283 78.1766 89.1231C78.082 89.2179 78.0287 89.3462 78.0281 89.4801Z" fill="#547DBA"/>
<path d="M72.8375 63.2596H94.0517C94.6342 63.2596 95.1064 62.7873 95.1064 62.2048C95.1064 61.6223 94.6342 61.15 94.0517 61.15H72.8375C72.2549 61.15 71.7827 61.6223 71.7827 62.2048C71.7827 62.7873 72.2549 63.2596 72.8375 63.2596Z" fill="#6E8EC8"/>
<path d="M71.7827 62.2059C71.7829 62.3444 71.8103 62.4815 71.8634 62.6095C71.9166 62.7374 71.9944 62.8536 72.0924 62.9514C72.1905 63.0493 72.3068 63.1268 72.4349 63.1797C72.5629 63.2326 72.7001 63.2597 72.8386 63.2596H78.2723C77.9926 63.2596 77.7243 63.1484 77.5265 62.9506C77.3287 62.7528 77.2176 62.4845 77.2176 62.2048C77.2176 61.9251 77.3287 61.6568 77.5265 61.459C77.7243 61.2612 77.9926 61.15 78.2723 61.15H72.8386C72.5588 61.15 72.2904 61.2611 72.0924 61.4589C71.8944 61.6567 71.783 61.925 71.7827 62.2048V62.2059Z" fill="#547DBA"/>
<path d="M74.8315 63.2596C75.4704 63.822 76.073 64.4242 76.6358 65.0627C79.9974 68.861 81.8535 73.7579 81.8541 78.8302V83.2114C81.8542 85.2673 81.2326 87.2753 80.071 88.9716H81.7952C82.9564 87.275 83.5779 85.2673 83.5784 83.2114V78.8302C83.5795 75.7536 82.8969 72.7151 81.5799 69.9346C81.5721 69.9169 81.5632 69.8991 81.5543 69.8813C80.4851 67.6474 82.0917 65.0627 84.5699 65.0627H90.2545C90.8161 64.4246 91.4172 63.8224 92.0543 63.2596H74.8315Z" fill="#34629B"/>
<path d="M39.187 49.9084C39.4831 50.1504 39.774 50.3984 40.0597 50.6523C40.9992 51.48 41.8859 52.3659 42.7144 53.3047C47.6621 58.8963 50.3936 66.1045 50.3942 73.5708V80.0193C50.3936 83.0448 49.4791 85.9995 47.7706 88.4963H57.6999C55.9927 85.9991 55.0801 83.0443 55.0819 80.0193V73.5708C55.0798 66.105 57.8095 58.8965 62.7561 53.3047C63.5836 52.366 64.4691 51.4801 65.4075 50.6523C65.6932 50.3977 65.9841 50.1497 66.2802 49.9084H39.187Z" fill="#547DBA"/>
<path d="M39.187 49.9084C39.4831 50.1504 39.774 50.3984 40.0597 50.6523H42.5967C42.3117 50.3977 42.0208 50.1497 41.724 49.9084H39.187Z" fill="#34629B"/>
<path d="M45.5077 89.9865H59.9625C60.374 89.9865 60.7075 89.6529 60.7075 89.2414C60.7075 88.83 60.374 88.4964 59.9625 88.4964H45.5077C45.0963 88.4964 44.7627 88.83 44.7627 89.2414C44.7627 89.6529 45.0963 89.9865 45.5077 89.9865Z" fill="#6E8EC8"/>
<path d="M44.7627 89.2402C44.7627 89.4379 44.8412 89.6275 44.9808 89.7674C45.1205 89.9073 45.31 89.986 45.5077 89.9863H50.5295C50.3319 89.9863 50.1424 89.9079 50.0027 89.7681C49.863 89.6284 49.7845 89.4389 49.7845 89.2413C49.7845 89.0438 49.863 88.8543 50.0027 88.7145C50.1424 88.5748 50.3319 88.4963 50.5295 88.4963H45.5077C45.3105 88.4969 45.1215 88.5754 44.9819 88.7148C44.8424 88.8541 44.7636 89.043 44.7627 89.2402Z" fill="#547DBA"/>
<path d="M29.8151 50.6523H75.6544C76.2676 50.6523 76.7646 50.1552 76.7646 49.542V49.5409C76.7646 48.9277 76.2676 48.4306 75.6544 48.4306H29.8151C29.2019 48.4306 28.7049 48.9277 28.7049 49.5409V49.542C28.7049 50.1552 29.2019 50.6523 29.8151 50.6523Z" fill="#6E8EC8"/>
<path d="M28.7058 49.542C28.7058 49.8365 28.8228 50.1189 29.031 50.3271C29.2392 50.5353 29.5216 50.6523 29.8161 50.6523H42.9275C42.633 50.6523 42.3506 50.5353 42.1424 50.3271C41.9341 50.1189 41.8172 49.8365 41.8172 49.542C41.8172 49.2475 41.9341 48.9651 42.1424 48.7569C42.3506 48.5487 42.633 48.4317 42.9275 48.4317H29.8161C29.5216 48.4317 29.2392 48.5487 29.031 48.7569C28.8228 48.9651 28.7058 49.2475 28.7058 49.542Z" fill="#547DBA"/>
<path d="M40.0598 50.6523C40.9993 51.48 41.886 52.3659 42.7145 53.3047C47.6622 58.8963 50.3937 66.1045 50.3943 73.5708V80.0193C50.3937 83.0448 49.4793 85.9995 47.7707 88.4963H50.3077C52.0163 85.9995 52.9307 83.0448 52.9313 80.0193V73.5708C52.9323 69.0428 51.927 64.5712 49.988 60.4794L49.9502 60.4017C48.3803 57.1108 50.7441 53.3047 54.3914 53.3047H62.7563C63.5837 52.366 64.4692 51.4801 65.4076 50.6523H40.0598Z" fill="#34629B"/>
<path d="M42.5101 46.9717H42.9865C43.1072 46.9717 43.223 47.0196 43.3083 47.105C43.3937 47.1904 43.4417 47.3062 43.4417 47.4269V47.6923H42.0549V47.4269C42.0549 47.3671 42.0667 47.3079 42.0896 47.2527C42.1125 47.1975 42.146 47.1473 42.1883 47.105C42.2305 47.0627 42.2807 47.0292 42.3359 47.0063C42.3912 46.9835 42.4504 46.9717 42.5101 46.9717Z" fill="#D7E2FF"/>
<path d="M41.1234 46.9717H41.5997C41.7205 46.9717 41.8363 47.0196 41.9216 47.105C42.007 47.1904 42.055 47.3062 42.055 47.4269V47.6923H40.6682V47.4269C40.6682 47.3671 40.68 47.3079 40.7029 47.2527C40.7257 47.1975 40.7593 47.1473 40.8015 47.105C40.8438 47.0627 40.894 47.0292 40.9492 47.0063C41.0045 46.9835 41.0637 46.9717 41.1234 46.9717Z" fill="#D7E2FF"/>
<path d="M39.737 46.9717H40.2133C40.334 46.9717 40.4498 47.0196 40.5352 47.105C40.6205 47.1904 40.6685 47.3062 40.6685 47.4269V47.6923H39.2817V47.4269C39.2817 47.3671 39.2935 47.3079 39.3164 47.2527C39.3393 47.1975 39.3728 47.1473 39.4151 47.105C39.4573 47.0627 39.5075 47.0292 39.5628 47.0063C39.618 46.9835 39.6772 46.9717 39.737 46.9717Z" fill="#D7E2FF"/>
<path d="M38.3502 46.9717H38.8265C38.8863 46.9717 38.9455 46.9835 39.0008 47.0063C39.056 47.0292 39.1062 47.0627 39.1484 47.105C39.1907 47.1473 39.2242 47.1975 39.2471 47.2527C39.27 47.3079 39.2818 47.3671 39.2818 47.4269V47.6923H37.895V47.4269C37.895 47.3671 37.9068 47.3079 37.9297 47.2527C37.9525 47.1975 37.9861 47.1473 38.0283 47.105C38.0706 47.0627 38.1208 47.0292 38.176 47.0063C38.2313 46.9835 38.2905 46.9717 38.3502 46.9717Z" fill="#D7E2FF"/>
<path d="M36.9644 46.9717H37.4407C37.5614 46.9717 37.6772 47.0196 37.7626 47.105C37.848 47.1904 37.8959 47.3062 37.8959 47.4269V47.6923H36.5081V47.4269C36.5081 47.367 36.5199 47.3077 36.5428 47.2524C36.5658 47.1971 36.5994 47.1469 36.6418 47.1046C36.6842 47.0623 36.7345 47.0288 36.7898 47.006C36.8452 46.9832 36.9045 46.9715 36.9644 46.9717Z" fill="#D7E2FF"/>
<path d="M35.5775 46.9717H36.0538C36.1746 46.9717 36.2904 47.0196 36.3757 47.105C36.4611 47.1904 36.5091 47.3062 36.5091 47.4269V47.6923H35.1223V47.4269C35.1223 47.3671 35.1341 47.3079 35.157 47.2527C35.1798 47.1975 35.2134 47.1473 35.2556 47.105C35.2979 47.0627 35.3481 47.0292 35.4033 47.0063C35.4586 46.9835 35.5177 46.9717 35.5775 46.9717Z" fill="#D7E2FF"/>
<path d="M34.1908 46.9717H34.6671C34.7879 46.9717 34.9036 47.0196 34.989 47.105C35.0744 47.1904 35.1223 47.3062 35.1223 47.4269V47.6923H33.7356V47.4269C33.7356 47.3671 33.7474 47.3079 33.7702 47.2527C33.7931 47.1975 33.8267 47.1473 33.8689 47.105C33.9112 47.0627 33.9614 47.0292 34.0166 47.0063C34.0718 46.9835 34.131 46.9717 34.1908 46.9717Z" fill="#D7E2FF"/>
<path d="M47.1523 47.3026H32.4577C32.1456 47.3026 31.8926 47.5556 31.8926 47.8678C31.8926 48.1799 32.1456 48.4329 32.4577 48.4329H47.1523C47.4644 48.4329 47.7175 48.1799 47.7175 47.8678C47.7175 47.5556 47.4644 47.3026 47.1523 47.3026Z" fill="#4970DB"/>
<path d="M43.3584 48.4317H56.5619C56.8307 48.4318 57.0919 48.3422 57.3041 48.1771C57.5163 48.012 57.6673 47.7808 57.7333 47.5202L60.3069 37.2956C60.3518 37.1174 60.3555 36.9313 60.3177 36.7514C60.2798 36.5716 60.2014 36.4027 60.0885 36.2578C59.9755 36.1128 59.831 35.9955 59.6658 35.9148C59.5007 35.8342 59.3193 35.7922 59.1355 35.7922H47.4776C47.2095 35.7932 46.9493 35.8832 46.7381 36.0483C46.5268 36.2133 46.3764 36.4439 46.3106 36.7038L43.3584 48.4317Z" fill="#5476EF"/>
<path d="M60.3069 37.2945L57.7333 47.5202C57.6673 47.781 57.5163 48.0123 57.3042 48.1776C57.092 48.3429 56.8308 48.4327 56.5619 48.4329H43.3584L43.646 47.2982H54.0826C54.3517 47.2979 54.613 47.2079 54.8252 47.0424C55.0374 46.8769 55.1883 46.6453 55.254 46.3844L57.8276 36.1598C57.8582 36.038 57.8698 35.9121 57.8621 35.7867H59.1344C59.3187 35.7866 59.5006 35.8286 59.6662 35.9095C59.8317 35.9905 59.9766 36.1081 60.0898 36.2536C60.2029 36.3991 60.2813 36.5685 60.3189 36.7489C60.3565 36.9293 60.3524 37.1159 60.3069 37.2945Z" fill="#4970DB"/>
<path d="M52.6592 43.1102C53.024 43.1102 53.3198 42.8144 53.3198 42.4496C53.3198 42.0847 53.024 41.7889 52.6592 41.7889C52.2943 41.7889 51.9985 42.0847 51.9985 42.4496C51.9985 42.8144 52.2943 43.1102 52.6592 43.1102Z" fill="#D7E2FF"/>
<path d="M53.5442 43.4388C53.4393 43.6006 53.2996 43.737 53.1353 43.838C52.971 43.9389 52.7862 44.0018 52.5945 44.0222C52.4027 44.0426 52.2088 44.0199 52.027 43.9557C51.8451 43.8916 51.6799 43.7876 51.5434 43.6514C51.4069 43.5152 51.3025 43.3503 51.2379 43.1686C51.1733 42.9869 51.1501 42.7931 51.17 42.6013C51.1899 42.4095 51.2524 42.2245 51.3529 42.06C51.4535 41.8954 51.5895 41.7554 51.751 41.6501C51.6267 41.8461 51.5571 42.0718 51.5497 42.3037C51.5423 42.5357 51.5973 42.7654 51.7089 42.9688C51.8205 43.1723 51.9846 43.3421 52.1842 43.4605C52.3838 43.5789 52.6115 43.6416 52.8436 43.642C53.0918 43.6433 53.3351 43.5728 53.5442 43.4388Z" fill="#D7E2FF"/>
<path d="M22.4194 31.1568C23.7255 31.1568 24.7843 30.098 24.7843 28.7919C24.7843 27.4857 23.7255 26.4269 22.4194 26.4269C21.1132 26.4269 20.0544 27.4857 20.0544 28.7919C20.0544 30.098 21.1132 31.1568 22.4194 31.1568Z" fill="#F4AD18"/>
<path d="M29.3175 48.6688C30.5577 49.6212 32.3351 49.3878 33.2874 48.1476C34.2397 46.9074 34.0063 45.13 32.7662 44.1777L25.5768 38.6572C24.3366 37.7048 22.5593 37.9382 21.607 39.1784C20.6546 40.4186 20.888 42.196 22.1282 43.1483L29.3175 48.6688Z" fill="#FAEEDE"/>
<path d="M31.0365 49.2511C32.7142 49.2511 34.0743 47.8911 34.0743 46.2134C34.0743 44.5357 32.7142 43.1757 31.0365 43.1757C29.3588 43.1757 27.9988 44.5357 27.9988 46.2134C27.9988 47.8911 29.3588 49.2511 31.0365 49.2511Z" fill="#F2E6D7"/>
<path d="M30.2451 48.1438L30.2461 48.1443C31.388 48.7461 32.8016 48.3083 33.4034 47.1664L38.0902 38.2733C38.692 37.1314 38.2542 35.7178 37.1123 35.116L37.1113 35.1155C35.9694 34.5137 34.5558 34.9515 33.954 36.0934L29.2672 44.9865C28.6654 46.1284 29.1033 47.542 30.2451 48.1438Z" fill="#FFB2BF"/>
<path d="M38.9666 38.2155C40.14 37.7062 40.6785 36.3424 40.1694 35.1693C39.6603 33.9962 38.2963 33.458 37.123 33.9673L35.2652 34.7735C34.0918 35.2827 33.5533 36.6465 34.0624 37.8196C34.5715 38.9927 35.9355 39.5309 37.1088 39.0217L38.9666 38.2155Z" fill="#FFB2BF"/>
<path d="M41.0798 33.1639L41.0794 33.1628C40.8953 32.7387 40.4023 32.5441 39.9781 32.7282L35.6749 34.5957C35.2508 34.7797 35.0562 35.2728 35.2403 35.6969L35.2407 35.6979C35.4248 36.1221 35.9178 36.3167 36.3419 36.1326L40.6451 34.2651C41.0693 34.081 41.2639 33.588 41.0798 33.1639Z" fill="#FFB2BF"/>
<path d="M29.3175 48.6688C30.5577 49.6212 32.3351 49.3878 33.2874 48.1476C34.2397 46.9074 34.0063 45.13 32.7662 44.1777L25.5768 38.6572C24.3366 37.7048 22.5593 37.9382 21.607 39.1784C20.6546 40.4186 20.888 42.196 22.1282 43.1483L29.3175 48.6688Z" fill="#E1303E"/>
<path d="M31.0365 49.2511C32.7142 49.2511 34.0743 47.8911 34.0743 46.2134C34.0743 44.5357 32.7142 43.1757 31.0365 43.1757C29.3588 43.1757 27.9988 44.5357 27.9988 46.2134C27.9988 47.8911 29.3588 49.2511 31.0365 49.2511Z" fill="#F63E4A"/>
<path d="M30.2449 48.1437L30.2459 48.1442C31.3878 48.746 32.8013 48.3082 33.4031 47.1663L38.0899 38.2732C38.6917 37.1313 38.2539 35.7178 37.112 35.116L37.111 35.1154C35.9691 34.5136 34.5556 34.9515 33.9538 36.0934L29.267 44.9865C28.6652 46.1284 29.103 47.5419 30.2449 48.1437Z" fill="#FFB2BF"/>
<path d="M38.9666 38.2154C40.14 37.7062 40.6785 36.3424 40.1694 35.1693C39.6603 33.9962 38.2963 33.458 37.123 33.9672L35.2652 34.7734C34.0918 35.2827 33.5533 36.6465 34.0624 37.8196C34.5715 38.9927 35.9355 39.5309 37.1088 39.0216L38.9666 38.2154Z" fill="#FFB2BF"/>
<path d="M40.1719 35.1706C40.0894 34.9796 39.9815 34.8007 39.851 34.6387C39.917 34.8547 39.9506 35.0791 39.951 35.3049C39.9507 35.7564 39.8186 36.1981 39.5709 36.5756C39.3232 36.9531 38.9706 37.2501 38.5564 37.43L38.3344 37.5277L37.4539 37.9096L36.8133 39.1309L32.9873 46.3833C32.8064 46.7263 32.543 47.0189 32.2209 47.2348C31.8989 47.4507 31.5281 47.5831 31.1422 47.6201C30.7562 47.6571 30.3671 47.5975 30.0098 47.4468C29.6526 47.296 29.3385 47.0587 29.0957 46.7564C29.2302 47.1999 29.4935 47.5935 29.8522 47.887C30.211 48.1806 30.6489 48.3608 31.1103 48.4048C31.5717 48.4489 32.0358 48.3547 32.4435 48.1343C32.8513 47.914 33.1843 47.5773 33.4003 47.1672L37.8636 38.6968L38.9739 38.2172C39.2531 38.0963 39.5057 37.9216 39.7173 37.703C39.9289 37.4844 40.0953 37.2262 40.2069 36.9432C40.3186 36.6603 40.3734 36.358 40.3682 36.0538C40.3629 35.7497 40.2977 35.4495 40.1763 35.1706H40.1719Z" fill="#FC9AAF"/>
<path d="M41.0798 33.1638L41.0794 33.1628C40.8953 32.7387 40.4023 32.544 39.9781 32.7281L35.6749 34.5956C35.2508 34.7797 35.0562 35.2727 35.2403 35.6969L35.2407 35.6979C35.4248 36.122 35.9178 36.3166 36.3419 36.1326L40.6451 34.265C41.0693 34.081 41.2639 33.5879 41.0798 33.1638Z" fill="#FFB2BF"/>
<path d="M22.2607 46.0935C24.711 46.0935 26.6974 44.1071 26.6974 41.6568C26.6974 39.2065 24.711 37.2201 22.2607 37.2201C19.8104 37.2201 17.824 39.2065 17.824 41.6568C17.824 44.1071 19.8104 46.0935 22.2607 46.0935Z" fill="#E1303E"/>
<path d="M10.5898 42.7627L10.2689 56.8997C10.2107 59.464 12.2424 61.59 14.8067 61.6482L18.9004 61.7411C21.4647 61.7992 23.5907 59.7676 23.6489 57.2033L23.9697 43.0663C24.0279 40.502 21.9963 38.376 19.4319 38.3178L15.3382 38.2249C12.7739 38.1668 10.6479 40.1984 10.5898 42.7627Z" fill="#F63E4A"/>
<path d="M8.63664 41.0113C8.65083 40.3606 8.79309 39.719 9.05529 39.1232C9.3175 38.5275 9.69451 37.9892 10.1648 37.5392C10.6351 37.0892 11.1894 36.7362 11.7962 36.5005C12.4029 36.2647 13.0501 36.1509 13.7009 36.1653L21.1556 36.3345C21.8068 36.349 22.4486 36.4917 23.0446 36.7545C23.6405 37.0172 24.1788 37.3949 24.6286 37.8658C25.0785 38.3368 25.4311 38.8918 25.6663 39.4992C25.9015 40.1065 26.0146 40.7542 25.9993 41.4054C25.9501 43.5729 25.0418 45.6322 23.4743 47.1302C21.9068 48.6281 19.8084 49.442 17.6409 49.3928L16.6219 49.3697C14.4547 49.3199 12.396 48.4114 10.8985 46.844C9.40106 45.2766 8.58746 43.1786 8.63664 41.0113Z" fill="#F63E4A"/>
<path d="M19.9315 32.7156L19.836 36.9347C19.8311 37.1568 19.796 37.3772 19.7316 37.5898C19.5802 38.0857 19.2735 38.52 18.8568 38.8286C18.44 39.1372 17.9352 39.3039 17.4167 39.3041H17.3623C17.0445 39.2966 16.7314 39.2266 16.4407 39.098C16.1501 38.9694 15.8876 38.7849 15.6683 38.5548C15.449 38.3248 15.2771 38.0538 15.1626 37.7573C15.048 37.4609 14.993 37.1448 15.0007 36.827L15.0329 35.3837L15.0962 32.6079C15.1104 31.9761 15.3714 31.3749 15.8234 30.9331C16.2754 30.4913 16.8824 30.244 17.5144 30.2441H17.5699C18.2106 30.2593 18.8192 30.528 19.2619 30.9914C19.7047 31.4548 19.9455 32.0749 19.9315 32.7156Z" fill="#FFB2BF"/>
<path d="M10.2535 57.5607L10.2451 57.9315C10.1998 59.9263 11.7802 61.5801 13.775 61.6254L31.5705 62.0292C33.5654 62.0745 35.2192 60.494 35.2644 58.4992L35.2728 58.1285C35.3181 56.1337 33.7377 54.4799 31.7429 54.4346L13.9474 54.0307C11.9525 53.9855 10.2987 55.5659 10.2535 57.5607Z" fill="#252849"/>
<path d="M17.8238 58.1068V84.637H10.2261V58.1068C10.2431 57.1105 10.6508 56.1608 11.3614 55.4623C12.072 54.7637 13.0285 54.3723 14.0249 54.3723C15.0213 54.3723 15.9779 54.7637 16.6884 55.4623C17.399 56.1608 17.8067 57.1105 17.8238 58.1068Z" fill="#30335D"/>
<path d="M17.8238 81.3705V84.637H10.2261V82.5641L17.8238 81.3705Z" fill="#252849"/>
<path d="M44.5941 82.0423L37.8213 84.757L37.0552 82.774L27.9509 59.6534C27.7713 59.1881 27.685 58.6919 27.6972 58.1933C27.7093 57.6946 27.8195 57.2033 28.0215 56.7472C28.2235 56.2911 28.5134 55.8793 28.8746 55.5353C29.2358 55.1913 29.6612 54.9217 30.1265 54.7421C30.5918 54.5625 31.088 54.4762 31.5867 54.4884C32.0853 54.5005 32.5767 54.6107 33.0328 54.8127C33.4888 55.0148 33.9006 55.3046 34.2447 55.6658C34.5887 56.027 34.8582 56.4524 35.0378 56.9177L43.6781 78.8303L44.5918 81.1952L44.5941 82.0423Z" fill="#252849"/>
<path d="M38.8989 84.8976L44.2145 82.8454L45.339 85.758L40.0234 87.8102L38.8989 84.8976Z" fill="#FC9AAF"/>
<path d="M11.1755 85.2299H16.8735V88.1477H11.1755V85.2299Z" fill="#FFB2BF"/>
<path d="M19.9313 32.7157L19.8358 36.9348C19.8309 37.1569 19.7958 37.3773 19.7315 37.5899C19.6715 37.5899 19.6116 37.5899 19.5505 37.5899C18.678 37.5903 17.8169 37.3909 17.0334 37.0069C16.2499 36.623 15.5648 36.0647 15.0305 35.3749L15.0938 32.5991C15.108 31.9673 15.3691 31.3661 15.821 30.9243C16.273 30.4825 16.88 30.2352 17.512 30.2354H17.5675C17.8857 30.2426 18.1994 30.3125 18.4905 30.4411C18.7817 30.5697 19.0446 30.7546 19.2642 30.985C19.4838 31.2154 19.6557 31.4869 19.7702 31.7839C19.8847 32.0809 19.9394 32.3975 19.9313 32.7157Z" fill="#FC9AAF"/>
<path d="M24.1327 30.3974C24.1327 33.7593 21.7367 36.5039 18.72 36.6816C18.6179 36.6882 18.5157 36.6905 18.4125 36.6905C15.2537 36.6905 12.6912 33.8737 12.6912 30.3974C12.6912 26.9211 15.2537 24.1031 18.4125 24.1031C18.5157 24.1031 18.6179 24.1032 18.72 24.112C21.7367 24.2875 24.1327 27.0354 24.1327 30.3974Z" fill="#FFB2BF"/>
<path d="M21.6857 31.6143C21.7 32.0384 21.5454 32.4509 21.256 32.7612C21.2193 32.7978 21.1827 32.8345 21.1449 32.8722C20.8664 33.1177 20.5112 33.2586 20.1401 33.2708H20.0757C19.6745 33.2844 19.2827 33.1466 18.9783 32.8847C18.6739 32.6229 18.4791 32.2562 18.4325 31.8574C18.4325 31.8141 18.4247 31.7697 18.4225 31.7253C18.4199 31.6432 18.4498 31.5633 18.5058 31.5032C18.5344 31.4728 18.5688 31.4484 18.6069 31.4315C18.645 31.4145 18.6861 31.4053 18.7279 31.4044L21.3703 31.3156C21.4515 31.3144 21.5299 31.3449 21.5888 31.4007C21.6477 31.4565 21.6825 31.5332 21.6857 31.6143Z" fill="#962F4A"/>
<path d="M20.0989 33.0222C20.1021 33.105 20.0969 33.188 20.0834 33.2698H20.0745C19.6733 33.2833 19.2817 33.1455 18.9775 32.8836C18.6733 32.6218 18.4787 32.2551 18.4324 31.8564C18.5464 31.8186 18.6654 31.7977 18.7854 31.7942C18.9523 31.7885 19.1187 31.8158 19.275 31.8745C19.4313 31.9332 19.5746 32.0221 19.6965 32.1361C19.8185 32.2501 19.9168 32.3871 19.9859 32.5391C20.0549 32.6911 20.0933 32.8553 20.0989 33.0222Z" fill="#E1617F"/>
<path d="M21.306 31.3167C21.306 31.6309 20.8297 31.8984 20.2346 31.9184C19.6394 31.9384 19.1476 31.703 19.1243 31.3899L21.306 31.3167Z" fill="white"/>
<path d="M24.1328 30.3974C24.1328 33.7593 21.7368 36.5039 18.7201 36.6816C18.618 36.6882 18.5158 36.6905 18.4115 36.6905C18.2223 36.6905 18.0333 36.6805 17.8452 36.6605C20.7408 36.3496 23.0025 33.6627 23.0025 30.3974C23.0025 27.132 20.7408 24.4451 17.8452 24.1342C18.0333 24.1138 18.2223 24.1034 18.4115 24.1031C18.5158 24.1031 18.618 24.1032 18.7201 24.112C21.7368 24.2875 24.1328 27.0354 24.1328 30.3974Z" fill="#FC9AAF"/>
<path d="M13.6871 40.9129V40.9718C13.6316 42.8593 12.3714 44.3604 10.8326 44.3826H10.7338C9.13274 44.3404 7.86147 42.7172 7.89366 40.7586C7.91143 39.6739 8.14126 38.7967 8.78189 38.1628C9.16223 37.8107 9.61457 37.5455 10.1076 37.3856C10.3492 37.3138 10.6006 37.2808 10.8526 37.2879C11.0214 37.292 11.1893 37.3143 11.3533 37.3545C12.7045 37.682 13.7149 39.1631 13.6871 40.9129Z" fill="#E1303E"/>
<path d="M13.8014 40.8396V40.8996C13.7525 42.2641 13.0808 43.4299 12.1271 44.0017C12.6233 43.3341 12.9009 42.5294 12.922 41.6979C12.922 41.6768 12.922 41.6568 12.922 41.6368C12.9609 39.8604 11.9228 38.3604 10.5294 38.035C10.3601 37.9947 10.1871 37.9727 10.0131 37.9695C9.75322 37.9644 9.49409 37.9992 9.24478 38.0728C9.02747 38.138 8.8193 38.2306 8.62524 38.3481C8.99811 37.8403 9.52316 37.4646 10.1241 37.2756C10.3733 37.2015 10.6325 37.1667 10.8924 37.1724C11.0663 37.1756 11.2394 37.1972 11.4087 37.2367C12.8055 37.5621 13.8403 39.0621 13.8014 40.8396Z" fill="#E1303E"/>
<path d="M3.6584 48.1059C2.99931 49.5239 3.61448 51.2076 5.03243 51.8667C6.45038 52.5258 8.13415 51.9106 8.79325 50.4927L12.614 42.2729C13.2731 40.855 12.6579 39.1712 11.2399 38.5121C9.82199 37.853 8.13822 38.4682 7.47913 39.8861L3.6584 48.1059Z" fill="#F63E4A"/>
<path d="M12.7201 40.1546C12.448 39.7253 12.0653 39.3772 11.6123 39.1468C11.1593 38.9164 10.6526 38.8122 10.1454 38.8451C9.63816 38.878 9.14918 39.0469 8.72974 39.334C8.31031 39.621 7.97589 40.0157 7.76158 40.4766L3.94108 48.6927C3.63061 49.3569 3.59079 50.1159 3.83006 50.8089C3.57612 50.4086 3.42695 49.9509 3.3963 49.4779C3.36564 49.0049 3.45448 48.5317 3.65463 48.102L7.47512 39.8859C7.71254 39.374 8.09757 38.9447 8.58077 38.6533C9.06396 38.3618 9.62325 38.2214 10.1868 38.2502C10.7504 38.279 11.2925 38.4755 11.7435 38.8147C12.1945 39.1538 12.5338 39.6201 12.7179 40.1535L12.7201 40.1546Z" fill="#FF5566"/>
<path d="M6.38906 52.3222C8.06676 52.3222 9.4268 50.9622 9.4268 49.2845C9.4268 47.6068 8.06676 46.2468 6.38906 46.2468C4.71136 46.2468 3.35132 47.6068 3.35132 49.2845C3.35132 50.9622 4.71136 52.3222 6.38906 52.3222Z" fill="#E1303E"/>
<path d="M22.8391 23.0318H14.301C12.7876 23.0318 11.5608 24.2586 11.5608 25.772V25.7731C11.5608 27.2865 12.7876 28.5133 14.301 28.5133H22.8391C24.3524 28.5133 25.5793 27.2865 25.5793 25.7731V25.772C25.5793 24.2586 24.3524 23.0318 22.8391 23.0318Z" fill="#FFC535"/>
<path d="M13.1608 31.1568C14.4669 31.1568 15.5257 30.098 15.5257 28.7919C15.5257 27.4857 14.4669 26.4269 13.1608 26.4269C11.8547 26.4269 10.7959 27.4857 10.7959 28.7919C10.7959 30.098 11.8547 31.1568 13.1608 31.1568Z" fill="#FFC535"/>
<path d="M12.7544 32.2927C13.8011 32.2927 14.6496 31.4441 14.6496 30.3974C14.6496 29.3507 13.8011 28.5021 12.7544 28.5021C11.7077 28.5021 10.8591 29.3507 10.8591 30.3974C10.8591 31.4441 11.7077 32.2927 12.7544 32.2927Z" fill="#FFB2BF"/>
<path d="M17.8229 89.6H10.5828C10.5994 88.6508 10.9881 87.7462 11.6652 87.0809C12.3423 86.4155 13.2536 86.0427 14.2028 86.0427C15.1521 86.0427 16.0634 86.4155 16.7405 87.0809C17.4176 87.7462 17.8063 88.6508 17.8229 89.6Z" fill="#E1303E"/>
<path d="M17.823 89.6H16.1509C16.1508 88.812 15.9035 88.0439 15.4438 87.4039C14.984 86.7639 14.3351 86.2843 13.5884 86.0326C14.1081 85.9434 14.641 85.9687 15.1499 86.1069C15.6588 86.245 16.1314 86.4925 16.5347 86.8323C16.9379 87.172 17.2622 87.5957 17.4847 88.0738C17.7072 88.5518 17.8227 89.0727 17.823 89.6Z" fill="#F63E4A"/>
<path d="M18.8254 88.9428C18.8252 89.0132 18.8181 89.0835 18.8043 89.1526C18.7965 89.187 18.7888 89.2203 18.7788 89.2525C18.7688 89.2847 18.7555 89.3169 18.7432 89.348C18.704 89.4414 18.6512 89.5286 18.5867 89.6067C18.566 89.6326 18.5438 89.657 18.5201 89.68C18.4971 89.7037 18.4727 89.7259 18.4468 89.7466C18.2593 89.9012 18.0237 89.9857 17.7806 89.9853H10.0553C9.84678 89.9905 9.64479 89.9126 9.49373 89.7688C9.34267 89.625 9.25491 89.4272 9.24975 89.2187C9.2446 89.0102 9.32248 88.8082 9.46625 88.6571C9.61003 88.5061 9.80792 88.4183 10.0164 88.4132L15.8088 88.0268L17.7307 87.8991C17.9037 87.8901 18.0761 87.9245 18.2325 87.999C18.2775 88.0211 18.3209 88.0463 18.3624 88.0745C18.4039 88.1031 18.4436 88.1343 18.4812 88.1678C18.5191 88.2014 18.5536 88.2386 18.5845 88.2788C18.6056 88.3043 18.6267 88.331 18.6455 88.3588C18.7316 88.4866 18.7885 88.6317 18.8121 88.784C18.8204 88.8365 18.8249 88.8896 18.8254 88.9428Z" fill="#E1303E"/>
<path d="M18.8255 88.9428C18.8253 89.0132 18.8182 89.0835 18.8044 89.1526C18.7978 89.1864 18.7892 89.2197 18.7789 89.2525C18.7678 89.2858 18.7567 89.3169 18.7434 89.348C18.7041 89.4414 18.6514 89.5286 18.5868 89.6067C18.5661 89.6326 18.5439 89.657 18.5202 89.68C18.4973 89.7037 18.4728 89.7259 18.4469 89.7466C18.2594 89.9013 18.0238 89.9857 17.7808 89.9853H15.3037C15.5351 89.985 15.7599 89.9079 15.9428 89.766C16.1256 89.6241 16.2562 89.4256 16.314 89.2015C16.3718 88.9774 16.3536 88.7404 16.2621 88.5278C16.1707 88.3152 16.0113 88.139 15.8089 88.0268L17.7308 87.8991C17.9038 87.8901 18.0763 87.9245 18.2326 87.999C18.2779 88.0207 18.3213 88.0459 18.3625 88.0745C18.4048 88.1021 18.4446 88.1333 18.4813 88.1678C18.5192 88.2014 18.5538 88.2386 18.5846 88.2788C18.6065 88.3042 18.6269 88.3309 18.6457 88.3588C18.7317 88.4866 18.7886 88.6317 18.8122 88.784C18.8205 88.8365 18.825 88.8896 18.8255 88.9428Z" fill="#F63E4A"/>
<path d="M39.7401 86.1366L44.6111 84.089L45.5349 86.2865L39.7192 88.7312L39.1925 87.4784C39.0872 87.2279 39.0857 86.9457 39.1884 86.6941C39.2911 86.4424 39.4896 86.2419 39.7401 86.1366Z" fill="#F63E4A"/>
<path d="M49.9302 85.2144L43.2563 88.0201C42.8842 87.1351 42.879 86.1385 43.2417 85.2497C43.6044 84.3608 44.3054 83.6524 45.1904 83.2803C46.0754 82.9083 47.072 82.903 47.9609 83.2657C48.8497 83.6284 49.5581 84.3294 49.9302 85.2144Z" fill="#E1303E"/>
<path d="M49.9301 85.2133L48.0548 86.0016C47.7514 85.2808 47.2229 84.6777 46.5482 84.2822C45.8736 83.8867 45.0891 83.7203 44.312 83.8077C44.7483 83.453 45.2612 83.2048 45.8101 83.0827C46.359 82.9607 46.9288 82.9681 47.4742 83.1045C48.0197 83.2409 48.526 83.5025 48.9528 83.8685C49.3797 84.2346 49.7154 84.695 49.9334 85.2133H49.9301Z" fill="#F63E4A"/>
<path d="M39.2757 88.4087L48.8642 83.8199C48.9916 83.759 49.1301 83.7246 49.2713 83.7188C49.4125 83.713 49.5533 83.7359 49.6854 83.7861C49.8174 83.8364 49.9379 83.9129 50.0395 84.0111C50.1411 84.1093 50.2217 84.2271 50.2764 84.3573C50.3298 84.4835 50.3578 84.619 50.3588 84.756C50.3597 84.893 50.3337 85.0288 50.2821 85.1558C50.2306 85.2827 50.1545 85.3982 50.0583 85.4957C49.962 85.5933 49.8475 85.6708 49.7213 85.7241L39.923 89.8432C39.7307 89.9241 39.5142 89.9253 39.321 89.8466C39.1278 89.7679 38.9738 89.6157 38.8927 89.4235C38.8142 89.2375 38.8102 89.0285 38.8815 88.8396C38.9528 88.6508 39.0939 88.4965 39.2757 88.4087Z" fill="#E1303E"/>
<path d="M50.2766 84.3584C50.384 84.6132 50.3859 84.9004 50.2818 85.1566C50.1777 85.4129 49.9762 85.6174 49.7214 85.7251L47.4376 86.6844C47.5642 86.632 47.6792 86.5548 47.7756 86.4574C47.8721 86.3599 47.9482 86.2442 47.9994 86.1171C48.0643 85.9614 48.0905 85.7922 48.0757 85.6242C48.0609 85.4561 48.0055 85.2942 47.9144 85.1522C47.8232 85.0103 47.6989 84.8926 47.5523 84.8092C47.4056 84.7259 47.2409 84.6794 47.0723 84.6737L48.8643 83.8199C48.9918 83.759 49.1304 83.7246 49.2716 83.7189C49.4128 83.7131 49.5537 83.7361 49.6858 83.7865C49.8179 83.8369 49.9383 83.9135 50.0399 84.0118C50.1414 84.1101 50.2219 84.228 50.2766 84.3584Z" fill="#F63E4A"/>
<path d="M20.739 48.5829L20.7391 48.5818C20.7813 48.1214 20.4422 47.714 19.9818 47.6719L17.3835 47.434C16.923 47.3919 16.5156 47.731 16.4735 48.1914L16.4734 48.1925C16.4312 48.6529 16.7703 49.0603 17.2307 49.1025L19.829 49.3403C20.2895 49.3824 20.6969 49.0434 20.739 48.5829Z" fill="#FC9AAF"/>
<path d="M17.0578 50.6212C17.969 50.6212 18.7077 49.8826 18.7077 48.9714C18.7077 48.0601 17.969 47.3215 17.0578 47.3215C16.1466 47.3215 15.408 48.0601 15.408 48.9714C15.408 49.8826 16.1466 50.6212 17.0578 50.6212Z" fill="#FC9AAF"/>
<path d="M3.77044 49.7672L3.77045 49.7683C3.78329 51.059 4.84003 52.0949 6.13073 52.0821L16.1828 51.9821C17.4735 51.9693 18.5094 50.9125 18.4965 49.6218L18.4965 49.6207C18.4837 48.33 17.427 47.2941 16.1363 47.3069L6.08422 47.4069C4.79351 47.4198 3.7576 48.4765 3.77044 49.7672Z" fill="#FFB2BF"/>
<path d="M16.6511 52.7429C17.6565 53.5336 19.1125 53.3596 19.9029 52.3544C20.6934 51.3491 20.5191 49.8933 19.5136 49.1026L17.9217 47.8508C16.9162 47.0601 15.4603 47.2341 14.6698 48.2393C13.8794 49.2445 14.0537 50.7004 15.0591 51.4911L16.6511 52.7429Z" fill="#FFB2BF"/>
<path d="M22.1005 52.2031L22.1012 52.2023C22.387 51.8388 22.324 51.3125 21.9606 51.0267L18.2732 48.1271C17.9097 47.8413 17.3834 47.9042 17.0976 48.2677L17.0969 48.2685C16.8111 48.632 16.8741 49.1583 17.2375 49.4441L20.925 52.3437C21.2884 52.6295 21.8147 52.5666 22.1005 52.2031Z" fill="#FFB2BF"/>
<path d="M20.739 48.5829L20.7391 48.5818C20.7813 48.1214 20.4422 47.714 19.9818 47.6719L17.3835 47.434C16.923 47.3919 16.5156 47.731 16.4735 48.1914L16.4734 48.1925C16.4312 48.6529 16.7703 49.0603 17.2307 49.1025L19.829 49.3403C20.2895 49.3824 20.6969 49.0434 20.739 48.5829Z" fill="#FC9AAF"/>
<path d="M17.0578 50.6212C17.969 50.6212 18.7077 49.8826 18.7077 48.9714C18.7077 48.0601 17.969 47.3215 17.0578 47.3215C16.1466 47.3215 15.408 48.0601 15.408 48.9714C15.408 49.8826 16.1466 50.6212 17.0578 50.6212Z" fill="#FC9AAF"/>
<path d="M3.7702 49.7671L3.77021 49.7683C3.78305 51.059 4.83978 52.0949 6.13049 52.082L16.1825 51.982C17.4732 51.9692 18.5091 50.9125 18.4963 49.6217L18.4963 49.6206C18.4834 48.3299 17.4267 47.294 16.136 47.3069L6.08398 47.4069C4.79327 47.4197 3.75735 48.4764 3.7702 49.7671Z" fill="#FFB2BF"/>
<path d="M16.6508 52.7428C17.6563 53.5335 19.1122 53.3595 19.9027 52.3543C20.6932 51.349 20.5189 49.8932 19.5134 49.1025L17.9215 47.8507C16.916 47.06 15.4601 47.2339 14.6696 48.2392C13.8791 49.2444 14.0534 50.7003 15.0589 51.491L16.6508 52.7428Z" fill="#FFB2BF"/>
<path d="M20.1355 51.7638C19.7556 52.2463 19.1997 52.5582 18.5899 52.6311C17.9802 52.7039 17.3664 52.5318 16.8835 52.1524L16.6159 51.9425L15.9353 51.4063L14.9749 51.4152L6.36243 51.4995C6.05531 51.5034 5.75046 51.4465 5.4654 51.3321C5.18033 51.2177 4.92068 51.0482 4.70134 50.8332C4.482 50.6182 4.3073 50.3619 4.18728 50.0792C4.06726 49.7965 4.00428 49.4928 4.00196 49.1857V49.1624C4.00171 48.9731 4.02446 48.7844 4.06969 48.6006C3.87167 48.9503 3.76798 49.3456 3.7688 49.7475V49.7708C3.77156 50.0779 3.83482 50.3815 3.95497 50.6641C4.07511 50.9468 4.24979 51.203 4.46901 51.4181C4.68824 51.6332 4.9477 51.803 5.23258 51.9177C5.51746 52.0325 5.82216 52.09 6.12927 52.0869L15.7021 51.9914L16.6514 52.7375C16.9557 52.9764 17.315 53.1352 17.6964 53.1995C18.0778 53.2638 18.4693 53.2316 18.8351 53.1057C19.2009 52.9799 19.5293 52.7644 19.7904 52.479C20.0515 52.1936 20.2369 51.8473 20.3298 51.4718C20.2727 51.574 20.2077 51.6716 20.1355 51.7638Z" fill="#FDC3CD"/>
<path d="M22.1005 52.2031L22.1012 52.2022C22.387 51.8388 22.324 51.3124 21.9606 51.0267L18.2732 48.127C17.9097 47.8412 17.3834 47.9042 17.0976 48.2676L17.0969 48.2685C16.8111 48.6319 16.8741 49.1582 17.2375 49.444L20.925 52.3437C21.2884 52.6294 21.8147 52.5665 22.1005 52.2031Z" fill="#FFB2BF"/>
<path d="M44.5941 82.0422L37.8225 84.7569L37.0564 82.7739L43.6781 78.8313L44.5908 81.1962L44.5941 82.0422Z" fill="#171A33"/>
<path d="M17.823 85.2466H10.2264L9.45142 83.2936L19.2064 81.7625L17.823 85.2466Z" fill="#30335D"/>
<path d="M10.8569 84.9069C11.1187 84.9069 11.331 84.6947 11.331 84.4328C11.331 84.171 11.1187 83.9587 10.8569 83.9587C10.5951 83.9587 10.3828 84.171 10.3828 84.4328C10.3828 84.6947 10.5951 84.9069 10.8569 84.9069Z" fill="#141334"/>
<path d="M10.8293 84.908C11.0206 84.908 11.1757 84.7529 11.1757 84.5616C11.1757 84.3702 11.0206 84.2151 10.8293 84.2151C10.638 84.2151 10.4829 84.3702 10.4829 84.5616C10.4829 84.7529 10.638 84.908 10.8293 84.908Z" fill="#666DA2"/>
<path d="M10.8292 84.7868C10.8143 84.7904 10.799 84.7922 10.7837 84.7924C10.7533 84.7924 10.7233 84.7864 10.6953 84.7748C10.6673 84.7632 10.6418 84.7462 10.6204 84.7247C10.5989 84.7033 10.5819 84.6778 10.5703 84.6498C10.5587 84.6218 10.5527 84.5918 10.5527 84.5614C10.5527 84.5311 10.5587 84.5011 10.5703 84.4731C10.5819 84.445 10.5989 84.4196 10.6204 84.3981C10.6418 84.3767 10.6673 84.3597 10.6953 84.3481C10.7233 84.3365 10.7533 84.3305 10.7837 84.3305C10.7988 84.3288 10.8141 84.3288 10.8292 84.3305C10.7774 84.3415 10.7309 84.3699 10.6976 84.411C10.6642 84.4521 10.646 84.5035 10.646 84.5564C10.646 84.6094 10.6642 84.6607 10.6976 84.7019C10.7309 84.743 10.7774 84.7714 10.8292 84.7824V84.7868Z" fill="#332D52"/>
<path d="M10.7815 84.2706C10.8012 84.266 10.8213 84.2638 10.8414 84.2639C10.9165 84.2685 10.987 84.3016 11.0385 84.3564C11.09 84.4111 11.1187 84.4835 11.1187 84.5587C11.1187 84.6339 11.09 84.7063 11.0385 84.761C10.987 84.8158 10.9165 84.8489 10.8414 84.8535C10.8215 84.8552 10.8014 84.8552 10.7815 84.8535C10.8475 84.8392 10.9066 84.8028 10.949 84.7503C10.9913 84.6978 11.0145 84.6323 11.0145 84.5648C11.0145 84.4973 10.9913 84.4319 10.949 84.3793C10.9066 84.3268 10.8475 84.2904 10.7815 84.2761V84.2706Z" fill="#9DA5D1"/>
<path d="M45.1616 82.5042L38.1101 85.331L36.6646 83.8066L45.1494 78.7559L45.1616 82.5042Z" fill="#252849"/>
<path d="M38.3554 84.5294C38.6173 84.5294 38.8295 84.3171 38.8295 84.0553C38.8295 83.7934 38.6173 83.5812 38.3554 83.5812C38.0936 83.5812 37.8813 83.7934 37.8813 84.0553C37.8813 84.3171 38.0936 84.5294 38.3554 84.5294Z" fill="#141334"/>
<path d="M38.3276 84.5293C38.5189 84.5293 38.674 84.3742 38.674 84.1829C38.674 83.9916 38.5189 83.8365 38.3276 83.8365C38.1363 83.8365 37.9812 83.9916 37.9812 84.1829C37.9812 84.3742 38.1363 84.5293 38.3276 84.5293Z" fill="#666DA2"/>
<path d="M38.3277 84.4094C38.3126 84.4105 38.2974 84.4105 38.2822 84.4094C38.221 84.4094 38.1622 84.3851 38.1189 84.3418C38.0756 84.2984 38.0513 84.2397 38.0513 84.1785C38.0513 84.1172 38.0756 84.0585 38.1189 84.0152C38.1622 83.9718 38.221 83.9475 38.2822 83.9475C38.2974 83.9464 38.3126 83.9464 38.3277 83.9475C38.2762 83.959 38.2302 83.9877 38.1971 84.0289C38.1641 84.07 38.1461 84.1212 38.1461 84.174C38.1461 84.2268 38.1641 84.278 38.1971 84.3192C38.2302 84.3603 38.2762 84.389 38.3277 84.4005V84.4094Z" fill="#332D52"/>
<path d="M38.2744 83.8942C38.2941 83.8897 38.3142 83.8875 38.3344 83.8876C38.4127 83.8876 38.4878 83.9187 38.5432 83.9741C38.5986 84.0295 38.6297 84.1046 38.6297 84.1829C38.6297 84.2612 38.5986 84.3364 38.5432 84.3917C38.4878 84.4471 38.4127 84.4782 38.3344 84.4782C38.3142 84.4784 38.2941 84.4761 38.2744 84.4716C38.3404 84.4573 38.3995 84.4209 38.4419 84.3684C38.4843 84.3159 38.5074 84.2504 38.5074 84.1829C38.5074 84.1154 38.4843 84.05 38.4419 83.9974C38.3995 83.9449 38.3404 83.9085 38.2744 83.8942Z" fill="#9DA5D1"/>
<path d="M12.1284 30.3374C12.1283 30.5178 12.1814 30.6942 12.2812 30.8445C12.3809 30.9948 12.5228 31.1123 12.6891 31.1823C12.7292 31.1975 12.7723 31.2027 12.8148 31.1974C12.8573 31.1921 12.8979 31.1766 12.933 31.1521C12.9681 31.1276 12.9967 31.0949 13.0163 31.0568C13.0359 31.0187 13.0459 30.9764 13.0455 30.9336V29.7412C13.0451 29.6964 13.0334 29.6524 13.0116 29.6133C12.9897 29.5742 12.9584 29.5412 12.9205 29.5174C12.8826 29.4935 12.8394 29.4795 12.7947 29.4767C12.75 29.4739 12.7053 29.4824 12.6647 29.5013C12.5045 29.5746 12.3688 29.6924 12.2737 29.8406C12.1787 29.9888 12.1282 30.1613 12.1284 30.3374Z" fill="#F9A0B4"/>
<path d="M37.2469 32.6472L37.2459 32.6466C36.8608 32.3908 36.3412 32.4957 36.0854 32.8808L34.6419 35.0543C34.3861 35.4395 34.491 35.959 34.8761 36.2148L34.8771 36.2155C35.2622 36.4712 35.7818 36.3664 36.0376 35.9812L37.4811 33.8078C37.7369 33.4226 37.632 32.903 37.2469 32.6472Z" fill="#FFB2BF"/>
<path d="M35.8472 37.7208C36.7584 37.7208 37.497 36.9821 37.497 36.0709C37.497 35.1597 36.7584 34.421 35.8472 34.421C34.9359 34.421 34.1973 35.1597 34.1973 36.0709C34.1973 36.9821 34.9359 37.7208 35.8472 37.7208Z" fill="#FFB2BF"/>
<path d="M18.3645 51.5654C18.7608 51.1691 18.6789 50.4447 18.1816 49.9473C17.6843 49.45 16.9598 49.3681 16.5635 49.7644C16.1672 50.1607 16.2491 50.8852 16.7464 51.3825C17.2438 51.8798 17.9682 51.9617 18.3645 51.5654Z" fill="#F9E0E5"/>
<path d="M17.9918 24.9792H22.6006C23.4468 24.9792 24.1328 24.2933 24.1328 23.4471V23.4459C24.1328 22.5997 23.4468 21.9137 22.6006 21.9137H17.9918C17.1456 21.9137 16.4596 22.5997 16.4596 23.4459V23.4471C16.4596 24.2933 17.1456 24.9792 17.9918 24.9792Z" fill="#FFC535"/>
<path d="M16.9036 22.3689H21.3114C21.5123 22.3681 21.7115 22.4069 21.8974 22.4831C22.0834 22.5593 22.2525 22.6714 22.395 22.813C22.4609 22.8788 22.5211 22.9501 22.5749 23.0262C22.7329 23.2561 22.825 23.5249 22.8414 23.8034C23.0796 23.9309 23.2977 24.0929 23.4887 24.2841C23.5618 24.3572 23.6304 24.4347 23.6941 24.5162C24.0822 24.9992 24.2931 25.6008 24.2914 26.2205C24.2917 26.6705 24.1811 27.1137 23.9695 27.5108C23.7578 27.908 23.4516 28.2469 23.0779 28.4976C23.6662 28.446 24.2221 28.2057 24.6629 27.8126C25.1036 27.4195 25.4056 26.8946 25.5239 26.3159C25.6422 25.7373 25.5705 25.136 25.3194 24.6014C25.0683 24.0668 24.6513 23.6277 24.1304 23.3493C24.1077 22.9589 23.9367 22.5919 23.6522 22.3236C23.3678 22.0552 22.9915 21.9058 22.6004 21.9059H17.9983C17.7942 21.906 17.5921 21.947 17.4041 22.0265C17.216 22.1061 17.0458 22.2225 16.9036 22.3689Z" fill="#FCD277"/>
<path d="M18.1825 30.5428C18.4474 30.5428 18.6622 30.3281 18.6622 30.0632C18.6622 29.7983 18.4474 29.5836 18.1825 29.5836C17.9176 29.5836 17.7029 29.7983 17.7029 30.0632C17.7029 30.3281 17.9176 30.5428 18.1825 30.5428Z" fill="#252849"/>
<path d="M23.0146 30.5428C23.2795 30.5428 23.4942 30.3281 23.4942 30.0632C23.4942 29.7983 23.2795 29.5836 23.0146 29.5836C22.7497 29.5836 22.5349 29.7983 22.5349 30.0632C22.5349 30.3281 22.7497 30.5428 23.0146 30.5428Z" fill="#252849"/>
<path d="M23.6151 32.509C24.966 32.509 26.0611 31.4139 26.0611 30.0631C26.0611 28.7122 24.966 27.6171 23.6151 27.6171C22.2643 27.6171 21.1692 28.7122 21.1692 30.0631C21.1692 31.4139 22.2643 32.509 23.6151 32.509Z" stroke="#252849" stroke-width="2.27" stroke-miterlimit="10"/>
<path d="M17.8451 32.5092C19.196 32.5092 20.2911 31.4141 20.2911 30.0632C20.2911 28.7123 19.196 27.6172 17.8451 27.6172C16.4943 27.6172 15.3992 28.7123 15.3992 30.0632C15.3992 31.4141 16.4943 32.5092 17.8451 32.5092Z" stroke="#252849" stroke-width="2.27" stroke-miterlimit="10"/>
<path d="M21.1715 30.1586H20.2888" stroke="#252849" stroke-width="2.27" stroke-miterlimit="10"/>
<path d="M20.1166 24.3941H15.8254C15.0644 24.3941 14.4475 25.011 14.4475 25.772C14.4475 26.5329 15.0644 27.1498 15.8254 27.1498H20.1166C20.8776 27.1498 21.4945 26.5329 21.4945 25.772C21.4945 25.011 20.8776 24.3941 20.1166 24.3941Z" fill="#FCD277"/>
<path d="M88.6923 42.1797C90.8133 42.1797 92.5328 40.4602 92.5328 38.3392C92.5328 36.2182 90.8133 34.4987 88.6923 34.4987C86.5712 34.4987 84.8518 36.2182 84.8518 38.3392C84.8518 40.4602 86.5712 42.1797 88.6923 42.1797Z" fill="#E1303E"/>
<path d="M76.6925 42.0875C76.7345 42.2314 76.7868 42.372 76.849 42.5083C77.174 43.2285 77.7487 43.8068 78.4669 44.1362C79.1851 44.4656 79.9983 44.5239 80.7561 44.3003L89.0833 41.8444C89.4955 41.7228 89.8797 41.5213 90.214 41.2513C90.5483 40.9813 90.8261 40.6481 91.0317 40.2707C91.2372 39.8933 91.3664 39.4791 91.4118 39.0518C91.4573 38.6244 91.4181 38.1924 91.2966 37.7802C91.1751 37.368 90.9736 36.9838 90.7036 36.6494C90.4335 36.3151 90.1003 36.0373 89.7229 35.8318C89.3455 35.6262 88.9313 35.4971 88.504 35.4516C88.0767 35.4061 87.6446 35.4453 87.2324 35.5668L78.9053 38.0228C78.493 38.1442 78.1086 38.3457 77.7742 38.6157C77.4399 38.8857 77.162 39.219 76.9565 39.5965C76.7509 39.974 76.6219 40.3883 76.5766 40.8158C76.5313 41.2432 76.5707 41.6753 76.6925 42.0875Z" fill="white"/>
<path d="M76.8489 42.5084C77.1738 43.2287 77.7485 43.8069 78.4667 44.1363C79.1849 44.4657 79.9981 44.524 80.756 44.3004L89.0831 41.8445C89.5841 41.6968 90.0425 41.4314 90.4199 41.0704C90.7973 40.7094 91.0829 40.2633 91.2526 39.7693C90.7598 40.2742 90.1369 40.6327 89.4528 40.8052L83.6982 42.3064L82.3825 42.6505C82.2982 42.6739 82.2171 42.6905 82.1327 42.7083C82.0483 42.726 81.9617 42.776 81.8729 42.8071C80.7741 43.1819 79.582 43.1819 78.4832 42.8071C77.9259 42.7962 77.374 42.6953 76.8489 42.5084Z" fill="#E9FFFE"/>
<path d="M65.0369 35.8407L66.8346 36.8531C67.7719 37.3811 68.9597 37.0492 69.4876 36.1118C70.0155 35.1745 69.6836 33.9867 68.7463 33.4588L66.9487 32.4463C66.0114 31.9184 64.8236 32.2503 64.2956 33.1876C63.7677 34.125 64.0996 35.3128 65.0369 35.8407Z" fill="#F5B5A9"/>
<path d="M71.001 30.3642L71.9064 33.0971C72.1746 33.9068 73.0485 34.3457 73.8581 34.0775C74.6678 33.8092 75.1067 32.9354 74.8385 32.1257L73.9331 29.3928C73.6648 28.5832 72.791 28.1442 71.9813 28.4125C71.1717 28.6807 70.7327 29.5546 71.001 30.3642Z" fill="#F5B5A9"/>
<path d="M66.2933 33.6449L68.1708 34.7119C69.4812 35.4567 71.1472 34.9981 71.8919 33.6877L71.8924 33.6867C72.6371 32.3763 72.1786 30.7103 70.8682 29.9656L68.9907 28.8986C67.6803 28.1539 66.0143 28.6125 65.2696 29.9229L65.269 29.9238C64.5243 31.2342 64.9829 32.9002 66.2933 33.6449Z" fill="#F5B5A9"/>
<path d="M73.1704 30.8807C71.4342 29.4499 68.8668 29.6976 67.4361 31.4339C66.0053 33.1701 66.253 35.7375 67.9892 37.1682L75.7531 43.566C77.4894 44.9968 80.0567 44.7491 81.4875 43.0128C82.9182 41.2766 82.6706 38.7092 80.9343 37.2785L73.1704 30.8807Z" fill="#F5B5A9"/>
<path d="M65.0369 35.8407L66.8346 36.8531C67.7719 37.3811 68.9597 37.0492 69.4876 36.1118C70.0155 35.1745 69.6836 33.9867 68.7463 33.4588L66.9487 32.4463C66.0114 31.9184 64.8236 32.2503 64.2956 33.1876C63.7677 34.125 64.0996 35.3128 65.0369 35.8407Z" fill="#F5B5A9"/>
<path d="M81.4878 43.0102C82.0077 42.3812 82.3257 41.61 82.4004 40.7974C82.2072 41.4409 81.858 42.0267 81.3839 42.5027C80.9099 42.9787 80.3255 43.3303 79.6829 43.5262C79.0402 43.7221 78.3591 43.7562 77.7001 43.6255C77.0411 43.4948 76.4245 43.2034 75.9053 42.7771L68.6018 36.7593L68.1399 36.3796C68.0065 36.2699 67.8804 36.1516 67.7624 36.0254C67.5621 35.9852 67.3694 35.9132 67.1917 35.8122L66.8254 35.6035L65.3975 34.7919C65.0996 34.6245 64.8517 34.3807 64.6792 34.0857C64.5092 33.7965 64.4163 33.4685 64.4094 33.1331C64.2264 33.5721 64.2104 34.0629 64.3645 34.5129C64.5185 34.9629 64.8318 35.3409 65.2454 35.5757L67.0419 36.5972C67.2204 36.6987 67.4137 36.7717 67.6148 36.8137C67.7322 36.9379 67.8571 37.0547 67.9889 37.1635L75.7532 43.562C76.5869 44.249 77.6593 44.5769 78.7347 44.4734C79.8101 44.3699 80.8003 43.8436 81.4878 43.0102Z" fill="#F8CDC5"/>
<path d="M88.1216 34.1786L88.3525 29.1521L92.6614 29.3501L92.4305 34.3766L88.1216 34.1786Z" fill="#F5B5A9"/>
<path d="M87.1734 23.7381C87.2406 22.2759 86.7046 21.0635 85.9763 21.0301C85.2479 20.9966 84.6031 22.1548 84.5359 23.6169C84.4688 25.0791 85.0047 26.2915 85.733 26.325C86.4614 26.3584 87.1062 25.2002 87.1734 23.7381Z" fill="#F4AD18"/>
<path d="M92.6694 29.3537L92.6005 30.857C91.7193 31.8845 90.522 32.5905 89.1964 32.8644C88.863 32.9337 88.5242 32.9742 88.1838 32.9855L88.3604 29.155L92.6694 29.3537Z" fill="#F29495"/>
<path d="M95.2152 23.8612L94.941 26.5203C94.8569 27.3189 94.6163 28.0931 94.233 28.7987C93.8497 29.5043 93.3311 30.1275 92.707 30.6327C92.0828 31.1379 91.3652 31.5152 90.5952 31.7431C89.8252 31.9709 89.0179 32.0449 88.2193 31.9607C87.2492 31.8586 86.3594 31.3753 85.7456 30.6172C85.1318 29.8591 84.8442 28.8882 84.9462 27.9181L85.3437 24.1432L85.4103 23.5048L85.4358 23.2705L85.508 22.5743C85.55 22.1742 85.6704 21.7862 85.8624 21.4326C86.0543 21.079 86.3141 20.7667 86.6269 20.5136C86.9396 20.2605 87.2992 20.0714 87.685 19.9573C88.0708 19.8432 88.4754 19.8063 88.8755 19.8486L89.535 19.9174L92.253 20.2072C92.6881 20.2532 93.1099 20.3844 93.4943 20.5935C93.8786 20.8025 94.2181 21.0852 94.4932 21.4255C94.7682 21.7657 94.9736 22.1568 95.0975 22.5765C95.2214 22.9961 95.2614 23.436 95.2152 23.8711V23.8612Z" fill="#F5B5A9"/>
<path d="M94.3791 23.9566C93.6307 25.6576 90.6629 25.9985 87.7484 24.7183C86.9078 24.3536 86.1264 23.8652 85.4302 23.2694L85.5023 22.5732C85.5443 22.1731 85.6647 21.7851 85.8567 21.4315C86.0487 21.0779 86.3085 20.7656 86.6212 20.5125C86.934 20.2594 87.2935 20.0703 87.6794 19.9562C88.0652 19.8421 88.4697 19.8052 88.8698 19.8475L89.5293 19.9163L92.2529 20.2072C92.6042 20.2438 92.9475 20.336 93.2699 20.4803C94.3624 21.6228 94.8298 22.9219 94.3791 23.9566Z" fill="#F29495"/>
<path d="M90.3102 26.0928C90.5439 26.0928 90.7332 25.9034 90.7332 25.6698C90.7332 25.4362 90.5439 25.2468 90.3102 25.2468C90.0766 25.2468 89.8872 25.4362 89.8872 25.6698C89.8872 25.9034 90.0766 26.0928 90.3102 26.0928Z" fill="#252849"/>
<path d="M87.3212 25.9552C87.5548 25.9552 87.7442 25.7658 87.7442 25.5322C87.7442 25.2986 87.5548 25.1092 87.3212 25.1092C87.0876 25.1092 86.8982 25.2986 86.8982 25.5322C86.8982 25.7658 87.0876 25.9552 87.3212 25.9552Z" fill="#252849"/>
<path d="M87.2801 27.202C87.2891 27.5352 87.4301 27.8511 87.672 28.0803C87.702 28.108 87.7331 28.1347 87.7642 28.1591C87.9942 28.3387 88.2796 28.4326 88.5713 28.4245H88.6224C88.9378 28.416 89.2385 28.2893 89.4647 28.0694C89.691 27.8495 89.8263 27.5526 89.8437 27.2376C89.8437 27.2031 89.8437 27.1687 89.8437 27.1332C89.8429 27.1012 89.8357 27.0697 89.8225 27.0405C89.8094 27.0114 89.7905 26.9851 89.7671 26.9633C89.7442 26.9411 89.7171 26.9238 89.6873 26.9123C89.6576 26.9009 89.6258 26.8956 89.5939 26.8967L87.5166 26.9544C87.4525 26.9562 87.3916 26.9832 87.3474 27.0295C87.3031 27.0759 87.2789 27.1379 87.2801 27.202Z" fill="#962F4A"/>
<path d="M88.5869 28.2279C88.589 28.2937 88.5975 28.3591 88.6124 28.4233H88.6191C88.9347 28.4153 89.2356 28.2888 89.462 28.0688C89.6884 27.8488 89.8235 27.5516 89.8404 27.2364C89.6901 27.1973 89.5327 27.1938 89.3807 27.2262C89.2288 27.2586 89.0865 27.3259 88.9651 27.4229C88.8437 27.5199 88.7467 27.6439 88.6816 27.785C88.6165 27.926 88.5852 28.0804 88.5902 28.2356L88.5869 28.2279Z" fill="#E1617F"/>
<path d="M87.5588 26.9489C87.5755 27.1942 87.9608 27.3819 88.4282 27.3686C88.8956 27.3552 89.2698 27.1465 89.2731 26.9011L87.5588 26.9489Z" fill="white"/>
<path d="M93.0645 23.4176L95.6437 23.5466L95.388 28.6594L95.166 28.6483C94.5411 28.6171 93.9542 28.3389 93.5345 27.875C93.1147 27.411 92.8965 26.7994 92.9277 26.1745L93.0656 23.4177L93.0645 23.4176Z" fill="#FFC535"/>
<path d="M94.4681 28.5599C95.3272 28.5599 96.0236 27.8634 96.0236 27.0044C96.0236 26.1453 95.3272 25.4489 94.4681 25.4489C93.609 25.4489 92.9126 26.1453 92.9126 27.0044C92.9126 27.8634 93.609 28.5599 94.4681 28.5599Z" fill="#F5B5A9"/>
<path d="M94.9411 26.8489C94.9526 26.9806 94.925 27.1127 94.8618 27.2288C94.7986 27.3449 94.7026 27.4399 94.5858 27.5017C94.5576 27.5154 94.5265 27.522 94.4952 27.5209C94.4638 27.5197 94.4332 27.511 94.4061 27.4953C94.3789 27.4796 94.356 27.4576 94.3393 27.431C94.3227 27.4045 94.3128 27.3742 94.3105 27.343L94.235 26.4725C94.2324 26.4399 94.2381 26.4071 94.2515 26.3772C94.2649 26.3474 94.2856 26.3213 94.3117 26.3016C94.3378 26.2818 94.3684 26.2689 94.4008 26.264C94.4332 26.2591 94.4663 26.2625 94.497 26.2738C94.6188 26.3163 94.7255 26.3933 94.8044 26.4954C94.8832 26.5975 94.9307 26.7203 94.9411 26.8489Z" fill="#F29495"/>
<path d="M94.456 24.5184C96.0061 24.5184 97.2628 23.2617 97.2628 21.7116C97.2628 20.1614 96.0061 18.9048 94.456 18.9048C92.9058 18.9048 91.6492 20.1614 91.6492 21.7116C91.6492 23.2617 92.9058 24.5184 94.456 24.5184Z" fill="#FFC535"/>
<path d="M97.2593 21.8404C97.2411 22.245 97.1353 22.6407 96.9491 23.0003C96.763 23.36 96.501 23.6749 96.1812 23.9233C96.6628 23.4074 96.9322 22.7289 96.9358 22.0232C96.9394 21.3175 96.6769 20.6363 96.2007 20.1155C95.7244 19.5947 95.0693 19.2725 94.3661 19.2131C93.6628 19.1538 92.9631 19.3617 92.4062 19.7953C92.7983 19.3755 93.3096 19.0861 93.8713 18.9661C94.433 18.8461 95.018 18.9013 95.5473 19.1242C96.0766 19.3472 96.5248 19.7272 96.8313 20.2129C97.1379 20.6986 97.288 21.2667 97.2615 21.8404H97.2593Z" fill="#F4AD18"/>
<path d="M95.3741 22.4581C96.0286 20.6271 93.9711 18.2177 90.7786 17.0765C87.5861 15.9353 84.4675 16.4945 83.813 18.3255C83.1585 20.1564 85.216 22.5659 88.4085 23.7071C91.601 24.8483 94.7196 24.2891 95.3741 22.4581Z" fill="#FFC535"/>
<path d="M93.1366 21.6584C93.5379 20.5359 92.2768 19.0589 90.32 18.3594C88.3631 17.6599 86.4515 18.0028 86.0503 19.1253C85.649 20.2478 86.9101 21.7248 88.8669 22.4243C90.8238 23.1238 92.7354 22.7809 93.1366 21.6584Z" fill="#FCD277"/>
<path d="M85.0805 21.7139C84.4621 20.8478 84.23 19.9374 84.5165 19.1358C85.1704 17.3049 88.2914 16.7442 91.4824 17.8867C92.8325 18.3686 93.9805 19.078 94.8044 19.8741C94.0072 18.7572 92.5694 17.7124 90.7718 17.0706C87.5786 15.9293 84.461 16.4889 83.8059 18.3197C83.4284 19.3767 83.9491 20.6269 85.0805 21.7139Z" fill="#FCD277"/>
<path d="M93.7368 54.6414L81.6186 54.0848L82.2488 40.365C82.3299 38.6001 83.1088 36.9396 84.4141 35.749C85.7194 34.5583 87.4443 33.9349 89.2092 34.016L91.5561 34.1238C92.3827 34.1618 93.1603 34.5265 93.7179 35.1379C94.2756 35.7492 94.5675 36.557 94.5295 37.3836L93.7368 54.6414Z" fill="#F63E4A"/>
<path d="M86.7713 35.5442L93.233 35.841C94.0765 35.8798 94.7917 35.2274 94.8304 34.3839C94.8692 33.5405 94.2168 32.8253 93.3733 32.7865L86.9116 32.4897C86.0681 32.451 85.3529 33.1033 85.3142 33.9468C85.2754 34.7903 85.9278 35.5055 86.7713 35.5442Z" fill="#F63E4A"/>
<path d="M74.637 85.2177L74.5571 87.7023L69.4891 87.5395L69.5689 85.0548L74.637 85.2177Z" fill="#F9A0B4"/>
<path d="M74.7454 85.4524L74.7081 86.6959L69.6374 86.5438L69.6747 85.3003L74.7454 85.4524Z" fill="#F492AC"/>
<path d="M72.3879 88.1455L67.406 88.4165C67.3838 88.0866 67.4273 87.7556 67.5341 87.4426C67.6408 87.1297 67.8087 86.8411 68.0278 86.5935C68.247 86.346 68.5131 86.1444 68.8108 86.0005C69.1085 85.8566 69.4318 85.7733 69.762 85.7554C70.0921 85.7374 70.4225 85.7853 70.734 85.896C71.0456 86.0068 71.332 86.1784 71.5767 86.4007C71.8214 86.6231 72.0195 86.8918 72.1595 87.1913C72.2995 87.4908 72.3787 87.8152 72.3923 88.1455H72.3879Z" fill="#30335D"/>
<path d="M66.8953 89.0248L66.8875 88.2587C66.8857 88.0991 66.9449 87.9448 67.053 87.8274C67.1612 87.71 67.3101 87.6383 67.4693 87.627L74.02 87.1484C74.1271 87.1405 74.2347 87.1547 74.3361 87.1901C74.4375 87.2255 74.5306 87.2814 74.6095 87.3543C74.6884 87.4272 74.7515 87.5155 74.7949 87.6138C74.8382 87.7121 74.8609 87.8182 74.8616 87.9256L74.876 89.3435L66.8953 89.0248Z" fill="#FDBF48"/>
<path d="M74.8738 88.916V89.3757C74.8747 89.4453 74.8618 89.5144 74.8359 89.579C74.81 89.6436 74.7716 89.7024 74.723 89.7521C74.6743 89.8019 74.6162 89.8415 74.5522 89.8687C74.4881 89.896 74.4193 89.9103 74.3498 89.9108L67.2595 89.9863C67.1457 89.9877 67.0328 89.9665 66.9272 89.9241C66.8216 89.8817 66.7254 89.8189 66.6442 89.7393C66.5629 89.6597 66.4981 89.5648 66.4536 89.4601C66.409 89.3554 66.3856 89.243 66.3846 89.1292C66.3822 88.8994 66.4711 88.6781 66.6319 88.5138C66.7926 88.3496 67.0119 88.2558 67.2417 88.2532L69.2269 88.2321C69.3246 88.2311 69.4215 88.2493 69.5122 88.2857C69.6028 88.3222 69.6854 88.3761 69.7552 88.4445C69.825 88.5128 69.8806 88.5943 69.919 88.6841C69.9573 88.774 69.9775 88.8705 69.9786 88.9682L74.8738 88.916Z" fill="#30335D"/>
<path d="M75.4979 84.9023L75.157 57.3894C75.1554 56.9393 75.0651 56.4938 74.8912 56.0785C74.7173 55.6633 74.4633 55.2864 74.1436 54.9694C73.8239 54.6524 73.4449 54.4016 73.0282 54.2312C72.6115 54.0608 72.1653 53.9742 71.7151 53.9764H71.6252C71.175 53.978 70.7296 54.0683 70.3143 54.2422C69.8991 54.4161 69.5222 54.6702 69.2052 54.9898C68.8882 55.3095 68.6374 55.6885 68.467 56.1052C68.2966 56.5219 68.21 56.9681 68.2122 57.4183L68.5531 84.9312C68.5532 84.9997 68.5669 85.0676 68.5933 85.1309C68.6198 85.1941 68.6584 85.2516 68.7071 85.2998C68.7558 85.3481 68.8136 85.3863 68.8771 85.4122C68.9406 85.4381 69.0085 85.4512 69.0771 85.4508L74.9749 85.4297C75.044 85.4298 75.1125 85.4163 75.1763 85.3898C75.2401 85.3633 75.298 85.3243 75.3466 85.2753C75.3953 85.2262 75.4337 85.168 75.4597 85.104C75.4856 85.0399 75.4986 84.9714 75.4979 84.9023Z" fill="#252849"/>
<path d="M72.0782 53.9956L84.7089 53.8347C85.0749 53.83 85.4278 53.971 85.6898 54.2265C85.9519 54.482 86.1018 54.8311 86.1065 55.1971L86.1213 56.3628C86.1375 57.6304 85.6494 58.8524 84.7645 59.7602C83.8796 60.6679 82.6704 61.1869 81.4028 61.2031L72.1716 61.3207C71.1999 61.3331 70.2631 60.959 69.5673 60.2807C68.8715 59.6023 68.4736 58.6754 68.4612 57.7037C68.4489 56.7321 68.823 55.7953 69.5013 55.0995C70.1796 54.4037 71.1065 54.0058 72.0782 53.9934L72.0782 53.9956Z" fill="#252849"/>
<path d="M93.8552 56.2626C93.8659 56.9039 93.7491 57.541 93.5117 58.1368C93.2742 58.7326 92.9207 59.2753 92.4718 59.7334C91.7036 60.5225 90.6741 61.0044 89.5762 61.0891H89.5262C89.4485 61.0891 89.3708 61.0968 89.2919 61.0979L80.363 61.209C79.8951 61.2156 79.4307 61.1277 78.9976 60.9505C78.5645 60.7732 78.1716 60.5103 77.8427 60.1775C77.3813 59.7114 77.0524 59.1308 76.89 58.4954C76.8218 58.2214 76.7845 57.9406 76.779 57.6583C76.7224 55.6131 78.3612 53.9177 80.3408 53.8922L93.8263 53.7201L93.8552 56.2626Z" fill="#30335D"/>
<path d="M60.6978 85.6366L58.6779 88.1398L54.6919 84.9235L56.7118 82.4203L60.6978 85.6366Z" fill="#FFB2BF"/>
<path d="M60.698 85.6358L60.0342 86.4584L56.0483 83.2421L56.712 82.4195L60.698 85.6358Z" fill="#F9A0B4"/>
<path d="M56.8015 87.2462L52.6724 84.4372C53.0457 83.8916 53.6201 83.5163 54.2697 83.3936C54.9193 83.2709 55.5911 83.4108 56.1377 83.7826C56.6843 84.1545 57.0612 84.7279 57.1856 85.3772C57.31 86.0265 57.1719 86.6986 56.8015 87.2462Z" fill="#30335D"/>
<path d="M51.9021 84.6148L52.3595 84.0008C52.455 83.8729 52.5957 83.7861 52.7529 83.7583C52.9101 83.7304 53.072 83.7636 53.2056 83.8509L58.707 87.4438C58.7966 87.5023 58.8733 87.5786 58.9323 87.6679C58.9913 87.7572 59.0314 87.8576 59.0502 87.9629C59.0689 88.0683 59.0658 88.1764 59.0412 88.2806C59.0166 88.3847 58.9708 88.4827 58.9069 88.5685L58.0586 89.711L51.9021 84.6148Z" fill="#FDBF48"/>
<path d="M58.3116 89.3668L58.0385 89.7332C57.9969 89.7895 57.9446 89.837 57.8847 89.8731C57.8247 89.9091 57.7582 89.933 57.689 89.9433C57.6198 89.9536 57.5492 89.9502 57.4813 89.9332C57.4135 89.9162 57.3496 89.8859 57.2935 89.8442L51.611 85.6029C51.5199 85.5349 51.443 85.4495 51.3849 85.3517C51.3267 85.2539 51.2884 85.1456 51.2721 85.0331C51.2558 84.9205 51.2619 84.8058 51.2899 84.6955C51.318 84.5853 51.3675 84.4816 51.4356 84.3905C51.5035 84.2991 51.5888 84.2221 51.6865 84.1637C51.7842 84.1054 51.8925 84.0669 52.0052 84.0505C52.1178 84.0341 52.2326 84.0401 52.3429 84.0682C52.4532 84.0962 52.5569 84.1458 52.648 84.214L54.2391 85.4009C54.3174 85.4591 54.3835 85.5323 54.4336 85.6161C54.4837 85.7 54.5167 85.7928 54.5309 85.8895C54.545 85.9861 54.5399 86.0846 54.5159 86.1792C54.492 86.2739 54.4496 86.3629 54.3912 86.4412L58.3116 89.3668Z" fill="#30335D"/>
<path d="M82.8711 59.5201L82.7601 59.6567L81.5154 61.2L75.1502 69.083L61.7157 85.7617C61.5892 85.9176 61.406 86.0168 61.2063 86.0376C61.0067 86.0585 60.8069 85.9991 60.651 85.8727L56.4319 82.4653C56.276 82.3388 56.1768 82.1555 56.1559 81.9559C56.1351 81.7562 56.1944 81.5564 56.3209 81.4005L66.148 69.1951L75.0836 58.1234L77.4796 55.1556C77.7997 54.7574 78.2041 54.435 78.6637 54.2118C79.1233 53.9885 79.6267 53.8698 80.1376 53.8643C80.2643 53.8623 80.3911 53.8675 80.5173 53.8799C81.1405 53.9409 81.7356 54.1695 82.2395 54.5413C82.7434 54.9131 83.1373 55.4143 83.3795 55.9917C83.6216 56.5692 83.7031 57.2014 83.6152 57.8214C83.5272 58.4414 83.2732 59.0261 82.88 59.5135L82.8711 59.5201Z" fill="#30335D"/>
<path d="M90.2977 43.3166C92.4188 43.3166 94.1382 41.5972 94.1382 39.4762C94.1382 37.3551 92.4188 35.6357 90.2977 35.6357C88.1767 35.6357 86.4573 37.3551 86.4573 39.4762C86.4573 41.5972 88.1767 43.3166 90.2977 43.3166Z" fill="#E1303E"/>
<path d="M86.8182 51.5573C87.6482 51.8101 88.5445 51.7233 89.3105 51.3159C90.0766 50.9086 90.6497 50.2139 90.904 49.3844L93.4399 41.0806C93.5688 40.6687 93.6149 40.2354 93.5755 39.8056C93.5362 39.3759 93.4122 38.9581 93.2108 38.5764C93.0093 38.1948 92.7344 37.8567 92.4017 37.5818C92.0691 37.3068 91.6853 37.1004 91.2726 36.9744C90.8598 36.8484 90.4262 36.8053 89.9967 36.8475C89.5672 36.8898 89.1503 37.0166 88.77 37.2207C88.3897 37.4247 88.0536 37.702 87.7809 38.0365C87.5082 38.371 87.3044 38.7562 87.1813 39.1698L84.6443 47.4725C84.3912 48.3025 84.478 49.1989 84.8857 49.9649C85.2933 50.7308 85.9884 51.3036 86.8182 51.5573Z" fill="white"/>
<path d="M87.2559 51.6582C88.036 51.7834 88.8351 51.6222 89.5057 51.2043C90.1763 50.7863 90.673 50.1399 90.9043 49.3844L93.4401 41.0806C93.5928 40.5811 93.6236 40.0524 93.5301 39.5386C93.4366 39.0248 93.2215 38.5409 92.9028 38.1272C93.0529 38.8165 93.0094 39.5339 92.7773 40.2001L90.8598 45.8304L90.4157 47.1194C90.3891 47.2016 90.358 47.2793 90.3269 47.3592C90.2958 47.4392 90.2903 47.5391 90.267 47.6301C89.9744 48.7537 89.3181 49.7488 88.4006 50.4602C88.0855 50.9182 87.699 51.3227 87.2559 51.6582Z" fill="#F9E8EA"/>
<path d="M86.7428 53.6468C89.3249 53.6468 91.4182 51.5535 91.4182 48.9714C91.4182 46.3892 89.3249 44.296 86.7428 44.296C84.1606 44.296 82.0674 46.3892 82.0674 48.9714C82.0674 51.5535 84.1606 53.6468 86.7428 53.6468Z" fill="#E1303E"/>
<path d="M72.9036 50.626L74.9699 50.7087C76.0473 50.7517 76.9556 49.9133 76.9987 48.8359C77.0418 47.7585 76.2033 46.8502 75.1259 46.8071L73.0597 46.7245C71.9823 46.6814 71.074 47.5198 71.0309 48.5972C70.9878 49.6746 71.8263 50.5829 72.9036 50.626Z" fill="#F5B5A9"/>
<path d="M75.6674 43.4225L77.7265 45.4346C78.3365 46.0308 79.3143 46.0195 79.9105 45.4095C80.5066 44.7994 80.4953 43.8216 79.8853 43.2255L77.8262 41.2133C77.2162 40.6172 76.2384 40.6285 75.6423 41.2385C75.0461 41.8485 75.0574 42.8263 75.6674 43.4225Z" fill="#F5B5A9"/>
<path d="M72.9834 48.5086L75.1412 48.5941C76.6473 48.6538 77.9166 47.4813 77.9763 45.9753L77.9763 45.9742C78.036 44.4681 76.8635 43.1988 75.3575 43.1391L73.1997 43.0536C71.6936 42.9939 70.4243 44.1664 70.3646 45.6724L70.3646 45.6735C70.3049 47.1796 71.4774 48.4489 72.9834 48.5086Z" fill="#F5B5A9"/>
<path d="M77.8341 42.8894C75.6348 42.4155 73.4677 43.8142 72.9938 46.0136C72.5199 48.2129 73.9187 50.38 76.118 50.8539L85.9526 52.973C88.1519 53.4469 90.319 52.0482 90.7929 49.8488C91.2668 47.6495 89.868 45.4824 87.6687 45.0085L77.8341 42.8894Z" fill="#F5B5A9"/>
<path d="M72.9036 50.626L74.9699 50.7087C76.0473 50.7517 76.9556 49.9133 76.9987 48.8359C77.0418 47.7585 76.2033 46.8502 75.1259 46.8071L73.0597 46.7245C71.9823 46.6814 71.074 47.5198 71.0309 48.5972C70.9878 49.6746 71.8263 50.5829 72.9036 50.626Z" fill="#F5B5A9"/>
<path d="M90.7862 49.8418C90.9598 49.0448 90.8886 48.2139 90.5819 47.4581C90.7052 48.1179 90.6637 48.7979 90.4613 49.4379C90.2588 50.0779 89.9016 50.6581 89.4213 51.1269C88.941 51.5958 88.3524 51.939 87.7077 52.126C87.0631 52.313 86.3822 52.3381 85.7256 52.199L76.4736 50.206L75.8895 50.0806C75.7207 50.045 75.5545 49.9979 75.3921 49.9396C75.1958 49.9969 74.9913 50.0212 74.787 50.0117L74.3651 49.9951L72.7241 49.9296C72.3827 49.9177 72.0505 49.8154 71.7615 49.6331C71.4775 49.4542 71.2443 49.2053 71.0842 48.9103C71.1234 49.3846 71.3347 49.8281 71.6783 50.1574C72.0219 50.4867 72.474 50.6789 72.9495 50.6979L75.0146 50.78C75.2195 50.7876 75.4244 50.7637 75.622 50.709C75.7838 50.7647 75.9488 50.8111 76.116 50.8478L85.9476 52.9662C86.4705 53.0789 87.0104 53.0875 87.5366 52.9915C88.0628 52.8955 88.5649 52.6967 89.0143 52.4066C89.4636 52.1164 89.8514 51.7406 90.1554 51.3005C90.4595 50.8605 90.6738 50.3648 90.7862 49.8418Z" fill="#F8CDC5"/>
</svg>
