<svg width="1440" height="725" viewBox="0 0 1440 725" fill="none" xmlns="http://www.w3.org/2000/svg">
<g clip-path="url(#clip0_26_8809)">
<path d="M1033.97 430.469L1200.93 476.914H1073.45L898.594 430.469H1033.97Z" fill="#C94747"/>
<path d="M650.406 249.219H898.594V679.688H650.406V249.219Z" fill="#F9F3D9"/>
<path d="M898.594 249.219H1033.97V430.469H898.594V249.219Z" fill="#DBB471"/>
<path d="M830.906 90.625L606.409 249.219H898.594L830.906 90.625Z" fill="#ED4C5C"/>
<path d="M921.156 113.281H955V203.906H921.156V113.281Z" fill="#D0D0D0"/>
<path d="M955 113.281H977.562V215.234H955V113.281Z" fill="#94989B"/>
<path d="M830.906 90.625L1079.09 249.219H898.594L830.906 90.625Z" fill="#C94747"/>
<path d="M909.875 90.625H966.281V113.281H909.875V90.625Z" fill="#D0D0D0"/>
<path d="M966.281 90.625H988.844V113.281H966.281V90.625Z" fill="#94989B"/>
<path d="M738.4 314.922H810.6V387.422H738.4V314.922Z" fill="#D6EEF0"/>
<path d="M729.375 305.859V396.484H819.625V305.859H729.375ZM810.6 314.922V346.641H779.012V314.922H810.6ZM769.988 314.922V346.641H738.4V314.922H769.988ZM738.4 387.422V355.703H769.988V387.422H738.4ZM779.012 387.422V355.703H810.6V387.422H779.012Z" fill="#89664C"/>
<path d="M939.206 310.391H993.356V391.953H939.206V310.391Z" fill="#D6EEF0"/>
<path d="M934.694 305.859V396.484H997.869V305.859H934.694ZM943.719 314.922H961.769V346.641H943.719V314.922ZM943.719 387.422V355.703H961.769V387.422H943.719ZM988.844 387.422H970.794V355.703H988.844V387.422ZM988.844 346.641H970.794V314.922H988.844V346.641Z" fill="#89664C"/>
<path d="M748.553 525H818.497L818.497 679.688H748.553L748.553 525Z" fill="#89664C"/>
<path d="M810.6 507.086H828.65V525.211H810.6V507.086Z" fill="#89664C"/>
<path d="M730.503 525H748.553L748.553 679.688H730.503L730.503 525Z" fill="#594640"/>
<path d="M722.606 507.086H810.6V525.211H722.606V507.086Z" fill="#DBB471"/>
<path d="M803.831 616.25C807.57 616.25 810.6 613.207 810.6 609.453C810.6 605.699 807.57 602.656 803.831 602.656C800.093 602.656 797.062 605.699 797.062 609.453C797.062 613.207 800.093 616.25 803.831 616.25Z" fill="#F9F3D9"/>
<path d="M1044.12 476.914H1149.04V679.688H1044.12V476.914Z" fill="#DBB471"/>
<path d="M898.594 476.914H1044.12V679.688H898.594V476.914Z" fill="#F9F3D9"/>
<path d="M898.594 430.469H650.406L594 476.914H1073.45L898.594 430.469Z" fill="#ED4C5C"/>
<path d="M913.259 541.484H985.459V613.984H913.259V541.484Z" fill="#D6EEF0"/>
<path d="M904.234 532.422V623.047H994.484V532.422H904.234ZM985.459 541.484V573.203H953.872V541.484H985.459ZM944.847 541.484V573.203H913.259V541.484H944.847ZM913.259 613.984V582.266H944.847V613.984H913.259ZM953.872 613.984V582.266H985.459V613.984H953.872Z" fill="#89664C"/>
<path d="M1068.94 536.953H1123.09V618.516H1068.94V536.953Z" fill="#D6EEF0"/>
<path d="M1064.43 532.422V623.047H1127.6V532.422H1064.43ZM1073.45 541.484H1091.5V573.203H1073.45V541.484ZM1073.45 613.984V582.266H1091.5V613.984H1073.45ZM1118.58 613.984H1100.53V582.266H1118.58V613.984ZM1118.58 573.203H1100.53V541.484H1118.58V573.203Z" fill="#89664C"/>
<path d="M1182.88 385.156H1228.01V679.688H1182.88V385.156Z" fill="#D3976E"/>
<path d="M1228.01 385.156H1211.08V390.82C1211.08 416.875 1202.06 416.875 1202.06 442.93C1202.06 468.984 1211.08 468.984 1211.08 493.906C1211.08 519.961 1202.06 519.961 1202.06 546.016C1202.06 572.07 1211.08 572.07 1211.08 596.992C1211.08 623.047 1202.06 623.047 1202.06 647.969C1202.06 663.828 1204.32 670.625 1206.57 678.555H1226.88C1228.01 679.687 1228.01 385.156 1228.01 385.156Z" fill="#89664C"/>
<path d="M1194.16 32.8516C1172.73 63.4375 1146.78 7.92969 1112.94 55.5078C1079.09 103.086 1097.14 145 1107.3 175.586C1127.6 237.891 1085.86 257.148 1114.07 309.258C1141.14 361.367 1101.66 386.289 1153.55 414.609C1205.44 442.93 1179.5 381.758 1232.52 418.008C1285.54 454.258 1292.31 393.086 1286.67 370.43C1275.39 328.516 1305.85 318.32 1314.87 283.203C1329.54 220.898 1279.9 186.914 1295.69 128.008C1309.23 70.2344 1258.47 -61.1719 1194.16 32.8516Z" fill="#83BF4F"/>
<path d="M1293.44 129.141C1305.85 84.9609 1279.9 0 1239.29 0C1239.29 0 1266.36 36.25 1228.01 81.5625C1189.65 126.875 1260.72 149.531 1228.01 191.445C1195.29 233.359 1258.47 274.141 1233.65 306.992C1203.19 347.773 1154.68 342.109 1182.88 420.273V421.406C1194.16 414.609 1195.29 395.352 1230.26 419.141C1283.28 455.391 1290.05 394.219 1284.41 371.562C1273.13 329.648 1303.59 319.453 1312.62 284.336C1328.41 222.031 1278.77 188.047 1293.44 129.141Z" fill="#699635"/>
<path d="M1246.06 130.578C1238.16 130.578 1250.57 123.881 1250.57 114.951C1250.57 106.021 1238.16 99.3242 1246.06 99.3242C1253.95 99.3242 1261.85 106.021 1261.85 114.951C1261.85 123.881 1255.08 130.578 1246.06 130.578Z" fill="#83BF4F"/>
<path d="M1266.36 265.639C1253.95 265.639 1273.13 255.593 1273.13 243.315C1273.13 231.037 1253.95 220.991 1266.36 220.991C1278.77 220.991 1288.92 231.037 1288.92 243.315C1288.92 255.593 1278.77 265.639 1266.36 265.639Z" fill="#83BF4F"/>
<path d="M1246.06 379.492C1237.03 379.492 1246.06 371.679 1246.06 362.749C1246.06 353.819 1237.03 346.006 1246.06 346.006C1255.08 346.006 1262.98 353.819 1262.98 362.749C1262.98 371.679 1255.08 379.492 1246.06 379.492Z" fill="#83BF4F"/>
<path d="M1150.17 140.624C1159.19 140.624 1147.91 148.437 1147.91 157.367C1147.91 166.297 1160.32 174.11 1150.17 174.11C1140.01 174.11 1133.24 166.297 1133.24 157.367C1133.24 148.437 1141.14 140.624 1150.17 140.624Z" fill="#83BF4F"/>
<path d="M1187.39 77C1199.8 77 1181.75 87.0459 1181.75 99.3241C1181.75 111.602 1200.93 121.648 1187.39 121.648C1174.98 121.648 1164.83 111.602 1164.83 99.3241C1164.83 87.0459 1173.86 77 1187.39 77Z" fill="#83BF4F"/>
<path d="M1177.24 244.688C1196.42 244.688 1169.34 259.414 1169.34 278.672C1169.34 297.93 1195.29 312.656 1177.24 312.656C1158.06 312.656 1143.4 297.93 1143.4 278.672C1143.4 259.414 1158.06 244.688 1177.24 244.688Z" fill="#699635"/>
<path d="M1187.39 182.383C1196.42 182.383 1187.39 190.312 1187.39 199.375C1187.39 208.438 1196.42 216.367 1187.39 216.367C1178.37 216.367 1170.47 208.438 1170.47 199.375C1170.47 190.312 1178.37 182.383 1187.39 182.383Z" fill="#699635"/>
<path d="M1249.44 645.703H1253.95V679.688H1249.44V645.703Z" fill="#83BF4F"/>
<path d="M1239.29 610.586V636.641C1239.29 641.172 1242.67 645.703 1248.31 645.703H1257.34V627.578C1256.21 615.117 1239.29 610.586 1239.29 610.586Z" fill="#C94747"/>
<path d="M1265.23 610.586V636.641C1265.23 641.172 1261.85 645.703 1256.21 645.703H1247.18V627.578C1247.18 615.117 1265.23 610.586 1265.23 610.586Z" fill="#ED4C5C"/>
<path d="M1299.08 619.648H1303.59V679.687H1299.08V619.648Z" fill="#83BF4F"/>
<path d="M1288.93 583.398V609.453C1288.93 613.984 1292.31 618.516 1297.95 618.516H1306.98V600.391C1305.85 589.063 1288.93 583.398 1288.93 583.398Z" fill="#C94747"/>
<path d="M1314.87 583.398V609.453C1314.87 613.984 1311.49 618.516 1305.85 618.516H1296.82V600.391C1296.82 589.063 1314.87 583.398 1314.87 583.398Z" fill="#ED4C5C"/>
<path d="M1256.21 568.672V594.727C1256.21 599.258 1259.59 603.789 1265.23 603.789H1274.26V585.664C1274.26 574.336 1256.21 568.672 1256.21 568.672Z" fill="#F2B200"/>
<path d="M1283.28 568.672V594.727C1283.28 599.258 1279.9 603.789 1274.26 603.789H1265.23V585.664C1265.23 574.336 1283.28 568.672 1283.28 568.672Z" fill="#FFCE31"/>
<path d="M1267.49 604.922H1272V679.687H1267.49V604.922Z" fill="#83BF4F"/>
<path d="M1220.11 582.266V608.32C1220.11 612.852 1224.62 617.383 1229.13 617.383H1237.03V600.391C1237.03 586.797 1220.11 582.266 1220.11 582.266Z" fill="#F2B200"/>
<path d="M1246.06 582.266V608.32C1246.06 612.852 1242.67 617.383 1237.03 617.383H1228.01V600.391C1228.01 586.797 1246.06 582.266 1246.06 582.266Z" fill="#FFCE31"/>
<path d="M1230.26 617.383H1234.77V679.688H1230.26V617.383Z" fill="#83BF4F"/>
<path d="M1146.78 645.703H1151.29V679.688H1146.78V645.703Z" fill="#83BF4F"/>
<path d="M1135.5 610.586V636.641C1135.5 641.172 1138.88 645.703 1144.52 645.703H1153.55V627.578C1153.55 615.117 1135.5 610.586 1135.5 610.586Z" fill="#C94747"/>
<path d="M1162.57 610.586V636.641C1162.57 641.172 1159.19 645.703 1153.55 645.703H1144.52V627.578C1144.52 615.117 1162.57 610.586 1162.57 610.586Z" fill="#ED4C5C"/>
<path d="M1196.42 619.648H1200.93V679.687H1196.42V619.648Z" fill="#83BF4F"/>
<path d="M1185.14 583.398V609.453C1185.14 613.984 1188.52 618.516 1194.16 618.516H1203.19V600.391C1203.19 589.063 1185.14 583.398 1185.14 583.398Z" fill="#C94747"/>
<path d="M1212.21 583.398V609.453C1212.21 613.984 1208.83 618.516 1203.19 618.516H1194.16V600.391C1194.16 589.063 1212.21 583.398 1212.21 583.398Z" fill="#ED4C5C"/>
<path d="M1153.55 568.672V594.727C1153.55 599.258 1156.93 603.789 1162.58 603.789H1171.6V585.664C1171.6 574.336 1153.55 568.672 1153.55 568.672Z" fill="#F2B200"/>
<path d="M1179.5 568.672V594.727C1179.5 599.258 1176.11 603.789 1170.47 603.789H1161.45V585.664C1162.57 574.336 1179.5 568.672 1179.5 568.672Z" fill="#FFCE31"/>
<path d="M1164.83 604.922H1169.34V679.687H1164.83V604.922Z" fill="#83BF4F"/>
<path d="M1116.32 582.266V608.32C1116.32 612.852 1119.71 617.383 1125.35 617.383H1134.37V600.391C1134.37 586.797 1116.32 582.266 1116.32 582.266Z" fill="#C94747"/>
<path d="M1143.4 582.266V608.32C1143.4 612.852 1140.01 617.383 1134.37 617.383H1125.35V600.391C1125.35 586.797 1143.4 582.266 1143.4 582.266Z" fill="#ED4C5C"/>
<path d="M1127.6 617.383H1132.12V679.688H1127.6V617.383Z" fill="#83BF4F"/>
</g>
<defs>
<clipPath id="clip0_26_8809">
<rect width="1440" height="725" fill="white"/>
</clipPath>
</defs>
</svg>
