<svg width="1440" height="1024" viewBox="0 0 1440 1024" fill="none" xmlns="http://www.w3.org/2000/svg">
<g clip-path="url(#clip0_75_7784)">
<path d="M2065 -61H-458V1347.08H2065V-61Z" fill="url(#paint0_linear_75_7784)"/>
<path opacity="0.7" d="M493.259 648.222C487.516 631.143 462.198 618.275 431.827 618.275C425.558 618.275 419.512 618.831 413.801 619.852C402.425 585.18 355.541 559.194 299.414 559.194C254.123 559.194 214.868 576.12 195.41 600.866C187.645 599.056 179.275 598.063 170.546 598.063C130.064 598.063 97.2461 619.294 97.2461 645.483C97.2461 646.404 97.2965 647.314 97.3785 648.222H493.259Z" fill="white"/>
<mask id="mask0_75_7784" style="mask-type:luminance" maskUnits="userSpaceOnUse" x="-458" y="-61" width="2523" height="1659">
<path d="M2065 -61H-458V1598H2065V-61Z" fill="white"/>
</mask>
<g mask="url(#mask0_75_7784)">
<path d="M2065 575.641C2046.08 573.568 2033.46 583.936 2014.54 588.084C1995.62 592.231 1957.77 602.6 1951.47 596.379C1945.16 590.158 1932.54 567.346 1923.08 561.125C1913.62 554.904 1869.47 563.199 1844.24 563.199C1829.85 563.199 1810.34 557.805 1796.23 553.168C1760.24 571.537 1718.49 592.227 1692.86 600.727C1684.92 603.359 1665.3 604.506 1640.58 605.076C1630.34 613.052 1612.01 626.071 1595.09 631.633C1569.86 639.928 1557.25 631.633 1541.48 631.633C1525.71 631.633 1491.02 629.559 1475.25 633.706C1461.31 637.373 1417.82 636.182 1401.37 640.869C1399.38 641.802 1397.35 642.748 1395.31 643.702C1394.57 644.139 1393.76 644.525 1392.86 644.846C1332.66 672.996 1254.45 709.709 1238.98 715.814C1215.33 725.146 1165.69 740.699 1138.48 740.699C1111.26 740.699 905.054 678.489 892.262 684.71C879.468 690.931 818.187 703.059 795.203 712.706C772.218 722.353 378.05 740.701 378.05 740.701C378.05 740.701 150.992 630.032 113.147 621.602C103.074 619.358 85.2525 613.952 64.0435 607.361C47.7576 612.865 29.3365 618.168 21.3733 617.12C5.60455 615.047 -63.778 596.383 -73.2393 592.235C-82.7005 588.088 -92.1617 606.752 -111.084 606.752C-130.007 606.752 -126.853 602.604 -148.929 590.162C-171.005 577.719 -240.388 588.088 -240.388 588.088C-240.388 588.088 -294.002 592.235 -325.539 592.235C-337.949 592.235 -350.347 589.021 -360.836 585.127C-364.034 586.112 -366.901 587.159 -369.351 588.289C-416.657 610.059 -463.96 623.141 -501.805 643.038C-539.65 662.936 -558.57 840.233 -558.57 840.233C-558.57 840.233 -251.095 846.454 -236.903 840.233C-222.714 834.012 1607.95 938.548 1607.95 938.548L2104.32 896.258L2117.52 579.393C2104.83 578.694 2078.94 577.168 2065 575.641Z" fill="url(#paint1_linear_75_7784)"/>
<path d="M1392.86 644.85C1393.76 644.528 1394.57 644.142 1395.31 643.704C1394.5 644.084 1393.69 644.466 1392.86 644.85Z" fill="#628899"/>
<path d="M-240.391 588.084C-240.391 588.084 -171.009 577.715 -148.933 590.158C-126.856 602.6 -130.01 606.748 -111.088 606.748C-92.1651 606.748 -82.7038 588.084 -73.2426 592.231C-63.7813 596.379 5.60117 615.043 21.3699 617.116C29.3331 618.164 47.7573 612.863 64.0401 607.357C5.57278 589.191 -78.8973 561.946 -99.7246 566.511C-126.636 572.41 -302.369 567.126 -360.839 585.122C-350.35 589.017 -337.953 592.231 -325.543 592.231C-294.005 592.231 -240.391 588.084 -240.391 588.084Z" fill="white"/>
<path d="M1541.48 631.632C1557.25 631.632 1569.86 639.927 1595.09 631.632C1612.01 626.069 1630.34 613.052 1640.58 605.076C1577.66 606.528 1481.69 604.236 1461.31 613.17C1452.38 617.083 1429.4 627.769 1401.37 640.869C1417.82 636.182 1461.31 637.373 1475.25 633.706C1491.02 629.559 1525.71 631.632 1541.48 631.632Z" fill="white"/>
</g>
<mask id="mask1_75_7784" style="mask-type:luminance" maskUnits="userSpaceOnUse" x="-458" y="-61" width="2523" height="1659">
<path d="M2065 -61H-458V1598H2065V-61Z" fill="white"/>
</mask>
<g mask="url(#mask1_75_7784)">
<path d="M-533.69 784.244C-533.69 784.244 -311.975 631.832 -212.638 628.721C-113.301 625.61 -0.0786133 709.593 103.989 706.482C208.059 703.372 388.344 635.583 447.133 643.038C505.922 650.493 859.126 753.14 937.925 753.14C1016.72 753.14 1210.64 809.127 1314.7 784.244C1418.77 759.361 1518.09 703.44 1560.66 709.628C1603.23 715.814 1792.44 768.309 1835.02 768.502C1877.59 768.693 2065.01 750.031 2065.01 750.031L2137.75 1020.64L1887.04 1194.83L-103.84 1142.83L-533.69 1061.08V784.244Z" fill="url(#paint2_linear_75_7784)"/>
</g>
<path d="M1692.86 1031.35C1692.86 1007.58 1658.26 988.317 1615.59 988.317C1612.65 988.317 1609.75 988.419 1606.89 988.597C1592.54 959.843 1540.82 938.547 1479.19 938.547C1431.17 938.547 1389.18 951.477 1366.17 970.788C1355.88 968.725 1344.61 967.58 1332.8 967.58C1286.97 967.58 1249.36 984.688 1245.39 1006.5C1245.07 1006.46 1244.75 1006.43 1244.43 1006.39C1240.36 991.799 1213.42 980.518 1180.71 980.518C1150.72 980.518 1125.6 990.01 1118.48 1002.83C1102.6 999.541 1084.23 997.651 1064.65 997.651C1015.3 997.651 973.648 1009.59 960.257 1025.95C958.087 1025.77 955.889 1025.65 953.638 1025.65C935.582 1025.65 919.921 1031.57 912.024 1040.26C910.579 1040.75 909.198 1041.27 907.883 1041.83C896.839 1038.13 884.17 1036.02 870.7 1036.02C852.967 1036.02 836.633 1039.68 823.564 1045.82C815.79 1042.16 805.38 1039.9 793.9 1039.9C785.136 1039.9 776.99 1041.22 770.162 1043.47C765.948 1042.98 761.581 1042.69 757.071 1042.69C744.774 1042.69 733.389 1044.64 724 1047.93C723.243 1047.36 722.461 1046.81 721.648 1046.29C721.84 1045.41 721.954 1044.51 721.954 1043.6C721.954 1028.48 694.519 1016.22 660.676 1016.22C640.401 1016.22 622.481 1020.64 611.326 1027.41C607.189 1019.08 594.533 1012.09 577.443 1008.21C577.856 1006.88 578.114 1005.52 578.114 1004.12C578.114 991.082 559.372 980.516 536.251 980.516C525.169 980.516 515.121 982.961 507.634 986.924C486.728 975.054 456.364 967.58 422.559 967.58C399.224 967.58 377.539 971.147 359.458 977.252C349.858 971.319 336.171 967.58 320.926 967.58C296.907 967.58 276.698 976.812 270.428 989.404C261.225 988.701 251.783 988.317 242.133 988.317C149.819 988.317 74.9839 1021.77 74.9839 1063.04C74.9839 1104.31 149.819 1137.77 242.133 1137.77C243.028 1137.77 243.911 1137.75 244.807 1137.74C264.635 1171.5 283.447 1203.47 286.285 1208.13C292.593 1218.5 579.584 1349.15 585.992 1347.08C592.401 1345 1108.54 1250.88 1116.94 1250.44C1125.33 1250 1664.47 1118.96 1664.47 1109.92C1664.47 1106.56 1647.95 1091.5 1627.17 1073.9C1664.35 1070.78 1692.86 1052.92 1692.86 1031.35Z" fill="url(#paint3_linear_75_7784)"/>
<mask id="mask2_75_7784" style="mask-type:luminance" maskUnits="userSpaceOnUse" x="-458" y="-61" width="2523" height="1659">
<path d="M2065 -61H-458V1598H2065V-61Z" fill="white"/>
</mask>
<g mask="url(#mask2_75_7784)">
<path d="M584.661 1220.2C584.661 1193.65 551.578 1172.13 510.769 1172.13C508.69 1172.13 506.637 1172.19 504.603 1172.31C492.66 1157.86 474.277 1145.9 451.854 1137.94C461.788 1132.91 468.092 1125.56 468.092 1117.34C468.092 1102.2 446.829 1089.93 420.6 1089.93C414.551 1089.93 408.789 1090.61 403.472 1091.8C385.946 1076.94 357.679 1067.09 325.552 1066.42C326.296 1063.96 326.738 1061.42 326.738 1058.82C326.738 1035.92 296.503 1017.35 259.203 1017.35C258.516 1017.35 257.851 1017.4 257.169 1017.41C252.473 1005.5 240.057 996.977 225.436 996.977C218.637 996.977 212.32 998.836 207.022 1002C187.664 994.624 165.272 990.387 141.389 990.387C133.779 990.387 126.333 990.839 119.07 991.66C99.176 977.03 67.8088 967.58 32.4963 967.58C16.2481 967.58 0.845154 969.594 -13.0029 973.177C-33.209 955.919 -65.1344 944.769 -101.078 944.769C-101.608 944.769 -102.128 944.789 -102.658 944.796C-110.123 923.498 -143.407 907.441 -183.35 907.441C-197.869 907.441 -211.5 909.571 -223.342 913.293C-239.868 891.293 -272.301 876.335 -309.616 876.335C-310.395 876.335 -311.162 876.364 -311.934 876.379C-318.276 866.733 -336.972 859.745 -359.061 859.745C-367.437 859.745 -375.315 860.757 -382.228 862.53C-418.301 842.906 -468.578 830.712 -524.229 830.712C-561.427 830.712 -596.223 836.169 -625.988 845.635C-645.481 836.301 -670.118 830.712 -696.928 830.712C-760.051 830.712 -811.22 861.607 -811.22 899.723C-811.22 927.287 -784.448 951.069 -745.755 962.126C-745.512 962.462 -745.241 962.788 -744.991 963.121V1208.13C-744.991 1208.13 100.737 1295.71 371.234 1316.19C387.429 1335.81 419.07 1349.15 455.487 1349.15C508.384 1349.15 551.266 1321.04 551.266 1286.36C551.266 1278.1 548.809 1270.23 544.391 1263C568.293 1255.04 584.661 1238.87 584.661 1220.2Z" fill="url(#paint4_linear_75_7784)"/>
</g>
<mask id="mask3_75_7784" style="mask-type:luminance" maskUnits="userSpaceOnUse" x="-458" y="-61" width="2523" height="1659">
<path d="M2065 -61H-458V1598H2065V-61Z" fill="white"/>
</mask>
<g mask="url(#mask3_75_7784)">
<path d="M2066.49 1036.45C2082.65 1032.94 2093.68 1025.99 2093.68 1017.98C2093.68 1006.44 2070.88 997.09 2042.71 997.09C2040.27 997.09 2037.87 997.185 2035.52 997.322C2035.52 997.243 2035.54 997.168 2035.54 997.09C2035.54 984.825 2015.4 974.884 1990.55 974.884C1968.24 974.884 1949.77 982.913 1946.23 993.433C1943.67 993.247 1941.07 993.122 1938.41 993.122C1917.29 993.122 1899.09 999.165 1890.46 1007.91C1874.55 998.923 1849.43 993.122 1821.16 993.122C1786.66 993.122 1756.83 1001.76 1742.73 1014.29C1729.98 1009.31 1711.26 1006.15 1690.38 1006.15C1676.46 1006.15 1663.51 1007.55 1652.63 1009.96C1644.51 1007.56 1634.84 1006.15 1624.45 1006.15C1610.54 1006.15 1597.94 1008.66 1588.6 1012.73C1575.01 1008.6 1558.07 1006.15 1539.71 1006.15C1508.29 1006.15 1481.06 1013.32 1467.59 1023.81C1452.26 1013.17 1425.99 1006.15 1396.14 1006.15C1356.93 1006.15 1323.9 1018.26 1313.75 1034.78C1300.27 1037.2 1288.81 1042.2 1281.13 1048.75C1277.88 1048.17 1274.48 1047.84 1270.96 1047.84C1264.65 1047.84 1258.7 1048.85 1253.41 1050.62C1245.41 1048.87 1236 1047.84 1225.9 1047.84C1215.12 1047.84 1205.12 1048.99 1196.79 1050.96C1189.68 1048.96 1181.84 1047.84 1173.57 1047.84C1149.07 1047.84 1128.17 1057.59 1119.75 1071.33C1118.41 1071.3 1117.08 1071.29 1115.73 1071.29C1067.2 1071.29 1027.86 1089.86 1027.86 1112.77C1027.86 1121.07 1033.04 1128.83 1041.92 1135.32C1024.51 1136.9 1011.03 1143.85 1009 1152.14C1008.91 1152.14 1008.82 1152.14 1008.72 1152.14C951.783 1152.14 905.628 1176.6 905.628 1206.81C905.628 1237.03 951.783 1261.51 1008.72 1261.51C1025.01 1261.51 1040.42 1259.48 1054.12 1255.91L1087.55 1289.77C1087.55 1289.77 2079.81 1183.32 2093.68 1172.9C2104.79 1164.56 2077.73 1072.76 2066.49 1036.45Z" fill="url(#paint5_linear_75_7784)"/>
</g>
<mask id="mask4_75_7784" style="mask-type:luminance" maskUnits="userSpaceOnUse" x="-458" y="-61" width="2523" height="1659">
<path d="M2065 -61H-458V1598H2065V-61Z" fill="white"/>
</mask>
<g mask="url(#mask4_75_7784)">
<path d="M-16.1661 1614.59C154.127 1434.17 669.74 1334.72 745.588 1312.95C821.435 1291.18 806.483 1269.44 806.483 1269.44C806.483 1269.44 -16.1661 917.899 -910.207 983.218L-957.513 1614.59H-16.1661Z" fill="url(#paint6_linear_75_7784)"/>
</g>
<path d="M412.435 662.739C412.435 662.739 453.434 656.518 475.51 662.739C490.351 666.922 606.39 694.533 685.647 717.224C724.284 728.286 754.178 738.178 759.347 743.615C759.347 743.615 529.124 684.859 529.124 701.794C529.124 718.728 554.354 733.246 554.354 743.615C554.354 753.984 516.509 722.878 503.894 718.73C491.279 714.583 466.049 714.583 443.972 729.099C421.896 743.615 349.36 737.394 365.129 729.099C380.897 720.804 399.82 693.845 399.82 693.845L317.822 687.624L412.435 662.739Z" fill="#65A499"/>
<path d="M1573.01 727.025C1573.01 727.025 1538.32 714.582 1525.71 727.025C1513.09 739.467 1396.4 753.984 1402.71 768.5C1409.02 783.016 1453.17 768.5 1453.17 768.5L1506.79 748.223C1506.79 748.223 1503.63 762.279 1509.94 768.5C1516.25 774.721 1550.94 748.223 1550.94 748.223C1550.94 748.223 1601.4 740.388 1610.86 748.223C1620.32 756.057 1573.01 727.025 1573.01 727.025Z" fill="#65A499"/>
<path d="M1893.16 289.464C1875.89 253.669 1789.69 226.451 1685.87 226.451C1646.79 226.451 1610.22 230.32 1578.85 237.039C1571.34 168.531 1484.5 114.474 1378.4 114.474C1293.71 114.474 1221.3 148.926 1191.69 197.663C1182.51 196.164 1172.96 195.347 1163.11 195.347C1111.49 195.347 1067.34 217.191 1049.12 248.138C1039.36 247.184 1029.24 246.67 1018.86 246.67C957.1 246.67 904.429 264.461 883.857 289.464H1893.16Z" fill="white"/>
<path opacity="0.8" d="M453.244 376.561C442.711 353.75 410.899 338.027 373.284 338.027C361 338.027 349.347 339.688 338.842 342.782C321.449 313.463 276.508 292.539 223.787 292.539C196.148 292.539 170.643 298.263 150.128 307.949C127.118 274.715 77.2291 251.674 19.3578 251.674C-30.6733 251.674 -74.747 268.882 -100.642 295.017C-110.987 293.383 -121.836 292.504 -133.031 292.504C-203.534 292.504 -260.689 327.189 -260.689 369.79C-260.689 372.024 -260.497 374.49 -260.188 376.563H453.244V376.561Z" fill="white"/>
<path opacity="0.7" d="M1440.08 683.476C1430.73 660.501 1389.55 643.192 1340.15 643.192C1322.16 643.192 1305.27 645.496 1290.6 649.525C1274.78 622.209 1234.6 602.793 1187.51 602.793C1143.81 602.793 1106.06 619.505 1088.2 643.737C1084.62 643.38 1080.95 643.194 1077.22 643.194C1040.97 643.194 1010.93 660.655 1005.48 683.478H1440.08V683.476Z" fill="white"/>
<path d="M1402 543.367C1403.4 542.268 1404.94 541.281 1406.56 540.329C1408.19 539.386 1409.9 538.478 1411.76 537.692C1412.68 537.277 1413.62 536.885 1414.63 536.549C1415.62 536.19 1416.61 535.825 1417.69 535.56C1418.77 535.286 1419.81 534.934 1420.97 534.763C1422.11 534.581 1423.24 534.301 1424.44 534.206C1425.65 534.112 1426.87 534.004 1428.1 533.944L1431.87 534.079C1433.14 534.148 1434.34 534.423 1435.61 534.608C1436.89 534.772 1438.04 535.124 1439.19 535.483C1440.31 535.863 1441.62 536.136 1442.59 536.64L1445.67 538.067C1446.78 538.527 1447.51 539.133 1448.43 539.678L1451.25 541.385L1440.56 542.231V542.227C1440.56 541.435 1441.54 540.979 1442.16 540.408C1442.76 539.879 1443.28 539.357 1443.94 538.867C1444.58 538.364 1445.24 537.899 1445.94 537.437C1446.61 536.962 1447.41 536.553 1448.15 536.12C1448.88 535.688 1449.75 535.325 1450.55 534.94C1451.35 534.548 1452.3 534.257 1453.15 533.926C1454 533.579 1455.01 533.372 1455.93 533.115C1456.84 532.841 1457.85 532.692 1458.83 532.54C1459.8 532.366 1460.78 532.242 1461.79 532.223C1462.78 532.2 1463.76 532.061 1464.74 532.159L1467.62 532.339C1468.56 532.453 1469.46 532.642 1470.36 532.795C1471.27 532.934 1472.14 533.125 1472.96 533.397L1475.43 534.127C1476.24 534.378 1476.95 534.732 1477.71 535.029L1479.92 535.952C1480.39 536.149 1480.53 536.561 1480.23 536.872C1479.98 537.134 1479.5 537.24 1479.07 537.15L1478.94 537.123L1476.59 536.638C1475.8 536.493 1475.05 536.286 1474.26 536.194L1471.91 535.943C1471.14 535.831 1470.37 535.804 1469.6 535.827C1468.83 535.838 1468.08 535.807 1467.34 535.844L1465.18 536.091C1464.47 536.128 1463.82 536.385 1463.15 536.507C1462.49 536.63 1461.86 536.839 1461.27 537.078C1460.67 537.296 1460.07 537.488 1459.54 537.795C1459 538.088 1458.43 538.295 1457.96 538.65C1457.48 538.988 1456.96 539.247 1456.53 539.622C1456.11 539.993 1455.64 540.302 1455.26 540.699C1454.89 541.095 1454.46 541.435 1454.13 541.858C1453.79 542.262 1453.44 542.652 1453.15 543.079C1452.83 543.488 1452.58 543.915 1452.32 544.334C1452.11 544.726 1451.83 545.242 1451.8 545.46H1451.79L1449.04 547.032C1446.76 548.332 1443.31 548.17 1441.33 546.673C1441.18 546.559 1441.03 546.426 1440.91 546.306L1439.47 544.877C1438.96 544.423 1438.56 543.832 1437.96 543.484L1436.25 542.252C1435.72 541.777 1434.99 541.584 1434.36 541.215C1433.71 540.875 1433.06 540.514 1432.31 540.329C1431.57 540.12 1430.87 539.788 1430.07 539.639L1427.63 539.185L1425.03 539.006C1424.15 538.938 1423.23 539.048 1422.32 539.052C1421.39 539.042 1420.48 539.222 1419.54 539.315C1418.59 539.398 1417.67 539.589 1416.74 539.774C1415.8 539.935 1414.87 540.157 1413.96 540.408C1412.1 540.862 1410.29 541.466 1408.52 542.117C1406.76 542.774 1405.02 543.502 1403.43 544.321C1402.98 544.554 1402.34 544.506 1401.99 544.218C1401.68 543.969 1401.7 543.608 1402 543.367Z" fill="#628899"/>
</g>
<defs>
<linearGradient id="paint0_linear_75_7784" x1="803.5" y1="-61" x2="803.5" y2="1347.08" gradientUnits="userSpaceOnUse">
<stop stop-color="#D6FFFF"/>
<stop offset="0.9968" stop-color="#54EEF1"/>
</linearGradient>
<linearGradient id="paint1_linear_75_7784" x1="779.472" y1="553.168" x2="779.472" y2="938.547" gradientUnits="userSpaceOnUse">
<stop stop-color="#628899"/>
<stop offset="1" stop-color="#2B7D99"/>
</linearGradient>
<linearGradient id="paint2_linear_75_7784" x1="802.032" y1="628.636" x2="802.032" y2="1194.83" gradientUnits="userSpaceOnUse">
<stop stop-color="#659999"/>
<stop offset="1" stop-color="#369999"/>
</linearGradient>
<linearGradient id="paint3_linear_75_7784" x1="883.921" y1="938.547" x2="883.921" y2="1347.1" gradientUnits="userSpaceOnUse">
<stop stop-color="#209464"/>
<stop offset="0.9996" stop-color="#206964"/>
</linearGradient>
<linearGradient id="paint4_linear_75_7784" x1="-113.279" y1="830.712" x2="-113.279" y2="1349.15" gradientUnits="userSpaceOnUse">
<stop offset="0.00039063" stop-color="#007237"/>
<stop offset="0.9993" stop-color="#006837"/>
</linearGradient>
<linearGradient id="paint5_linear_75_7784" x1="1500.96" y1="974.883" x2="1500.96" y2="1289.77" gradientUnits="userSpaceOnUse">
<stop offset="0.00039063" stop-color="#007237"/>
<stop offset="0.9993" stop-color="#006837"/>
</linearGradient>
<linearGradient id="paint6_linear_75_7784" x1="-74.9176" y1="975.127" x2="-74.9176" y2="1614.59" gradientUnits="userSpaceOnUse">
<stop offset="0.0065" stop-color="#77AF45"/>
<stop offset="1" stop-color="#5AAF45"/>
</linearGradient>
<clipPath id="clip0_75_7784">
<rect width="2523" height="1659" fill="white" transform="translate(-458 -61)"/>
</clipPath>
</defs>
</svg>
