<svg width="163" height="123" viewBox="0 0 163 123" fill="none" xmlns="http://www.w3.org/2000/svg">
<path d="M73 28L79 24L83 10L75.5 3.5L68.5 5L63 17.5L73 28Z" fill="#FFCEB6"/>
<path d="M71 39V34C71.6667 33 73.7 31.2 76.5 32C79.3 32.8 80.3333 37.3334 80.5 39.5L73 44.5L71 39Z" fill="#FFCEB6"/>
<path d="M91.7585 43.559C91.0012 39.7609 89.9705 36.0225 88.6743 32.373C88.5474 32.0205 87.9787 32.1719 88.1047 32.5272C89.619 36.7948 92.0188 44.8656 91.6494 49.3654C91.5404 50.4888 91.1701 51.5712 90.5681 52.526C89.9662 53.4808 89.1493 54.2816 88.1827 54.8644C86.9941 55.5947 85.6914 56.1203 84.3287 56.4192C84.2135 56.4539 84.096 56.4806 83.9772 56.4991C83.6012 56.5564 83.7619 57.1251 84.1341 57.0678C85.8602 56.7634 87.4974 56.0806 88.9281 55.0684C89.6848 57.8959 88.8341 60.4997 88.0351 61.2479C87.0538 62.1616 83.2947 62.7294 81.9637 62.9146C76.203 63.6818 70.3747 63.8041 64.5868 63.2793C63.0005 63.1741 61.4445 62.794 59.9884 62.156C59.5733 61.8707 59.2243 61.4997 58.9649 61.068C58.7054 60.6363 58.5416 60.1541 58.4844 59.6537C57.9128 56.7397 59.1301 52.2728 60.1764 49.5017C64.6761 49.5073 70.1714 46.8274 73.6127 44.1803C73.9611 44.0564 74.2939 43.8924 74.6044 43.6915C75.459 43.2168 76.2713 42.6696 77.0324 42.056L80.5847 41.6621C80.6624 41.6607 80.7365 41.6292 80.7915 41.5744C80.8465 41.5195 80.8782 41.4455 80.8799 41.3679C80.815 39.9579 80.3384 29.4365 80.3159 28.9185C80.3146 28.8407 80.2831 28.7664 80.228 28.7115C80.1729 28.6565 80.0985 28.6253 80.0207 28.6243L72.7178 28.8123C72.6399 28.8133 72.5654 28.8447 72.5102 28.8998C72.4551 28.955 72.4237 29.0295 72.4227 29.1075C72.4603 30.6115 72.4973 32.1176 72.5336 33.626C72.3962 33.3633 72.165 33.162 71.8859 33.062C70.5417 32.6625 70.4759 35.2419 70.4872 36.6481C68.0366 37.0354 65.6175 37.6009 63.2492 38.3401C63.2462 34.805 62.7769 31.2856 61.8533 27.8732C61.8304 27.8002 61.7801 27.7389 61.7129 27.7023C61.6457 27.6657 61.5669 27.6567 61.4931 27.677C61.4194 27.6974 61.3564 27.7456 61.3175 27.8115C61.2786 27.8774 61.2668 27.9558 61.2846 28.0302C62.2124 31.4538 62.6756 34.9867 62.6617 38.5338C61.6307 38.855 60.6351 39.2805 59.6904 39.8037C59.6243 39.844 59.5767 39.9086 59.5578 39.9836C59.5389 40.0586 59.5502 40.138 59.5892 40.2047C59.6283 40.2715 59.692 40.3203 59.7666 40.3406C59.8413 40.3608 59.9209 40.351 59.9884 40.3132C62.5264 38.8355 67.6249 37.7489 70.5079 37.2413V37.2544C70.8519 39.2284 71.6425 42.4479 73.0233 43.8795C72.9293 43.9585 72.3653 44.3439 72.1021 44.5216C68.564 46.8885 63.9241 49.0815 59.6678 48.886C58.5495 48.9036 57.4567 48.5513 56.5592 47.8839C54.2092 45.9278 54.1585 41.6236 54.5166 38.578C54.7018 36.4677 55.2457 34.4046 56.125 32.4774C56.3064 32.1446 55.7978 31.8466 55.6155 32.1794C54.3108 34.5735 53.0775 40.8791 54.2055 45.0113C54.8108 47.2203 56.1033 48.9189 58.3546 49.3353C58.7498 49.4075 59.1492 49.4549 59.5503 49.4773C58.146 53.1498 56.2603 60.6708 59.6584 62.6466C64.224 65.3162 86.1044 64.2165 88.507 61.5948C89.2212 60.6337 89.6476 59.4895 89.7365 58.2954C89.8531 57.0777 89.7461 55.849 89.4207 54.6698C92.8968 51.7821 92.596 48.1133 91.7585 43.559ZM79.7368 29.2203L80.2754 41.1056L77.823 41.3773C78.2318 41.0303 78.583 40.6207 78.8636 40.1637C79.2396 39.5001 78.9209 38.813 78.0176 38.8477C78.5816 38.2292 79.4135 37.1839 78.7808 36.6763C78.3597 36.3379 77.6162 36.4883 77.0512 36.6133C77.493 36.0437 78.0852 35.2034 77.6688 34.613C77.3389 34.143 76.6264 34.2549 76.1441 34.3508C75.1193 34.5991 74.122 34.9496 73.1672 35.397L73.0196 29.3942L79.7368 29.2203ZM71.0888 37.1529C71.0297 36.2962 71.0688 35.4355 71.2054 34.5876C71.5551 32.67 72.2704 33.924 72.5834 35.663C72.5834 35.663 72.6191 35.8726 72.6248 35.9149C72.653 36.1123 72.8993 36.1659 73.0581 36.0907C73.8953 35.6907 74.7617 35.3548 75.6497 35.0859C76.1073 34.8883 76.6111 34.8232 77.1039 34.8979C77.1979 34.9336 77.2308 35.0398 77.1979 35.1968C76.9146 35.8725 76.4891 36.4794 75.9505 36.9762C75.7512 37.1736 75.9505 37.5712 76.2372 37.4688C76.8668 37.2227 77.5353 37.0909 78.2112 37.0796C78.2843 37.0871 78.3551 37.1088 78.4199 37.1435V37.1604C78.4199 37.1943 78.4199 37.1924 78.4077 37.2366C78.2105 37.7281 77.8996 38.1659 77.5006 38.514C77.2543 38.7791 76.9977 39.0376 76.7298 39.282C76.4619 39.5264 76.7993 39.8977 77.0879 39.7454C77.4041 39.5566 77.764 39.4529 78.1322 39.4446C78.2213 39.4427 78.3087 39.4687 78.3823 39.5189C78.4575 39.5762 78.4443 39.596 78.4434 39.6355C78.4434 39.5979 78.4171 39.7295 78.4039 39.7652C77.92 40.4976 77.3072 41.1362 76.5953 41.6499C75.6536 42.4074 74.6252 43.0505 73.5319 43.5656C73.3592 43.4009 73.2062 43.2166 73.076 43.0166C72.0369 41.2105 71.363 39.2185 71.0888 37.1529Z" fill="black"/>
<path d="M81.3367 12.5098C79.9145 8.45186 76.3547 4.07428 72.9331 4.07898C68.0366 4.07898 63.7925 13.8907 64.1629 15.3693C64.3349 16.0555 65.9583 17.772 66.4612 18.3087C66.1557 16.6571 64.2626 15.5968 65.8493 14.8025C69.1609 13.1547 67.7039 10.3638 68.0169 10.0875C68.4929 10.1852 68.9791 10.2235 69.4645 10.2012C70.9074 9.99534 70.71 8.59192 71.2881 7.05126C71.5475 6.35754 71.6585 6.48726 72.0401 6.96666C72.3052 7.29566 72.6351 7.70456 73.0967 7.70456C73.4178 7.70136 73.7381 7.67212 74.0545 7.61714C74.0558 7.96954 74.1562 8.31447 74.3441 8.6126C74.4982 8.92781 74.7578 9.17919 75.0778 9.32322C75.3978 9.46724 75.758 9.49485 76.0962 9.40126C76.5549 9.33076 76.8868 9.28 77.2195 9.94552C77.9715 11.4495 77.4075 12.1244 78.6699 12.1244C79.8336 12.1244 79.9361 11.2249 80.6693 14.1492C80.8479 14.8636 81.2032 15.7218 81.9411 15.7669C81.9429 14.6532 81.7379 13.5488 81.3367 12.5098Z" fill="#FFD35C"/>
<path d="M64.5448 67.4266L64.5448 67.4266C64.0995 68.2373 63.4985 68.9521 62.7761 69.5298C62.1422 70.0367 61.4258 70.4294 60.6592 70.691C59.7938 78.755 59.0122 87.3744 58.5946 95.4091L58.5941 95.4184L58.5932 95.4276C58.3221 98.4593 58.2819 101.507 58.473 104.545L58.4734 104.551C58.5317 105.726 58.9467 106.854 59.6629 107.786C60.3867 108.67 61.3819 109.29 62.4942 109.551C63.6053 109.812 64.7712 109.699 65.8117 109.23C66.3055 108.979 66.5857 108.683 66.7732 108.328C66.9724 107.952 67.0828 107.483 67.1838 106.849L67.1838 106.848C67.3215 105.986 67.8178 102.97 68.477 98.9646C70.0899 89.1641 72.6779 73.4382 73.3731 68.8269C73.407 68.601 73.5317 68.4095 73.7229 68.2956C73.9 68.1902 74.0943 68.174 74.2539 68.1997C74.5501 68.2474 74.939 68.4957 74.9474 68.9706L74.9474 68.9722C75.1778 84.9775 75.5505 92.1165 75.8603 98.052C75.9993 100.715 76.1257 103.135 76.2209 106.005M64.5448 67.4266L75.7212 106.022M64.5448 67.4266L64.5476 67.4214C64.7866 66.9737 64.9796 66.5034 65.1239 66.0176L83.5162 65.525C83.7796 66.5043 84.15 67.5575 84.6901 68.4717C85.2386 69.4001 85.9848 70.2219 87.0047 70.6494M64.5448 67.4266L87.0047 70.6494M76.2209 106.005C76.2209 106.005 76.2209 106.005 76.2209 106.005L75.7212 106.022M76.2209 106.005C76.2209 106.005 76.2209 106.005 76.2209 106.005L75.7212 106.022M76.2209 106.005C76.2379 106.495 76.2834 106.99 76.4217 107.419C76.5536 107.829 76.7598 108.149 77.0811 108.357M75.7212 106.022C75.756 107.026 75.9092 108.225 76.8492 108.802M77.0811 108.357C77.0692 108.352 77.0573 108.347 77.0453 108.342L76.8492 108.802M77.0811 108.357C77.9057 108.702 78.7963 108.862 79.6899 108.826L79.7002 108.825H79.7105C81.1219 108.825 82.5824 108.506 83.3433 107.595L83.3436 107.594C83.6179 107.266 83.8213 106.73 83.9801 106.07C84.0948 105.594 84.1758 105.104 84.253 104.637C84.2818 104.463 84.31 104.292 84.3393 104.127L84.3393 104.126C85.0305 100.221 85.374 96.0582 85.7032 92.0628L85.7067 92.021L85.7067 92.0205C85.9726 88.8353 86.7967 75.0655 87.0047 70.6494M77.0811 108.357C77.0908 108.363 77.1006 108.369 77.1105 108.375L76.8492 108.802M76.8492 108.802L87.0047 70.6494" fill="#FF8684" stroke="#FF8684"/>
<path d="M60.528 64.784C60.4754 65.2399 60.1069 68.5186 59.9791 69.702C60.9336 69.384 61.7913 68.8281 62.4713 68.0867C63.1514 67.3453 63.6314 66.4429 63.866 65.4645C64.054 65.4993 64.2504 65.5284 64.4497 65.5585C64.3099 66.1357 64.0977 66.6928 63.818 67.2167C63.4045 67.9697 62.8462 68.6335 62.1753 69.1701C61.5044 69.7066 60.734 70.1053 59.9086 70.3431C59.0287 78.5051 58.2307 87.2584 57.8067 95.4139C57.5333 98.4708 57.4927 101.544 57.6855 104.607C57.749 105.885 58.2016 107.114 58.9827 108.127C59.7765 109.1 60.8695 109.782 62.0915 110.069C63.3135 110.355 64.596 110.23 65.7394 109.712C66.9097 109.12 67.1851 108.238 67.3891 106.958C67.8619 103.994 72.5995 75.4295 73.579 68.9322C73.6297 68.5919 74.1533 68.6915 74.159 69.0102C74.4927 92.1962 75.1262 96.8135 75.4327 106.053C75.4674 107.057 75.6207 108.256 76.5607 108.832C77.4636 109.218 78.4412 109.396 79.422 109.356C80.8612 109.356 82.5259 109.039 83.4386 107.946C84.1436 107.103 84.3363 105.415 84.5431 104.244C85.2416 100.298 85.5865 96.0963 85.9165 92.0928C86.191 88.8047 87.0567 74.2986 87.2325 70.3356C85.1335 69.6955 84.1371 67.1725 83.6125 65.0453L84.1888 64.9297C84.6136 66.7363 85.5189 69.0769 87.2588 69.7237C87.3403 67.8706 87.4148 66.0179 87.4825 64.1654C87.6799 64.1137 87.8792 64.0592 88.0785 64C87.6611 74.7404 86.801 94.4466 84.9925 105.102C84.9193 106.361 84.4598 107.566 83.6765 108.554C82.3012 109.93 79.7943 110.114 77.871 109.832C77.3637 109.811 76.869 109.667 76.4291 109.413C75.9893 109.16 75.6174 108.803 75.3452 108.375C74.8788 107.189 74.69 105.913 74.7935 104.644C74.5124 97.1049 73.829 90.7333 73.5 71.5C72.5365 77.8196 69.552 98.1117 68.9655 101.425C68.691 102.978 68.3507 104.523 68.1101 106.08C68.0656 107.205 67.7509 108.304 67.1926 109.282C66.0862 110.778 62.878 111.435 60.3522 110.034C59.2615 109.423 58.3748 108.505 57.803 107.393C57.2532 106.118 56.98 104.74 57.0011 103.351" stroke="#FF8684"/>
<path d="M77.823 41.3772L80.2755 41.1056L79.7368 29.2202L73.0168 29.3969C73.0168 29.5746 73.155 35.0191 73.1644 35.3998C74.1192 34.9522 75.1165 34.6017 76.1413 34.3536C76.6236 34.2596 77.3361 34.1411 77.666 34.6158C78.0787 35.2071 77.4912 36.0456 77.0484 36.6161C77.6012 36.4911 78.3541 36.3341 78.778 36.6791C79.4125 37.1877 78.5797 38.2367 78.0148 38.8505C78.9209 38.8129 79.2368 39.5001 78.8608 40.1665C78.581 40.6224 78.2308 41.0311 77.823 41.3772ZM78.481 30.8398C78.405 30.8397 78.3308 30.8169 78.2677 30.7746C78.2046 30.7322 78.1554 30.6721 78.1265 30.6019C78.0975 30.5316 78.09 30.4543 78.105 30.3798C78.1199 30.3053 78.1566 30.2369 78.2104 30.1832C78.2642 30.1295 78.3327 30.093 78.4073 30.0782C78.4818 30.0635 78.5591 30.0711 78.6293 30.1003C78.6995 30.1294 78.7595 30.1787 78.8017 30.2419C78.8439 30.3051 78.8664 30.3794 78.8664 30.4554C78.8664 30.506 78.8564 30.5562 78.837 30.6029C78.8175 30.6497 78.789 30.6922 78.7531 30.7279C78.7172 30.7636 78.6746 30.7919 78.6278 30.8111C78.5809 30.8303 78.5317 30.8401 78.481 30.8398Z" fill="#FF8684"/>
<path d="M55.921 32.8957C56.6232 33.016 59.0173 33.407 62.3825 33.7417C62.1835 31.812 61.8161 29.9034 61.2846 28.0377C61.2668 27.9633 61.2786 27.8849 61.3175 27.819C61.3564 27.7531 61.4194 27.7049 61.4932 27.6845C61.5669 27.6642 61.6457 27.6733 61.7129 27.7099C61.7801 27.7465 61.8304 27.8077 61.8533 27.8808C62.3815 29.8227 62.7586 31.8026 62.9813 33.8028C65.2176 34.0124 67.8392 34.1891 70.6545 34.2474C70.82 33.5057 71.1593 32.8599 71.8765 33.0733C72.1556 33.1733 72.3868 33.3746 72.5242 33.6373L72.4133 29.1187C72.4145 29.0408 72.446 28.9665 72.5011 28.9114C72.5562 28.8563 72.6305 28.8248 72.7084 28.8236L80.0113 28.6356C80.0891 28.6365 80.1635 28.6678 80.2186 28.7228C80.2737 28.7777 80.3052 28.852 80.3065 28.9298L80.5311 33.8817C81.3379 33.7956 82.1429 33.6947 82.946 33.579C82.7993 31.6379 82.6922 29.4186 82.7242 27.4766C82.7284 27.4013 82.7613 27.3305 82.8161 27.2787C82.8709 27.2269 82.9434 27.198 83.0188 27.198C83.0942 27.198 83.1668 27.2269 83.2216 27.2787C83.2764 27.3305 83.3093 27.4013 83.3135 27.4766C83.2938 28.7775 83.3493 31.2083 83.5279 33.4925C85.0665 33.2539 86.5919 32.9367 88.0981 32.5422C88.0834 32.5014 88.079 32.4576 88.0852 32.4146C88.0915 32.3717 88.1082 32.3309 88.134 32.296C88.1597 32.261 88.1937 32.233 88.2328 32.2143C88.272 32.1956 88.3151 32.1868 88.3585 32.1888C88.2166 30.853 87.2888 24.9912 81.9016 22.3244C84.5806 19.8804 87.0547 16.5904 86.4494 13.463C85.296 7.50531 77.9894 0.397031 73.5714 0.0106913C69.1534 -0.375649 59.1659 9.79609 59.743 16.33C59.9752 18.962 61.9783 21.0874 64.3406 22.6835C64.3406 22.6835 58.7532 23.7579 55.9605 32.0591C56.0015 32.0726 56.039 32.095 56.0703 32.1247C56.1017 32.1544 56.1262 32.1906 56.1419 32.2308C56.1577 32.271 56.1645 32.3142 56.1617 32.3573C56.1589 32.4004 56.1467 32.4423 56.1259 32.4802C56.0523 32.616 55.984 32.7546 55.921 32.8957ZM64.1629 15.3694C63.8001 13.918 67.9972 4.08183 72.9331 4.07901C73.5627 4.09129 74.1826 4.23674 74.752 4.50577C77.8408 5.80579 80.2303 9.35523 81.332 12.5099C81.7341 13.5487 81.94 14.6531 81.9392 15.767C81.7005 15.7298 81.4772 15.6256 81.2953 15.4665C81.1135 15.3074 80.9805 15.1 80.9118 14.8683L80.847 15.1231C80.8292 15.8732 80.7178 16.6181 80.5151 17.3405C79.9511 19.1961 79.06 20.2047 76.365 20.889C76.3145 21.6299 76.4452 22.372 76.7457 23.051C75.9063 23.9694 75.3047 24.5908 75.3047 24.5908C75.1486 24.7156 75.033 24.884 74.9728 25.0746C74.9125 25.2653 74.9103 25.4695 74.9663 25.6614L73.2095 25.5176C73.1619 25.1699 73.0068 24.8458 72.7658 24.5908C72.606 24.3934 71.9809 23.7842 71.1358 22.9655C71.3369 22.3433 71.4217 21.6895 71.3859 21.0366C68.2134 20.3006 67.0713 17.7175 66.3916 14.4914C66.216 14.6032 66.0346 14.7058 65.8483 14.7988C64.2607 15.594 66.1529 16.6478 66.4603 18.305C65.9705 17.7842 64.3359 16.0546 64.1629 15.3694ZM82.7834 48.4245C76.8798 48.4694 70.9838 48.8542 65.1245 49.5769C64.9365 57.2642 64.1638 58.0369 64.1638 58.0369C71.0813 61.6879 84.5957 58.0369 84.5957 58.0369L84.4265 57.0189C84.3278 57.0367 84.23 57.0574 84.1323 57.0715C83.7563 57.1289 83.6012 56.5602 83.9753 56.5028C84.0942 56.4843 84.2116 56.4576 84.3268 56.4229L83.0738 48.8926C83.0194 48.898 82.9644 48.8886 82.9148 48.8655C82.8652 48.8424 82.8227 48.8064 82.7918 48.7612C82.7609 48.7161 82.7426 48.6634 82.739 48.6088C82.7354 48.5542 82.7465 48.4996 82.7711 48.4508L82.7834 48.4245ZM88.429 61.6756C87.5163 62.5216 84.8213 63.048 83.5833 63.2605C78.3945 64.1507 69.1778 64.615 63.2558 63.6919C62.0982 63.5651 60.9676 63.2571 59.9056 62.7792L59.7675 64.4712C61.2093 64.8882 62.6762 65.2135 64.1591 65.445C72.3403 66.682 80.6915 66.1541 88.6518 63.8969L88.429 61.6756Z" fill="#7D4AB4"/>
<path d="M68.548 19.4601C70.3989 21.5281 73.9511 21.5648 76.6367 20.8231C79.2574 20.0918 80.7577 18.9027 80.8667 14.7545C80.6787 14.2845 80.6336 13.9038 80.3967 13.1283C80.3623 13.1541 80.3346 13.1879 80.316 13.2266C80.2973 13.2654 80.2883 13.3081 80.2895 13.3511C80.339 14.4901 80.264 15.6311 80.0658 16.7539C79.9665 17.5715 79.6112 18.3367 79.0507 18.9401C78.4901 19.5436 77.7531 19.9542 76.945 20.1134C74.5762 20.8955 71.0569 21.0638 69.2295 19.3163C67.8768 18.021 67.2846 15.9699 66.9152 14.1144C66.7509 14.2535 66.5769 14.3807 66.3945 14.4951C66.6671 16.3095 67.4095 18.0212 68.548 19.4601Z" fill="black"/>
<path d="M70.0248 12.8708C69.9295 12.8706 69.8364 12.8987 69.7571 12.9515C69.6778 13.0042 69.616 13.0793 69.5794 13.1673C69.5429 13.2552 69.5332 13.352 69.5517 13.4454C69.5701 13.5388 69.6159 13.6247 69.6832 13.6921C69.7504 13.7595 69.8362 13.8054 69.9296 13.8241C70.023 13.8427 70.1198 13.8332 70.2078 13.7968C70.2958 13.7604 70.371 13.6987 70.4239 13.6196C70.4768 13.5404 70.5051 13.4473 70.5051 13.3521C70.5052 13.2889 70.4929 13.2264 70.4688 13.168C70.4447 13.1096 70.4093 13.0565 70.3647 13.0118C70.3201 12.9671 70.2671 12.9317 70.2088 12.9075C70.1504 12.8833 70.0879 12.8708 70.0248 12.8708ZM77.7121 13.2553C77.8071 13.2553 77.8999 13.2271 77.9789 13.1743C78.0579 13.1215 78.1195 13.0465 78.1559 12.9588C78.1922 12.871 78.2017 12.7744 78.1832 12.6812C78.1647 12.588 78.1189 12.5025 78.0517 12.4353C77.9845 12.3681 77.899 12.3224 77.8058 12.3038C77.7126 12.2853 77.616 12.2948 77.5283 12.3312C77.4405 12.3675 77.3655 12.4291 77.3127 12.5081C77.2599 12.5871 77.2317 12.6799 77.2317 12.7749C77.2317 12.9023 77.2823 13.0245 77.3724 13.1146C77.4625 13.2047 77.5847 13.2553 77.7121 13.2553ZM68.6025 12.413C68.733 12.1165 68.9399 11.8599 69.202 11.6695C69.464 11.4791 69.772 11.3617 70.0943 11.3292C70.1726 11.3292 70.2477 11.2981 70.303 11.2428C70.3584 11.1874 70.3895 11.1123 70.3895 11.0341C70.3895 10.9558 70.3584 10.8807 70.303 10.8253C70.2477 10.77 70.1726 10.7389 70.0943 10.7389C69.6695 10.773 69.261 10.9181 68.9098 11.1596C68.5586 11.4011 68.277 11.7306 68.0931 12.1151C68.0552 12.1825 68.0454 12.2621 68.0657 12.3368C68.086 12.4114 68.1347 12.4751 68.2015 12.5142C68.2683 12.5532 68.3477 12.5645 68.4227 12.5456C68.4977 12.5267 68.5623 12.4791 68.6025 12.413ZM64.7786 112.196C61.7828 112.887 52.4815 115.176 52.0172 117.066C51.4626 119.322 64.5135 118.595 66.7197 116.419C68.1354 115.021 67.311 113.591 66.5411 112.747C66.3224 112.507 66.0439 112.33 65.7343 112.233C65.4246 112.136 65.0949 112.124 64.7786 112.196ZM78.7338 111.92C78.4227 111.828 78.0927 111.82 77.7777 111.898C77.4627 111.975 77.174 112.135 76.9413 112.361C76.1216 113.157 75.2107 114.534 76.5408 116.016C78.6088 118.324 91.5921 119.841 91.1757 117.556C90.8279 115.641 81.6826 112.79 78.7338 111.92ZM74.3478 18.7552C74.7223 18.7774 75.0972 18.7192 75.4474 18.5847C75.7976 18.4501 76.1149 18.2422 76.3782 17.975C76.6659 17.6154 76.8734 17.1985 76.9869 16.7522C77.1004 16.3059 77.1172 15.8405 77.0362 15.3872C77.0154 15.3118 76.9654 15.2478 76.8974 15.2092C76.8294 15.1706 76.7488 15.1606 76.6734 15.1813C75.1762 15.7904 73.5596 16.0496 71.9471 15.939C71.9011 15.9379 71.8555 15.9477 71.8141 15.9678C71.7728 15.9879 71.7368 16.0175 71.7092 16.0543C71.6816 16.0911 71.6632 16.134 71.6555 16.1793C71.6478 16.2246 71.6511 16.2712 71.6651 16.315C71.7965 16.9533 72.127 17.5334 72.6091 17.9719C73.0912 18.4104 73.7 18.6847 74.3478 18.7552ZM76.4863 15.8816C76.5305 18.7016 73.2743 18.9075 72.3503 16.5472C73.757 16.5655 75.1564 16.3404 76.4863 15.8816ZM78.4801 30.8399C78.5561 30.8399 78.6304 30.8173 78.6936 30.7751C78.7569 30.7328 78.8062 30.6728 78.8353 30.6025C78.8644 30.5323 78.872 30.455 78.8571 30.3804C78.8423 30.3058 78.8057 30.2373 78.7519 30.1835C78.6981 30.1298 78.6296 30.0932 78.5551 30.0783C78.4805 30.0635 78.4032 30.0711 78.3329 30.1002C78.2627 30.1293 78.2026 30.1786 78.1604 30.2418C78.1181 30.305 78.0956 30.3794 78.0956 30.4554C78.0958 30.5573 78.1364 30.6549 78.2085 30.727C78.2805 30.799 78.3782 30.8396 78.4801 30.8399Z" fill="black"/>
<path d="M70.0248 12.8708C69.9295 12.8706 69.8364 12.8987 69.7571 12.9515C69.6778 13.0042 69.616 13.0793 69.5794 13.1673C69.5429 13.2552 69.5332 13.352 69.5517 13.4454C69.5701 13.5388 69.6159 13.6247 69.6832 13.6921C69.7504 13.7595 69.8362 13.8054 69.9296 13.8241C70.023 13.8427 70.1198 13.8332 70.2078 13.7968C70.2958 13.7604 70.371 13.6987 70.4239 13.6196C70.4768 13.5404 70.5051 13.4473 70.5051 13.3521C70.5052 13.2889 70.4929 13.2264 70.4688 13.168C70.4447 13.1096 70.4093 13.0565 70.3647 13.0118C70.3201 12.9671 70.2671 12.9317 70.2088 12.9075C70.1504 12.8833 70.0879 12.8708 70.0248 12.8708ZM77.7121 13.2553C77.8071 13.2553 77.8999 13.2271 77.9789 13.1743C78.0579 13.1215 78.1195 13.0465 78.1559 12.9588C78.1922 12.871 78.2017 12.7744 78.1832 12.6812C78.1647 12.588 78.1189 12.5025 78.0517 12.4353C77.9845 12.3681 77.899 12.3224 77.8058 12.3038C77.7126 12.2853 77.616 12.2948 77.5283 12.3312C77.4405 12.3675 77.3655 12.4291 77.3127 12.5081C77.2599 12.5871 77.2317 12.6799 77.2317 12.7749C77.2317 12.9023 77.2823 13.0245 77.3724 13.1146C77.4625 13.2047 77.5847 13.2553 77.7121 13.2553ZM68.6025 12.413C68.733 12.1165 68.9399 11.8599 69.202 11.6695C69.464 11.4791 69.772 11.3617 70.0943 11.3292C70.1726 11.3292 70.2477 11.2981 70.303 11.2428C70.3584 11.1874 70.3895 11.1123 70.3895 11.0341C70.3895 10.9558 70.3584 10.8807 70.303 10.8253C70.2477 10.77 70.1726 10.7389 70.0943 10.7389C69.6695 10.773 69.261 10.9181 68.9098 11.1596C68.5586 11.4011 68.277 11.7306 68.0931 12.1151C68.0552 12.1825 68.0454 12.2621 68.0657 12.3368C68.086 12.4114 68.1347 12.4751 68.2015 12.5142C68.2683 12.5532 68.3477 12.5645 68.4227 12.5456C68.4977 12.5267 68.5623 12.4791 68.6025 12.413ZM64.7786 112.196C61.7828 112.887 52.4815 115.176 52.0172 117.066C51.4626 119.322 64.5135 118.595 66.7197 116.419C68.1354 115.021 67.311 113.591 66.5411 112.747C66.3224 112.507 66.0439 112.33 65.7343 112.233C65.4246 112.136 65.0949 112.124 64.7786 112.196ZM78.7338 111.92C78.4227 111.828 78.0927 111.82 77.7777 111.898C77.4627 111.975 77.174 112.135 76.9413 112.361C76.1216 113.157 75.2107 114.534 76.5408 116.016C78.6088 118.324 91.5921 119.841 91.1757 117.556C90.8279 115.641 81.6826 112.79 78.7338 111.92ZM74.3478 18.7552C74.7223 18.7774 75.0972 18.7192 75.4474 18.5847C75.7976 18.4501 76.1149 18.2422 76.3782 17.975C76.6659 17.6154 76.8734 17.1985 76.9869 16.7522C77.1004 16.3059 77.1172 15.8405 77.0362 15.3872C77.0154 15.3118 76.9654 15.2478 76.8974 15.2092C76.8294 15.1706 76.7488 15.1606 76.6734 15.1813C75.1762 15.7904 73.5596 16.0496 71.9471 15.939C71.9011 15.9379 71.8555 15.9477 71.8141 15.9678C71.7728 15.9879 71.7368 16.0175 71.7092 16.0543C71.6816 16.0911 71.6632 16.134 71.6555 16.1793C71.6478 16.2246 71.6511 16.2712 71.6651 16.315C71.7965 16.9533 72.127 17.5334 72.6091 17.9719C73.0912 18.4104 73.7 18.6847 74.3478 18.7552ZM76.4863 15.8816C76.5305 18.7016 73.2743 18.9075 72.3503 16.5472C73.757 16.5655 75.1564 16.3404 76.4863 15.8816ZM78.4801 30.8399C78.5561 30.8399 78.6304 30.8173 78.6936 30.7751C78.7569 30.7328 78.8062 30.6728 78.8353 30.6025C78.8644 30.5323 78.872 30.455 78.8571 30.3804C78.8423 30.3058 78.8057 30.2373 78.7519 30.1835C78.6981 30.1298 78.6296 30.0932 78.5551 30.0783C78.4805 30.0635 78.4032 30.0711 78.3329 30.1002C78.2627 30.1293 78.2026 30.1786 78.1604 30.2418C78.1181 30.305 78.0956 30.3794 78.0956 30.4554C78.0958 30.5573 78.1364 30.6549 78.2085 30.727C78.2805 30.799 78.3782 30.8396 78.4801 30.8399Z" fill="black"/>
<path d="M85.5489 44.5958C84.475 45.755 83.5463 47.0407 82.7834 48.4244C82.5822 48.8004 83.1067 49.0702 83.2797 48.745C84.3015 46.8236 86.1213 44.3721 88.0464 43.3935C88.3848 43.2215 88.0869 42.713 87.7485 42.8841C87.1007 43.2245 86.5056 43.6567 85.9813 44.1672C83.7375 40.3602 83.2553 31.746 83.3201 27.4643C83.3159 27.389 83.283 27.3182 83.2282 27.2664C83.1734 27.2146 83.1008 27.1858 83.0254 27.1858C82.95 27.1858 82.8775 27.2146 82.8227 27.2664C82.7679 27.3182 82.735 27.389 82.7307 27.4643C82.6565 31.9866 83.1763 40.7371 85.5489 44.5958Z" fill="black"/>
<path d="M87 64.5C86.7773 66.2314 86.7591 67.2157 87 69C85.7181 67.6119 85.1414 66.6606 84.5 64.5" stroke="black" stroke-width="0.5" stroke-linecap="round"/>
<path d="M61 65L60.5 69C61.9552 67.9985 62.5866 67.1993 63.5 65.5" stroke="black" stroke-width="0.5" stroke-linecap="round"/>
<path d="M29.158 67.8707C29.9759 65.504 30.308 62.9968 30.1345 60.4988C29.9611 58.0008 29.2856 55.5635 28.1484 53.3326C26.9441 53.8331 25.6734 54.1561 24.3762 54.2914C22.8976 54.4954 21.4133 54.7107 19.9272 54.8761C20.0588 55.8998 20.8211 61.3405 21.5854 62.0305C21.4866 61.944 22.0206 62.508 25.9564 61.1487C26.3164 61.0237 26.4696 61.5943 26.1124 61.7127C25.1823 62.0413 24.2306 62.3055 23.2642 62.5033C22.5385 62.648 21.4368 62.931 20.9574 62.1827C20.5439 61.3928 20.2673 60.5385 20.1396 59.656C19.8035 58.0937 19.5385 56.517 19.3453 54.9306C16.7665 55.2092 14.1645 55.1966 11.5885 54.893C11.624 54.9278 11.6498 54.9712 11.6635 55.019C11.6772 55.0668 11.6782 55.1173 11.6665 55.1656C11.3741 56.5277 10.9352 58.4556 10.5385 59.7716C10.469 60.156 10.3156 60.5203 10.0892 60.8385C9.70375 61.2268 8.85117 60.9175 8.42441 60.7445C8.07473 60.6064 8.22795 60.0358 8.58139 60.1758C8.84751 60.2878 9.12721 60.3643 9.41329 60.4033C9.49507 60.4118 9.60129 60.3826 9.67931 60.4033C10.0504 59.3938 10.3501 58.3595 10.5761 57.3079C11.1617 54.8695 11.0649 54.9194 11.2228 54.8282C10.6284 54.7307 10.0455 54.5732 9.48285 54.3582C2.15743 85.2898 9.62479 107.801 10.4473 110.129C12.6913 110.414 14.9655 110.358 17.1927 109.963C16.6334 102.143 16.1822 85.6301 15.9952 78.0133C15.2969 72.5122 14.9868 66.9688 15.0674 61.4242C15.089 60.9692 15.7978 60.9692 15.7752 61.4242C15.6936 64.7359 15.7878 68.0497 16.0572 71.3515C17.1435 84.879 19.863 98.2253 24.1562 111.099C26.2058 111.088 28.2427 110.778 30.2023 110.177C29.6966 108.11 26.275 75.9425 29.158 67.8707Z" fill="#F55555"/>
<path d="M30.1967 110.187C28.237 110.787 26.2001 111.098 24.1506 111.109C17.7502 91.6837 15.3503 72.3902 15.7715 61.4335C15.794 60.9786 15.0862 60.9786 15.0636 61.4335C14.8004 66.7643 15.5966 75.2741 16.3195 80.5823C18.2108 94.4764 23.0583 111.076 23.6195 111.637C23.6928 113.141 23.7135 117.45 21.6634 119.182C21.0311 119.697 20.4579 120.28 19.9545 120.92C19.8602 121.046 19.8035 121.196 19.7909 121.352C19.7783 121.509 19.8105 121.665 19.8835 121.804C19.9566 121.943 20.0676 122.059 20.2036 122.137C20.3396 122.215 20.4951 122.253 20.6519 122.247C29.5255 121.917 29.3507 116.299 29.3507 116.299L30.7447 120.143H31.4648C32.04 115.915 30.1967 110.187 30.1967 110.187ZM17.188 109.972C14.943 110.383 12.6471 110.437 10.3853 110.132C10.3853 110.132 10.2696 116.235 7.49099 118.084C6.79008 118.53 6.14094 119.053 5.55553 119.643C5.44535 119.759 5.37037 119.904 5.33931 120.061C5.30824 120.218 5.32238 120.381 5.38006 120.53C5.43774 120.68 5.53661 120.809 5.66518 120.905C5.79374 121 5.94673 121.057 6.10637 121.069C15.136 121.776 15.6173 116.064 15.6173 116.064L16.3026 120.716L17.0856 120.678C18.1666 116.463 17.188 109.972 17.188 109.972ZM20.9574 62.1874C21.4368 62.9394 22.5385 62.6574 23.2642 62.5079C24.2306 62.31 25.1822 62.0459 26.1124 61.7174C26.4696 61.5943 26.3154 61.0246 25.9564 61.1534C25.101 61.4495 22.4859 62.2701 21.6126 62.0398C20.9095 61.8518 20.0391 55.77 19.9272 54.8808C19.7336 54.9024 19.5399 54.9203 19.3453 54.94C19.538 56.5264 19.8031 58.1032 20.1396 59.6654C20.2679 60.5462 20.5444 61.3989 20.9574 62.1874ZM8.42065 60.7567C8.84835 60.925 9.69999 61.2352 10.0854 60.8507C10.3119 60.5325 10.4653 60.1682 10.5347 59.7838C10.9361 58.4631 11.3723 56.5427 11.6627 55.1778C11.6742 55.1295 11.673 55.079 11.6594 55.0313C11.6457 54.9836 11.62 54.9401 11.5847 54.9052C11.4612 54.8868 11.3381 54.8665 11.2153 54.8441C11.0592 54.9381 11.1542 54.8808 10.5686 57.3238C10.343 58.3755 10.0434 59.4099 9.67179 60.4193C9.59753 60.4023 9.48379 60.4315 9.40577 60.4193C9.11969 60.3803 8.83999 60.3038 8.57387 60.1918C8.22419 60.0479 8.07003 60.6185 8.42065 60.7567Z" fill="black"/>
<path d="M20.4884 42.2641C19.6749 41.2717 18.5517 40.5811 17.299 40.3033C15.7379 39.9399 14.1159 39.9244 12.5482 40.2582C12.2109 40.4011 11.9299 40.6507 11.7483 40.9688C11.2908 41.8623 11.0738 42.8594 11.1185 43.8621C11.1048 44.4016 11.1274 44.9415 11.1861 45.478C12.3051 45.1455 13.5086 45.2504 14.5532 45.7713C15.074 46.0316 19.0878 47.5516 18.5783 46.2883C18.2643 45.5099 17.1081 44.7608 16.4746 44.2334C16.9568 44.6348 20.4686 46.3682 20.134 44.9422C19.9883 44.3208 19.1489 43.6751 18.709 43.2615C18.3917 42.8991 18.0282 42.5799 17.628 42.3121C18.2625 42.6288 20.0607 43.9467 20.7958 43.4852C21.2178 43.2201 20.7196 42.5659 20.4884 42.2641Z" fill="#FFCEB6"/>
<path d="M24.3405 30.3487C22.202 33.1762 19.2166 37.3047 17.299 40.3033C17.4935 40.3531 17.6862 40.4095 17.8761 40.4753C19.5521 37.8433 23.0254 33.0587 24.85 30.6467C25.0784 30.344 24.567 30.0498 24.3405 30.3487Z" fill="#6DD3A8"/>
<path d="M30.724 29.8966C29.972 27.7346 27.3457 25.692 25.0464 24.6326C23.5721 23.8866 21.9573 23.4594 20.307 23.3787C18.4124 23.6704 16.5926 24.3277 14.949 25.3141C14.8921 25.3227 14.8407 25.3526 14.8051 25.3978C12.7018 26.5718 11.0041 28.3561 9.93593 30.5151C9.80016 30.8498 9.68156 31.1911 9.58061 31.5379C6.07911 33.8089 2.19785 37.755 0.613014 41.5705C0.083794 42.8479 -0.366466 44.5446 0.440054 45.8099C0.875742 46.4214 1.5143 46.8584 2.24203 47.0432C3.68492 47.5032 5.216 47.6162 6.71079 47.3731C6.7383 47.4127 6.77509 47.445 6.81795 47.4671C7.47595 47.8102 8.14899 48.1251 8.82955 48.4315C8.50725 49.094 8.22475 49.7752 7.98355 50.4713C7.65361 51.4301 7.36503 52.497 8.04841 53.3703C9.18299 54.8207 12.2305 55.0416 14.0804 55.1046C17.532 55.1725 20.9818 54.9002 24.38 54.2915C25.2827 54.1817 26.1756 54.0019 27.0505 53.7538C27.4148 53.6965 27.7641 53.5672 28.078 53.3735C28.3919 53.1799 28.6641 52.9257 28.8788 52.6258C29.1311 52.0063 29.2279 51.3343 29.1608 50.6687C29.1477 47.86 27.5703 46.6728 27.8702 41.1494C29.3939 38.3209 31.7825 32.9262 30.724 29.8966ZM15.308 25.7822C16.182 25.2825 17.0983 24.8607 18.0463 24.5217C19.1032 24.054 20.2678 23.884 21.4143 24.0301C22.3538 24.232 23.2729 24.5196 24.16 24.8892C23.1776 26.6165 21.5508 27.884 19.6358 28.4142C17.4917 28.8927 15.1905 28.1153 15.308 25.7822ZM3.53171 46.764C2.64483 46.6863 1.80489 46.3315 1.13095 45.7497C0.237014 44.7721 0.618654 43.2117 1.02661 42.1072C2.35859 38.5155 6.12987 34.6051 9.35877 32.3904C8.88439 34.6208 8.68894 36.9015 8.77691 39.1801C7.01885 39.289 5.28325 39.6326 3.61631 40.2018C3.25723 40.3203 3.41045 40.8899 3.77329 40.7658C6.34853 39.7989 9.13214 39.5234 11.847 39.9668C10.4962 41.0713 10.4003 43.6958 10.5902 45.4188C8.45924 46.6581 5.96907 47.1326 3.53171 46.764ZM28.5677 51.088C28.6135 51.3855 28.5881 51.6897 28.4935 51.9755C28.3988 52.2613 28.2377 52.5206 28.0234 52.732C27.0909 53.39 24.0604 53.7482 23.0903 53.8676C19.4591 54.4879 15.7651 54.6578 12.0923 54.3733C10.8412 54.2238 8.77691 53.8271 8.29939 52.6559C7.92903 51.745 8.94047 49.5539 9.36629 48.6656C11.1933 49.4741 13.087 50.1226 15.026 50.6039C17.0865 51.0739 19.2335 51.3371 20.9133 50.1593C23.3103 48.4785 25.7759 44.8163 27.2413 42.2802C27.1962 47.0009 28.5978 48.0753 28.5677 51.088ZM19.7373 50.148C16.8318 51.276 10.4031 48.5829 7.61131 47.2058C8.82915 46.9517 9.99317 46.4866 11.0508 45.8315C11.3459 45.6435 11.0846 45.6125 11.1194 43.8575C11.0747 42.8548 11.2918 41.8576 11.7492 40.9642C12.1835 40.2554 12.5764 40.3795 12.7174 40.0693C12.9439 39.5683 12.3076 39.4583 11.9701 39.3869C11.1135 39.2151 10.2406 39.1382 9.36723 39.1575C9.31906 37.816 9.3665 36.4728 9.50917 35.1381C9.95379 30.8629 10.9267 29.0901 13.4572 27.039C13.8596 26.7154 14.2798 26.4144 14.7158 26.1376C14.8841 29.687 21.0862 30.9316 24.7118 25.1167C26.7079 25.9623 28.4249 27.3538 29.6656 29.1315C30.1184 29.7983 30.3694 30.5816 30.3885 31.3875C30.5943 37.1562 23.3328 48.7455 19.7373 50.148Z" fill="#6DD3A8"/>
<path d="M27.4218 17.5496C28.0027 15.0163 29.1749 12.5037 28.0027 9.82375C26.8306 7.14381 25.1564 5.30235 21.638 6.47453C21.638 6.47453 19.319 1.97099 14.3652 3.21837C13.3182 3.50725 12.3482 4.02453 11.525 4.73301C10.7018 5.44149 10.0458 6.32357 9.60411 7.31583C8.61711 9.37631 8.35579 11.1783 9.77331 13.0799C10.4708 14.0199 11.4446 15.2617 11.0893 16.509C10.954 16.9875 10.4229 17.4049 10.0976 17.7574C9.51857 18.3853 7.38289 20.4834 9.07489 21.0474C9.77981 21.2377 10.5226 21.2377 11.2275 21.0474C11.2275 21.0474 10.7171 22.0297 12.9947 22.8785C14.2154 23.2318 15.5106 23.2367 16.734 22.8926C16.7679 22.4282 16.8149 22.0052 16.8562 21.6809C14.4874 21.4929 12.3527 20.4298 12.1675 17.5515C12.1534 15.6588 12.4847 13.7793 13.1451 12.0055C13.6207 10.557 14.4113 8.96459 15.9783 8.48049C16.861 8.23732 17.7915 8.2251 18.6804 8.44501C19.5693 8.66493 20.3867 9.10959 21.0543 9.73633C22.0977 10.8484 22.7186 12.2909 22.8092 13.8131C22.8196 13.9504 22.9164 14.5726 22.8092 14.6826C23.4795 14.0143 24.9844 14.0152 24.9844 15.5211C24.9844 17.027 22.8995 17.5524 22.8995 17.5524C22.8856 17.8148 22.8494 18.0755 22.7914 18.3317C22.7641 19.6646 22.6908 21.742 22.4915 23.2197C24.7334 23.5788 27.2977 23.6784 28.3346 22.5551C30.348 20.3752 26.8409 20.0839 27.4218 17.5496Z" fill="#FF8684"/>
<path d="M22.813 14.6799C22.922 14.5699 22.8252 13.9476 22.813 13.8104C22.7228 12.288 22.1018 10.8454 21.058 9.73359C20.3905 9.10684 19.573 8.66218 18.6842 8.44227C17.7953 8.22235 16.8648 8.23457 15.982 8.47775C14.4141 8.96185 13.6245 10.5542 13.1489 12.0027C12.4885 13.7766 12.1572 15.656 12.1713 17.5487C12.3593 20.427 14.4912 21.4967 16.86 21.6782C16.7143 22.8306 16.3721 26.1667 17.4522 26.5718C18.3282 26.7431 19.2349 26.6608 20.0657 26.3344C20.8964 26.008 21.6167 25.4512 22.1418 24.7294C22.6692 23.6747 22.7716 19.5143 22.7998 18.328C22.8573 18.0717 22.8934 17.811 22.9079 17.5487C22.9079 17.5487 24.9929 17.0252 24.9929 15.5174C24.9929 14.0096 23.486 14.0115 22.813 14.6799Z" fill="#FFCEB6"/>
<path d="M19.5493 14.1572C19.5493 14.2846 19.5999 14.4068 19.69 14.4969C19.7801 14.587 19.9023 14.6376 20.0297 14.6376C20.1571 14.6376 20.2792 14.587 20.3693 14.4969C20.4594 14.4068 20.51 14.2846 20.51 14.1572C20.51 14.0298 20.4594 13.9077 20.3693 13.8176C20.2792 13.7275 20.1571 13.6769 20.0297 13.6769C19.9023 13.6769 19.7801 13.7275 19.69 13.8176C19.5999 13.9077 19.5493 14.0298 19.5493 14.1572Z" fill="black"/>
<path d="M15.3212 13.3892C15.3212 13.2942 15.293 13.2014 15.2402 13.1224C15.1875 13.0434 15.1124 12.9818 15.0247 12.9455C14.9369 12.9091 14.8403 12.8996 14.7471 12.9181C14.654 12.9367 14.5684 12.9824 14.5012 13.0496C14.434 13.1168 14.3883 13.2024 14.3697 13.2955C14.3512 13.3887 14.3607 13.4853 14.3971 13.5731C14.4334 13.6608 14.495 13.7359 14.574 13.7886C14.653 13.8414 14.7459 13.8696 14.8409 13.8696C14.9682 13.8696 15.0904 13.819 15.1805 13.7289C15.2706 13.6388 15.3212 13.5166 15.3212 13.3892ZM18.6225 16.3145C18.4378 16.7141 18.1047 17.026 17.6938 17.184C17.3049 17.3072 16.8891 17.3174 16.4946 17.2134C16.1002 17.1094 15.7435 16.8955 15.466 16.5965C15.3924 16.4895 15.3436 16.3675 15.3231 16.2393C15.2714 15.8953 14.7187 15.9028 14.7384 16.2713C14.8136 17.6531 17.3958 18.5574 18.7127 17.2009C19.696 16.1876 18.7625 15.9893 18.6225 16.3145ZM21.5337 12.5677C21.3526 12.3081 21.1144 12.0935 20.8373 11.9405C20.5603 11.7875 20.2518 11.7001 19.9357 11.685C19.8574 11.685 19.7823 11.7161 19.7269 11.7715C19.6716 11.8268 19.6405 11.9019 19.6405 11.9802C19.6405 12.0585 19.6716 12.1335 19.7269 12.1889C19.7823 12.2442 19.8574 12.2753 19.9357 12.2753C19.9856 12.2746 20.0356 12.2778 20.0851 12.2847H20.0635C20.8522 12.4201 20.9772 12.9427 21.2018 13.0029C21.2584 13.0175 21.318 13.015 21.3732 12.9959C21.4283 12.9767 21.4767 12.9418 21.5121 12.8953C21.5475 12.8489 21.5684 12.793 21.5722 12.7348C21.5761 12.6765 21.5627 12.6184 21.5337 12.5677ZM15.4866 11.4669C15.5248 11.4826 15.5657 11.4901 15.6069 11.4889C15.6481 11.4878 15.6886 11.4781 15.7258 11.4605C15.763 11.4428 15.7962 11.4176 15.8231 11.3864C15.85 11.3552 15.8701 11.3187 15.8821 11.2793C15.8941 11.2399 15.8978 11.1984 15.8929 11.1575C15.8879 11.1166 15.8745 11.0772 15.8535 11.0418C15.8325 11.0064 15.8043 10.9757 15.7707 10.9518C15.7372 10.9279 15.699 10.9113 15.6587 10.9029C15.3473 10.8425 15.0263 10.8544 14.7203 10.9375C14.4142 11.0206 14.1313 11.1728 13.8933 11.3823C13.8394 11.4379 13.8094 11.5124 13.8099 11.5898C13.8104 11.6672 13.8412 11.7414 13.8959 11.7963C13.9505 11.8511 14.0245 11.8823 14.1019 11.8832C14.1793 11.884 14.254 11.8543 14.3098 11.8006C14.3307 11.7792 14.3534 11.7594 14.3774 11.7414C14.5349 11.6244 14.714 11.5399 14.9045 11.4928C15.0949 11.4457 15.2928 11.4369 15.4866 11.4669Z" fill="black"/>
<path d="M158.542 37.7472C158.655 37.6881 158.744 37.5924 158.795 37.4759C158.846 37.3595 158.857 37.229 158.824 37.106C158.881 37.0744 158.941 37.044 158.998 37.0148C156.944 35.2691 153.085 26.9797 146.344 23.2825C145.503 22.9429 144.644 22.6522 143.77 22.412C143.801 22.8051 143.826 22.9783 143.518 23.2006C143.422 28.3217 143.024 56.2472 145.68 56.6474C147.188 56.8129 148.713 56.7019 150.18 56.3198C150.556 55.4797 151.203 54.79 152.017 54.3612C151.942 54.346 151.875 54.3047 151.828 54.2447C151.781 54.1846 151.757 54.1098 151.76 54.0336C151.771 46.7222 151.409 41.9826 150.877 34.2465C150.847 33.7938 151.549 33.7973 151.579 34.2465C151.68 35.7079 152.009 40.5821 152.067 41.5579L153.064 42.6226C153.429 41.7614 157.07 40.2135 158.542 37.7472Z" fill="#6DD3A8"/>
<path d="M161.658 38.3252C161.466 38.338 161.307 38.4925 161.101 38.5007C160.597 38.5206 160.506 38.1087 160.413 37.7238C160.269 37.1388 159.512 37.5261 159.18 37.7086C159.163 37.7179 159.147 37.7226 159.132 37.7296C159.173 37.7815 159.197 37.845 159.2 37.9113C159.203 37.9775 159.185 38.0429 159.148 38.0982C158.359 39.3013 157.33 40.3283 156.125 41.1145C153.833 42.7595 153.532 42.8472 153.835 42.9455C154.003 42.9712 154.174 42.9677 154.341 42.935C154.685 42.9209 155.142 43.004 155.137 43.3492C155.124 44.043 154.711 44.5402 154.977 44.8093C155.403 45.2375 156.147 44.4969 156.264 44.4408C158.067 43.1541 159.738 41.6915 161.252 40.0743C161.545 39.735 162.038 39.2659 162.027 38.778C162.026 38.5802 161.885 38.31 161.658 38.3252ZM160.184 39.9971L156.579 42.9116C156.512 42.9755 156.423 43.0111 156.33 43.0111C156.238 43.0111 156.149 42.9755 156.082 42.9116C156.049 42.879 156.023 42.8402 156.005 42.7976C155.987 42.7549 155.978 42.7092 155.978 42.663C155.978 42.6168 155.987 42.571 156.005 42.5283C156.023 42.4857 156.049 42.4469 156.082 42.4143L159.686 39.501C159.753 39.4372 159.842 39.4015 159.935 39.4015C160.027 39.4015 160.117 39.4372 160.184 39.501C160.249 39.5668 160.286 39.6561 160.286 39.7491C160.286 39.8421 160.249 39.9313 160.184 39.9971ZM136.375 23.2135C136.241 23.0242 136.155 22.8055 136.122 22.5758C134.779 23.0941 127.5 26.0039 126.395 28.5814C125.178 31.421 125.178 52.1136 125.178 52.1136C125.178 52.1136 123.962 52.316 124.164 53.128C124.366 53.94 125.178 53.9388 124.57 54.7508C123.962 55.5628 123.759 55.7652 124.367 56.3736C125.225 56.8616 126.189 57.1338 127.176 57.1669C128.493 57.2845 129.819 57.2405 131.125 57.0358C131.103 56.9672 131.108 56.8926 131.139 56.8273C131.17 56.7621 131.224 56.7111 131.292 56.6848C131.647 56.5487 131.948 56.299 132.147 55.9746C132.381 55.4587 131.637 55.4259 131.377 55.0386C129.508 55.3022 127.607 55.2345 125.761 54.8386C125.671 54.8139 125.595 54.7545 125.549 54.6736C125.503 54.5926 125.491 54.4967 125.515 54.4068C125.54 54.317 125.599 54.2406 125.68 54.1946C125.761 54.1485 125.857 54.1365 125.947 54.1611C127.748 54.5432 129.603 54.5995 131.424 54.3273C131.677 54.0437 131.884 53.7223 132.038 53.3749C132.128 53.1584 132.265 52.77 132.164 52.5793C132.137 52.529 132.07 52.4927 131.954 52.4787C130.528 52.8261 129.05 52.9031 127.596 52.7057C126.92 52.6291 126.249 52.5119 125.588 52.3546C125.498 52.3298 125.422 52.2703 125.376 52.1893C125.33 52.1082 125.318 52.0122 125.343 51.9223C125.368 51.8325 125.427 51.7562 125.508 51.7102C125.589 51.6643 125.685 51.6524 125.775 51.6772C127.35 52.0815 128.986 52.1969 130.602 52.0177C131.054 51.882 131.52 51.8034 131.991 51.7837C132.024 48.5206 132.064 38.9956 131.72 35.6892C131.673 35.2399 132.376 35.2434 132.422 35.6892C132.629 37.6969 132.465 37.7226 132.649 37.3927C133.2 36.4064 133.152 36.0495 133.57 36.1443C133.614 36.1565 133.656 36.1773 133.692 36.2056C133.729 36.2339 133.759 36.2691 133.782 36.3092C133.805 36.3493 133.819 36.3935 133.825 36.4393C133.831 36.4851 133.827 36.5316 133.815 36.576C133.508 37.3525 133.1 38.0853 132.602 38.7557C132.672 40.8828 132.781 51.6959 132.68 52.1043C133.047 52.5489 132.835 53.3363 132.596 53.8394C132.445 54.1461 132.261 54.4353 132.046 54.7017C132.275 54.8229 132.485 54.9779 132.667 55.1615C133.268 55.8635 132.62 56.6825 131.965 57.1119C133.193 57.3845 136.365 57.9601 137.88 56.9949C139.728 55.8015 136.471 23.3305 136.375 23.2135Z" fill="#6DD3A8"/>
<path d="M144.948 7.01597L144.802 7.09319C144.18 5.60832 143.042 4.39846 141.598 3.68689C140.154 2.97532 138.501 2.81008 136.945 3.22166C131.329 4.57769 131.471 10.5856 133.072 13.231L127.502 16.1455C127.02 16.397 127.447 17.1259 127.927 16.8744L145.374 7.74839C145.855 7.49333 145.428 6.76325 144.948 7.01597ZM142.075 7.19966C142.105 7.09362 142.175 7.00314 142.27 6.94694L143.497 6.36194C143.545 6.33392 143.598 6.3156 143.652 6.30802C143.707 6.30045 143.763 6.30376 143.817 6.31778C143.87 6.3318 143.921 6.35625 143.965 6.38972C144.009 6.4232 144.046 6.46505 144.074 6.51287C144.129 6.60971 144.144 6.72422 144.116 6.83197C144.087 6.93973 144.018 7.0322 143.923 7.08968C142.596 7.72265 142.583 7.76711 142.37 7.71797C142.263 7.68763 142.172 7.61624 142.117 7.51926C142.061 7.42227 142.047 7.30746 142.075 7.19966Z" fill="#FF8684"/>
<path d="M152.353 61.8421C152.356 61.5045 152.403 61.1687 152.492 60.8429C151.493 61.5789 150.737 61.1799 150.756 60.2942C145.084 61.5145 137.349 61.2057 131.971 60.341C132.806 73.101 130.618 37.6723 133.661 90.0707C133.665 90.1156 133.659 90.1608 133.644 90.2032C133.629 90.2457 133.605 90.2844 133.574 90.3165C133.542 90.3487 133.504 90.3737 133.462 90.3896C133.42 90.4055 133.375 90.4121 133.33 90.4089C133.791 97.9308 134.266 104.8 134.617 108.161C134.617 108.161 139.852 109.481 143.828 108.161L143.154 69.7385C143.062 69.7404 142.973 69.706 142.906 69.6427C142.839 69.5795 142.8 69.4924 142.796 69.4003L142.511 63.5503C142.488 63.0975 143.19 63.1011 143.213 63.5503L143.498 69.4003C143.502 69.4427 143.497 69.4854 143.484 69.5258C143.47 69.5662 143.449 69.6034 143.42 69.635C143.392 69.6666 143.357 69.692 143.318 69.7096C143.28 69.7272 143.238 69.7367 143.195 69.7373L145.57 108.161C145.57 108.161 150.845 109.261 154.091 107.501L153.155 63.2321C152.511 63.2321 152.352 62.4026 152.353 61.8421Z" fill="#F55555"/>
<path d="M147.171 22.1698C146.328 21.7381 145.033 21.1168 144.06 20.6617C147.624 19.8076 147.439 16.1466 146.462 12.6144C146.025 11.0531 145.438 9.53822 144.707 8.09119L144.082 8.41761C145.357 10.8418 146.126 13.4995 146.342 16.2297C146.173 16.0928 146.108 16.2005 145.523 16.1712C145.096 16.1674 144.676 16.0551 144.303 15.8447C143.93 15.6343 143.617 15.3328 143.393 14.9684C143.37 14.9285 143.339 14.8936 143.302 14.8656C143.265 14.8376 143.223 14.8172 143.179 14.8054C143.134 14.7937 143.087 14.7909 143.042 14.7972C142.996 14.8035 142.952 14.8187 142.912 14.8421C142.504 15.0761 142.912 15.5885 143.244 15.9208C143.626 16.2801 144.083 16.5503 144.582 16.7122C145.081 16.874 145.609 16.9234 146.129 16.8568C146.202 16.8492 146.272 16.8226 146.331 16.7796C146.354 17.6751 146.024 18.5439 145.412 19.198C143.977 20.5201 141.259 20.2264 139.465 19.5139C139.045 19.3466 138.863 20.0264 139.279 20.1913C140.454 20.6336 141.705 20.843 142.96 20.8079C142.997 21.4171 143.036 22.0271 143.077 22.6378C142.379 23.03 141.593 23.2385 140.792 23.2439C139.789 23.3578 138.774 23.3184 137.783 23.1269C137.549 23.0754 137.016 22.9478 136.899 22.7396C136.972 22.8706 136.617 22.5734 136.393 17.4196C136.505 17.4083 136.618 17.3911 136.729 17.3681C136.818 17.3434 136.895 17.2841 136.941 17.2031C136.987 17.1222 136.999 17.0262 136.974 16.9364C136.95 16.8466 136.89 16.7702 136.809 16.7241C136.728 16.678 136.632 16.666 136.542 16.6907C136.117 16.8056 135.663 16.7594 135.269 16.561C134.875 16.3627 134.569 16.026 134.407 15.6155C134.286 15.2469 134.294 14.8477 134.431 14.4845C134.568 14.1213 134.825 13.816 135.16 13.6194C135.919 13.3433 136.409 13.8464 137.346 14.3729C137.346 14.3729 138.157 14.7789 138.563 13.3585C138.969 11.9381 139.171 11.3297 139.171 11.3297C139.359 11.5047 139.596 11.6179 139.85 11.6541C140.104 11.6903 140.363 11.6477 140.592 11.5322C141.465 10.9212 142.174 10.1052 142.658 9.15589L134.108 13.63C133.85 13.9579 133.685 14.3487 133.629 14.762C133.573 15.1752 133.629 15.5959 133.79 15.9804C133.952 16.3649 134.213 16.6993 134.547 16.9491C134.881 17.1988 135.275 17.3548 135.69 17.4009C135.782 19.5607 135.884 20.499 135.924 20.8805C134.683 21.3864 133.517 22.0596 132.459 22.8812C132.108 23.1386 131.514 23.4369 131.666 23.9599C131.707 24.098 132.848 25.9653 136.58 32.1593C136.63 32.233 136.706 32.2851 136.792 32.3051C136.879 32.325 136.97 32.3113 137.047 32.2668C137.124 32.2222 137.181 32.1501 137.207 32.0649C137.233 31.9798 137.225 31.8881 137.186 31.8083C132.931 24.7333 132.443 23.8803 132.401 23.8148C133.511 22.9437 134.714 22.1981 135.988 21.5918C135.998 21.7205 136.093 22.3476 136.111 22.4541C136.235 23.2088 136.445 23.5598 137.603 23.8136C139.007 24.1237 141.922 24.1646 143.36 23.3047C143.586 23.169 143.793 23.0251 143.792 22.7571C143.792 22.6074 143.754 22.1171 143.701 21.2771C145.84 22.2728 146.607 22.6904 146.819 22.7794C146.98 22.8472 146.903 23.0262 146.863 23.1643C146.719 23.6756 146.227 25.4294 144.697 30.9237C144.673 31.0136 144.684 31.1096 144.73 31.1907C144.776 31.2717 144.853 31.3312 144.943 31.3561C145.032 31.3809 145.128 31.369 145.209 31.323C145.291 31.2771 145.35 31.2008 145.375 31.1109C145.972 28.9698 147.457 23.6522 147.598 23.1327C147.638 23.042 147.659 22.9439 147.659 22.8446C147.66 22.7452 147.639 22.647 147.599 22.5562C147.558 22.4655 147.499 22.3842 147.426 22.3176C147.352 22.251 147.265 22.2007 147.171 22.1698ZM146.345 34.4712C147.552 34.5039 148.761 34.5246 149.972 34.5332C150.065 34.5332 150.154 34.4962 150.22 34.4304C150.286 34.3646 150.323 34.2753 150.323 34.1822C150.323 34.0891 150.286 33.9998 150.22 33.934C150.154 33.8682 150.065 33.8312 149.972 33.8312C148.763 33.8226 147.554 33.8019 146.345 33.7692C146.252 33.7692 146.162 33.8062 146.097 33.872C146.031 33.9378 145.994 34.0271 145.994 34.1202C145.994 34.2133 146.031 34.3025 146.097 34.3684C146.162 34.4342 146.252 34.4712 146.345 34.4712ZM148.536 40.5166C147.229 40.2989 147.068 38.8306 146.978 37.5377L146.828 35.3709C146.796 34.9228 146.094 34.9193 146.126 35.3709C146.3 37.8782 146.3 39.0997 146.817 40.0509C146.97 40.3445 147.188 40.5997 147.453 40.7975C147.718 40.9952 148.025 41.1304 148.35 41.1928C149.055 41.2798 149.77 41.2188 150.449 41.0138C150.889 40.9097 150.703 40.2311 150.262 40.3364C149.704 40.5092 149.118 40.5704 148.536 40.5166ZM129.405 75.7523C129.528 76.246 129.756 77.0065 130.26 77.0124C130.763 77.0182 131.196 76.5303 131.43 76.0272C131.744 75.2923 131.91 74.502 131.916 73.7024C131.916 73.6094 131.879 73.5201 131.814 73.4543C131.748 73.3884 131.658 73.3514 131.565 73.3514C131.472 73.3514 131.383 73.3884 131.317 73.4543C131.251 73.5201 131.214 73.6094 131.214 73.7024C131.178 74.4489 130.98 75.9348 130.333 76.2764C130.094 75.669 129.926 75.0356 129.834 74.3892C129.986 73.7539 130.105 73.0543 130.193 72.4002C130.25 71.9533 129.548 71.958 129.491 72.4002C129.568 71.8059 129.187 75.1345 128.465 75.9945C128.259 75.895 127.555 73.0472 127.178 57.1668C126.931 57.1434 126.695 57.1154 126.476 57.0814C126.568 60.8161 126.882 71.5543 127.529 75.2071C127.553 75.662 127.7 76.1017 127.956 76.4789C128.579 77.1259 129.124 76.3572 129.405 75.7523ZM131.376 55.0363C131.412 55.0898 131.455 55.1381 131.504 55.1802C131.765 55.4072 132.359 55.5171 132.149 55.9711C131.95 56.2953 131.649 56.5448 131.294 56.6813C130.886 56.8708 131.24 57.4769 131.645 57.2885C132.51 56.8872 133.321 55.9173 132.673 55.1556C132.491 54.9716 132.281 54.8165 132.052 54.6958C132.145 54.586 132.228 54.4686 132.301 54.3448C132.722 53.7504 133.144 52.6483 132.686 52.0925C132.715 51.9755 132.719 47.6933 132.719 47.5763C132.719 42.9197 132.674 41.0103 132.608 38.744L132.631 38.7206C133.112 38.0517 133.512 37.3278 133.821 36.5643C133.833 36.5198 133.837 36.4734 133.831 36.4276C133.825 36.3818 133.811 36.3376 133.788 36.2975C133.765 36.2574 133.734 36.2222 133.698 36.1939C133.662 36.1656 133.62 36.1448 133.575 36.1326C133.486 36.1103 133.391 36.1234 133.31 36.1692C133.23 36.2149 133.17 36.2898 133.144 36.3783C132.976 36.7774 132.78 37.1644 132.559 37.5366C132.53 36.9158 132.485 36.2959 132.424 35.6774C132.377 35.2317 131.674 35.227 131.722 35.6774C132.066 38.9815 132.026 48.5474 131.994 51.772C131.523 51.7918 131.056 51.8704 130.605 52.006C128.989 52.1864 127.355 52.0726 125.78 51.6702C125.69 51.6453 125.594 51.6572 125.513 51.7032C125.432 51.7492 125.372 51.8255 125.347 51.9153C125.323 52.0051 125.334 52.1011 125.38 52.1822C125.426 52.2633 125.503 52.3228 125.592 52.3476C127.433 52.8376 129.359 52.9206 131.235 52.591C131.467 52.5075 131.712 52.4679 131.958 52.474C132.075 52.488 132.142 52.5243 132.169 52.5746C132.27 52.7653 132.133 53.1537 132.043 53.3702C131.888 53.7171 131.68 54.0382 131.428 54.3226C129.608 54.5949 127.753 54.5387 125.952 54.1564C125.862 54.1318 125.766 54.1438 125.685 54.1899C125.604 54.2359 125.545 54.3123 125.52 54.4021C125.495 54.492 125.507 54.5879 125.553 54.6689C125.599 54.7498 125.676 54.8092 125.766 54.8339C127.609 55.2317 129.508 55.3002 131.376 55.0363Z" fill="black"/>
<path d="M161.79 37.6301C161.567 37.6204 161.345 37.6704 161.148 37.7752C161.137 37.7793 161.127 37.7852 161.118 37.7927C161.123 37.7715 161.123 37.7496 161.118 37.7284C161.097 37.4404 160.967 37.1713 160.754 36.9761C160.186 36.5081 159.477 36.7503 158.826 37.106C158.784 37.1282 158.747 37.1596 158.718 37.1979C158.689 37.2362 158.669 37.2805 158.659 37.3275C158.649 37.3746 158.65 37.4232 158.661 37.4698C158.673 37.5165 158.694 37.56 158.725 37.5974C158.648 37.6235 158.584 37.6768 158.544 37.7471C157.084 40.2041 153.43 41.7649 153.072 42.6225C153.036 42.7116 153.018 42.8071 153.019 42.9033C153.021 42.9995 153.041 43.0945 153.08 43.1825C153.119 43.2706 153.175 43.35 153.245 43.4159C153.315 43.4819 153.397 43.5332 153.488 43.5667C153.784 43.6496 154.094 43.673 154.4 43.6357C154.309 44.0932 154.073 44.5273 154.277 44.9999C154.421 45.2749 154.667 45.4831 154.962 45.5805C155.256 45.6779 155.577 45.6568 155.857 45.5218C155.128 48.1297 153.509 53.9235 153.429 54.2137C153.096 54.1304 152.747 54.1332 152.415 54.2219C152.452 54.1662 152.471 54.1004 152.47 54.0335C152.484 46.8731 152.044 40.9061 151.588 34.2465C151.556 33.7972 150.853 33.7937 150.886 34.2465C151.404 41.7906 151.782 46.7409 151.768 54.0335C151.765 54.1097 151.789 54.1844 151.837 54.2444C151.884 54.3043 151.95 54.3457 152.025 54.3611L151.999 54.3716C151.28 54.7979 150.687 55.4073 150.28 56.1376C149.874 56.8678 149.668 57.6929 149.684 58.5287C149.715 58.624 149.766 58.7117 149.834 58.7857C149.901 58.8597 149.984 58.9184 150.076 58.9577C150.168 58.9971 150.268 59.0162 150.368 59.0139C150.469 59.0115 150.567 58.9877 150.657 58.944C151.571 58.6328 151.359 58.1847 150.915 59.5477C145.264 60.8535 136.972 60.5177 131.666 59.5887C131.614 59.574 131.559 59.5717 131.505 59.5819C131.452 59.592 131.402 59.6145 131.359 59.6473C131.315 59.6802 131.28 59.7227 131.256 59.7714C131.232 59.8201 131.22 59.8737 131.22 59.928L131.941 72.4107L131.914 72.4189C130.861 72.6833 130.311 70.059 130.199 68.9744C130.196 68.8821 130.159 68.7942 130.093 68.7288C130.028 68.6635 129.94 68.6258 129.848 68.6234C129.755 68.6234 129.665 68.6604 129.6 68.7262C129.534 68.792 129.497 68.8813 129.497 68.9744C129.657 70.6124 130.305 73.4017 131.982 73.1127L132.961 90.0777C132.987 90.527 133.69 90.5305 133.663 90.0777C131.826 58.4409 131.978 60.4194 131.974 60.348C137.422 61.2243 145.085 61.518 150.758 60.3012C150.738 61.1822 151.488 61.5882 152.494 60.8499C152.405 61.1757 152.359 61.5115 152.355 61.8491C152.355 62.6225 152.629 63.404 153.38 63.211C154.629 62.5224 155.58 61.3977 156.052 60.052C156.183 59.6402 156.239 59.2082 156.217 58.7767C157.786 55.3482 159.332 51.9095 160.856 48.4608C161.357 47.3572 161.67 46.1782 161.785 44.9719C161.83 43.5374 161.788 42.1016 161.66 40.6721C162.245 40.1822 162.627 39.4926 162.733 38.7369C162.727 38.4721 162.63 38.2174 162.458 38.0158C162.287 37.8142 162.05 37.678 161.79 37.6301ZM153.303 62.4856C153.089 62.5862 153.112 62.4447 153.078 62.2095C153.036 61.8977 153.048 61.5811 153.114 61.2735C153.302 60.4229 153.705 59.6346 154.284 58.9838C154.528 58.6679 153.995 58.2596 153.732 58.5567C153.234 59.1242 152.291 60.3878 151.569 60.5153C151.474 60.5317 151.452 60.4943 151.445 60.4264C151.359 59.6554 152.701 57.5716 153.169 56.907C153.403 56.5794 152.887 56.1933 152.617 56.4812C151.983 57.2263 151.211 57.8417 150.344 58.2935C150.384 57.6662 150.562 57.0554 150.865 56.5049C151.169 55.9543 151.59 55.4776 152.099 55.1088C153.165 54.4489 153.931 55.0631 154.575 56.1383C155.3 57.1423 155.613 58.3857 155.45 59.6132C155.087 60.7888 154.328 61.8061 153.303 62.4856ZM155.994 57.5716C155.656 56.3889 154.99 55.3261 154.073 54.5062L156.734 44.9801C158.238 43.8744 159.664 42.6677 161.004 41.3683C161.339 46.5607 161.351 45.9359 155.994 57.5716ZM161.259 40.0731C159.718 41.7245 158.012 43.2142 156.168 44.5191C155.817 44.7929 155.302 45.131 154.981 44.8069C154.81 44.6337 154.927 44.3389 154.981 44.1447C155.069 43.8871 155.121 43.6186 155.136 43.3467C155.134 43.2703 155.108 43.1963 155.062 43.1356C155.015 43.0748 154.951 43.0304 154.878 43.0086C154.398 42.8284 154.083 43.0262 153.834 42.9431C153.613 42.8706 153.737 42.8074 154.317 42.3838C156.019 41.1448 158.003 40.0169 159.147 38.0958C159.183 38.0404 159.201 37.975 159.198 37.9088C159.195 37.8427 159.172 37.7791 159.131 37.7272C159.147 37.7215 159.163 37.7144 159.178 37.7062C159.511 37.5236 160.268 37.1317 160.412 37.7214C160.505 38.1063 160.595 38.5182 161.1 38.4983C161.301 38.4901 161.466 38.3356 161.657 38.3228C161.884 38.3075 162.025 38.5778 162.03 38.7755C162.041 39.2681 161.552 39.735 161.259 40.0731Z" fill="black"/>
<path d="M159.686 39.5022L156.081 42.4155C156.049 42.4481 156.023 42.4868 156.005 42.5295C155.987 42.5722 155.978 42.6179 155.978 42.6641C155.978 42.7103 155.987 42.756 156.005 42.7987C156.023 42.8414 156.049 42.8801 156.081 42.9127C156.149 42.9766 156.238 43.0122 156.33 43.0122C156.423 43.0122 156.512 42.9766 156.579 42.9127L160.184 39.9983C160.249 39.9324 160.286 39.8432 160.286 39.7502C160.286 39.6572 160.249 39.568 160.184 39.5022C160.117 39.438 160.028 39.4022 159.935 39.4022C159.842 39.4022 159.753 39.438 159.686 39.5022ZM143.438 13.568C143.539 13.5682 143.637 13.5386 143.721 13.4829C143.805 13.4272 143.87 13.3479 143.909 13.255C143.947 13.1622 143.957 13.06 143.938 12.9614C143.918 12.8628 143.87 12.7722 143.799 12.7011C143.728 12.63 143.637 12.5817 143.538 12.5621C143.44 12.5425 143.338 12.5527 143.245 12.5913C143.152 12.6299 143.073 12.6951 143.017 12.7788C142.961 12.8625 142.932 12.9608 142.932 13.0613C142.932 13.1957 142.985 13.3246 143.08 13.4196C143.175 13.5146 143.304 13.568 143.438 13.568ZM143.131 11.5871C143.224 11.5871 143.313 11.5502 143.379 11.4843C143.445 11.4185 143.482 11.3292 143.482 11.2361C143.482 11.1431 143.445 11.0538 143.379 10.988C143.313 10.9221 143.224 10.8851 143.131 10.8851C142.857 10.9128 142.595 11.008 142.367 11.1622C142.139 11.3164 141.953 11.5247 141.826 11.7685C141.784 11.8487 141.775 11.942 141.8 12.029C141.825 12.1159 141.883 12.1898 141.962 12.2351C142.04 12.2804 142.133 12.2937 142.221 12.2721C142.309 12.2506 142.385 12.1959 142.433 12.1195C142.504 11.9852 142.603 11.8679 142.723 11.7759C142.843 11.6839 142.983 11.6195 143.131 11.5871ZM142.37 7.71796C142.581 7.76593 142.579 7.73317 143.923 7.08967C143.971 7.0617 144.012 7.0246 144.046 6.98048C144.079 6.93636 144.104 6.88608 144.118 6.83252C144.132 6.77896 144.135 6.72316 144.128 6.66831C144.12 6.61346 144.102 6.56064 144.074 6.51286C144.046 6.46507 144.009 6.42326 143.965 6.38982C143.92 6.35637 143.87 6.33194 143.817 6.31793C143.763 6.30391 143.707 6.30059 143.652 6.30814C143.598 6.31569 143.545 6.33396 143.497 6.36193L142.27 6.94693C142.198 6.98893 142.141 7.05104 142.104 7.12551C142.068 7.19999 142.054 7.28353 142.065 7.36574C142.076 7.44795 142.11 7.52518 142.165 7.58781C142.219 7.65044 142.29 7.69571 142.37 7.71796ZM141.191 109.844C139.858 110.119 138.487 110.158 137.14 109.961C137.036 109.946 136.93 109.954 136.829 109.984C136.728 110.014 136.634 110.065 136.555 110.134C136.476 110.204 136.412 110.289 136.369 110.385C136.325 110.481 136.303 110.585 136.304 110.691V112.978C136.304 112.978 126.849 118.795 128.788 119.039C130.726 119.282 139.214 117.827 140.668 116.613C141.743 115.718 142.023 112.305 142.096 110.586C142.1 110.472 142.077 110.36 142.031 110.257C141.984 110.154 141.914 110.063 141.826 109.992C141.739 109.92 141.636 109.869 141.526 109.844C141.416 109.818 141.301 109.818 141.191 109.844ZM152.465 112.978V110.683C152.465 110.577 152.443 110.473 152.4 110.377C152.356 110.281 152.292 110.195 152.213 110.126C152.134 110.057 152.04 110.006 151.939 109.976C151.838 109.946 151.732 109.938 151.627 109.953C150.281 110.15 148.91 110.11 147.577 109.836C147.466 109.81 147.351 109.81 147.241 109.836C147.13 109.862 147.027 109.913 146.94 109.985C146.852 110.057 146.783 110.149 146.736 110.252C146.69 110.356 146.668 110.469 146.672 110.582C146.745 112.302 147.023 115.715 148.101 116.61C149.555 117.823 158.046 119.277 159.98 119.035C161.914 118.793 152.465 112.978 152.465 112.978ZM143.204 63.5492C143.182 63.0999 142.479 63.0964 142.502 63.5492L142.788 69.3992C142.81 69.8508 143.515 69.8485 143.49 69.3992C143.412 67.6992 143.221 63.7949 143.204 63.5492Z" fill="black"/>
</svg>
