<svg width="60" height="60" viewBox="0 0 60 60" fill="none" xmlns="http://www.w3.org/2000/svg">
<path d="M29.0625 7.18164L5.625 30.6173V59.8804H54.375V32.4923L29.0625 7.18164Z" fill="#FAFCFB"/>
<path d="M15 39.2554H28.125V59.8804H15V39.2554Z" fill="#434854"/>
<path d="M31.875 37.3804H37.5V43.0054H31.875V37.3804ZM39.375 37.3804H45V43.0054H39.375V37.3804ZM39.375 29.8804H45V35.5054H39.375V29.8804ZM31.875 29.8804H37.5V35.5054H31.875V29.8804Z" fill="#469FCC"/>
<path d="M31.875 29.8804H37.5V31.7554H31.875V29.8804ZM39.375 29.8804H45V31.7554H39.375V29.8804ZM31.875 37.3804H37.5V39.2554H31.875V37.3804ZM39.375 37.3804H45V39.2554H39.375V37.3804Z" fill="black"/>
<path d="M29.0625 3.63037L5.625 28.0054V33.6304L29.0625 10.1929L54.375 35.5054V29.8804L29.0625 3.63037Z" fill="black"/>
<path d="M59.3306 29.4923L31.7138 1.87538L30.3881 0.549752C30.2142 0.375479 30.0075 0.237221 29.7801 0.142888C29.5526 0.0485554 29.3088 0 29.0625 0C28.8163 0 28.5724 0.0485554 28.345 0.142888C28.1175 0.237221 27.9109 0.375479 27.7369 0.549752L26.4113 1.87538L0.669381 27.6173C0.495108 27.7912 0.35685 27.9979 0.262517 28.2253C0.168184 28.4528 0.119629 28.6966 0.119629 28.9429C0.119629 29.1891 0.168184 29.433 0.262517 29.6604C0.35685 29.8879 0.495108 30.0945 0.669381 30.2685L1.99501 31.5941C2.16898 31.7684 2.37562 31.9067 2.60308 32.001C2.83055 32.0953 3.07438 32.1439 3.32063 32.1439C3.56688 32.1439 3.81071 32.0953 4.03818 32.001C4.26565 31.9067 4.47228 31.7684 4.64626 31.5941L29.0625 7.18163L55.3519 33.471C55.5259 33.6453 55.7325 33.7835 55.96 33.8779C56.1874 33.9722 56.4313 34.0208 56.6775 34.0208C56.9238 34.0208 57.1676 33.9722 57.3951 33.8779C57.6225 33.7835 57.8291 33.6453 58.0031 33.471L59.3288 32.1454C59.6806 31.7937 59.8785 31.3167 59.8788 30.8192C59.8792 30.3217 59.682 29.8444 59.3306 29.4923Z" fill="#EF4D4D"/>
<path d="M13.9594 59.8804C14.6337 58.7452 14.9929 57.4507 15 56.1304C15 54.1412 14.2098 52.2336 12.8033 50.8271C11.3968 49.4205 9.48912 48.6304 7.5 48.6304C5.51088 48.6304 3.60322 49.4205 2.1967 50.8271C0.790176 52.2336 0 54.1412 0 56.1304C0 57.5029 0.395625 58.7722 1.04062 59.8804H13.9594ZM52.5 48.6304C51.0625 48.632 49.6559 49.0474 48.4483 49.8271C47.2406 50.6069 46.2831 51.7178 45.69 53.0272C44.8995 52.6083 44.0196 52.3864 43.125 52.3804C41.6332 52.3804 40.2024 52.973 39.1475 54.0279C38.0926 55.0828 37.5 56.5135 37.5 58.0054C37.5 58.6672 37.635 59.2916 37.845 59.8804H58.9613C59.6341 58.7447 59.9926 57.4504 60 56.1304C60 54.1412 59.2098 52.2336 57.8033 50.8271C56.3968 49.4205 54.4891 48.6304 52.5 48.6304Z" fill="#3AAD73"/>
<path d="M45.69 53.0272C44.8995 52.6083 44.0196 52.3864 43.125 52.3804C41.6332 52.3804 40.2024 52.973 39.1475 54.0279C38.0926 55.0828 37.5 56.5135 37.5 58.0054C37.5 58.6672 37.635 59.2916 37.845 59.8804H46.0406C45.3663 58.7452 45.0071 57.4507 45 56.1304C45 55.0204 45.2569 53.976 45.69 53.0272Z" fill="black"/>
</svg>
