<svg width="54" height="66" viewBox="0 0 54 66" fill="none" xmlns="http://www.w3.org/2000/svg">
<path d="M39.0532 16.5927V22.2543C39.0532 22.3499 39.1308 22.4274 39.2264 22.4274H45.5319C45.8037 22.4274 46.0239 22.6477 46.0239 22.9194V27.1699C46.0239 27.4416 45.8037 27.6619 45.5319 27.6619H33.1015V16.5927C33.1015 14.9492 34.4339 13.6168 36.0774 13.6168C37.7209 13.6168 39.0532 14.9492 39.0532 16.5927Z" fill="#E99800"/>
<path d="M38.7426 22.9585C38.6292 22.9585 38.5373 22.8666 38.5373 22.7533V17.1238C38.5373 15.4803 37.205 14.1479 35.5615 14.1479C34.8597 14.1479 34.2159 14.3923 33.7071 14.7987C34.2505 14.0819 35.1085 13.6168 36.0774 13.6168C37.7209 13.6168 39.0532 14.9492 39.0532 16.5927V22.2543C39.0532 22.3499 39.1307 22.4274 39.2263 22.4274H45.5319C45.8036 22.4274 46.0239 22.6477 46.0239 22.9194V22.9585L38.7426 22.9585Z" fill="#E9B300"/>
<path d="M46.8238 26.9797H46.0239V23.0035H46.8238C47.0006 23.0035 47.144 23.1469 47.144 23.3238V26.6595C47.144 26.8364 47.0006 26.9797 46.8238 26.9797Z" fill="#D04247"/>
<path d="M52.9485 28.4644H50.0469C49.8654 28.4644 49.7155 28.3227 49.7054 28.1415L49.3334 21.5187H53.662L53.29 28.1415C53.2798 28.3227 53.1299 28.4644 52.9485 28.4644Z" fill="#E99800"/>
<path d="M49.3625 22.0375L49.3334 21.5187H53.662L53.6328 22.0375H49.3625Z" fill="#E98400"/>
<path d="M49.6317 26.8291L49.4059 22.8088H53.5895L53.3637 26.8291H49.6317Z" fill="#D04247"/>
<path d="M48.0248 23.3625C48.0248 23.3625 48.5888 22.2988 49.2709 22.3218L49.2706 22.3191C49.2706 22.3191 50.2017 22.3433 50.705 22.834C51.2048 23.3214 50.5478 23.9315 49.4688 23.9282L49.6512 27.1773C49.6512 27.1773 47.8235 27.4949 47.144 26.3693V23.3625H48.0248Z" fill="#D99B7A"/>
<path d="M49.1414 20.7578H53.854C53.9346 20.7578 54 20.8232 54 20.9038V21.3725C54 21.4532 53.9346 21.5185 53.854 21.5185H49.1414C49.0607 21.5185 48.9954 21.4532 48.9954 21.3725V20.9038C48.9954 20.8232 49.0607 20.7578 49.1414 20.7578Z" fill="#D04247"/>
<path d="M52.3972 23.5572C52.4071 23.3803 52.5586 23.2449 52.7356 23.2548C52.9125 23.2648 53.0479 23.4163 53.0379 23.5932L52.8982 26.0807C52.8882 26.2576 52.7367 26.393 52.5598 26.383C52.3829 26.3731 52.2475 26.2216 52.2575 26.0447L52.3972 23.5572Z" fill="#E57579"/>
<path d="M32.2679 62.741L37.1887 62.1559L36.159 52.4374L31.4043 53.2661L32.2679 62.741Z" fill="#D99B7A"/>
<path d="M30.8197 57.8021H37.3408C37.8376 57.8021 38.2276 57.3762 38.1839 56.8813L35.0578 21.4774L26.7469 20.4532L29.9766 57.0302C30.0152 57.4671 30.3811 57.8021 30.8197 57.8021Z" fill="#363A4F"/>
<path d="M35.5679 41.1208L36.3674 50.7771C36.4116 51.3103 36.0152 51.7782 35.4821 51.8224C34.949 51.8665 34.481 51.4701 34.4369 50.937L33.6373 41.2807C33.5932 40.7475 33.9896 40.2796 34.5227 40.2354C35.0558 40.1913 35.5238 40.5877 35.5679 41.1208Z" fill="#4A4D64"/>
<path d="M31.9558 65.1569L41.2216 65.1111C41.5395 65.1095 41.792 64.8396 41.7666 64.5227C41.6907 63.5733 41.4088 61.8047 37.528 61.8354C37.528 61.8354 36.8777 60.3121 35.0737 61.0441C33.2696 61.7761 33.0229 60.6252 32.06 60.8646L31.4129 64.5123C31.353 64.8496 31.6134 65.1586 31.9558 65.1569Z" fill="#363A4F"/>
<path d="M41.222 65.1111L31.9558 65.1568C31.6134 65.1585 31.353 64.8495 31.4129 64.5123L31.4834 64.1147L41.6881 64.0643C41.7328 64.2318 41.7563 64.3898 41.7671 64.5297C41.7914 64.8436 41.5369 65.1095 41.222 65.1111Z" fill="#E9B300"/>
<path d="M4.17444 31.8901L2.90605 36.9269L13.6483 40.9458L15.3918 35.4469L4.17444 31.8901Z" fill="#D99B7A"/>
<path d="M3.93195 31.0806L0.0511107 39.4946C-0.0820479 39.7833 0.0556235 40.1263 0.353477 40.2375C1.24577 40.5706 2.96739 41.0639 4.58239 37.5349C4.58239 37.5349 6.2377 37.5906 6.33821 35.6463C6.43873 33.7021 7.58584 33.9657 7.7766 32.992L4.74574 30.8616C4.46555 30.6646 4.0754 30.7696 3.93195 31.0806Z" fill="#363A4F"/>
<path d="M0.0509386 39.495L3.93196 31.0806C4.07541 30.7696 4.46556 30.6646 4.74576 30.8616L5.07608 31.0937L0.801952 40.3604C0.631264 40.3299 0.478222 40.2844 0.346888 40.2349C0.0521998 40.124 -0.0809383 39.7809 0.0509386 39.495Z" fill="#E9B300"/>
<path d="M32.3176 24.9916L25.5866 44.4062C25.1015 45.8054 23.5539 46.5247 22.1715 45.9936L7.38467 40.3127C7.07787 40.1948 6.93537 39.8415 7.07453 39.5438L9.85123 33.6029C9.97241 33.3436 10.2679 33.2154 10.54 33.304L19.3025 36.1569L23.4844 24.9916L32.3176 24.9916Z" fill="#4A4D64"/>
<path d="M23.6367 28.1304L20.3861 36.6484C20.3038 36.8638 20.0671 36.977 19.8478 36.9056L9.83177 33.6445L9.85159 33.6022C9.97295 33.3434 10.2682 33.2155 10.54 33.304L19.3026 36.1569L23.4845 24.9916H24.7388L23.6367 28.1304Z" fill="#5C607D"/>
<path d="M27.3718 8.36203C25.9999 8.36203 24.8878 7.24988 24.8878 5.87797C24.8878 4.50607 25.9999 3.39392 27.3718 3.39392C28.7437 3.39392 29.8559 4.50607 29.8559 5.87797C29.8559 7.24988 28.7437 8.36203 27.3718 8.36203Z" fill="#363A4F"/>
<path d="M27.1372 9.07849H31.5161V13.9481H27.1372V9.07849Z" fill="#CE7672"/>
<path d="M30.1068 11.0225C32.1847 11.0225 33.8691 9.33808 33.8691 7.26022V4.1145H26.3445V7.26022C26.3445 9.33807 28.029 11.0225 30.1068 11.0225Z" fill="#D99B7A"/>
<path d="M30.1068 7.37762C29.9682 7.37762 29.8558 7.22365 29.8558 7.03372C29.8558 6.84379 29.9682 6.68982 30.1068 6.68982C30.2454 6.68982 30.3577 6.84379 30.3577 7.03372C30.3577 7.22365 30.2454 7.37762 30.1068 7.37762Z" fill="#272726"/>
<path d="M32.3176 7.37762C32.179 7.37762 32.0666 7.22365 32.0666 7.03372C32.0666 6.84379 32.179 6.68982 32.3176 6.68982C32.4562 6.68982 32.5685 6.84379 32.5685 7.03372C32.5685 7.22365 32.4562 7.37762 32.3176 7.37762Z" fill="#272726"/>
<path d="M29.4429 8.34132C29.4396 8.36308 29.4357 8.38461 29.4336 8.40683C29.3803 8.99453 29.8135 9.51417 30.4012 9.56748C30.9889 9.62079 31.5086 9.18759 31.5619 8.5999C31.5639 8.57768 31.5639 8.55579 31.5645 8.53378L29.4429 8.34132Z" fill="#B2545D"/>
<path d="M29.4336 8.40683C29.4356 8.3846 29.4396 8.36307 29.4429 8.34131L31.5646 8.53379C31.5639 8.55579 31.5639 8.57768 31.5619 8.5999C31.5541 8.68542 31.5354 8.76714 31.5091 8.8451L29.4356 8.61914C29.4281 8.54986 29.4271 8.47888 29.4336 8.40683Z" fill="white"/>
<path d="M30.1869 8.95654C29.9809 8.95654 29.7897 9.01938 29.6312 9.12685C29.8059 9.3694 30.0801 9.53829 30.4012 9.56742C30.629 9.58808 30.8461 9.53499 31.0303 9.42881C30.8557 9.1458 30.5438 8.95654 30.1869 8.95654Z" fill="#CE7672"/>
<path d="M26.174 7.55996H26.4753V5.71167H26.174C25.6636 5.71167 25.2498 6.12542 25.2498 6.63581C25.2498 7.1462 25.6636 7.55996 26.174 7.55996Z" fill="#D99B7A"/>
<path d="M26.2502 6.1095C26.2824 6.1095 26.4447 6.11342 26.4753 6.11901V7.15245C26.4447 7.15803 26.2824 7.16196 26.2502 7.16196C25.9595 7.16196 25.7239 6.92636 25.7239 6.63573C25.7239 6.34511 25.9595 6.1095 26.2502 6.1095Z" fill="#CE7672"/>
<path d="M31.9027 5.99231C29.5888 5.99231 27.713 4.65089 27.713 2.99616C27.713 1.34142 29.5888 0 31.9027 0C34.2167 0 36.0925 1.34142 36.0925 2.99616C36.0925 4.65089 34.2167 5.99231 31.9027 5.99231Z" fill="#363A4F"/>
<path d="M27.9217 6.24261C26.4235 6.24261 25.209 5.02808 25.209 3.52987C25.209 2.03167 26.4235 0.817139 27.9217 0.817139C29.42 0.817139 30.6345 2.03167 30.6345 3.52987C30.6345 5.02808 29.42 6.24261 27.9217 6.24261Z" fill="#363A4F"/>
<path d="M32.672 2.28435C31.7926 2.1844 31.1207 1.74201 31.1714 1.29624C31.222 0.85048 31.976 0.570145 32.8555 0.670096C33.7349 0.770048 34.4067 1.21244 34.3561 1.6582C34.3054 2.10396 33.5514 2.3843 32.672 2.28435Z" fill="#525778"/>
<path d="M26.4665 13.0231H32.3176V12.0889C32.3176 11.8543 32.1274 11.6642 31.8929 11.6642H26.8913C26.6567 11.6642 26.4665 11.8543 26.4665 12.0889L26.4665 13.0231Z" fill="#A64247"/>
<path d="M36.0925 26.9776H21.3957V18.025C21.3957 15.2626 23.635 13.0232 26.3975 13.0232H32.5268C34.4961 13.0232 36.0925 14.6196 36.0925 16.5889V26.9776Z" fill="#D04247"/>
<path d="M36.4273 27.8836H33.3416C33.0471 27.8836 32.8083 27.6448 32.8083 27.3502V13.0232H33.2257C35.2884 13.0232 36.9607 14.6954 36.9607 16.7582V27.3502C36.9607 27.6448 36.7219 27.8836 36.4273 27.8836Z" fill="#E9B300"/>
<path d="M21.929 27.8835H25.6229C25.9175 27.8835 26.1562 27.6447 26.1562 27.3502V13.0289H24.4677C22.771 13.0289 21.3956 14.4043 21.3956 16.101V27.3502C21.3956 27.6447 21.6344 27.8835 21.929 27.8835Z" fill="#E9B300"/>
<path d="M33.4298 13.0335V27.8836H33.3416C33.0471 27.8836 32.8083 27.6448 32.8083 27.3502V13.0232H33.2257C33.2946 13.0232 33.3618 13.0298 33.4298 13.0335Z" fill="#E9B300"/>
<path d="M25.6229 27.8835H25.6098V13.0289H26.1562V27.3502C26.1562 27.6447 25.9174 27.8835 25.6229 27.8835Z" fill="#E9B300"/>
<path d="M33.6312 18.3974C33.6312 18.0513 33.9117 17.7708 34.2578 17.7708C34.6039 17.7708 34.8845 18.0513 34.8845 18.3974V21.6033C34.8845 21.9494 34.6039 22.23 34.2578 22.23C33.9117 22.23 33.6312 21.9494 33.6312 21.6033V18.3974Z" fill="#F7CE2D"/>
<path d="M34.2578 17.1401C33.9256 17.1401 33.6563 16.8708 33.6563 16.5386C33.6563 16.2064 33.9256 15.9371 34.2578 15.9371C34.59 15.9371 34.8593 16.2064 34.8593 16.5386C34.8593 16.8708 34.59 17.1401 34.2578 17.1401Z" fill="#F7CE2D"/>
<path d="M18.0166 33.5057L21.4894 32.8338C21.572 32.8179 21.6261 32.7379 21.6101 32.6553L21.4312 31.7307L17.6592 32.4604L17.838 33.385C17.854 33.4676 17.934 33.5217 18.0166 33.5057Z" fill="#D04247"/>
<path d="M24.4661 13.8046C25.511 14.8495 25.511 16.5437 24.4661 17.5886L20.2319 21.8228L22.02 31.5616C22.0598 31.7784 21.9163 31.9864 21.6995 32.0262L17.5834 32.7819C17.3667 32.8217 17.1588 32.6784 17.1188 32.4618L15.1595 21.8439C14.9143 20.5135 15.3392 19.1476 16.2957 18.191L20.6821 13.8046C21.727 12.7596 23.4212 12.7596 24.4661 13.8046Z" fill="#E99800"/>
<path d="M19.5217 21.6669L23.7559 17.4327C24.8008 16.3877 24.8008 14.6936 23.7559 13.6487C23.4716 13.3645 23.1387 13.1604 22.7846 13.0308C23.3976 13.0789 23.9972 13.3355 24.466 13.8044C25.511 14.8493 25.511 16.5435 24.4661 17.5884L20.2319 21.8226L22.02 31.5614C22.0598 31.7782 21.9163 31.9862 21.6995 32.0261L21.4327 32.075L19.5217 21.6669Z" fill="#E98400"/>
<path d="M21.1492 32.8998C21.1492 32.8998 22.2319 33.3779 21.9463 33.818C21.6607 34.258 21.1492 34.1577 21.1492 34.1577C21.1492 34.1577 22.8271 35.68 21.7324 36.3094C20.6377 36.9387 18.939 37.1398 18.4483 36.3094C17.9576 35.4789 18.1104 33.4877 18.1104 33.4877L21.1492 32.8998Z" fill="#D99B7A"/>
<path d="M17.7102 25.0118L18.6895 30.0742C18.7552 30.414 18.5331 30.7427 18.1933 30.8085C17.8535 30.8742 17.5247 30.652 17.459 30.3122L16.4796 25.2499C16.4139 24.9101 16.6361 24.5813 16.9759 24.5156C17.3157 24.4499 17.6444 24.672 17.7102 25.0118Z" fill="#E9B300"/>
</svg>
