<svg width="308" height="308" viewBox="0 0 308 308" fill="none" xmlns="http://www.w3.org/2000/svg">
<path d="M151.914 279.068L130.246 176.145H108.168C100.295 176.145 92.4216 180.792 89.7735 190.087L64.4225 279.068C61.7281 288.524 68.7886 297.944 78.5718 297.944H108.168H130.246H137.764C147.547 297.944 154.608 288.524 151.914 279.068Z" fill="#B69362"/>
<path d="M63.8496 283.514C64.0307 291.268 70.3357 297.944 78.5717 297.944H108.168H130.246H137.764C146 297.944 152.305 291.268 152.486 283.514H63.8496Z" fill="#A57D48"/>
<path d="M111.852 190.087L86.5006 279.068C83.8062 288.525 90.8667 297.944 100.65 297.944H159.842C169.626 297.944 176.686 288.525 173.992 279.068L148.641 190.087C143.344 171.498 117.148 171.498 111.852 190.087Z" fill="#8D663D"/>
<path d="M216.357 148.89L103.188 67.2775L47.9858 122.479L133.327 231.919C134.654 233.566 136.081 235.158 137.611 236.687C160.673 259.749 198.064 259.749 221.125 236.687C244.187 213.625 244.187 176.234 221.125 153.173C219.595 151.644 218.004 150.216 216.357 148.89Z" fill="#7F8383"/>
<path d="M216.357 148.89L103.188 67.2775C92.1231 78.3421 91.1763 95.9666 100.991 108.153L162.564 188.081C163.89 189.728 165.318 191.32 166.847 192.849C186.116 212.118 215.383 215.274 237.942 202.343C240.142 184.866 234.547 166.594 221.126 153.173C219.595 151.644 218.004 150.216 216.357 148.89Z" fill="#91928F"/>
<path d="M73.5045 92.7958C62.0339 104.266 50.159 108.609 43.9792 107.79L38.375 107.049L37.6309 101.444C36.811 95.2652 41.1536 83.3898 52.6254 71.9174C64.0972 60.445 75.9733 56.1029 82.1525 56.9228L87.7567 57.667L88.4984 63.2711C89.3183 69.4516 84.9751 81.3264 73.5045 92.7958Z" fill="#7F8383"/>
<path d="M42.9242 62.2166C24.2012 80.9397 18.3703 105.466 29.9016 116.997C41.433 128.529 65.9581 122.698 84.6823 103.975C103.407 85.2517 109.236 60.7254 97.7049 49.194C86.1736 37.6626 61.6473 43.493 42.9242 62.2166Z" fill="#91928F"/>
<path d="M279.802 279.068L258.134 176.145H236.056C228.183 176.145 220.31 180.792 217.662 190.087L192.311 279.068C189.616 288.524 196.677 297.944 206.46 297.944H236.056H258.134H265.653C275.436 297.944 282.496 288.524 279.802 279.068Z" fill="#B69362"/>
<path d="M191.738 283.514C191.919 291.268 198.224 297.944 206.46 297.944H236.056H258.134H265.652C273.888 297.944 280.193 291.268 280.374 283.514H191.738Z" fill="#A57D48"/>
<path d="M239.74 190.087L214.389 279.068C211.695 288.525 218.755 297.944 228.539 297.944H287.731C297.514 297.944 304.575 288.525 301.881 279.068L276.529 190.087C271.233 171.498 245.036 171.498 239.74 190.087Z" fill="#8D663D"/>
<path d="M9.21875 46.9652C9.21875 67.3491 25.7437 83.8741 46.1276 83.8741V24.8199L9.21875 46.9652Z" fill="#8D472E"/>
<path d="M78.6072 65.4193C78.6072 83.7652 63.7354 98.637 45.3896 98.637C27.0437 98.637 12.1719 83.7652 12.1719 65.4193C12.1719 47.0735 27.0437 24.8199 45.3896 24.8199C63.7354 24.8199 78.6072 47.0741 78.6072 65.4193Z" fill="#D5A150"/>
<path d="M45.3896 69.1484C45.3805 63.0179 40.4477 58.0381 34.3172 58.0381H19.615C15.5563 58.0381 12.1809 61.289 12.1719 65.3477C12.1719 65.3718 12.1719 65.3959 12.1719 65.4199C12.1719 83.7658 27.0437 98.6376 45.3896 98.6376C45.4545 98.6376 45.5201 98.6376 45.5851 98.637C52.2383 98.5985 55.7394 90.7325 51.4467 85.6499C47.6761 81.1845 45.3992 75.4275 45.3896 69.1484Z" fill="#E1B872"/>
<path d="M68.1246 13.0124L52.7721 10.0575H45.3903C25.7499 10.0575 9.37355 24.0065 5.61258 42.5371C5.14818 44.8248 6.89993 46.9664 9.23399 46.9664H16.6158H26.9362H34.3179C46.5489 46.9664 56.4633 56.8813 56.4633 69.1117C56.4633 82.0387 72.0666 88.6384 81.2741 79.5644C88.7419 72.2043 93.3721 61.9723 93.3721 50.6575C93.3709 33.6682 82.9374 19.0208 68.1246 13.0124Z" fill="#BD7155"/>
<path d="M30.6954 42.5371C34.4485 24.0498 48.5539 13.0635 68.1234 13.0124C64.4707 11.5307 60.5569 10.567 56.4615 10.2319C55.5411 10.1568 46.6963 10.0575 45.3747 10.0575C25.7343 10.0575 9.35793 24.0065 5.59696 42.5371C5.13255 44.8248 6.8843 46.9664 9.21837 46.9664H34.3162C31.9827 46.9652 30.2321 44.8242 30.6954 42.5371Z" fill="#E7E4CD"/>
<path opacity="0.2" d="M85.2725 26.2834C81.9308 27.1515 79.5294 30.1202 79.5294 33.7597C79.5294 37.8028 78.745 41.7743 77.2868 45.4823C74.9593 51.4017 67.0416 52.4959 63.2307 47.4031C56.6363 38.5932 46.2359 33.1244 34.956 33.1244H15.2404C13.236 33.1244 11.3321 32.2491 10.0261 30.7284C7.98739 34.3402 6.47987 38.2918 5.62264 42.4811C5.15042 44.7917 6.8745 46.9658 9.23322 46.9658H16.615H26.9354H34.3172C46.5397 46.9658 56.4769 56.8681 56.4625 69.0918C56.4468 82.032 72.0616 88.642 81.2733 79.5644C88.7411 72.2043 93.3714 61.9723 93.3714 50.6576C93.3708 41.53 90.3563 33.0823 85.2725 26.2834Z" fill="#493023"/>
<path d="M40.5918 65.9114C43.6494 65.9114 46.128 63.4328 46.128 60.3752C46.128 57.3177 43.6494 54.8391 40.5918 54.8391C37.5343 54.8391 35.0557 57.3177 35.0557 60.3752C35.0557 63.4328 37.5343 65.9114 40.5918 65.9114Z" fill="#4E4E4E"/>
<path d="M307.204 277.551L281.853 188.57C278.745 177.659 269.434 170.609 258.134 170.609H236.056C224.755 170.609 215.445 177.659 212.338 188.57L196.035 245.791C176.954 252.031 155.823 247.07 141.526 232.772C140.164 231.41 138.867 229.967 137.667 228.481L58.2397 126.626C63.5028 125.1 68.9512 122.646 74.3761 119.257C76.97 117.639 77.7592 114.223 76.1404 111.629C74.5216 109.036 71.1054 108.246 68.512 109.865C54.5516 118.581 40.6091 119.873 33.8175 113.081C30.9041 110.168 29.4447 105.923 29.5079 100.767C33.0415 102.361 36.8548 103.44 40.8528 103.909C41.6853 105.4 43.1868 106.464 44.9608 106.698C50.9259 107.488 62.9037 102.687 73.357 92.234C74.2756 91.3154 74.7996 90.1544 74.9373 88.9579C78.6977 88.2252 82.2403 86.3814 85.1603 83.5041C91.4803 77.2749 95.7634 69.5533 97.7095 61.126C97.9405 62.4235 98.0529 63.7981 98.0481 65.2346C97.6066 66.3433 97.5404 67.5458 97.8304 68.6666C97.0965 74.749 94.5248 81.6368 90.1983 88.3972C88.5501 90.9725 89.3014 94.3966 91.8767 96.0449C92.8007 96.6362 93.8342 96.9189 94.8562 96.9189C96.6808 96.9189 98.468 96.0166 99.5244 94.3665C103.201 88.6222 105.822 82.778 107.382 77.1263L212.996 153.291C214.456 154.473 215.873 155.749 217.21 157.087C220.158 160.034 222.754 163.31 224.926 166.822C225.973 168.515 227.786 169.448 229.64 169.448C230.634 169.448 231.639 169.18 232.547 168.619C235.147 167.011 235.952 163.599 234.344 160.999C231.723 156.76 228.592 152.81 225.04 149.258C223.389 147.608 221.637 146.033 219.83 144.578L219.715 144.485L109.087 64.7065C108.991 56.9818 106.521 50.1799 101.62 45.279C100.57 44.2293 99.4131 43.2896 98.1811 42.4456C95.4404 27.0011 85.0676 13.9099 70.2066 7.88227C65.9445 6.15218 61.4719 5.08621 56.9121 4.71264C55.342 4.58511 53.9488 4.52014 52.7715 4.52014H45.3898C23.5386 4.52014 4.52742 20.0447 0.186548 41.4356C-0.366288 44.1601 0.326111 46.9586 2.08688 49.1122C3.7117 51.0991 6.0566 52.2914 8.59399 52.4665C7.30484 56.8326 6.6365 61.2138 6.6365 65.4199C6.6365 76.6481 11.437 86.7772 19.0931 93.8612C17.1326 104.943 19.5322 114.456 25.9882 120.912C31.0058 125.93 37.8564 128.443 45.652 128.49L87.3596 181.974C86.1101 183.976 85.132 186.179 84.4504 188.571L59.0982 277.551C57.329 283.762 58.5429 290.278 62.4296 295.427C66.2923 300.545 72.1767 303.479 78.572 303.479H100.65H159.842C166.238 303.479 172.122 300.544 175.985 295.427C179.872 290.278 181.086 283.762 179.317 277.55L174.113 259.283C175.878 259.429 177.649 259.518 179.425 259.518C183.79 259.518 188.174 259.059 192.512 258.159L186.987 277.549C185.218 283.761 186.431 290.276 190.318 295.426C194.181 300.543 200.065 303.477 206.461 303.477H228.538H287.73C294.126 303.477 300.01 300.542 303.873 295.426C307.76 290.279 308.975 283.762 307.204 277.551ZM87.8342 50.6558C87.8342 60.1141 84.1244 68.9794 77.3869 75.6194C74.722 78.2458 71.0608 78.9473 67.5934 77.4963C64.0899 76.0309 61.9983 72.8955 61.9983 69.1099C61.9983 54.6213 50.8068 42.7049 36.6154 41.5313C40.333 27.2646 51.2845 18.9757 67.0412 18.569C79.7089 24.1654 87.8342 36.6394 87.8342 50.6558ZM40.9797 15.8728C33.0319 21.7609 27.4885 30.5173 25.2717 41.429H11.5615C15.2804 27.7489 27.0223 17.651 40.9797 15.8728ZM17.7083 65.4193C17.7083 63.898 17.849 62.3123 18.0939 60.6995C18.2629 63.6056 20.6655 65.9114 23.6138 65.9114C26.6715 65.9114 29.15 63.4324 29.15 60.3752C29.15 57.3175 26.6709 54.839 23.6138 54.839C21.385 54.839 19.469 56.1589 18.5914 58.0568C19.01 56.21 19.5785 54.347 20.2793 52.5014H34.3174C43.4762 52.5014 50.9265 59.9523 50.9265 69.1105C50.9265 77.0481 55.3041 83.9198 62.408 87.2915C57.175 91.7774 52.5231 93.9869 49.549 94.9831C48.5293 93.8233 47.0362 93.1008 45.3904 93.1008C30.1263 93.1008 17.7083 80.6834 17.7083 65.4193ZM71.2672 288.757C69.492 286.405 68.9373 283.426 69.7464 280.586L95.0361 191.82L102.775 201.743L81.1767 277.552C79.7378 282.603 80.272 287.854 82.6108 292.408H78.5725C75.6814 292.408 73.0183 291.077 71.2672 288.757ZM168.667 280.584C169.477 283.426 168.923 286.405 167.147 288.757C165.395 291.077 162.733 292.407 159.842 292.407H100.65C97.7582 292.407 95.0969 291.076 93.3451 288.757C91.5699 286.404 91.0153 283.426 91.8244 280.584L111.207 212.555L128.962 235.323L129.016 235.391C130.47 237.198 132.045 238.951 133.697 240.602C141.704 248.61 151.491 254.176 161.979 257.108L168.667 280.584ZM295.036 288.757C293.284 291.077 290.622 292.408 287.731 292.408H228.538C225.647 292.408 222.985 291.077 221.234 288.757C219.458 286.405 218.904 283.426 219.713 280.585L225.09 261.709C225.928 258.769 224.223 255.706 221.283 254.868C218.344 254.032 215.279 255.735 214.441 258.675L209.064 277.551C207.625 282.601 208.159 287.852 210.498 292.407H206.46C203.568 292.407 200.907 291.076 199.155 288.757C197.38 286.404 196.825 283.426 197.634 280.585L222.986 191.604C225.07 184.289 231.104 181.682 236.056 181.682H237.521C236.195 183.75 235.133 186.052 234.416 188.571L225.932 218.349C225.094 221.289 226.799 224.352 229.739 225.19C232.68 226.027 235.743 224.323 236.581 221.383L245.065 191.605C247.149 184.29 253.183 181.683 258.135 181.683C263.086 181.683 269.12 184.29 271.205 191.605L296.556 280.586C297.365 283.426 296.811 286.405 295.036 288.757Z" fill="#4E4E4E"/>
<path d="M258.132 216.742C261.189 216.742 263.668 211.785 263.668 205.67C263.668 199.555 261.189 194.598 258.132 194.598C255.074 194.598 252.596 199.555 252.596 205.67C252.596 211.785 255.074 216.742 258.132 216.742Z" fill="#4E4E4E"/>
</svg>
