<svg width="63" height="60" viewBox="0 0 63 60" fill="none" xmlns="http://www.w3.org/2000/svg">
<path d="M7.4151 18.0558H55.5912V54.936H7.4151V18.0558Z" fill="#FAFCFB"/>
<path d="M55.5975 55.7676H7.4151C6.9552 55.7676 6.5835 55.3959 6.5835 54.936V18.0558C6.5835 17.5959 6.9552 17.2242 7.4151 17.2242H55.5912C56.0511 17.2242 56.4228 17.5959 56.4228 18.0558V54.936C56.4291 55.3959 56.0574 55.7676 55.5975 55.7676ZM8.253 54.1044H54.7659V18.8937H8.253V54.1044Z" fill="#0F0F0F"/>
<path d="M58.2057 58.9113H4.59271C3.51541 58.9113 2.63971 58.0293 2.63971 56.9583V56.889C2.63971 55.8117 3.52171 54.936 4.59271 54.936H58.2057C59.283 54.936 60.1587 55.818 60.1587 56.889V56.9583C60.1587 58.0293 59.283 58.9113 58.2057 58.9113Z" fill="#845A3D"/>
<path d="M58.1742 59.7429H4.62422C3.06812 59.7429 1.80182 58.4766 1.80182 56.9205C1.80182 55.3644 3.06812 54.0981 4.62422 54.0981H58.1679C59.724 54.0981 60.9903 55.3644 60.9903 56.9205C60.9903 58.4766 59.7303 59.7429 58.1742 59.7429ZM4.62422 55.7676C3.98792 55.7676 3.47132 56.2842 3.47132 56.9205C3.47132 57.5568 3.98792 58.0734 4.62422 58.0734H58.1679C58.8042 58.0734 59.3208 57.5568 59.3208 56.9205C59.3208 56.2842 58.8042 55.7676 58.1679 55.7676H4.62422Z" fill="#141414"/>
<path d="M59.0499 13.3246H3.96271L8.50501 3.67297H54.5076L59.0499 13.3246Z" fill="#EF4D4D"/>
<path d="M59.0499 14.1562H3.96271C3.67921 14.1562 3.41461 14.0113 3.25711 13.7719C3.10591 13.5325 3.08701 13.2301 3.20671 12.9718L7.75531 3.31388C7.89391 3.02408 8.18371 2.83508 8.51131 2.83508H54.5139C54.8352 2.83508 55.1313 3.02408 55.2699 3.31388L59.8122 12.9655C59.9319 13.2238 59.913 13.5262 59.7618 13.7656C59.598 14.0113 59.3334 14.1562 59.0499 14.1562ZM5.27311 12.493H57.7332L53.9721 4.50458H9.03421L5.27311 12.493Z" fill="#191919"/>
<path d="M15.8193 4.80688L12.1275 13.3245L15.8193 4.80688Z" fill="#EF4D4D"/>
<path d="M12.1275 14.1561C12.0141 14.1561 11.907 14.1309 11.7936 14.0868C11.3715 13.9041 11.1762 13.4127 11.3589 12.9906L15.0507 4.47296C15.2334 4.05086 15.7248 3.85556 16.1469 4.03826C16.569 4.22096 16.7643 4.71236 16.5816 5.13446L12.8898 13.6521C12.7575 13.9734 12.4488 14.1561 12.1275 14.1561Z" fill="#191919"/>
<path d="M47.1933 4.80688L50.8851 13.3245L47.1933 4.80688Z" fill="#EF4D4D"/>
<path d="M50.8851 14.1561C50.5638 14.1561 50.2551 13.9671 50.1228 13.6521L46.431 5.13446C46.2483 4.71236 46.4436 4.22096 46.8657 4.03826C47.2878 3.85556 47.7792 4.05086 47.9619 4.47296L51.6537 12.9906C51.8364 13.4127 51.6411 13.9041 51.219 14.0868C51.1119 14.1372 50.9985 14.1561 50.8851 14.1561Z" fill="#191919"/>
<rect x="35.7872" y="35.1973" width="12.9394" height="6.09999" fill="#6ECBF9"/>
<path d="M23.5935 4.80688L21.8862 13.3245L23.5935 4.80688Z" fill="#EF4D4D"/>
<path d="M21.8862 14.156C21.8295 14.156 21.7791 14.1497 21.7224 14.1371C21.2688 14.0489 20.979 13.6079 21.0672 13.1543L22.7682 4.63669C22.8564 4.18309 23.2974 3.89329 23.751 3.98149C24.2046 4.06969 24.4944 4.51069 24.4062 4.96429L22.7052 13.4819C22.6233 13.8851 22.2768 14.156 21.8862 14.156Z" fill="#191919"/>
<path d="M39.4191 4.80688L41.1264 13.3245L39.4191 4.80688Z" fill="#EF4D4D"/>
<path d="M41.1264 14.156C40.7358 14.156 40.3893 13.8851 40.3074 13.4882L38.6064 4.97064C38.5182 4.51704 38.808 4.08234 39.2616 3.98784C39.7152 3.89964 40.1499 4.18944 40.2444 4.64304L41.9454 13.1606C42.0336 13.6142 41.7438 14.0489 41.2902 14.1434C41.2335 14.1497 41.1768 14.156 41.1264 14.156Z" fill="#191919"/>
<path d="M31.5063 14.1561C31.0464 14.1561 30.6747 13.7844 30.6747 13.3245V4.80694C30.6747 4.34704 31.0464 3.97534 31.5063 3.97534C31.9662 3.97534 32.3379 4.34704 32.3379 4.80694V13.3245C32.3379 13.7844 31.9662 14.1561 31.5063 14.1561Z" fill="#191919"/>
<path d="M57.0591 13.3245C59.8815 13.3245 62.1684 15.6114 62.1684 18.4338C62.1684 21.2562 59.8815 23.5431 57.0591 23.5431C54.2367 23.5431 51.9498 21.2562 51.9498 18.4338C51.9498 21.2562 49.6629 23.5431 46.8405 23.5431C44.0181 23.5431 41.7312 21.2562 41.7312 18.4338C41.7312 21.2562 39.4443 23.5431 36.6219 23.5431C33.7995 23.5431 31.5063 21.2562 31.5063 18.4338C31.5063 21.2562 29.2194 23.5431 26.397 23.5431C23.5746 23.5431 21.2877 21.2562 21.2877 18.4338C21.2877 21.2562 19.0008 23.5431 16.1784 23.5431C13.356 23.5431 11.0691 21.2562 11.0691 18.4338C11.0691 21.2562 8.78222 23.5431 5.95982 23.5431C3.13742 23.5431 0.850525 21.2562 0.850525 18.4338C0.850525 15.6114 3.13742 13.3245 5.95982 13.3245H56.9268" fill="#EF4D4D"/>
<path d="M57.0591 24.381C54.8856 24.381 52.983 23.2092 51.9498 21.4704C50.9103 23.2092 49.0077 24.381 46.8405 24.381C44.667 24.381 42.7644 23.2092 41.7312 21.4704C40.6917 23.2155 38.7891 24.381 36.6219 24.381C34.4547 24.381 32.5458 23.2092 31.5126 21.4704C30.4731 23.2155 28.5705 24.381 26.4033 24.381C24.2298 24.381 22.3272 23.2092 21.294 21.4704C20.2545 23.2155 18.3519 24.381 16.1847 24.381C14.0175 24.381 12.1086 23.2092 11.0754 21.4704C10.0233 23.2092 8.1207 24.381 5.9472 24.381C2.6712 24.381 0 21.7161 0 18.4338C0 15.1578 2.6649 12.4866 5.9472 12.4866H57.0528C60.3288 12.4866 63 15.1515 63 18.4338C63.0063 21.7161 60.3414 24.381 57.0591 24.381ZM52.7814 18.4338C52.7814 20.79 54.7029 22.7115 57.0591 22.7115C59.4153 22.7115 61.3368 20.79 61.3368 18.4338C61.3368 16.0776 59.4153 14.1561 57.0591 14.1561H5.9535C3.5973 14.1561 1.6758 16.0776 1.6758 18.4338C1.6758 20.79 3.5973 22.7115 5.9535 22.7115C8.3097 22.7115 10.2312 20.79 10.2312 18.4338C10.2312 17.9739 10.6029 17.6022 11.0628 17.6022C11.5227 17.6022 11.8944 17.9739 11.8944 18.4338C11.8944 20.79 13.8159 22.7115 16.1721 22.7115C18.5283 22.7115 20.4498 20.79 20.4498 18.4338C20.4498 17.9739 20.8215 17.6022 21.2814 17.6022C21.7413 17.6022 22.113 17.9739 22.113 18.4338C22.113 20.79 24.0345 22.7115 26.3907 22.7115C28.7469 22.7115 30.6684 20.79 30.6684 18.4338C30.6684 17.9739 31.0401 17.6022 31.5 17.6022C31.9599 17.6022 32.3316 17.9739 32.3316 18.4338C32.3316 20.79 34.2531 22.7115 36.6093 22.7115C38.9655 22.7115 40.887 20.79 40.887 18.4338C40.887 17.9739 41.2587 17.6022 41.7186 17.6022C42.1785 17.6022 42.5502 17.9739 42.5502 18.4338C42.5502 20.79 44.4717 22.7115 46.8279 22.7115C49.1841 22.7115 51.1056 20.79 51.1056 18.4338C51.1056 17.9739 51.4773 17.6022 51.9372 17.6022C52.3971 17.6022 52.7814 17.9739 52.7814 18.4338Z" fill="#191919"/>
<path d="M24.3054 54.9359H13.5702C12.8646 54.9359 12.2913 54.3626 12.2913 53.657V33.8687C12.2913 33.1631 12.8646 32.5898 13.5702 32.5898H24.3054C25.011 32.5898 25.5843 33.1631 25.5843 33.8687V53.657C25.578 54.3626 25.0047 54.9359 24.3054 54.9359Z" fill="#D39E33"/>
<path d="M24.2802 55.7676H13.5891C12.411 55.7676 11.4597 54.81 11.4597 53.6382V33.894C11.4597 32.7159 12.4173 31.7646 13.5891 31.7646H24.2802C25.4583 31.7646 26.4096 32.7222 26.4096 33.894V53.6382C26.4096 54.81 25.4583 55.7676 24.2802 55.7676ZM13.5891 33.4278C13.3308 33.4278 13.1229 33.6357 13.1229 33.894V53.6382C13.1229 53.8965 13.3308 54.1044 13.5891 54.1044H24.2802C24.5385 54.1044 24.7464 53.8965 24.7464 53.6382V33.894C24.7464 33.6357 24.5385 33.4278 24.2802 33.4278H13.5891Z" fill="#111111"/>
<path d="M13.7025 44.0623C13.7025 44.183 13.7263 44.3027 13.7725 44.4142C13.8188 44.5258 13.8865 44.6272 13.9719 44.7127C14.0573 44.7981 14.1587 44.8658 14.2703 44.912C14.3819 44.9583 14.5015 44.9821 14.6223 44.9821C14.7431 44.9821 14.8627 44.9583 14.9743 44.912C15.0859 44.8658 15.1873 44.7981 15.2727 44.7127C15.3581 44.6272 15.4259 44.5258 15.4721 44.4142C15.5183 44.3027 15.5421 44.183 15.5421 44.0623C15.5421 43.9415 15.5183 43.8219 15.4721 43.7103C15.4259 43.5987 15.3581 43.4973 15.2727 43.4119C15.1873 43.3264 15.0859 43.2587 14.9743 43.2125C14.8627 43.1662 14.7431 43.1425 14.6223 43.1425C14.5015 43.1425 14.3819 43.1662 14.2703 43.2125C14.1587 43.2587 14.0573 43.3264 13.9719 43.4119C13.8865 43.4973 13.8188 43.5987 13.7725 43.7103C13.7263 43.8219 13.7025 43.9415 13.7025 44.0623Z" fill="#0C0C0C"/>
<path d="M48.8691 42.84H35.6769C34.839 42.84 34.1586 42.1596 34.1586 41.3217V35.0847C34.1586 34.2468 34.839 33.5664 35.6769 33.5664H48.8628C49.7007 33.5664 50.3811 34.2468 50.3811 35.0847V41.3217C50.3811 42.1596 49.7007 42.84 48.8691 42.84ZM35.8281 41.1705H48.7116V35.2359H35.8281V41.1705Z" fill="#0F0F0F"/>
<path d="M49.1841 45.1269H35.3619C34.5114 45.1269 33.8247 44.4402 33.8247 43.5897V43.5393C33.8247 42.6888 34.5114 42.0021 35.3619 42.0021H49.1841C50.0346 42.0021 50.7213 42.6888 50.7213 43.5393V43.5897C50.7213 44.4402 50.0346 45.1269 49.1841 45.1269Z" fill="#FAFCFB"/>
<path d="M49.1589 45.9585H35.3871C34.0641 45.9585 32.9931 44.8812 32.9931 43.5645C32.9931 42.2415 34.0704 41.1705 35.3871 41.1705H49.1589C50.4819 41.1705 51.5529 42.2478 51.5529 43.5645C51.5529 44.8875 50.4819 45.9585 49.1589 45.9585ZM35.3871 42.84C34.9839 42.84 34.6563 43.1676 34.6563 43.5708C34.6563 43.974 34.9839 44.3016 35.3871 44.3016H49.1589C49.5621 44.3016 49.8897 43.974 49.8897 43.5708C49.8897 43.1676 49.5621 42.84 49.1589 42.84H35.3871Z" fill="#0F0F0F"/>
<path d="M55.251 4.80684H7.76159C6.68429 4.80684 5.80859 3.92484 5.80859 2.85384V2.78454C5.80859 1.70724 6.69059 0.831543 7.76159 0.831543H55.251C56.3283 0.831543 57.204 1.71354 57.204 2.78454V2.85384C57.204 3.92484 56.322 4.80684 55.251 4.80684Z" fill="#845A3D"/>
<path d="M55.2195 5.6385H7.7931C6.237 5.6385 4.9707 4.3722 4.9707 2.8161C4.9707 1.26 6.2433 0 7.7931 0H55.2132C56.7693 0 58.0356 1.2663 58.0356 2.8224C58.0356 4.3785 56.7693 5.6385 55.2195 5.6385ZM7.7931 1.6632C7.1568 1.6632 6.6402 2.1798 6.6402 2.8161C6.6402 3.4524 7.1568 3.969 7.7931 3.969H55.2132C55.8495 3.969 56.3661 3.4524 56.3661 2.8161C56.3661 2.1798 55.8495 1.6632 55.2132 1.6632H7.7931Z" fill="#141414"/>
</svg>
