<svg width="31" height="31" viewBox="0 0 31 31" fill="none" xmlns="http://www.w3.org/2000/svg">
<g clip-path="url(#clip0_26_9204)">
<path d="M21.8287 21.825C22.2231 21.4306 22.2231 20.7912 21.8287 20.3968L18.9722 17.5403C18.5778 17.1459 17.9384 17.1459 17.544 17.5403C17.1496 17.9347 17.1496 18.5741 17.544 18.9685L20.4005 21.825C20.7949 22.2194 21.4342 22.2194 21.8287 21.825Z" fill="#C9D0D7"/>
<path d="M20.4004 21.825L17.544 18.9685C17.1496 18.5741 17.1496 17.9347 17.544 17.5403L21.8287 21.8251C21.4342 22.2193 20.7948 22.2193 20.4004 21.825Z" fill="#B8C2C9"/>
<path d="M30.1126 30.1089C31.2958 28.9256 31.2958 27.0073 30.1126 25.8241L25.8278 21.5393L21.5431 25.8241L25.8278 30.1089C27.011 31.2921 28.9294 31.2921 30.1126 30.1089Z" fill="#6E6057"/>
<path d="M30.1125 30.1088C28.9293 31.2921 27.011 31.2919 25.8278 30.1088L21.543 25.824L23.6854 23.6816L30.1125 30.1088Z" fill="#615349"/>
<path d="M22.0668 26.3477L26.3516 22.063L23.257 18.9684C22.8626 18.574 22.2232 18.574 21.8288 18.9684L18.9723 21.8249C18.5779 22.2193 18.5779 22.8587 18.9723 23.2531L22.0668 26.3477Z" fill="#95673F"/>
<path d="M18.9722 21.825L20.4004 20.3967L24.2091 24.2054L22.0667 26.3478L18.9722 23.2533C18.5778 22.8587 18.5778 22.2193 18.9722 21.825Z" fill="#875334"/>
<path d="M11.1093 22.2222C17.2346 22.2222 22.2185 17.2386 22.2185 11.113C22.2185 4.98733 17.2347 0.00378418 11.1093 0.00378418C4.98387 0.00378418 2.54507e-05 4.98739 2.54507e-05 11.113C2.54507e-05 17.2387 4.98399 22.2222 11.1093 22.2222Z" fill="#95673F"/>
<path d="M3.26143 3.25781L18.9645 18.9607C16.9526 20.9745 14.1738 22.2222 11.1093 22.2222C4.98393 22.2222 2.26164e-05 17.2386 2.26164e-05 11.113C-3.79304e-05 8.04833 1.24765 5.26966 3.26143 3.25781Z" fill="#875334"/>
<path d="M11.1092 2.02356C16.1213 2.02356 20.1986 6.10114 20.1986 11.113C20.1986 16.1248 16.1214 20.2024 11.1092 20.2024C6.09703 20.2024 2.01987 16.1247 2.01987 11.113C2.01987 6.1012 6.09709 2.02356 11.1092 2.02356Z" fill="#F2F8FF"/>
<path d="M4.68896 4.68518L17.537 17.5333C15.8908 19.1813 13.6172 20.2023 11.1093 20.2023C6.09716 20.2023 2.01988 16.1248 2.01988 11.113C2.01988 8.6051 3.04088 6.33139 4.68896 4.68518Z" fill="#E8EDF2"/>
<path d="M6.05961 8.75647V15.1527C6.05961 15.7115 6.51075 16.1626 7.06953 16.1626H9.08937V12.7961C9.08937 11.6852 9.9983 10.7763 11.1092 10.7763C12.2201 10.7763 13.1291 11.6852 13.1291 12.7961V16.1626H15.1489C15.7077 16.1626 16.1588 15.7115 16.1588 15.1527V8.75647H6.05961Z" fill="#DBE9FD"/>
<path d="M11.1092 10.7762C12.2201 10.7762 13.129 11.6852 13.129 12.7961V16.1625H11.1092H9.08935V12.7961C9.08935 11.6852 9.99828 10.7762 11.1092 10.7762Z" fill="#95673F"/>
<path d="M10.3952 4.33935C10.5925 4.14209 10.8509 4.04346 11.1093 4.04346C11.3676 4.04346 11.6261 4.14209 11.8233 4.33935L16.1589 8.75642H11.1093H6.05961L10.3952 4.33935Z" fill="#FF6243"/>
<path d="M11.1093 8.75647H16.1589V15.1527C16.1589 15.7115 15.7079 16.1626 15.149 16.1626H13.1292V12.7961C13.1292 11.6852 12.2202 10.7763 11.1093 10.7763C9.99842 10.7763 9.0895 11.6852 9.0895 12.7961V16.1626H7.06966C6.51081 16.1626 6.05974 15.7115 6.05974 15.1527V8.75647H11.1093Z" fill="#DBE9FD"/>
<path d="M6.05959 8.75642L10.3952 4.33935C10.5925 4.14209 10.8509 4.04346 11.1093 4.04346V8.75648L6.05959 8.75642Z" fill="#FF3501"/>
<path d="M11.1092 10.7763C9.99828 10.7763 9.08935 11.6852 9.08935 12.7961V16.1626H7.06951C6.51067 16.1626 6.05959 15.7115 6.05959 15.1527V8.75647H11.1093V10.7763H11.1092Z" fill="#C5DCFD"/>
<path d="M9.08941 12.7962C9.08941 11.6853 9.99834 10.7764 11.1093 10.7764V16.1627H9.08941V12.7962Z" fill="#875334"/>
</g>
<defs>
<clipPath id="clip0_26_9204">
<rect width="31" height="31" fill="white" transform="matrix(-1 0 0 1 31 0)"/>
</clipPath>
</defs>
</svg>
