<svg width="65" height="218" viewBox="0 0 65 218" fill="none" xmlns="http://www.w3.org/2000/svg">
<path d="M12.0002 116.74C11.2555 129.007 7.64003 191.624 10.9579 200.37C10.9579 200.37 18.5895 202.712 25.1445 200.37L30.6726 121.018C30.0475 121.341 29.3864 121.59 28.7031 121.759C24.2948 121.762 16.0285 118.72 12.0002 116.74ZM52.3738 121.057C46.8364 121.839 41.2349 122.07 35.6519 121.745C34.8172 121.361 34.0522 120.841 33.3884 120.206L38.9715 200.358C45.5282 202.699 53.1598 200.358 53.1598 200.358C56.1853 192.386 53.4436 139.58 52.3738 121.057Z" fill="#59679C"/>
<path d="M33.2577 61.5624L38.8494 42.7198C35.548 43.9904 31.8892 43.9708 28.6016 42.6648C30.2425 48.1344 32.0399 55.9776 33.2577 61.5624Z" fill="#E59E70"/>
<path d="M37.47 78.0675C39.0306 76.9709 40.4469 75.6822 41.6857 74.2319C41.4737 71.816 40.9225 69.442 40.0482 67.1799C39.6217 66.1341 38.2956 65.5872 37.2292 65.207C34.1451 64.2283 30.8649 64.0379 27.6883 64.6532C22.5291 65.5215 17.6511 67.607 13.4588 70.7368C13.3771 70.7874 13.283 70.8142 13.187 70.8142C13.091 70.8142 12.9969 70.7874 12.9152 70.7368C10.7085 69.1613 6.53576 65.5768 7.67956 63.1035C7.84118 62.7204 8.1102 62.3924 8.45418 62.1589C8.79815 61.9254 9.20235 61.7965 9.61798 61.7877C8.6565 59.8768 10.1237 57.7422 12.7243 58.5661C12.6745 58.3081 12.6927 58.0416 12.7772 57.7928C12.8616 57.544 13.0094 57.3215 13.2059 57.1471C14.3514 56.0618 16.2211 56.9184 17.3442 57.615C20.4248 59.5224 21.5737 62.5462 23.0873 64.6549C26.1306 63.6507 29.3248 63.1811 32.5284 63.2669C31.4568 58.2445 28.3264 44.4329 26.5755 39.8749C23.7095 40.5309 20.9338 41.5324 18.3092 42.8574C19.7385 48.0363 25.9649 57.2039 29.1675 61.5004C29.5837 62.056 28.6515 62.5909 28.2387 62.0422C25.0343 57.7422 18.808 48.5213 17.3408 43.3837C14.1695 45.0874 11.3642 47.3982 9.0848 50.1846C1.98636 59.0821 3.02351 76.5797 12.1 82.2247C12.8533 82.1576 25.8273 86.3441 37.47 78.0675Z" fill="#E59E70"/>
<path d="M59.5943 50.016C59.5066 49.9277 59.4537 49.8106 59.4455 49.6864C59.4373 49.5622 59.4742 49.4392 59.5496 49.3401C56.979 45.9481 53.5358 43.3175 49.5874 41.7291C48.7274 46.9561 41.5274 57.4619 38.3558 61.7137C37.9464 62.2624 37.0124 61.7258 37.427 61.1702C40.3183 57.2933 47.9843 46.1804 48.5399 41.3059C46.0152 40.3517 43.3912 39.6848 40.7173 39.3176C40.7238 39.9158 40.6362 40.5114 40.4576 41.0823L33.8442 63.3632C36.0802 63.6057 39.7111 64.4761 40.8859 66.4059C43.2861 65.784 45.8216 65.9381 48.1288 66.8462C48.9898 59.1592 50.2575 51.5231 51.9266 43.9702C52.071 43.2925 53.1082 43.5815 52.9586 44.2557C51.2526 51.9946 49.9744 59.8216 49.1298 67.7011C49.0284 69.7238 49.0163 69.6619 48.7428 74.3936C48.7397 74.5352 48.682 74.6702 48.5816 74.7702C48.4813 74.8703 48.3461 74.9276 48.2045 74.9302H42.4889C39.312 78.548 35.217 81.2406 30.6364 82.7236C37.7005 86.6826 45.8144 88.3645 53.8701 87.5395C67.2552 85.8402 63.712 54.5155 59.5943 50.016Z" fill="#E59E70"/>
<path d="M33.7324 85.491C33.7324 93.1536 33.6326 110.293 33.0857 118.343C33.0392 119.031 31.9642 119.031 32.0107 118.343C32.5473 110.441 32.6608 89.103 32.6574 85.0094C31.4781 84.4758 30.3388 83.8579 29.2483 83.1604C24.1649 84.5007 18.8423 84.6608 13.6875 83.6282C13.0133 87.6874 8.67199 114.148 9.76935 115.383C10.9733 116.742 23.0615 121.769 28.7031 121.747C29.3864 121.578 30.0475 121.329 30.6725 121.006C31.4164 120.644 32.0606 120.106 32.549 119.439C33.4471 120.373 34.4931 121.153 35.645 121.747C36.7906 122.091 52.802 122.041 55.4508 120.06C57.919 118.207 54.264 92.5602 53.6844 88.6162C46.8766 89.2738 40.0131 88.1988 33.7324 85.491Z" fill="#E59E70"/>
<path d="M40.2684 1.328C40.2237 4.66996 37.8604 7.30672 35.0843 9.14368C37.2211 9.73988 39.1317 10.9597 40.5717 12.6473C42.0117 14.3348 42.9157 16.4134 43.1683 18.6174C43.2389 19.1524 43.2629 19.689 43.2973 20.2256C43.361 20.6711 43.3394 21.1247 43.2337 21.5621C44.2782 21.2552 45.2199 20.6709 45.9586 19.8713C46.6974 19.0717 47.2054 18.0867 47.4288 17.0213C47.9293 13.9958 47.2963 4.73532 40.2684 1.328Z" fill="#E59E70"/>
<path d="M39.1934 1.29013C39.1919 1.22181 39.2044 1.15391 39.2301 1.09061C39.2559 1.0273 39.2943 0.969939 39.343 0.92205C36.6745 -0.00616664 33.8107 -0.225461 31.032 0.285647C16.185 2.49757 17.1516 17.9105 21.9521 22.6852C21.8438 21.8063 22.045 19.5428 22.0914 18.2132C22.0656 16.6577 22.3711 15.1145 22.9875 13.6862C24.7075 10.1997 29.3017 8.35417 33.4692 8.83233C33.7083 8.71021 33.9405 8.57261 34.1693 8.43329C36.6788 6.89733 39.1641 4.42397 39.1934 1.29013Z" fill="#E59E70"/>
<path d="M39.1848 35.4304C35.5546 36.6152 31.644 36.6303 28.0048 35.4734C27.8082 36.8357 27.7925 38.2179 27.9583 39.5842C28.292 41.6362 29.1623 41.9802 31.0062 42.3362C33.2319 42.7662 37.009 42.706 38.8339 41.5106C39.0901 41.3159 39.2952 41.0619 39.4316 40.7704C39.5679 40.4788 39.6314 40.1586 39.6165 39.8371C39.6378 38.3567 39.493 36.8786 39.1848 35.4304ZM41.6822 21.5896C41.782 21.5174 42.0073 21.3419 42.1363 21.2456C42.1735 21.2151 42.206 21.1791 42.2326 21.139C42.2495 21.0529 42.2558 20.9651 42.2515 20.8775C42.286 18.7601 41.7773 16.6692 40.7741 14.8042C39.6746 12.8785 37.9649 11.3739 35.9151 10.5283C34.135 9.83496 32.1986 9.64474 30.3177 9.97845C28.4368 10.3122 26.6839 11.1569 25.2511 12.4203C23.3436 14.2762 23.2369 16.2232 23.1578 18.8204C23.0219 20.1445 23.0011 21.4779 23.0959 22.8056C23.1475 22.9966 23.1355 22.9776 23.6119 23.1496C29.4496 25.377 36.4431 25.42 41.6822 21.5896ZM19.8606 61.6037C19.3218 60.8121 18.6914 60.0869 17.9823 59.4434C17.0226 58.4854 15.7698 57.8762 14.4237 57.713C13.7013 57.7904 13.4863 58.5335 14.4082 59.3969C14.6593 59.5689 15.0394 59.8458 15.1856 59.9611C15.6861 60.3601 15.0446 61.0791 14.5337 60.8073C14.2925 60.6757 14.066 60.5189 13.8578 60.3395C12.7037 59.6033 10.9923 58.9067 10.4608 60.1675C10.1478 60.9122 10.7463 61.7 11.2778 62.2487C11.9447 62.629 12.5449 63.1159 13.0545 63.69C13.4484 64.1338 12.941 64.8682 12.4009 64.5363C11.789 64.1541 11.2208 63.706 10.7067 63.1998C10.5967 63.0915 10.6259 63.0829 10.3077 62.9573C10.1139 62.8562 9.89667 62.8086 9.67836 62.8195C9.46006 62.8304 9.24862 62.8993 9.06587 63.0192C7.13431 64.5208 11.2503 68.1792 13.2025 69.612C15.9177 67.6751 18.8884 66.1238 22.0295 65.0024C21.7853 64.6102 20.3439 62.3416 19.8606 61.6037ZM41.2832 67.4173C42.0275 69.4961 42.5116 71.6591 42.7245 73.857H47.7022L48.0462 68.009C45.9249 67.0477 43.5392 66.839 41.2832 67.4173Z" fill="#FCAFB7"/>
<path d="M26.3484 19.8593C26.1832 19.8596 26.0217 19.9089 25.8845 20.001C25.7472 20.093 25.6404 20.2237 25.5774 20.3765C25.5144 20.5293 25.4981 20.6973 25.5305 20.8593C25.5629 21.0214 25.6427 21.1701 25.7597 21.2869C25.8767 21.4036 26.0256 21.4831 26.1877 21.5152C26.3498 21.5473 26.5178 21.5306 26.6704 21.4673C26.8231 21.404 26.9535 21.2968 27.0453 21.1594C27.1371 21.022 27.1861 20.8604 27.1861 20.6952C27.1856 20.4733 27.0971 20.2607 26.9401 20.104C26.7831 19.9473 26.5703 19.8593 26.3484 19.8593ZM37.8913 19.6907C37.7256 19.6904 37.5635 19.7392 37.4255 19.831C37.2875 19.9229 37.1799 20.0536 37.1162 20.2066C37.0526 20.3596 37.0358 20.5281 37.0679 20.6907C37.1 20.8533 37.1797 21.0027 37.2967 21.12C37.4138 21.2374 37.563 21.3173 37.7256 21.3498C37.8881 21.3822 38.0566 21.3657 38.2098 21.3024C38.3629 21.239 38.4939 21.1317 38.586 20.9939C38.6781 20.8561 38.7273 20.6941 38.7273 20.5283C38.7275 20.4184 38.706 20.3095 38.6641 20.2079C38.6222 20.1063 38.5607 20.014 38.483 19.9362C38.4054 19.8583 38.3132 19.7966 38.2116 19.7545C38.1101 19.7124 38.0013 19.6907 37.8913 19.6907ZM37.1535 16.808C38.0135 16.5035 38.5484 16.7856 38.7892 17.3463C38.8637 17.4646 38.9812 17.5492 39.1169 17.5824C39.2527 17.6155 39.396 17.5946 39.5166 17.524C39.6372 17.4535 39.7256 17.3388 39.7632 17.2042C39.8008 17.0696 39.7846 16.9257 39.718 16.8028C38.9939 15.0828 36.1696 15.444 36.493 16.433C36.5323 16.5694 36.6235 16.6849 36.7469 16.755C36.8703 16.8251 37.0162 16.8441 37.1535 16.808ZM27.5559 16.1578C27.2706 16.0953 26.9757 16.0904 26.6885 16.1435C26.4013 16.1965 26.1276 16.3063 25.8835 16.4665C25.6393 16.6267 25.4296 16.8341 25.2667 17.0764C25.1037 17.3188 24.9908 17.5913 24.9346 17.8778C24.9128 18.009 24.9403 18.1436 25.0119 18.2558C25.0834 18.3679 25.1939 18.4495 25.3221 18.485C25.4503 18.5204 25.5871 18.5072 25.7061 18.4478C25.8251 18.3884 25.9179 18.2871 25.9666 18.1633C26.0106 17.8669 26.1686 17.5994 26.4071 17.4179C26.6455 17.2363 26.9454 17.1551 27.2428 17.1915C27.3111 17.2135 27.3831 17.2215 27.4545 17.2152C27.5259 17.209 27.5954 17.1885 27.6588 17.155C27.7222 17.1215 27.7782 17.0757 27.8237 17.0202C27.8691 16.9648 27.9031 16.9008 27.9235 16.8321C27.9438 16.7633 27.9503 16.6912 27.9425 16.6199C27.9346 16.5487 27.9126 16.4797 27.8777 16.417C27.8428 16.3544 27.7958 16.2993 27.7393 16.2551C27.6829 16.2109 27.625 16.1767 27.5559 16.1578Z" fill="black"/>
<path d="M60.3546 49.2558C59.885 48.7398 59.1265 49.5069 59.5943 50.016C63.8943 54.7408 67.0798 85.8556 53.8753 87.5464C45.8196 88.3716 37.7055 86.6897 30.6416 82.7304C35.2229 81.2491 39.3184 78.5562 42.4941 74.9371H48.2096C48.3513 74.9344 48.4864 74.8771 48.5868 74.7771C48.6871 74.6771 48.7449 74.5421 48.748 74.4004C49.1935 66.6828 49.1986 61.9786 52.9637 44.2626C53.1082 43.5884 52.071 43.2994 51.9317 43.9771C50.2638 51.5302 48.9961 59.1662 48.1339 66.8531C45.8269 65.9441 43.2912 65.79 40.891 66.4128C39.7197 64.4846 36.0905 63.6126 33.8494 63.3701C41.0063 39.2608 40.7139 40.8381 40.7294 39.3245C40.7054 38.3261 40.6112 37.3306 40.4473 36.3454C41.9223 36.3568 43.3806 36.6594 44.7383 37.2358C46.0961 37.8123 47.3266 38.6513 48.3593 39.7046C50.394 42.9898 39.7696 58.0518 37.439 61.1771C37.0245 61.7326 37.955 62.271 38.3678 61.7206C41.5463 57.4584 48.7256 46.9716 49.5994 41.7359C49.731 41.2285 49.7445 40.6977 49.639 40.1843C49.5334 39.6708 49.3116 39.1884 48.9905 38.7741C46.6481 36.5092 43.5147 35.2473 40.2564 35.2567C40.2392 35.1672 40.2254 35.0744 40.2065 34.9849C41.6479 34.2852 42.961 33.3473 44.0902 32.2106C45.5368 30.7228 45.5161 29.923 45.3252 29.0406C44.7748 26.5191 43.9922 24.032 43.244 21.562C43.3499 21.1246 43.3715 20.6711 43.3076 20.2256C43.2732 19.689 43.2509 19.1523 43.1786 18.6174C42.926 16.4134 42.0219 14.3348 40.5819 12.6472C39.1419 10.9597 37.2315 9.73984 35.0946 9.14364C37.9688 7.24132 40.2099 4.72668 40.2787 1.297C40.2709 1.1597 40.2109 1.03059 40.111 0.936138C40.011 0.841686 39.8787 0.789062 39.7412 0.789062C39.6037 0.789062 39.4714 0.841686 39.3714 0.936138C39.2715 1.03059 39.2115 1.1597 39.2037 1.297C39.1779 4.43084 36.6908 6.9042 34.1796 8.44532C33.9519 8.58801 33.7183 8.72114 33.4796 8.84437C30.522 8.48512 27.5404 9.28663 25.1616 11.0804C22.733 12.9896 22.2067 15.2324 22.1017 18.2235C21.9274 19.8416 21.9055 21.4724 22.0364 23.0946C21.1427 25.3363 20.8815 27.7804 21.2813 30.1603C21.8678 32.945 24.2707 34.2986 26.9676 35.1741C26.9487 35.3152 26.9263 35.4562 26.9109 35.5972C24.026 35.5104 21.1923 36.372 18.8441 38.05C17.1241 39.3331 16.4361 40.3255 17.3511 43.394C18.9799 48.7914 24.9982 57.6941 28.249 62.0526C28.6584 62.6012 29.5924 62.0663 29.1778 61.5108C26.3416 57.7061 18.0959 45.8588 18.0305 41.1374C17.9962 40.7144 18.1007 40.2917 18.3281 39.9334C20.6262 37.7883 23.666 36.6169 26.8094 36.6654C26.7836 37.0524 26.775 37.4394 26.7733 37.8229C26.6861 37.723 26.5653 37.6588 26.4337 37.6425C26.3022 37.6262 26.1693 37.659 26.0604 37.7347C25.9516 37.8103 25.8744 37.9234 25.8438 38.0524C25.8131 38.1813 25.8312 38.317 25.8944 38.4335C27.8259 41.6465 31.7664 59.6824 32.5387 63.272C29.3352 63.1865 26.141 63.6561 23.0976 64.6601C21.2314 61.9408 20.27 59.4261 17.3546 57.6201C16.2314 56.9235 14.3618 56.0721 13.2162 57.1523C13.0194 57.3265 12.8715 57.549 12.787 57.7978C12.7026 58.0467 12.6845 58.3133 12.7346 58.5713C10.1546 57.756 8.64964 59.8561 9.62832 61.7928C9.21268 61.8016 8.80848 61.9306 8.46451 62.1641C8.12054 62.3975 7.85149 62.7256 7.68987 63.1086C6.54435 65.5768 10.7566 69.1923 12.9256 70.742C13.0072 70.7926 13.1013 70.8194 13.1973 70.8194C13.2933 70.8194 13.3874 70.7926 13.4691 70.742C17.6611 67.6117 22.5392 65.5261 27.6986 64.6584C30.8752 64.0431 34.1554 64.2335 37.2395 65.2122C38.3565 65.4844 39.3426 66.14 40.0259 67.0646C40.899 69.3717 41.4607 71.7849 41.696 74.2405C38.4026 77.9612 34.1141 80.6628 29.3361 82.0269C23.7718 83.6125 17.8859 83.689 12.2823 82.2488C11.6132 82.1009 11.3173 83.1329 11.9967 83.2808C17.6719 84.6709 23.6035 84.6295 29.2587 83.1604C30.3491 83.8579 31.4884 84.4758 32.6677 85.0094C32.6677 90.7112 32.5594 110.395 32.021 118.343C31.9746 119.031 33.053 119.031 33.096 118.343C33.6447 110.302 33.7427 93.1261 33.7427 85.491C39.324 87.8882 45.3679 89.0161 51.4381 88.7934C53.8459 88.9003 56.226 88.2442 58.2389 86.9186C67.6955 79.8133 64.4636 53.7329 60.3546 49.2558ZM13.2025 69.612C11.2434 68.1689 7.13432 64.5242 9.06588 63.0192C9.24884 62.8998 9.46023 62.8312 9.67843 62.8203C9.89663 62.8094 10.1138 62.8567 10.3077 62.9573C10.6259 63.0828 10.5984 63.0914 10.7067 63.1998C11.2209 63.7059 11.789 64.1541 12.4009 64.5362C12.941 64.8682 13.4484 64.1338 13.0546 63.69C12.5449 63.1158 11.9447 62.629 11.2778 62.2486C10.7463 61.7 10.1478 60.9122 10.4608 60.1674C10.994 58.9101 12.6968 59.6033 13.8578 60.3394C14.0657 60.5192 14.2923 60.6761 14.5337 60.8073C15.0497 61.079 15.6862 60.3601 15.1856 59.961C14.9329 59.7643 14.6736 59.5762 14.4082 59.3969C13.4794 58.5231 13.7099 57.7904 14.4237 57.713C15.7698 57.8765 17.0225 58.4855 17.9824 59.4433C18.5432 59.9642 19.0641 60.5265 19.5407 61.1255C19.5407 61.1255 21.7767 64.6102 22.0295 65.0006C18.8883 66.1226 15.9177 67.6745 13.2025 69.612ZM25.2425 23.7034C24.5864 23.5117 23.9395 23.2896 23.304 23.0378C23.1544 22.9776 23.132 22.9931 23.0839 22.8056C22.9885 21.4779 23.0092 20.1444 23.1458 18.8204C23.105 17.4225 23.2962 16.0276 23.7117 14.6924C25.8032 9.15225 36.4294 7.2654 40.7706 14.8007C41.7426 16.5885 42.2467 18.5931 42.2361 20.6281C42.2361 20.9566 42.3031 21.12 42.1329 21.2421C37.1277 25.0519 31.0991 25.42 25.2425 23.7034ZM37.0503 27.0248C36.8024 28.039 36.3596 28.9953 35.7465 29.8404C35.5388 30.1355 35.248 30.3621 34.911 30.4914C34.5741 30.6206 34.2063 30.6467 33.8545 30.5662C33.0852 30.4657 32.3444 30.21 31.6768 29.8147C31.0092 29.4194 30.4288 28.8928 29.9707 28.2666C32.4024 28.571 34.8678 28.1394 37.0503 27.0248ZM27.9498 39.5808C27.7839 38.2144 27.7995 36.8322 27.9962 35.47C31.6354 36.6268 35.546 36.6118 39.1762 35.427C39.5603 37.067 39.6764 38.7584 39.5202 40.4356C39.4815 40.6519 39.3997 40.8582 39.2797 41.0422C39.1598 41.2263 39.0041 41.3844 38.8219 41.5072C36.9815 42.7112 33.1906 42.7559 30.9942 42.3328C29.14 41.9767 28.2852 41.6276 27.9498 39.5808ZM28.5982 42.6613C31.8859 43.9666 35.5445 43.9862 38.846 42.7163C38.846 42.7163 33.3419 61.2768 33.2542 61.5589C32.0347 55.9603 30.2546 48.179 28.5982 42.6613ZM41.2798 67.4138C43.5341 66.8353 45.9183 67.0421 48.0394 68.0003L47.6954 73.8483H42.728C42.5125 71.6534 42.0238 69.49 41.2798 67.4138ZM11.4601 204.897C3.2626 207.054 0.586273 217.761 0.586273 217.761C0.586273 217.761 18.9903 216.423 22.334 213.077C25.6776 209.732 19.6576 202.74 11.4601 204.897ZM51.5464 204.897C43.3489 202.74 37.3272 209.73 40.6726 213.077C44.018 216.424 62.422 217.761 62.422 217.761C62.422 217.761 59.7457 207.054 51.5464 204.897Z" fill="black"/>
</svg>
